%TF.GenerationSoftware,KiCad,Pcbnew,(6.0.1)*%
%TF.CreationDate,2022-05-18T16:29:04+06:30*%
%TF.ProjectId,STM32_USB_Buck,53544d33-325f-4555-9342-5f4275636b2e,v1.0*%
%TF.SameCoordinates,Original*%
%TF.FileFunction,Paste,Top*%
%TF.FilePolarity,Positive*%
%FSLAX46Y46*%
G04 Gerber Fmt 4.6, Leading zero omitted, Abs format (unit mm)*
G04 Created by KiCad (PCBNEW (6.0.1)) date 2022-05-18 16:29:04*
%MOMM*%
%LPD*%
G01*
G04 APERTURE LIST*
G04 Aperture macros list*
%AMRoundRect*
0 Rectangle with rounded corners*
0 $1 Rounding radius*
0 $2 $3 $4 $5 $6 $7 $8 $9 X,Y pos of 4 corners*
0 Add a 4 corners polygon primitive as box body*
4,1,4,$2,$3,$4,$5,$6,$7,$8,$9,$2,$3,0*
0 Add four circle primitives for the rounded corners*
1,1,$1+$1,$2,$3*
1,1,$1+$1,$4,$5*
1,1,$1+$1,$6,$7*
1,1,$1+$1,$8,$9*
0 Add four rect primitives between the rounded corners*
20,1,$1+$1,$2,$3,$4,$5,0*
20,1,$1+$1,$4,$5,$6,$7,0*
20,1,$1+$1,$6,$7,$8,$9,0*
20,1,$1+$1,$8,$9,$2,$3,0*%
G04 Aperture macros list end*
%ADD10RoundRect,0.200000X-0.200000X-0.275000X0.200000X-0.275000X0.200000X0.275000X-0.200000X0.275000X0*%
%ADD11RoundRect,0.218750X-0.256250X0.218750X-0.256250X-0.218750X0.256250X-0.218750X0.256250X0.218750X0*%
%ADD12R,1.200000X0.900000*%
%ADD13RoundRect,0.225000X0.250000X-0.225000X0.250000X0.225000X-0.250000X0.225000X-0.250000X-0.225000X0*%
%ADD14RoundRect,0.218750X0.256250X-0.218750X0.256250X0.218750X-0.256250X0.218750X-0.256250X-0.218750X0*%
%ADD15RoundRect,0.135000X0.135000X0.185000X-0.135000X0.185000X-0.135000X-0.185000X0.135000X-0.185000X0*%
%ADD16RoundRect,0.140000X0.170000X-0.140000X0.170000X0.140000X-0.170000X0.140000X-0.170000X-0.140000X0*%
%ADD17RoundRect,0.250000X-0.325000X-0.650000X0.325000X-0.650000X0.325000X0.650000X-0.325000X0.650000X0*%
%ADD18RoundRect,0.150000X-0.150000X0.587500X-0.150000X-0.587500X0.150000X-0.587500X0.150000X0.587500X0*%
%ADD19R,1.000000X0.800000*%
%ADD20R,0.700000X1.500000*%
%ADD21RoundRect,0.218750X-0.381250X0.218750X-0.381250X-0.218750X0.381250X-0.218750X0.381250X0.218750X0*%
%ADD22R,0.900000X1.200000*%
%ADD23RoundRect,0.225000X0.225000X0.250000X-0.225000X0.250000X-0.225000X-0.250000X0.225000X-0.250000X0*%
%ADD24RoundRect,0.250000X0.650000X-0.325000X0.650000X0.325000X-0.650000X0.325000X-0.650000X-0.325000X0*%
%ADD25RoundRect,0.140000X0.140000X0.170000X-0.140000X0.170000X-0.140000X-0.170000X0.140000X-0.170000X0*%
%ADD26RoundRect,0.150000X0.150000X-0.512500X0.150000X0.512500X-0.150000X0.512500X-0.150000X-0.512500X0*%
%ADD27R,1.200000X1.400000*%
%ADD28RoundRect,0.200000X0.275000X-0.200000X0.275000X0.200000X-0.275000X0.200000X-0.275000X-0.200000X0*%
%ADD29RoundRect,0.075000X-0.700000X-0.075000X0.700000X-0.075000X0.700000X0.075000X-0.700000X0.075000X0*%
%ADD30RoundRect,0.075000X-0.075000X-0.700000X0.075000X-0.700000X0.075000X0.700000X-0.075000X0.700000X0*%
%ADD31RoundRect,0.135000X-0.185000X0.135000X-0.185000X-0.135000X0.185000X-0.135000X0.185000X0.135000X0*%
%ADD32RoundRect,0.150000X0.512500X0.150000X-0.512500X0.150000X-0.512500X-0.150000X0.512500X-0.150000X0*%
%ADD33R,2.500000X1.900000*%
%ADD34RoundRect,0.250000X-0.650000X0.325000X-0.650000X-0.325000X0.650000X-0.325000X0.650000X0.325000X0*%
%ADD35RoundRect,0.140000X-0.140000X-0.170000X0.140000X-0.170000X0.140000X0.170000X-0.140000X0.170000X0*%
%ADD36RoundRect,0.079500X0.079500X0.100500X-0.079500X0.100500X-0.079500X-0.100500X0.079500X-0.100500X0*%
%ADD37RoundRect,0.147500X0.172500X-0.147500X0.172500X0.147500X-0.172500X0.147500X-0.172500X-0.147500X0*%
%ADD38RoundRect,0.225000X-0.225000X-0.250000X0.225000X-0.250000X0.225000X0.250000X-0.225000X0.250000X0*%
%ADD39RoundRect,0.079500X-0.079500X-0.100500X0.079500X-0.100500X0.079500X0.100500X-0.079500X0.100500X0*%
%ADD40R,0.740000X2.400000*%
%ADD41RoundRect,0.140000X-0.170000X0.140000X-0.170000X-0.140000X0.170000X-0.140000X0.170000X0.140000X0*%
%ADD42R,1.300000X0.450000*%
%ADD43RoundRect,0.250000X0.625000X-0.375000X0.625000X0.375000X-0.625000X0.375000X-0.625000X-0.375000X0*%
G04 APERTURE END LIST*
D10*
%TO.C,R10*%
X158991800Y-117094000D03*
X160641800Y-117094000D03*
%TD*%
D11*
%TO.C,D4*%
X146800000Y-107812500D03*
X146800000Y-109387500D03*
%TD*%
D12*
%TO.C,D2*%
X160045400Y-106145600D03*
X160045400Y-102845600D03*
%TD*%
D13*
%TO.C,C8*%
X144396200Y-100288800D03*
X144396200Y-98738800D03*
%TD*%
D14*
%TO.C,D1*%
X130146800Y-111807500D03*
X130146800Y-110232500D03*
%TD*%
D15*
%TO.C,R14*%
X145435000Y-94325000D03*
X144415000Y-94325000D03*
%TD*%
D16*
%TO.C,C11*%
X128216400Y-106369200D03*
X128216400Y-105409200D03*
%TD*%
D10*
%TO.C,R7*%
X156020000Y-107238800D03*
X157670000Y-107238800D03*
%TD*%
D17*
%TO.C,C13*%
X155395400Y-109905800D03*
X158345400Y-109905800D03*
%TD*%
D18*
%TO.C,Q1*%
X160030200Y-113032300D03*
X158130200Y-113032300D03*
X159080200Y-114907300D03*
%TD*%
D19*
%TO.C,SW1*%
X138150000Y-90780000D03*
X130850000Y-88570000D03*
X138150000Y-88570000D03*
X130850000Y-90780000D03*
D20*
X136750000Y-91430000D03*
X133750000Y-91430000D03*
X132250000Y-91430000D03*
%TD*%
D10*
%TO.C,R9*%
X155943800Y-117119400D03*
X157593800Y-117119400D03*
%TD*%
D21*
%TO.C,FB1*%
X152857200Y-102899700D03*
X152857200Y-105024700D03*
%TD*%
D22*
%TO.C,D3*%
X153161000Y-109905800D03*
X149861000Y-109905800D03*
%TD*%
D13*
%TO.C,C14*%
X152925000Y-114450000D03*
X152925000Y-112900000D03*
%TD*%
D23*
%TO.C,C1*%
X127721400Y-99132800D03*
X126171400Y-99132800D03*
%TD*%
D15*
%TO.C,R15*%
X149110000Y-98300000D03*
X148090000Y-98300000D03*
%TD*%
D24*
%TO.C,C16*%
X141885400Y-116765600D03*
X141885400Y-113815600D03*
%TD*%
D25*
%TO.C,C6*%
X131846000Y-97456400D03*
X130886000Y-97456400D03*
%TD*%
D26*
%TO.C,U2*%
X154548800Y-115183500D03*
X155498800Y-115183500D03*
X156448800Y-115183500D03*
X156448800Y-112908500D03*
X155498800Y-112908500D03*
X154548800Y-112908500D03*
%TD*%
D27*
%TO.C,Y1*%
X124978800Y-102300000D03*
X124978800Y-104500000D03*
X126678800Y-104500000D03*
X126678800Y-102300000D03*
%TD*%
D28*
%TO.C,R5*%
X128267200Y-111845000D03*
X128267200Y-110195000D03*
%TD*%
D10*
%TO.C,R6*%
X152845000Y-107162600D03*
X154495000Y-107162600D03*
%TD*%
D15*
%TO.C,R1*%
X134035000Y-95805400D03*
X133015000Y-95805400D03*
%TD*%
D29*
%TO.C,U1*%
X131025000Y-99650000D03*
X131025000Y-100150000D03*
X131025000Y-100650000D03*
X131025000Y-101150000D03*
X131025000Y-101650000D03*
X131025000Y-102150000D03*
X131025000Y-102650000D03*
X131025000Y-103150000D03*
X131025000Y-103650000D03*
X131025000Y-104150000D03*
X131025000Y-104650000D03*
X131025000Y-105150000D03*
X131025000Y-105650000D03*
X131025000Y-106150000D03*
X131025000Y-106650000D03*
X131025000Y-107150000D03*
D30*
X132950000Y-109075000D03*
X133450000Y-109075000D03*
X133950000Y-109075000D03*
X134450000Y-109075000D03*
X134950000Y-109075000D03*
X135450000Y-109075000D03*
X135950000Y-109075000D03*
X136450000Y-109075000D03*
X136950000Y-109075000D03*
X137450000Y-109075000D03*
X137950000Y-109075000D03*
X138450000Y-109075000D03*
X138950000Y-109075000D03*
X139450000Y-109075000D03*
X139950000Y-109075000D03*
X140450000Y-109075000D03*
D29*
X142375000Y-107150000D03*
X142375000Y-106650000D03*
X142375000Y-106150000D03*
X142375000Y-105650000D03*
X142375000Y-105150000D03*
X142375000Y-104650000D03*
X142375000Y-104150000D03*
X142375000Y-103650000D03*
X142375000Y-103150000D03*
X142375000Y-102650000D03*
X142375000Y-102150000D03*
X142375000Y-101650000D03*
X142375000Y-101150000D03*
X142375000Y-100650000D03*
X142375000Y-100150000D03*
X142375000Y-99650000D03*
D30*
X140450000Y-97725000D03*
X139950000Y-97725000D03*
X139450000Y-97725000D03*
X138950000Y-97725000D03*
X138450000Y-97725000D03*
X137950000Y-97725000D03*
X137450000Y-97725000D03*
X136950000Y-97725000D03*
X136450000Y-97725000D03*
X135950000Y-97725000D03*
X135450000Y-97725000D03*
X134950000Y-97725000D03*
X134450000Y-97725000D03*
X133950000Y-97725000D03*
X133450000Y-97725000D03*
X132950000Y-97725000D03*
%TD*%
D31*
%TO.C,R2*%
X128216400Y-103093200D03*
X128216400Y-104113200D03*
%TD*%
D32*
%TO.C,U3*%
X160637500Y-100100000D03*
X160637500Y-99150000D03*
X160637500Y-98200000D03*
X158362500Y-98200000D03*
X158362500Y-99150000D03*
X158362500Y-100100000D03*
%TD*%
D33*
%TO.C,L2*%
X149072600Y-112478600D03*
X149072600Y-116578600D03*
%TD*%
D25*
%TO.C,C10*%
X126664400Y-106041600D03*
X125704400Y-106041600D03*
%TD*%
D34*
%TO.C,C15*%
X144400000Y-113815600D03*
X144400000Y-116765600D03*
%TD*%
D35*
%TO.C,C4*%
X141554000Y-109343600D03*
X142514000Y-109343600D03*
%TD*%
D16*
%TO.C,C3*%
X129283200Y-99691600D03*
X129283200Y-98731600D03*
%TD*%
D36*
%TO.C,R3*%
X144529800Y-87608400D03*
X145219800Y-87608400D03*
%TD*%
D37*
%TO.C,L1*%
X128216400Y-108558600D03*
X128216400Y-107588600D03*
%TD*%
D25*
%TO.C,C9*%
X125830000Y-100650000D03*
X124870000Y-100650000D03*
%TD*%
D15*
%TO.C,R13*%
X145435000Y-95475000D03*
X144415000Y-95475000D03*
%TD*%
%TO.C,R12*%
X145410000Y-96575000D03*
X144390000Y-96575000D03*
%TD*%
D38*
%TO.C,C7*%
X140475000Y-111121600D03*
X142025000Y-111121600D03*
%TD*%
D39*
%TO.C,R4*%
X142650200Y-87615600D03*
X143340200Y-87615600D03*
%TD*%
D25*
%TO.C,C2*%
X134180000Y-110800000D03*
X133220000Y-110800000D03*
%TD*%
D10*
%TO.C,R8*%
X152718000Y-117144800D03*
X154368000Y-117144800D03*
%TD*%
D40*
%TO.C,J1*%
X151160000Y-93350000D03*
X151160000Y-89450000D03*
X152430000Y-93350000D03*
X152430000Y-89450000D03*
X153700000Y-93350000D03*
X153700000Y-89450000D03*
X154970000Y-93350000D03*
X154970000Y-89450000D03*
X156240000Y-93350000D03*
X156240000Y-89450000D03*
%TD*%
D16*
%TO.C,C5*%
X142821400Y-98596800D03*
X142821400Y-97636800D03*
%TD*%
D41*
%TO.C,C12*%
X129283200Y-105663200D03*
X129283200Y-106623200D03*
%TD*%
D10*
%TO.C,R11*%
X146775000Y-105700000D03*
X148425000Y-105700000D03*
%TD*%
D42*
%TO.C,J4*%
X164450000Y-100100000D03*
X164450000Y-99450000D03*
X164450000Y-98800000D03*
X164450000Y-98150000D03*
X164450000Y-97500000D03*
%TD*%
D43*
%TO.C,F1*%
X156235400Y-104879600D03*
X156235400Y-102079600D03*
%TD*%
M02*
