M48
; DRILL file {KiCad (6.0.1)} date Wed May 18 16:28:54 2022
; FORMAT={-:-/ absolute / inch / decimal}
; #@! TF.CreationDate,2022-05-18T16:28:54+06:30
; #@! TF.GenerationSoftware,Kicad,Pcbnew,(6.0.1)
; #@! TF.FileFunction,Plated,1,4,PTH
FMAT,2
INCH
; #@! TA.AperFunction,Plated,PTH,ViaDrill
T1C0.0157
; #@! TA.AperFunction,Plated,PTH,ComponentDrill
T2C0.0197
; #@! TA.AperFunction,Plated,PTH,ComponentDrill
T3C0.0217
; #@! TA.AperFunction,Plated,PTH,ComponentDrill
T4C0.0236
; #@! TA.AperFunction,Plated,PTH,ComponentDrill
T5C0.0335
; #@! TA.AperFunction,Plated,PTH,ComponentDrill
T6C0.0472
; #@! TA.AperFunction,Plated,PTH,ComponentDrill
T7C0.1693
%
G90
G05
T1
X4.9193Y-4.185
X4.9478Y-4.2067
X4.9675Y-3.8661
X5.0128Y-4.2618
X5.0138Y-4.2953
X5.0295Y-3.8602
X5.0295Y-3.9941
X5.0295Y-4.0266
X5.0778Y-4.124
X5.0896Y-4.2431
X5.0906Y-3.9567
X5.123Y-3.8888
X5.1516Y-3.8701
X5.1919Y-3.8031
X5.2106Y-4.1417
X5.253Y-4.2431
X5.2539Y-3.9193
X5.312Y-4.3632
X5.3839Y-3.6506
X5.4921Y-3.9902
X5.5305Y-4.4813
X5.5591Y-4.5276
X5.57Y-4.3356
X5.58Y-4.64
X5.5817Y-4.44
X5.5866Y-3.8898
X5.6024Y-3.4774
X5.62Y-4.64
X5.6437Y-4.3051
X5.6683Y-4.6407
X5.685Y-3.8514
X5.6949Y-4.5531
X5.7047Y-4.6417
X5.7234Y-3.8888
X5.7411Y-3.5827
X5.7411Y-4.3091
X5.753Y-3.4498
X5.7677Y-3.9213
X5.7795Y-4.3435
X5.8396Y-4.5325
X5.8396Y-4.6496
X5.8445Y-4.124
X5.877Y-3.6063
X5.878Y-4.5315
X5.8789Y-4.6496
X5.8799Y-4.1614
X5.9518Y-3.748
X5.9872Y-3.5945
X5.9931Y-4.6496
X6.003Y-3.748
X6.0276Y-4.6506
X6.0551Y-3.749
X6.1506Y-3.748
X6.2067Y-4.3799
X6.2116Y-4.1831
X6.2205Y-4.5039
X6.2441Y-4.2047
X6.2677Y-4.4518
X6.2766Y-3.8238
X6.3248Y-4.6516
X6.3258Y-4.5689
X6.3317Y-4.4163
X6.3327Y-4.4508
X6.3632Y-4.6112
X6.4252Y-3.8406
X6.5305Y-3.8406
T2
X5.249Y-4.7697
X5.2982Y-4.7697
X5.3474Y-4.7697
X5.3967Y-4.7697
X5.5925Y-3.5354
X5.6417Y-3.5354
X5.6909Y-3.5354
X5.7402Y-3.5354
T4
X4.783Y-3.482
X4.783Y-4.84
X4.8202Y-3.3922
X4.8202Y-3.5718
X4.8202Y-4.7502
X4.8202Y-4.9298
X4.91Y-3.355
X4.91Y-3.609
X4.91Y-4.713
X4.91Y-4.967
X4.9998Y-3.3922
X4.9998Y-3.5718
X4.9998Y-4.7502
X4.9998Y-4.9298
X5.037Y-3.482
X5.037Y-4.84
X6.332Y-3.482
X6.332Y-4.84
X6.3692Y-3.3922
X6.3692Y-3.5718
X6.3692Y-4.7502
X6.3692Y-4.9298
X6.459Y-3.355
X6.459Y-3.609
X6.459Y-4.713
X6.459Y-4.967
X6.5488Y-3.3922
X6.5488Y-3.5718
X6.5488Y-4.7502
X6.5488Y-4.9298
X6.586Y-3.482
X6.586Y-4.84
T6
X6.4974Y-4.2701
X6.4974Y-4.4079
T7
X4.91Y-3.482
X4.91Y-4.84
X6.459Y-3.482
X6.459Y-4.84
T3
G00X6.6132Y-3.7372
M15
G01X6.6388Y-3.7372
M16
G05
G00X6.6132Y-4.0423
M15
G01X6.6388Y-4.0423
M16
G05
T5
G00X6.4656Y-3.7431
M15
G01X6.4872Y-3.7431
M16
G05
G00X6.4656Y-4.0364
M15
G01X6.4872Y-4.0364
M16
G05
T0
M30
