%TF.GenerationSoftware,KiCad,Pcbnew,(6.0.1)*%
%TF.CreationDate,2022-05-18T16:29:04+06:30*%
%TF.ProjectId,STM32_USB_Buck,53544d33-325f-4555-9342-5f4275636b2e,v1.0*%
%TF.SameCoordinates,Original*%
%TF.FileFunction,Copper,L2,Inr*%
%TF.FilePolarity,Positive*%
%FSLAX46Y46*%
G04 Gerber Fmt 4.6, Leading zero omitted, Abs format (unit mm)*
G04 Created by KiCad (PCBNEW (6.0.1)) date 2022-05-18 16:29:04*
%MOMM*%
%LPD*%
G01*
G04 APERTURE LIST*
G04 Aperture macros list*
%AMRoundRect*
0 Rectangle with rounded corners*
0 $1 Rounding radius*
0 $2 $3 $4 $5 $6 $7 $8 $9 X,Y pos of 4 corners*
0 Add a 4 corners polygon primitive as box body*
4,1,4,$2,$3,$4,$5,$6,$7,$8,$9,$2,$3,0*
0 Add four circle primitives for the rounded corners*
1,1,$1+$1,$2,$3*
1,1,$1+$1,$4,$5*
1,1,$1+$1,$6,$7*
1,1,$1+$1,$8,$9*
0 Add four rect primitives between the rounded corners*
20,1,$1+$1,$2,$3,$4,$5,0*
20,1,$1+$1,$4,$5,$6,$7,0*
20,1,$1+$1,$6,$7,$8,$9,0*
20,1,$1+$1,$8,$9,$2,$3,0*%
G04 Aperture macros list end*
%TA.AperFunction,ComponentPad*%
%ADD10C,0.900000*%
%TD*%
%TA.AperFunction,ComponentPad*%
%ADD11C,8.600000*%
%TD*%
%TA.AperFunction,ComponentPad*%
%ADD12RoundRect,0.200000X-0.200000X-0.450000X0.200000X-0.450000X0.200000X0.450000X-0.200000X0.450000X0*%
%TD*%
%TA.AperFunction,ComponentPad*%
%ADD13O,0.800000X1.300000*%
%TD*%
%TA.AperFunction,ComponentPad*%
%ADD14RoundRect,0.200000X0.200000X0.450000X-0.200000X0.450000X-0.200000X-0.450000X0.200000X-0.450000X0*%
%TD*%
%TA.AperFunction,ComponentPad*%
%ADD15R,2.400000X2.400000*%
%TD*%
%TA.AperFunction,ComponentPad*%
%ADD16C,2.400000*%
%TD*%
%TA.AperFunction,ComponentPad*%
%ADD17O,1.800000X1.150000*%
%TD*%
%TA.AperFunction,ComponentPad*%
%ADD18O,2.000000X1.450000*%
%TD*%
%TA.AperFunction,ViaPad*%
%ADD19C,0.800000*%
%TD*%
G04 APERTURE END LIST*
D10*
%TO.N,GND*%
%TO.C,H1*%
X166339019Y-90723219D03*
X161778181Y-86162381D03*
X161778181Y-90723219D03*
X167283600Y-88442800D03*
D11*
X164058600Y-88442800D03*
D10*
X164058600Y-85217800D03*
X164058600Y-91667800D03*
X160833600Y-88442800D03*
X166339019Y-86162381D03*
%TD*%
%TO.N,GND*%
%TO.C,H3*%
X166339019Y-120655581D03*
X164058600Y-119711000D03*
X161778181Y-120655581D03*
D11*
X164058600Y-122936000D03*
D10*
X160833600Y-122936000D03*
X167283600Y-122936000D03*
X166339019Y-125216419D03*
X164058600Y-126161000D03*
X161778181Y-125216419D03*
%TD*%
D12*
%TO.N,+3V3*%
%TO.C,J3*%
X133325000Y-121150000D03*
D13*
%TO.N,USART3_TX*%
X134575000Y-121150000D03*
%TO.N,USART3_RX*%
X135825000Y-121150000D03*
%TO.N,GND*%
X137075000Y-121150000D03*
%TD*%
D14*
%TO.N,+3V3*%
%TO.C,J2*%
X145800000Y-89800000D03*
D13*
%TO.N,I2C1_SCL*%
X144550000Y-89800000D03*
%TO.N,I2C1_SDA*%
X143300000Y-89800000D03*
%TO.N,GND*%
X142050000Y-89800000D03*
%TD*%
D11*
%TO.N,GND*%
%TO.C,H2*%
X124714000Y-122936000D03*
D10*
X124714000Y-126161000D03*
X124714000Y-119711000D03*
X126994419Y-120655581D03*
X121489000Y-122936000D03*
X126994419Y-125216419D03*
X127939000Y-122936000D03*
X122433581Y-120655581D03*
X122433581Y-125216419D03*
%TD*%
D15*
%TO.N,+12V*%
%TO.C,J5*%
X165035000Y-111960600D03*
D16*
%TO.N,GND*%
X165035000Y-108460600D03*
%TD*%
D17*
%TO.N,unconnected-(J4-Pad6)*%
%TO.C,J4*%
X168300000Y-94925000D03*
X168300000Y-102675000D03*
D18*
X164500000Y-102525000D03*
X164500000Y-95075000D03*
%TD*%
D10*
%TO.N,GND*%
%TO.C,H4*%
X122433581Y-86162381D03*
X124714000Y-91667800D03*
X126994419Y-90723219D03*
X124714000Y-85217800D03*
X126994419Y-86162381D03*
D11*
X124714000Y-88442800D03*
D10*
X121489000Y-88442800D03*
X122433581Y-90723219D03*
X127939000Y-88442800D03*
%TD*%
D19*
%TO.N,+3V3*%
X152225000Y-118100000D03*
X148325000Y-118100000D03*
X145825000Y-109450000D03*
X131875000Y-96600000D03*
X153100000Y-118125000D03*
X141900000Y-98800000D03*
X144900000Y-117900000D03*
X143975000Y-117875000D03*
X136750000Y-92725000D03*
X141478000Y-110125000D03*
X145825000Y-91000000D03*
X148325000Y-115125000D03*
X149325000Y-118100000D03*
X151175000Y-95200000D03*
X144650000Y-115650000D03*
X127750000Y-98050000D03*
X146800000Y-110325000D03*
X141200000Y-115000000D03*
X146125000Y-87625000D03*
X142300000Y-88325000D03*
X127350000Y-109100000D03*
X141775000Y-112775000D03*
X129300000Y-100500000D03*
X127325000Y-108250000D03*
X140475000Y-113825000D03*
X134925000Y-110825000D03*
X149300000Y-115100000D03*
%TO.N,GND*%
X145375000Y-98775000D03*
X165875000Y-97550000D03*
X159200000Y-113075000D03*
X130850000Y-98300000D03*
X152475000Y-95200000D03*
X159425000Y-97125000D03*
X160675000Y-116050000D03*
X156225000Y-95200000D03*
X148450000Y-104750000D03*
X133425000Y-107775000D03*
X128975000Y-104750000D03*
X127750000Y-101450000D03*
X161625000Y-117125000D03*
X133450000Y-99550000D03*
X157650000Y-111250000D03*
X125675000Y-106850000D03*
X130125000Y-98775000D03*
X132350000Y-105200000D03*
X160850000Y-113050000D03*
X142748000Y-117856000D03*
X124950000Y-106300000D03*
X153800000Y-95225000D03*
X144400000Y-97825000D03*
X126175000Y-98200000D03*
X163200000Y-97550000D03*
X141732000Y-117856000D03*
X160825000Y-112175000D03*
X157775000Y-106250000D03*
X143350000Y-109350000D03*
X149350000Y-105700000D03*
X158000000Y-114400000D03*
X127750000Y-102275000D03*
X158600000Y-106800000D03*
X129275000Y-107775000D03*
X160650000Y-118150000D03*
%TO.N,Net-(J1-Pad4)*%
X149275000Y-91600000D03*
X152075000Y-91300000D03*
%TO.N,NRST*%
X139500000Y-101350000D03*
X146500000Y-99600000D03*
%TD*%
%TA.AperFunction,Conductor*%
%TO.N,GND*%
G36*
X163606995Y-83428002D02*
G01*
X163653488Y-83481658D01*
X163663592Y-83551932D01*
X163634098Y-83616512D01*
X163574372Y-83654896D01*
X163548431Y-83659637D01*
X163483193Y-83664600D01*
X163477636Y-83665272D01*
X163060728Y-83734664D01*
X163055231Y-83735832D01*
X162646147Y-83842009D01*
X162640781Y-83843661D01*
X162242753Y-83985783D01*
X162237565Y-83987900D01*
X161853733Y-84164850D01*
X161848764Y-84167414D01*
X161482181Y-84377784D01*
X161477448Y-84380787D01*
X161131020Y-84622909D01*
X161126579Y-84626317D01*
X161005671Y-84727950D01*
X160997227Y-84740666D01*
X161003334Y-84751138D01*
X167750251Y-91498055D01*
X167764012Y-91505569D01*
X167773372Y-91499111D01*
X167812844Y-91454103D01*
X167816344Y-91449735D01*
X168065673Y-91108445D01*
X168068768Y-91103787D01*
X168286760Y-90741703D01*
X168289441Y-90736764D01*
X168474379Y-90356746D01*
X168476614Y-90351580D01*
X168627042Y-89956615D01*
X168628801Y-89951296D01*
X168744285Y-89541818D01*
X168745184Y-89542072D01*
X168778364Y-89483587D01*
X168841220Y-89450579D01*
X168911945Y-89456793D01*
X168968082Y-89500258D01*
X168992000Y-89574118D01*
X168992000Y-93739709D01*
X168971998Y-93807830D01*
X168918342Y-93854323D01*
X168841850Y-93863373D01*
X168735658Y-93842635D01*
X168735655Y-93842635D01*
X168731212Y-93841767D01*
X168725753Y-93841500D01*
X167923349Y-93841500D01*
X167769183Y-93856209D01*
X167570793Y-93914410D01*
X167565466Y-93917154D01*
X167565465Y-93917154D01*
X167392318Y-94006330D01*
X167392315Y-94006332D01*
X167386987Y-94009076D01*
X167224399Y-94136791D01*
X167088894Y-94292947D01*
X166985362Y-94471908D01*
X166917539Y-94667219D01*
X166916678Y-94673154D01*
X166916678Y-94673156D01*
X166893251Y-94834729D01*
X166887871Y-94871831D01*
X166897431Y-95078361D01*
X166898835Y-95084186D01*
X166898835Y-95084187D01*
X166924294Y-95189824D01*
X166945871Y-95279357D01*
X166948353Y-95284815D01*
X166948354Y-95284819D01*
X166979618Y-95353581D01*
X167031445Y-95467568D01*
X167151065Y-95636201D01*
X167155388Y-95640339D01*
X167155392Y-95640344D01*
X167261429Y-95741852D01*
X167300415Y-95779173D01*
X167305454Y-95782427D01*
X167305457Y-95782429D01*
X167376535Y-95828323D01*
X167474106Y-95891323D01*
X167479669Y-95893565D01*
X167479673Y-95893567D01*
X167660301Y-95966362D01*
X167660304Y-95966363D01*
X167665870Y-95968606D01*
X167761274Y-95987237D01*
X167864342Y-96007365D01*
X167864345Y-96007365D01*
X167868788Y-96008233D01*
X167874247Y-96008500D01*
X168676651Y-96008500D01*
X168830817Y-95993791D01*
X168836566Y-95992104D01*
X168842178Y-95991024D01*
X168912851Y-95997785D01*
X168968650Y-96041683D01*
X168992000Y-96114751D01*
X168992000Y-101489709D01*
X168971998Y-101557830D01*
X168918342Y-101604323D01*
X168841850Y-101613373D01*
X168735658Y-101592635D01*
X168735655Y-101592635D01*
X168731212Y-101591767D01*
X168725753Y-101591500D01*
X167923349Y-101591500D01*
X167769183Y-101606209D01*
X167570793Y-101664410D01*
X167565466Y-101667154D01*
X167565465Y-101667154D01*
X167392318Y-101756330D01*
X167392315Y-101756332D01*
X167386987Y-101759076D01*
X167224399Y-101886791D01*
X167088894Y-102042947D01*
X166985362Y-102221908D01*
X166917539Y-102417219D01*
X166887871Y-102621831D01*
X166897431Y-102828361D01*
X166898835Y-102834186D01*
X166898835Y-102834187D01*
X166920761Y-102925164D01*
X166945871Y-103029357D01*
X166948353Y-103034815D01*
X166948354Y-103034819D01*
X166987832Y-103121645D01*
X167031445Y-103217568D01*
X167151065Y-103386201D01*
X167155388Y-103390339D01*
X167155392Y-103390344D01*
X167226587Y-103458498D01*
X167300415Y-103529173D01*
X167305454Y-103532427D01*
X167305457Y-103532429D01*
X167391126Y-103587744D01*
X167474106Y-103641323D01*
X167479669Y-103643565D01*
X167479673Y-103643567D01*
X167660301Y-103716362D01*
X167660304Y-103716363D01*
X167665870Y-103718606D01*
X167766561Y-103738269D01*
X167864342Y-103757365D01*
X167864345Y-103757365D01*
X167868788Y-103758233D01*
X167874247Y-103758500D01*
X168676651Y-103758500D01*
X168830817Y-103743791D01*
X168836566Y-103742104D01*
X168842178Y-103741024D01*
X168912851Y-103747785D01*
X168968650Y-103791683D01*
X168992000Y-103864751D01*
X168992000Y-121824889D01*
X168971998Y-121893010D01*
X168918342Y-121939503D01*
X168848068Y-121949607D01*
X168783488Y-121920113D01*
X168745104Y-121860387D01*
X168743107Y-121852697D01*
X168701483Y-121668748D01*
X168700010Y-121663361D01*
X168570447Y-121261025D01*
X168568510Y-121255815D01*
X168403698Y-120866599D01*
X168401283Y-120861536D01*
X168202536Y-120488535D01*
X168199685Y-120483713D01*
X167968574Y-120129865D01*
X167965292Y-120125297D01*
X167773910Y-119882530D01*
X167761985Y-119874059D01*
X167750451Y-119880545D01*
X161003235Y-126627761D01*
X160996275Y-126640506D01*
X161004207Y-126651323D01*
X161268402Y-126857363D01*
X161272959Y-126860602D01*
X161628048Y-127089880D01*
X161632850Y-127092686D01*
X162006916Y-127289491D01*
X162011974Y-127291871D01*
X162402035Y-127454638D01*
X162407290Y-127456561D01*
X162810276Y-127584008D01*
X162815675Y-127585455D01*
X163228396Y-127676575D01*
X163233907Y-127677537D01*
X163653101Y-127731610D01*
X163658664Y-127732077D01*
X163862798Y-127740097D01*
X163930081Y-127762758D01*
X163974431Y-127818198D01*
X163981768Y-127888814D01*
X163949763Y-127952187D01*
X163888576Y-127988197D01*
X163857851Y-127992000D01*
X124918694Y-127992000D01*
X124850573Y-127971998D01*
X124804080Y-127918342D01*
X124793976Y-127848068D01*
X124823470Y-127783488D01*
X124883196Y-127745104D01*
X124912429Y-127740156D01*
X125164125Y-127727626D01*
X125169708Y-127727098D01*
X125588305Y-127668640D01*
X125593792Y-127667623D01*
X126005543Y-127572185D01*
X126010929Y-127570681D01*
X126412567Y-127439018D01*
X126417784Y-127437046D01*
X126806126Y-127270202D01*
X126811169Y-127267764D01*
X127183131Y-127067063D01*
X127187935Y-127064188D01*
X127540563Y-126831231D01*
X127545126Y-126827916D01*
X127767146Y-126650998D01*
X127775615Y-126638942D01*
X127769188Y-126627584D01*
X124078736Y-122937132D01*
X125355594Y-122937132D01*
X125355725Y-122938965D01*
X125359976Y-122945580D01*
X128405651Y-125991255D01*
X128419412Y-125998769D01*
X128428772Y-125992311D01*
X128468244Y-125947303D01*
X128471744Y-125942935D01*
X128721073Y-125601645D01*
X128724168Y-125596987D01*
X128942160Y-125234903D01*
X128944841Y-125229964D01*
X129129779Y-124849946D01*
X129132014Y-124844780D01*
X129282442Y-124449815D01*
X129284201Y-124444496D01*
X129398920Y-124037730D01*
X129400204Y-124032259D01*
X129478315Y-123616883D01*
X129479102Y-123611346D01*
X129520035Y-123190102D01*
X129520308Y-123185665D01*
X129526788Y-122938233D01*
X129526746Y-122933762D01*
X129521360Y-122812825D01*
X159247455Y-122812825D01*
X159255200Y-123235410D01*
X159255550Y-123240976D01*
X159300831Y-123661208D01*
X159301678Y-123666746D01*
X159384135Y-124081286D01*
X159385464Y-124086698D01*
X159504452Y-124492289D01*
X159506258Y-124497564D01*
X159660819Y-124890948D01*
X159663101Y-124896072D01*
X159852016Y-125274150D01*
X159854740Y-125279043D01*
X160076517Y-125638833D01*
X160079668Y-125643469D01*
X160332552Y-125982123D01*
X160336090Y-125986446D01*
X160340856Y-125991768D01*
X160354351Y-126000131D01*
X160363763Y-125994441D01*
X163409392Y-122948812D01*
X163417006Y-122934868D01*
X163416875Y-122933035D01*
X163412624Y-122926420D01*
X160368303Y-119882099D01*
X160354995Y-119874832D01*
X160344956Y-119881954D01*
X160226823Y-120023994D01*
X160223428Y-120028467D01*
X159983128Y-120376152D01*
X159980149Y-120380902D01*
X159771706Y-120748575D01*
X159769162Y-120753568D01*
X159594229Y-121138312D01*
X159592138Y-121143511D01*
X159452098Y-121542290D01*
X159450477Y-121547659D01*
X159346440Y-121957303D01*
X159345306Y-121962776D01*
X159278096Y-122380054D01*
X159277451Y-122385632D01*
X159247602Y-122807204D01*
X159247455Y-122812825D01*
X129521360Y-122812825D01*
X129507917Y-122510973D01*
X129507419Y-122505386D01*
X129451155Y-122086499D01*
X129450162Y-122080976D01*
X129356883Y-121668748D01*
X129355410Y-121663361D01*
X129225847Y-121261025D01*
X129223910Y-121255815D01*
X129059098Y-120866599D01*
X129056683Y-120861536D01*
X128940434Y-120643365D01*
X132416500Y-120643365D01*
X132416501Y-121656634D01*
X132423247Y-121730062D01*
X132425246Y-121736440D01*
X132425246Y-121736441D01*
X132464089Y-121860387D01*
X132474528Y-121893699D01*
X132563361Y-122040381D01*
X132684619Y-122161639D01*
X132831301Y-122250472D01*
X132838548Y-122252743D01*
X132838550Y-122252744D01*
X132881198Y-122266109D01*
X132994938Y-122301753D01*
X133068365Y-122308500D01*
X133071263Y-122308500D01*
X133325665Y-122308499D01*
X133581634Y-122308499D01*
X133584492Y-122308236D01*
X133584501Y-122308236D01*
X133620004Y-122304974D01*
X133655062Y-122301753D01*
X133692489Y-122290024D01*
X133811450Y-122252744D01*
X133811452Y-122252743D01*
X133818699Y-122250472D01*
X133955018Y-122167915D01*
X134023648Y-122149736D01*
X134094350Y-122173755D01*
X134112308Y-122186802D01*
X134118248Y-122191118D01*
X134124276Y-122193802D01*
X134124278Y-122193803D01*
X134256663Y-122252744D01*
X134292712Y-122268794D01*
X134386112Y-122288647D01*
X134473056Y-122307128D01*
X134473061Y-122307128D01*
X134479513Y-122308500D01*
X134670487Y-122308500D01*
X134676939Y-122307128D01*
X134676944Y-122307128D01*
X134763888Y-122288647D01*
X134857288Y-122268794D01*
X134893337Y-122252744D01*
X135025722Y-122193803D01*
X135025724Y-122193802D01*
X135031752Y-122191118D01*
X135037693Y-122186802D01*
X135125939Y-122122687D01*
X135192807Y-122098828D01*
X135261958Y-122114909D01*
X135274061Y-122122687D01*
X135362308Y-122186802D01*
X135368248Y-122191118D01*
X135374276Y-122193802D01*
X135374278Y-122193803D01*
X135506663Y-122252744D01*
X135542712Y-122268794D01*
X135636112Y-122288647D01*
X135723056Y-122307128D01*
X135723061Y-122307128D01*
X135729513Y-122308500D01*
X135920487Y-122308500D01*
X135926939Y-122307128D01*
X135926944Y-122307128D01*
X136013888Y-122288647D01*
X136107288Y-122268794D01*
X136143337Y-122252744D01*
X136275722Y-122193803D01*
X136275724Y-122193802D01*
X136281752Y-122191118D01*
X136376366Y-122122377D01*
X136443230Y-122098520D01*
X136512382Y-122114600D01*
X136524485Y-122122378D01*
X136613157Y-122186802D01*
X136624529Y-122193368D01*
X136658450Y-122208470D01*
X136672428Y-122210344D01*
X136675000Y-122206257D01*
X136675000Y-122197724D01*
X137475000Y-122197724D01*
X137478973Y-122211255D01*
X137483753Y-122211942D01*
X137525471Y-122193368D01*
X137536843Y-122186802D01*
X137680574Y-122082376D01*
X137690337Y-122073585D01*
X137809214Y-121941558D01*
X137816938Y-121930927D01*
X137905765Y-121777074D01*
X137911111Y-121765066D01*
X137966010Y-121596104D01*
X137968741Y-121583259D01*
X137970343Y-121568015D01*
X137967664Y-121553364D01*
X137955343Y-121550000D01*
X137493115Y-121550000D01*
X137477876Y-121554475D01*
X137476671Y-121555865D01*
X137475000Y-121563548D01*
X137475000Y-122197724D01*
X136675000Y-122197724D01*
X136675000Y-121743892D01*
X136681167Y-121704955D01*
X136681629Y-121703533D01*
X136718542Y-121589928D01*
X136722269Y-121554475D01*
X136726890Y-121510503D01*
X156264729Y-121510503D01*
X156277759Y-121709301D01*
X156326799Y-121902397D01*
X156410207Y-122083322D01*
X156525189Y-122246018D01*
X156667894Y-122385035D01*
X156672690Y-122388240D01*
X156672693Y-122388242D01*
X156807496Y-122478314D01*
X156833544Y-122495719D01*
X156838847Y-122497997D01*
X156838850Y-122497999D01*
X156921542Y-122533526D01*
X157016591Y-122574362D01*
X157087896Y-122590497D01*
X157205266Y-122617055D01*
X157205271Y-122617056D01*
X157210903Y-122618330D01*
X157216674Y-122618557D01*
X157216676Y-122618557D01*
X157275511Y-122620869D01*
X157409975Y-122626152D01*
X157509903Y-122611663D01*
X157601418Y-122598395D01*
X157601423Y-122598394D01*
X157607139Y-122597565D01*
X157612611Y-122595707D01*
X157612613Y-122595707D01*
X157790327Y-122535381D01*
X157790329Y-122535380D01*
X157795791Y-122533526D01*
X157969615Y-122436180D01*
X158122788Y-122308788D01*
X158208757Y-122205421D01*
X158246489Y-122160053D01*
X158250180Y-122155615D01*
X158347526Y-121981791D01*
X158361184Y-121941558D01*
X158409707Y-121798613D01*
X158409707Y-121798611D01*
X158411565Y-121793139D01*
X158412394Y-121787423D01*
X158412395Y-121787418D01*
X158439619Y-121599649D01*
X158440152Y-121595975D01*
X158441644Y-121539000D01*
X158423415Y-121340610D01*
X158421847Y-121335050D01*
X158370905Y-121154424D01*
X158370904Y-121154422D01*
X158369337Y-121148865D01*
X158359004Y-121127910D01*
X158283777Y-120975366D01*
X158281222Y-120970185D01*
X158267039Y-120951191D01*
X158165473Y-120815179D01*
X158165473Y-120815178D01*
X158162020Y-120810555D01*
X158015724Y-120675321D01*
X157847234Y-120569011D01*
X157841874Y-120566873D01*
X157841869Y-120566870D01*
X157667556Y-120497327D01*
X157662192Y-120495187D01*
X157656532Y-120494061D01*
X157656528Y-120494060D01*
X157472461Y-120457447D01*
X157472459Y-120457447D01*
X157466794Y-120456320D01*
X157461019Y-120456244D01*
X157461015Y-120456244D01*
X157361480Y-120454941D01*
X157267586Y-120453712D01*
X157261889Y-120454691D01*
X157261888Y-120454691D01*
X157076935Y-120486472D01*
X157071238Y-120487451D01*
X156884327Y-120556406D01*
X156879366Y-120559358D01*
X156879365Y-120559358D01*
X156718079Y-120655313D01*
X156718076Y-120655315D01*
X156713111Y-120658269D01*
X156563326Y-120789627D01*
X156559750Y-120794162D01*
X156559750Y-120794163D01*
X156511254Y-120855680D01*
X156439986Y-120946082D01*
X156347224Y-121122394D01*
X156288145Y-121312658D01*
X156264729Y-121510503D01*
X136726890Y-121510503D01*
X136733156Y-121450880D01*
X136733500Y-121447610D01*
X136733500Y-120852390D01*
X136722563Y-120748329D01*
X136720835Y-120731885D01*
X137475000Y-120731885D01*
X137479475Y-120747124D01*
X137480865Y-120748329D01*
X137488548Y-120750000D01*
X137954122Y-120750000D01*
X137968413Y-120745804D01*
X137970471Y-120733199D01*
X137968741Y-120716741D01*
X137966010Y-120703896D01*
X137911111Y-120534934D01*
X137905765Y-120522926D01*
X137816938Y-120369073D01*
X137809214Y-120358442D01*
X137690337Y-120226415D01*
X137680574Y-120217624D01*
X137536843Y-120113198D01*
X137525471Y-120106632D01*
X137491550Y-120091530D01*
X137477572Y-120089656D01*
X137475000Y-120093743D01*
X137475000Y-120731885D01*
X136720835Y-120731885D01*
X136719233Y-120716642D01*
X136719232Y-120716638D01*
X136718542Y-120710072D01*
X136681167Y-120595044D01*
X136675000Y-120556108D01*
X136675000Y-120102276D01*
X136671027Y-120088745D01*
X136666247Y-120088058D01*
X136624529Y-120106632D01*
X136613157Y-120113198D01*
X136524485Y-120177622D01*
X136457617Y-120201481D01*
X136388466Y-120185400D01*
X136376380Y-120177634D01*
X136281752Y-120108882D01*
X136275724Y-120106198D01*
X136275722Y-120106197D01*
X136113319Y-120033891D01*
X136113318Y-120033891D01*
X136107288Y-120031206D01*
X136013887Y-120011353D01*
X135926944Y-119992872D01*
X135926939Y-119992872D01*
X135920487Y-119991500D01*
X135729513Y-119991500D01*
X135723061Y-119992872D01*
X135723056Y-119992872D01*
X135636113Y-120011353D01*
X135542712Y-120031206D01*
X135536682Y-120033891D01*
X135536681Y-120033891D01*
X135374278Y-120106197D01*
X135374276Y-120106198D01*
X135368248Y-120108882D01*
X135362907Y-120112762D01*
X135362906Y-120112763D01*
X135274061Y-120177313D01*
X135207193Y-120201172D01*
X135138042Y-120185091D01*
X135125939Y-120177313D01*
X135037094Y-120112763D01*
X135037093Y-120112762D01*
X135031752Y-120108882D01*
X135025724Y-120106198D01*
X135025722Y-120106197D01*
X134863319Y-120033891D01*
X134863318Y-120033891D01*
X134857288Y-120031206D01*
X134763887Y-120011353D01*
X134676944Y-119992872D01*
X134676939Y-119992872D01*
X134670487Y-119991500D01*
X134479513Y-119991500D01*
X134473061Y-119992872D01*
X134473056Y-119992872D01*
X134386113Y-120011353D01*
X134292712Y-120031206D01*
X134286682Y-120033891D01*
X134286681Y-120033891D01*
X134124278Y-120106197D01*
X134124276Y-120106198D01*
X134118248Y-120108882D01*
X134112908Y-120112762D01*
X134112906Y-120112763D01*
X134094350Y-120126245D01*
X134027482Y-120150103D01*
X133955018Y-120132085D01*
X133943810Y-120125297D01*
X133818699Y-120049528D01*
X133811452Y-120047257D01*
X133811450Y-120047256D01*
X133737220Y-120023994D01*
X133655062Y-119998247D01*
X133581635Y-119991500D01*
X133578737Y-119991500D01*
X133324335Y-119991501D01*
X133068366Y-119991501D01*
X133065508Y-119991764D01*
X133065499Y-119991764D01*
X133029996Y-119995026D01*
X132994938Y-119998247D01*
X132988560Y-120000246D01*
X132988559Y-120000246D01*
X132838550Y-120047256D01*
X132838548Y-120047257D01*
X132831301Y-120049528D01*
X132684619Y-120138361D01*
X132563361Y-120259619D01*
X132474528Y-120406301D01*
X132423247Y-120569938D01*
X132416500Y-120643365D01*
X128940434Y-120643365D01*
X128857936Y-120488535D01*
X128855085Y-120483713D01*
X128623974Y-120129865D01*
X128620692Y-120125297D01*
X128429310Y-119882530D01*
X128417385Y-119874059D01*
X128405851Y-119880545D01*
X125363208Y-122923188D01*
X125355594Y-122937132D01*
X124078736Y-122937132D01*
X121023703Y-119882099D01*
X121010395Y-119874832D01*
X121000356Y-119881954D01*
X120882223Y-120023994D01*
X120878828Y-120028467D01*
X120638528Y-120376152D01*
X120635549Y-120380902D01*
X120427106Y-120748575D01*
X120424562Y-120753568D01*
X120249629Y-121138312D01*
X120247538Y-121143511D01*
X120107498Y-121542290D01*
X120105877Y-121547659D01*
X120001840Y-121957303D01*
X120000706Y-121962776D01*
X119958397Y-122225457D01*
X119927817Y-122289531D01*
X119867451Y-122326900D01*
X119796464Y-122325700D01*
X119737395Y-122286313D01*
X119708997Y-122221243D01*
X119708000Y-122205421D01*
X119708000Y-119233866D01*
X121652627Y-119233866D01*
X121658734Y-119244338D01*
X124701188Y-122286792D01*
X124715132Y-122294406D01*
X124716965Y-122294275D01*
X124723580Y-122290024D01*
X127769806Y-119243798D01*
X127775230Y-119233866D01*
X160997227Y-119233866D01*
X161003334Y-119244338D01*
X164045788Y-122286792D01*
X164059732Y-122294406D01*
X164061565Y-122294275D01*
X164068180Y-122290024D01*
X167114406Y-119243798D01*
X167121969Y-119229948D01*
X167115642Y-119220727D01*
X167089523Y-119197578D01*
X167085160Y-119194045D01*
X166745200Y-118942948D01*
X166740547Y-118939821D01*
X166379595Y-118719926D01*
X166374694Y-118717232D01*
X165995627Y-118530297D01*
X165990504Y-118528048D01*
X165596307Y-118375545D01*
X165591017Y-118373765D01*
X165184818Y-118256904D01*
X165179394Y-118255602D01*
X164764422Y-118175316D01*
X164758893Y-118174500D01*
X164338428Y-118131420D01*
X164332847Y-118131098D01*
X163910235Y-118125566D01*
X163904624Y-118125742D01*
X163483193Y-118157800D01*
X163477636Y-118158472D01*
X163060728Y-118227864D01*
X163055231Y-118229032D01*
X162646147Y-118335209D01*
X162640781Y-118336861D01*
X162242753Y-118478983D01*
X162237565Y-118481100D01*
X161853733Y-118658050D01*
X161848764Y-118660614D01*
X161482181Y-118870984D01*
X161477448Y-118873987D01*
X161131020Y-119116109D01*
X161126579Y-119119517D01*
X161005671Y-119221150D01*
X160997227Y-119233866D01*
X127775230Y-119233866D01*
X127777369Y-119229948D01*
X127771042Y-119220727D01*
X127744923Y-119197578D01*
X127740560Y-119194045D01*
X127400600Y-118942948D01*
X127395947Y-118939821D01*
X127034995Y-118719926D01*
X127030094Y-118717232D01*
X126651027Y-118530297D01*
X126645904Y-118528048D01*
X126251707Y-118375545D01*
X126246417Y-118373765D01*
X125840218Y-118256904D01*
X125834794Y-118255602D01*
X125419822Y-118175316D01*
X125414293Y-118174500D01*
X124993828Y-118131420D01*
X124988247Y-118131098D01*
X124565635Y-118125566D01*
X124560024Y-118125742D01*
X124138593Y-118157800D01*
X124133036Y-118158472D01*
X123716128Y-118227864D01*
X123710631Y-118229032D01*
X123301547Y-118335209D01*
X123296181Y-118336861D01*
X122898153Y-118478983D01*
X122892965Y-118481100D01*
X122509133Y-118658050D01*
X122504164Y-118660614D01*
X122137581Y-118870984D01*
X122132848Y-118873987D01*
X121786420Y-119116109D01*
X121781979Y-119119517D01*
X121661071Y-119221150D01*
X121652627Y-119233866D01*
X119708000Y-119233866D01*
X119708000Y-117875000D01*
X143061496Y-117875000D01*
X143062186Y-117881565D01*
X143068500Y-117941635D01*
X143081458Y-118064928D01*
X143140473Y-118246556D01*
X143235960Y-118411944D01*
X143240378Y-118416851D01*
X143240379Y-118416852D01*
X143258470Y-118436944D01*
X143363747Y-118553866D01*
X143518248Y-118666118D01*
X143524276Y-118668802D01*
X143524278Y-118668803D01*
X143591824Y-118698876D01*
X143692712Y-118743794D01*
X143786112Y-118763647D01*
X143873056Y-118782128D01*
X143873061Y-118782128D01*
X143879513Y-118783500D01*
X144070487Y-118783500D01*
X144076939Y-118782128D01*
X144076944Y-118782128D01*
X144163888Y-118763647D01*
X144257288Y-118743794D01*
X144358176Y-118698876D01*
X144428542Y-118689442D01*
X144460673Y-118698876D01*
X144617712Y-118768794D01*
X144711112Y-118788647D01*
X144798056Y-118807128D01*
X144798061Y-118807128D01*
X144804513Y-118808500D01*
X144995487Y-118808500D01*
X145001939Y-118807128D01*
X145001944Y-118807128D01*
X145088888Y-118788647D01*
X145182288Y-118768794D01*
X145235358Y-118745166D01*
X145350722Y-118693803D01*
X145350724Y-118693802D01*
X145356752Y-118691118D01*
X145391162Y-118666118D01*
X145412157Y-118650864D01*
X145511253Y-118578866D01*
X145639040Y-118436944D01*
X145734527Y-118271556D01*
X145790269Y-118100000D01*
X147411496Y-118100000D01*
X147412186Y-118106565D01*
X147430129Y-118277279D01*
X147431458Y-118289928D01*
X147490473Y-118471556D01*
X147585960Y-118636944D01*
X147590378Y-118641851D01*
X147590379Y-118641852D01*
X147704678Y-118768794D01*
X147713747Y-118778866D01*
X147752646Y-118807128D01*
X147825000Y-118859696D01*
X147868248Y-118891118D01*
X147874276Y-118893802D01*
X147874278Y-118893803D01*
X148036681Y-118966109D01*
X148042712Y-118968794D01*
X148136112Y-118988647D01*
X148223056Y-119007128D01*
X148223061Y-119007128D01*
X148229513Y-119008500D01*
X148420487Y-119008500D01*
X148426939Y-119007128D01*
X148426944Y-119007128D01*
X148513888Y-118988647D01*
X148607288Y-118968794D01*
X148773752Y-118894680D01*
X148844118Y-118885246D01*
X148876247Y-118894680D01*
X149042712Y-118968794D01*
X149136112Y-118988647D01*
X149223056Y-119007128D01*
X149223061Y-119007128D01*
X149229513Y-119008500D01*
X149420487Y-119008500D01*
X149426939Y-119007128D01*
X149426944Y-119007128D01*
X149513888Y-118988647D01*
X149607288Y-118968794D01*
X149613319Y-118966109D01*
X149775722Y-118893803D01*
X149775724Y-118893802D01*
X149781752Y-118891118D01*
X149825001Y-118859696D01*
X149897354Y-118807128D01*
X149936253Y-118778866D01*
X149945322Y-118768794D01*
X150059621Y-118641852D01*
X150059622Y-118641851D01*
X150064040Y-118636944D01*
X150159527Y-118471556D01*
X150218542Y-118289928D01*
X150219872Y-118277279D01*
X150237814Y-118106565D01*
X150238504Y-118100000D01*
X151311496Y-118100000D01*
X151312186Y-118106565D01*
X151330129Y-118277279D01*
X151331458Y-118289928D01*
X151390473Y-118471556D01*
X151485960Y-118636944D01*
X151490378Y-118641851D01*
X151490379Y-118641852D01*
X151604678Y-118768794D01*
X151613747Y-118778866D01*
X151652646Y-118807128D01*
X151725000Y-118859696D01*
X151768248Y-118891118D01*
X151774276Y-118893802D01*
X151774278Y-118893803D01*
X151936681Y-118966109D01*
X151942712Y-118968794D01*
X152036112Y-118988647D01*
X152123056Y-119007128D01*
X152123061Y-119007128D01*
X152129513Y-119008500D01*
X152320487Y-119008500D01*
X152326939Y-119007128D01*
X152326944Y-119007128D01*
X152413888Y-118988647D01*
X152507288Y-118968794D01*
X152572363Y-118939821D01*
X152583175Y-118935007D01*
X152653542Y-118925573D01*
X152685672Y-118935007D01*
X152811677Y-118991108D01*
X152811685Y-118991111D01*
X152817712Y-118993794D01*
X152911113Y-119013647D01*
X152998056Y-119032128D01*
X152998061Y-119032128D01*
X153004513Y-119033500D01*
X153195487Y-119033500D01*
X153201939Y-119032128D01*
X153201944Y-119032128D01*
X153288887Y-119013647D01*
X153382288Y-118993794D01*
X153435358Y-118970166D01*
X153550722Y-118918803D01*
X153550724Y-118918802D01*
X153556752Y-118916118D01*
X153591162Y-118891118D01*
X153634410Y-118859696D01*
X153711253Y-118803866D01*
X153839040Y-118661944D01*
X153934527Y-118496556D01*
X153993542Y-118314928D01*
X153996860Y-118283365D01*
X154012814Y-118131565D01*
X154013504Y-118125000D01*
X154007190Y-118064928D01*
X153994232Y-117941635D01*
X153994232Y-117941633D01*
X153993542Y-117935072D01*
X153934527Y-117753444D01*
X153839040Y-117588056D01*
X153821679Y-117568774D01*
X153715675Y-117451045D01*
X153715674Y-117451044D01*
X153711253Y-117446134D01*
X153556752Y-117333882D01*
X153550724Y-117331198D01*
X153550722Y-117331197D01*
X153388319Y-117258891D01*
X153388318Y-117258891D01*
X153382288Y-117256206D01*
X153288888Y-117236353D01*
X153201944Y-117217872D01*
X153201939Y-117217872D01*
X153195487Y-117216500D01*
X153004513Y-117216500D01*
X152998061Y-117217872D01*
X152998056Y-117217872D01*
X152911112Y-117236353D01*
X152817712Y-117256206D01*
X152811682Y-117258891D01*
X152811681Y-117258891D01*
X152741825Y-117289993D01*
X152671458Y-117299427D01*
X152639328Y-117289993D01*
X152513323Y-117233892D01*
X152513315Y-117233889D01*
X152507288Y-117231206D01*
X152413888Y-117211353D01*
X152326944Y-117192872D01*
X152326939Y-117192872D01*
X152320487Y-117191500D01*
X152129513Y-117191500D01*
X152123061Y-117192872D01*
X152123056Y-117192872D01*
X152036112Y-117211353D01*
X151942712Y-117231206D01*
X151936682Y-117233891D01*
X151936681Y-117233891D01*
X151774278Y-117306197D01*
X151774276Y-117306198D01*
X151768248Y-117308882D01*
X151762907Y-117312762D01*
X151762906Y-117312763D01*
X151720223Y-117343774D01*
X151613747Y-117421134D01*
X151485960Y-117563056D01*
X151390473Y-117728444D01*
X151331458Y-117910072D01*
X151330768Y-117916633D01*
X151330768Y-117916635D01*
X151315872Y-118058365D01*
X151311496Y-118100000D01*
X150238504Y-118100000D01*
X150234128Y-118058365D01*
X150219232Y-117916635D01*
X150219232Y-117916633D01*
X150218542Y-117910072D01*
X150159527Y-117728444D01*
X150064040Y-117563056D01*
X149936253Y-117421134D01*
X149829777Y-117343774D01*
X149787094Y-117312763D01*
X149787093Y-117312762D01*
X149781752Y-117308882D01*
X149775724Y-117306198D01*
X149775722Y-117306197D01*
X149613319Y-117233891D01*
X149613318Y-117233891D01*
X149607288Y-117231206D01*
X149513888Y-117211353D01*
X149426944Y-117192872D01*
X149426939Y-117192872D01*
X149420487Y-117191500D01*
X149229513Y-117191500D01*
X149223061Y-117192872D01*
X149223056Y-117192872D01*
X149136112Y-117211353D01*
X149042712Y-117231206D01*
X148876248Y-117305320D01*
X148805882Y-117314754D01*
X148773753Y-117305320D01*
X148607288Y-117231206D01*
X148513888Y-117211353D01*
X148426944Y-117192872D01*
X148426939Y-117192872D01*
X148420487Y-117191500D01*
X148229513Y-117191500D01*
X148223061Y-117192872D01*
X148223056Y-117192872D01*
X148136112Y-117211353D01*
X148042712Y-117231206D01*
X148036682Y-117233891D01*
X148036681Y-117233891D01*
X147874278Y-117306197D01*
X147874276Y-117306198D01*
X147868248Y-117308882D01*
X147862907Y-117312762D01*
X147862906Y-117312763D01*
X147820223Y-117343774D01*
X147713747Y-117421134D01*
X147585960Y-117563056D01*
X147490473Y-117728444D01*
X147431458Y-117910072D01*
X147430768Y-117916633D01*
X147430768Y-117916635D01*
X147415872Y-118058365D01*
X147411496Y-118100000D01*
X145790269Y-118100000D01*
X145793542Y-118089928D01*
X145796860Y-118058365D01*
X145812814Y-117906565D01*
X145813504Y-117900000D01*
X145795473Y-117728444D01*
X145794232Y-117716635D01*
X145794232Y-117716633D01*
X145793542Y-117710072D01*
X145734527Y-117528444D01*
X145639040Y-117363056D01*
X145621679Y-117343774D01*
X145515675Y-117226045D01*
X145515674Y-117226044D01*
X145511253Y-117221134D01*
X145356752Y-117108882D01*
X145350724Y-117106198D01*
X145350722Y-117106197D01*
X145188319Y-117033891D01*
X145188318Y-117033891D01*
X145182288Y-117031206D01*
X145077305Y-117008891D01*
X145001944Y-116992872D01*
X145001939Y-116992872D01*
X144995487Y-116991500D01*
X144804513Y-116991500D01*
X144798061Y-116992872D01*
X144798056Y-116992872D01*
X144722695Y-117008891D01*
X144617712Y-117031206D01*
X144611682Y-117033891D01*
X144611681Y-117033891D01*
X144516825Y-117076124D01*
X144446458Y-117085558D01*
X144414327Y-117076124D01*
X144263319Y-117008891D01*
X144263318Y-117008891D01*
X144257288Y-117006206D01*
X144163887Y-116986353D01*
X144076944Y-116967872D01*
X144076939Y-116967872D01*
X144070487Y-116966500D01*
X143879513Y-116966500D01*
X143873061Y-116967872D01*
X143873056Y-116967872D01*
X143786113Y-116986353D01*
X143692712Y-117006206D01*
X143686682Y-117008891D01*
X143686681Y-117008891D01*
X143524278Y-117081197D01*
X143524276Y-117081198D01*
X143518248Y-117083882D01*
X143512907Y-117087762D01*
X143512906Y-117087763D01*
X143478497Y-117112763D01*
X143363747Y-117196134D01*
X143359326Y-117201044D01*
X143359325Y-117201045D01*
X143257842Y-117313754D01*
X143235960Y-117338056D01*
X143140473Y-117503444D01*
X143081458Y-117685072D01*
X143080768Y-117691633D01*
X143080768Y-117691635D01*
X143077501Y-117722721D01*
X143061496Y-117875000D01*
X119708000Y-117875000D01*
X119708000Y-113825000D01*
X139561496Y-113825000D01*
X139581458Y-114014928D01*
X139640473Y-114196556D01*
X139735960Y-114361944D01*
X139740378Y-114366851D01*
X139740379Y-114366852D01*
X139832150Y-114468774D01*
X139863747Y-114503866D01*
X140018248Y-114616118D01*
X140024276Y-114618802D01*
X140024278Y-114618803D01*
X140060049Y-114634729D01*
X140192712Y-114693794D01*
X140204954Y-114696396D01*
X140267426Y-114730121D01*
X140301749Y-114792270D01*
X140304068Y-114832812D01*
X140286496Y-115000000D01*
X140287186Y-115006565D01*
X140298980Y-115118774D01*
X140306458Y-115189928D01*
X140365473Y-115371556D01*
X140460960Y-115536944D01*
X140465378Y-115541851D01*
X140465379Y-115541852D01*
X140584325Y-115673955D01*
X140588747Y-115678866D01*
X140687843Y-115750864D01*
X140726385Y-115778866D01*
X140743248Y-115791118D01*
X140749276Y-115793802D01*
X140749278Y-115793803D01*
X140866978Y-115846206D01*
X140917712Y-115868794D01*
X141004479Y-115887237D01*
X141098056Y-115907128D01*
X141098061Y-115907128D01*
X141104513Y-115908500D01*
X141295487Y-115908500D01*
X141301939Y-115907128D01*
X141301944Y-115907128D01*
X141395521Y-115887237D01*
X141482288Y-115868794D01*
X141533022Y-115846206D01*
X141650722Y-115793803D01*
X141650724Y-115793802D01*
X141656752Y-115791118D01*
X141673616Y-115778866D01*
X141712157Y-115750864D01*
X141811253Y-115678866D01*
X141815675Y-115673955D01*
X141837244Y-115650000D01*
X143736496Y-115650000D01*
X143737186Y-115656565D01*
X143752152Y-115798955D01*
X143756458Y-115839928D01*
X143815473Y-116021556D01*
X143910960Y-116186944D01*
X144038747Y-116328866D01*
X144193248Y-116441118D01*
X144199276Y-116443802D01*
X144199278Y-116443803D01*
X144361681Y-116516109D01*
X144367712Y-116518794D01*
X144461113Y-116538647D01*
X144548056Y-116557128D01*
X144548061Y-116557128D01*
X144554513Y-116558500D01*
X144745487Y-116558500D01*
X144751939Y-116557128D01*
X144751944Y-116557128D01*
X144838887Y-116538647D01*
X144932288Y-116518794D01*
X144938319Y-116516109D01*
X145100722Y-116443803D01*
X145100724Y-116443802D01*
X145106752Y-116441118D01*
X145261253Y-116328866D01*
X145389040Y-116186944D01*
X145484527Y-116021556D01*
X145543542Y-115839928D01*
X145547849Y-115798955D01*
X145562814Y-115656565D01*
X145563504Y-115650000D01*
X145552137Y-115541852D01*
X145544232Y-115466635D01*
X145544232Y-115466633D01*
X145543542Y-115460072D01*
X145484527Y-115278444D01*
X145395936Y-115125000D01*
X147411496Y-115125000D01*
X147412186Y-115131565D01*
X147428141Y-115283365D01*
X147431458Y-115314928D01*
X147490473Y-115496556D01*
X147585960Y-115661944D01*
X147590378Y-115666851D01*
X147590379Y-115666852D01*
X147604693Y-115682749D01*
X147713747Y-115803866D01*
X147754349Y-115833365D01*
X147833839Y-115891118D01*
X147868248Y-115916118D01*
X147874276Y-115918802D01*
X147874278Y-115918803D01*
X147989642Y-115970166D01*
X148042712Y-115993794D01*
X148136112Y-116013647D01*
X148223056Y-116032128D01*
X148223061Y-116032128D01*
X148229513Y-116033500D01*
X148420487Y-116033500D01*
X148426939Y-116032128D01*
X148426944Y-116032128D01*
X148513888Y-116013647D01*
X148607288Y-115993794D01*
X148781752Y-115916118D01*
X148782125Y-115916956D01*
X148845595Y-115901560D01*
X148890846Y-115912310D01*
X148905428Y-115918802D01*
X149017712Y-115968794D01*
X149111113Y-115988647D01*
X149198056Y-116007128D01*
X149198061Y-116007128D01*
X149204513Y-116008500D01*
X149395487Y-116008500D01*
X149401939Y-116007128D01*
X149401944Y-116007128D01*
X149488887Y-115988647D01*
X149582288Y-115968794D01*
X149588319Y-115966109D01*
X149750722Y-115893803D01*
X149750724Y-115893802D01*
X149756752Y-115891118D01*
X149911253Y-115778866D01*
X150021373Y-115656565D01*
X150034621Y-115641852D01*
X150034622Y-115641851D01*
X150039040Y-115636944D01*
X150134527Y-115471556D01*
X150193542Y-115289928D01*
X150203393Y-115196206D01*
X150212814Y-115106565D01*
X150213504Y-115100000D01*
X150199552Y-114967251D01*
X150194232Y-114916635D01*
X150194232Y-114916633D01*
X150193542Y-114910072D01*
X150134527Y-114728444D01*
X150116024Y-114696395D01*
X150097314Y-114663990D01*
X150039040Y-114563056D01*
X149989242Y-114507749D01*
X149915675Y-114426045D01*
X149915674Y-114426044D01*
X149911253Y-114421134D01*
X149796503Y-114337763D01*
X149762094Y-114312763D01*
X149762093Y-114312762D01*
X149756752Y-114308882D01*
X149750724Y-114306198D01*
X149750722Y-114306197D01*
X149588319Y-114233891D01*
X149588318Y-114233891D01*
X149582288Y-114231206D01*
X149488888Y-114211353D01*
X149401944Y-114192872D01*
X149401939Y-114192872D01*
X149395487Y-114191500D01*
X149204513Y-114191500D01*
X149198061Y-114192872D01*
X149198056Y-114192872D01*
X149111112Y-114211353D01*
X149017712Y-114231206D01*
X148843248Y-114308882D01*
X148842875Y-114308044D01*
X148779405Y-114323440D01*
X148734154Y-114312690D01*
X148613319Y-114258891D01*
X148613318Y-114258891D01*
X148607288Y-114256206D01*
X148502305Y-114233891D01*
X148426944Y-114217872D01*
X148426939Y-114217872D01*
X148420487Y-114216500D01*
X148229513Y-114216500D01*
X148223061Y-114217872D01*
X148223056Y-114217872D01*
X148147695Y-114233891D01*
X148042712Y-114256206D01*
X148036682Y-114258891D01*
X148036681Y-114258891D01*
X147874278Y-114331197D01*
X147874276Y-114331198D01*
X147868248Y-114333882D01*
X147713747Y-114446134D01*
X147709326Y-114451044D01*
X147709325Y-114451045D01*
X147603322Y-114568774D01*
X147585960Y-114588056D01*
X147568208Y-114618803D01*
X147503939Y-114730121D01*
X147490473Y-114753444D01*
X147431458Y-114935072D01*
X147430768Y-114941633D01*
X147430768Y-114941635D01*
X147425324Y-114993435D01*
X147411496Y-115125000D01*
X145395936Y-115125000D01*
X145389040Y-115113056D01*
X145383196Y-115106565D01*
X145265675Y-114976045D01*
X145265674Y-114976044D01*
X145261253Y-114971134D01*
X145106752Y-114858882D01*
X145100724Y-114856198D01*
X145100722Y-114856197D01*
X144938319Y-114783891D01*
X144938318Y-114783891D01*
X144932288Y-114781206D01*
X144831247Y-114759729D01*
X144751944Y-114742872D01*
X144751939Y-114742872D01*
X144745487Y-114741500D01*
X144554513Y-114741500D01*
X144548061Y-114742872D01*
X144548056Y-114742872D01*
X144468753Y-114759729D01*
X144367712Y-114781206D01*
X144361682Y-114783891D01*
X144361681Y-114783891D01*
X144199278Y-114856197D01*
X144199276Y-114856198D01*
X144193248Y-114858882D01*
X144038747Y-114971134D01*
X144034326Y-114976044D01*
X144034325Y-114976045D01*
X143916805Y-115106565D01*
X143910960Y-115113056D01*
X143815473Y-115278444D01*
X143756458Y-115460072D01*
X143755768Y-115466633D01*
X143755768Y-115466635D01*
X143747863Y-115541852D01*
X143736496Y-115650000D01*
X141837244Y-115650000D01*
X141934621Y-115541852D01*
X141934622Y-115541851D01*
X141939040Y-115536944D01*
X142034527Y-115371556D01*
X142093542Y-115189928D01*
X142101021Y-115118774D01*
X142112814Y-115006565D01*
X142113504Y-115000000D01*
X142104052Y-114910072D01*
X142094232Y-114816635D01*
X142094232Y-114816633D01*
X142093542Y-114810072D01*
X142034527Y-114628444D01*
X141939040Y-114463056D01*
X141923804Y-114446134D01*
X141815675Y-114326045D01*
X141815674Y-114326044D01*
X141811253Y-114321134D01*
X141656752Y-114208882D01*
X141650724Y-114206198D01*
X141650722Y-114206197D01*
X141488316Y-114133890D01*
X141488317Y-114133890D01*
X141482288Y-114131206D01*
X141470046Y-114128604D01*
X141407574Y-114094879D01*
X141373251Y-114032730D01*
X141370932Y-113992188D01*
X141387814Y-113831565D01*
X141388504Y-113825000D01*
X141384770Y-113789471D01*
X141397543Y-113719632D01*
X141446045Y-113667786D01*
X141514878Y-113650392D01*
X141536277Y-113653054D01*
X141673056Y-113682128D01*
X141673061Y-113682128D01*
X141679513Y-113683500D01*
X141870487Y-113683500D01*
X141876939Y-113682128D01*
X141876944Y-113682128D01*
X141983063Y-113659571D01*
X142057288Y-113643794D01*
X142090979Y-113628794D01*
X142225722Y-113568803D01*
X142225724Y-113568802D01*
X142231752Y-113566118D01*
X142386253Y-113453866D01*
X142391786Y-113447721D01*
X142509621Y-113316852D01*
X142509622Y-113316851D01*
X142514040Y-113311944D01*
X142573628Y-113208734D01*
X163326500Y-113208734D01*
X163333255Y-113270916D01*
X163384385Y-113407305D01*
X163471739Y-113523861D01*
X163588295Y-113611215D01*
X163724684Y-113662345D01*
X163786866Y-113669100D01*
X166283134Y-113669100D01*
X166345316Y-113662345D01*
X166481705Y-113611215D01*
X166598261Y-113523861D01*
X166685615Y-113407305D01*
X166736745Y-113270916D01*
X166743500Y-113208734D01*
X166743500Y-110712466D01*
X166736745Y-110650284D01*
X166685615Y-110513895D01*
X166598261Y-110397339D01*
X166481705Y-110309985D01*
X166345316Y-110258855D01*
X166283134Y-110252100D01*
X165804696Y-110252100D01*
X165736575Y-110232098D01*
X165690082Y-110178442D01*
X165679978Y-110108168D01*
X165709472Y-110043588D01*
X165754958Y-110010333D01*
X165821573Y-109981713D01*
X165829856Y-109977400D01*
X165867295Y-109954232D01*
X165876712Y-109943732D01*
X165872826Y-109934822D01*
X165047812Y-109109808D01*
X165033868Y-109102194D01*
X165032035Y-109102325D01*
X165025420Y-109106576D01*
X164200134Y-109931862D01*
X164193374Y-109944242D01*
X164197840Y-109950208D01*
X164320213Y-110014592D01*
X164371185Y-110064012D01*
X164387348Y-110133144D01*
X164363569Y-110200040D01*
X164307398Y-110243461D01*
X164261545Y-110252100D01*
X163786866Y-110252100D01*
X163724684Y-110258855D01*
X163588295Y-110309985D01*
X163471739Y-110397339D01*
X163384385Y-110513895D01*
X163333255Y-110650284D01*
X163326500Y-110712466D01*
X163326500Y-113208734D01*
X142573628Y-113208734D01*
X142609527Y-113146556D01*
X142668542Y-112964928D01*
X142671981Y-112932214D01*
X142687814Y-112781565D01*
X142688504Y-112775000D01*
X142668542Y-112585072D01*
X142609527Y-112403444D01*
X142514040Y-112238056D01*
X142386253Y-112096134D01*
X142231752Y-111983882D01*
X142225724Y-111981198D01*
X142225722Y-111981197D01*
X142063319Y-111908891D01*
X142063318Y-111908891D01*
X142057288Y-111906206D01*
X141963887Y-111886353D01*
X141876944Y-111867872D01*
X141876939Y-111867872D01*
X141870487Y-111866500D01*
X141679513Y-111866500D01*
X141673061Y-111867872D01*
X141673056Y-111867872D01*
X141586112Y-111886353D01*
X141492712Y-111906206D01*
X141486682Y-111908891D01*
X141486681Y-111908891D01*
X141324278Y-111981197D01*
X141324276Y-111981198D01*
X141318248Y-111983882D01*
X141163747Y-112096134D01*
X141035960Y-112238056D01*
X140940473Y-112403444D01*
X140881458Y-112585072D01*
X140861496Y-112775000D01*
X140862186Y-112781565D01*
X140865230Y-112810529D01*
X140852457Y-112880368D01*
X140803955Y-112932214D01*
X140735122Y-112949608D01*
X140713723Y-112946946D01*
X140576944Y-112917872D01*
X140576939Y-112917872D01*
X140570487Y-112916500D01*
X140379513Y-112916500D01*
X140373061Y-112917872D01*
X140373056Y-112917872D01*
X140286113Y-112936353D01*
X140192712Y-112956206D01*
X140186682Y-112958891D01*
X140186681Y-112958891D01*
X140024278Y-113031197D01*
X140024276Y-113031198D01*
X140018248Y-113033882D01*
X139863747Y-113146134D01*
X139735960Y-113288056D01*
X139732659Y-113293774D01*
X139662963Y-113414491D01*
X139640473Y-113453444D01*
X139581458Y-113635072D01*
X139580768Y-113641633D01*
X139580768Y-113641635D01*
X139576512Y-113682128D01*
X139561496Y-113825000D01*
X119708000Y-113825000D01*
X119708000Y-110825000D01*
X134011496Y-110825000D01*
X134012186Y-110831565D01*
X134028955Y-110991109D01*
X134031458Y-111014928D01*
X134090473Y-111196556D01*
X134093776Y-111202278D01*
X134093777Y-111202279D01*
X134111803Y-111233500D01*
X134185960Y-111361944D01*
X134313747Y-111503866D01*
X134468248Y-111616118D01*
X134474276Y-111618802D01*
X134474278Y-111618803D01*
X134636681Y-111691109D01*
X134642712Y-111693794D01*
X134736113Y-111713647D01*
X134823056Y-111732128D01*
X134823061Y-111732128D01*
X134829513Y-111733500D01*
X135020487Y-111733500D01*
X135026939Y-111732128D01*
X135026944Y-111732128D01*
X135113887Y-111713647D01*
X135207288Y-111693794D01*
X135213319Y-111691109D01*
X135375722Y-111618803D01*
X135375724Y-111618802D01*
X135381752Y-111616118D01*
X135536253Y-111503866D01*
X135664040Y-111361944D01*
X135738197Y-111233500D01*
X135756223Y-111202279D01*
X135756224Y-111202278D01*
X135759527Y-111196556D01*
X135818542Y-111014928D01*
X135821046Y-110991109D01*
X135837814Y-110831565D01*
X135838504Y-110825000D01*
X135835767Y-110798955D01*
X135819232Y-110641635D01*
X135819232Y-110641633D01*
X135818542Y-110635072D01*
X135759527Y-110453444D01*
X135747238Y-110432158D01*
X135689160Y-110331565D01*
X135664040Y-110288056D01*
X135631998Y-110252469D01*
X135540675Y-110151045D01*
X135540674Y-110151044D01*
X135536253Y-110146134D01*
X135507165Y-110125000D01*
X140564496Y-110125000D01*
X140565186Y-110131565D01*
X140582235Y-110293774D01*
X140584458Y-110314928D01*
X140643473Y-110496556D01*
X140738960Y-110661944D01*
X140866747Y-110803866D01*
X141021248Y-110916118D01*
X141027276Y-110918802D01*
X141027278Y-110918803D01*
X141189681Y-110991109D01*
X141195712Y-110993794D01*
X141261365Y-111007749D01*
X141376056Y-111032128D01*
X141376061Y-111032128D01*
X141382513Y-111033500D01*
X141573487Y-111033500D01*
X141579939Y-111032128D01*
X141579944Y-111032128D01*
X141694635Y-111007749D01*
X141760288Y-110993794D01*
X141766319Y-110991109D01*
X141928722Y-110918803D01*
X141928724Y-110918802D01*
X141934752Y-110916118D01*
X142089253Y-110803866D01*
X142217040Y-110661944D01*
X142312527Y-110496556D01*
X142371542Y-110314928D01*
X142373766Y-110293774D01*
X142390814Y-110131565D01*
X142391504Y-110125000D01*
X142375991Y-109977400D01*
X142372232Y-109941635D01*
X142372232Y-109941633D01*
X142371542Y-109935072D01*
X142312527Y-109753444D01*
X142217040Y-109588056D01*
X142100740Y-109458891D01*
X142093675Y-109451045D01*
X142093674Y-109451044D01*
X142092734Y-109450000D01*
X144911496Y-109450000D01*
X144931458Y-109639928D01*
X144990473Y-109821556D01*
X145085960Y-109986944D01*
X145090378Y-109991851D01*
X145090379Y-109991852D01*
X145136962Y-110043588D01*
X145213747Y-110128866D01*
X145368248Y-110241118D01*
X145374276Y-110243802D01*
X145374278Y-110243803D01*
X145536681Y-110316109D01*
X145542712Y-110318794D01*
X145636112Y-110338647D01*
X145723056Y-110357128D01*
X145723061Y-110357128D01*
X145729513Y-110358500D01*
X145776566Y-110358500D01*
X145844687Y-110378502D01*
X145891180Y-110432158D01*
X145901876Y-110471328D01*
X145904046Y-110491977D01*
X145905129Y-110502279D01*
X145906458Y-110514928D01*
X145965473Y-110696556D01*
X146060960Y-110861944D01*
X146065378Y-110866851D01*
X146065379Y-110866852D01*
X146179678Y-110993794D01*
X146188747Y-111003866D01*
X146343248Y-111116118D01*
X146349276Y-111118802D01*
X146349278Y-111118803D01*
X146509799Y-111190271D01*
X146517712Y-111193794D01*
X146611113Y-111213647D01*
X146698056Y-111232128D01*
X146698061Y-111232128D01*
X146704513Y-111233500D01*
X146895487Y-111233500D01*
X146901939Y-111232128D01*
X146901944Y-111232128D01*
X146988887Y-111213647D01*
X147082288Y-111193794D01*
X147090201Y-111190271D01*
X147250722Y-111118803D01*
X147250724Y-111118802D01*
X147256752Y-111116118D01*
X147411253Y-111003866D01*
X147420322Y-110993794D01*
X147534621Y-110866852D01*
X147534622Y-110866851D01*
X147539040Y-110861944D01*
X147634527Y-110696556D01*
X147693542Y-110514928D01*
X147694872Y-110502279D01*
X147712814Y-110331565D01*
X147713504Y-110325000D01*
X147693542Y-110135072D01*
X147634527Y-109953444D01*
X147613990Y-109917872D01*
X147558381Y-109821556D01*
X147539040Y-109788056D01*
X147526344Y-109773955D01*
X147415675Y-109651045D01*
X147415674Y-109651044D01*
X147411253Y-109646134D01*
X147256752Y-109533882D01*
X147250724Y-109531198D01*
X147250722Y-109531197D01*
X147088319Y-109458891D01*
X147088318Y-109458891D01*
X147082288Y-109456206D01*
X146988888Y-109436353D01*
X146901944Y-109417872D01*
X146901939Y-109417872D01*
X146895487Y-109416500D01*
X146848434Y-109416500D01*
X146780313Y-109396498D01*
X146733820Y-109342842D01*
X146723124Y-109303670D01*
X146723075Y-109303197D01*
X146718542Y-109260072D01*
X146659527Y-109078444D01*
X146564040Y-108913056D01*
X146555701Y-108903794D01*
X146440675Y-108776045D01*
X146440674Y-108776044D01*
X146436253Y-108771134D01*
X146333736Y-108696651D01*
X146287094Y-108662763D01*
X146287093Y-108662762D01*
X146281752Y-108658882D01*
X146275724Y-108656198D01*
X146275722Y-108656197D01*
X146113319Y-108583891D01*
X146113318Y-108583891D01*
X146107288Y-108581206D01*
X146013888Y-108561353D01*
X145926944Y-108542872D01*
X145926939Y-108542872D01*
X145920487Y-108541500D01*
X145729513Y-108541500D01*
X145723061Y-108542872D01*
X145723056Y-108542872D01*
X145636112Y-108561353D01*
X145542712Y-108581206D01*
X145536682Y-108583891D01*
X145536681Y-108583891D01*
X145374278Y-108656197D01*
X145374276Y-108656198D01*
X145368248Y-108658882D01*
X145362907Y-108662762D01*
X145362906Y-108662763D01*
X145316264Y-108696651D01*
X145213747Y-108771134D01*
X145209326Y-108776044D01*
X145209325Y-108776045D01*
X145094300Y-108903794D01*
X145085960Y-108913056D01*
X144990473Y-109078444D01*
X144931458Y-109260072D01*
X144930768Y-109266633D01*
X144930768Y-109266635D01*
X144923700Y-109333882D01*
X144911496Y-109450000D01*
X142092734Y-109450000D01*
X142089253Y-109446134D01*
X141990157Y-109374136D01*
X141940094Y-109337763D01*
X141940093Y-109337762D01*
X141934752Y-109333882D01*
X141928724Y-109331198D01*
X141928722Y-109331197D01*
X141766319Y-109258891D01*
X141766318Y-109258891D01*
X141760288Y-109256206D01*
X141666887Y-109236353D01*
X141579944Y-109217872D01*
X141579939Y-109217872D01*
X141573487Y-109216500D01*
X141382513Y-109216500D01*
X141376061Y-109217872D01*
X141376056Y-109217872D01*
X141289112Y-109236353D01*
X141195712Y-109256206D01*
X141189682Y-109258891D01*
X141189681Y-109258891D01*
X141027278Y-109331197D01*
X141027276Y-109331198D01*
X141021248Y-109333882D01*
X141015907Y-109337762D01*
X141015906Y-109337763D01*
X140965843Y-109374136D01*
X140866747Y-109446134D01*
X140862326Y-109451044D01*
X140862325Y-109451045D01*
X140855261Y-109458891D01*
X140738960Y-109588056D01*
X140643473Y-109753444D01*
X140584458Y-109935072D01*
X140583768Y-109941633D01*
X140583768Y-109941635D01*
X140580009Y-109977400D01*
X140564496Y-110125000D01*
X135507165Y-110125000D01*
X135381752Y-110033882D01*
X135375724Y-110031198D01*
X135375722Y-110031197D01*
X135213319Y-109958891D01*
X135213318Y-109958891D01*
X135207288Y-109956206D01*
X135106685Y-109934822D01*
X135026944Y-109917872D01*
X135026939Y-109917872D01*
X135020487Y-109916500D01*
X134829513Y-109916500D01*
X134823061Y-109917872D01*
X134823056Y-109917872D01*
X134743315Y-109934822D01*
X134642712Y-109956206D01*
X134636682Y-109958891D01*
X134636681Y-109958891D01*
X134474278Y-110031197D01*
X134474276Y-110031198D01*
X134468248Y-110033882D01*
X134313747Y-110146134D01*
X134309326Y-110151044D01*
X134309325Y-110151045D01*
X134218003Y-110252469D01*
X134185960Y-110288056D01*
X134160840Y-110331565D01*
X134102763Y-110432158D01*
X134090473Y-110453444D01*
X134031458Y-110635072D01*
X134030768Y-110641633D01*
X134030768Y-110641635D01*
X134014233Y-110798955D01*
X134011496Y-110825000D01*
X119708000Y-110825000D01*
X119708000Y-108250000D01*
X126411496Y-108250000D01*
X126431458Y-108439928D01*
X126490473Y-108621556D01*
X126500645Y-108639174D01*
X126517382Y-108708169D01*
X126511359Y-108741107D01*
X126456458Y-108910072D01*
X126436496Y-109100000D01*
X126437186Y-109106565D01*
X126452770Y-109254834D01*
X126456458Y-109289928D01*
X126515473Y-109471556D01*
X126610960Y-109636944D01*
X126615378Y-109641851D01*
X126615379Y-109641852D01*
X126710704Y-109747721D01*
X126738747Y-109778866D01*
X126893248Y-109891118D01*
X126899276Y-109893802D01*
X126899278Y-109893803D01*
X127061681Y-109966109D01*
X127067712Y-109968794D01*
X127153101Y-109986944D01*
X127248056Y-110007128D01*
X127248061Y-110007128D01*
X127254513Y-110008500D01*
X127445487Y-110008500D01*
X127451939Y-110007128D01*
X127451944Y-110007128D01*
X127546899Y-109986944D01*
X127632288Y-109968794D01*
X127638319Y-109966109D01*
X127800722Y-109893803D01*
X127800724Y-109893802D01*
X127806752Y-109891118D01*
X127961253Y-109778866D01*
X127989296Y-109747721D01*
X128084621Y-109641852D01*
X128084622Y-109641851D01*
X128089040Y-109636944D01*
X128184527Y-109471556D01*
X128243542Y-109289928D01*
X128247231Y-109254834D01*
X128262814Y-109106565D01*
X128263504Y-109100000D01*
X128243542Y-108910072D01*
X128184527Y-108728444D01*
X128174355Y-108710825D01*
X128157618Y-108641831D01*
X128163642Y-108608890D01*
X128172638Y-108581206D01*
X128218542Y-108439928D01*
X128220591Y-108420435D01*
X163323022Y-108420435D01*
X163334754Y-108664664D01*
X163335891Y-108673924D01*
X163383593Y-108913743D01*
X163386082Y-108922718D01*
X163468708Y-109152850D01*
X163472505Y-109161378D01*
X163542683Y-109291987D01*
X163552588Y-109302026D01*
X163559820Y-109299384D01*
X164385792Y-108473412D01*
X164392170Y-108461732D01*
X165676594Y-108461732D01*
X165676725Y-108463565D01*
X165680976Y-108470180D01*
X166507233Y-109296437D01*
X166519613Y-109303197D01*
X166527955Y-109296952D01*
X166537698Y-109281806D01*
X166542148Y-109273609D01*
X166642572Y-109050676D01*
X166645767Y-109041898D01*
X166712135Y-108806573D01*
X166713993Y-108797444D01*
X166745044Y-108553370D01*
X166745525Y-108547083D01*
X166747706Y-108463760D01*
X166747555Y-108457451D01*
X166729321Y-108212086D01*
X166727944Y-108202880D01*
X166673979Y-107964386D01*
X166671255Y-107955475D01*
X166582633Y-107727583D01*
X166578619Y-107719167D01*
X166527312Y-107629400D01*
X166517150Y-107619625D01*
X166509247Y-107622749D01*
X165684208Y-108447788D01*
X165676594Y-108461732D01*
X164392170Y-108461732D01*
X164393406Y-108459468D01*
X164393275Y-108457635D01*
X164389024Y-108451020D01*
X163564048Y-107626044D01*
X163551668Y-107619284D01*
X163544147Y-107624914D01*
X163511322Y-107679009D01*
X163507084Y-107687326D01*
X163412529Y-107912814D01*
X163409572Y-107921652D01*
X163349384Y-108158642D01*
X163347763Y-108167832D01*
X163323267Y-108411110D01*
X163323022Y-108420435D01*
X128220591Y-108420435D01*
X128238504Y-108250000D01*
X128218542Y-108060072D01*
X128159527Y-107878444D01*
X128064040Y-107713056D01*
X127979915Y-107619625D01*
X127940675Y-107576045D01*
X127940674Y-107576044D01*
X127936253Y-107571134D01*
X127781752Y-107458882D01*
X127775724Y-107456198D01*
X127775722Y-107456197D01*
X127613319Y-107383891D01*
X127613318Y-107383891D01*
X127607288Y-107381206D01*
X127513888Y-107361353D01*
X127426944Y-107342872D01*
X127426939Y-107342872D01*
X127420487Y-107341500D01*
X127229513Y-107341500D01*
X127223061Y-107342872D01*
X127223056Y-107342872D01*
X127136113Y-107361353D01*
X127042712Y-107381206D01*
X127036682Y-107383891D01*
X127036681Y-107383891D01*
X126874278Y-107456197D01*
X126874276Y-107456198D01*
X126868248Y-107458882D01*
X126713747Y-107571134D01*
X126709326Y-107576044D01*
X126709325Y-107576045D01*
X126670086Y-107619625D01*
X126585960Y-107713056D01*
X126490473Y-107878444D01*
X126431458Y-108060072D01*
X126411496Y-108250000D01*
X119708000Y-108250000D01*
X119708000Y-106975751D01*
X164191751Y-106975751D01*
X164196324Y-106985528D01*
X165022188Y-107811392D01*
X165036132Y-107819006D01*
X165037965Y-107818875D01*
X165044580Y-107814624D01*
X165871460Y-106987744D01*
X165878220Y-106975364D01*
X165874166Y-106969948D01*
X165680808Y-106874594D01*
X165672176Y-106871107D01*
X165439288Y-106796558D01*
X165430238Y-106794385D01*
X165188891Y-106755080D01*
X165179602Y-106754268D01*
X164935114Y-106751067D01*
X164925803Y-106751637D01*
X164683522Y-106784610D01*
X164674403Y-106786548D01*
X164439668Y-106854967D01*
X164430915Y-106858239D01*
X164208869Y-106960604D01*
X164200860Y-106965043D01*
X164191751Y-106975751D01*
X119708000Y-106975751D01*
X119708000Y-102563902D01*
X162987125Y-102563902D01*
X163013578Y-102782496D01*
X163078322Y-102992951D01*
X163080894Y-102997934D01*
X163142095Y-103116507D01*
X163179312Y-103188614D01*
X163313354Y-103363301D01*
X163476212Y-103511491D01*
X163662739Y-103628499D01*
X163667948Y-103630593D01*
X163667950Y-103630594D01*
X163762315Y-103668528D01*
X163867038Y-103710627D01*
X163872529Y-103711764D01*
X163872532Y-103711765D01*
X164007789Y-103739775D01*
X164082652Y-103755278D01*
X164087265Y-103755544D01*
X164136707Y-103758395D01*
X164136711Y-103758395D01*
X164138530Y-103758500D01*
X164830866Y-103758500D01*
X164833653Y-103758251D01*
X164833659Y-103758251D01*
X164988730Y-103744411D01*
X164988734Y-103744410D01*
X164994317Y-103743912D01*
X165206702Y-103685811D01*
X165211767Y-103683395D01*
X165211770Y-103683394D01*
X165400385Y-103593429D01*
X165400389Y-103593427D01*
X165405441Y-103591017D01*
X165584252Y-103462528D01*
X165737484Y-103304404D01*
X165799502Y-103212113D01*
X165857163Y-103126305D01*
X165857165Y-103126302D01*
X165860294Y-103121645D01*
X165948798Y-102920027D01*
X165969407Y-102834187D01*
X165998890Y-102711379D01*
X165998890Y-102711378D01*
X166000200Y-102705922D01*
X166012875Y-102486098D01*
X165986422Y-102267504D01*
X165972261Y-102221473D01*
X165971349Y-102150482D01*
X166008962Y-102090268D01*
X166018630Y-102082488D01*
X166155909Y-101982749D01*
X166155911Y-101982747D01*
X166161253Y-101978866D01*
X166247495Y-101883085D01*
X166284621Y-101841852D01*
X166284622Y-101841851D01*
X166289040Y-101836944D01*
X166384527Y-101671556D01*
X166443542Y-101489928D01*
X166446451Y-101462256D01*
X166462814Y-101306565D01*
X166463504Y-101300000D01*
X166451181Y-101182749D01*
X166444232Y-101116635D01*
X166444232Y-101116633D01*
X166443542Y-101110072D01*
X166384527Y-100928444D01*
X166289040Y-100763056D01*
X166161253Y-100621134D01*
X166006752Y-100508882D01*
X166000724Y-100506198D01*
X166000722Y-100506197D01*
X165838319Y-100433891D01*
X165838318Y-100433891D01*
X165832288Y-100431206D01*
X165738887Y-100411353D01*
X165651944Y-100392872D01*
X165651939Y-100392872D01*
X165645487Y-100391500D01*
X165454513Y-100391500D01*
X165448061Y-100392872D01*
X165448056Y-100392872D01*
X165361113Y-100411353D01*
X165267712Y-100431206D01*
X165261682Y-100433891D01*
X165261681Y-100433891D01*
X165099278Y-100506197D01*
X165099276Y-100506198D01*
X165093248Y-100508882D01*
X164938747Y-100621134D01*
X164810960Y-100763056D01*
X164715473Y-100928444D01*
X164656458Y-101110072D01*
X164655768Y-101116635D01*
X164655768Y-101116636D01*
X164649248Y-101178671D01*
X164622235Y-101244327D01*
X164564013Y-101284957D01*
X164523938Y-101291500D01*
X164169134Y-101291500D01*
X164166347Y-101291749D01*
X164166341Y-101291749D01*
X164011270Y-101305589D01*
X164011266Y-101305590D01*
X164005683Y-101306088D01*
X163793298Y-101364189D01*
X163788233Y-101366605D01*
X163788230Y-101366606D01*
X163599615Y-101456571D01*
X163599611Y-101456573D01*
X163594559Y-101458983D01*
X163415748Y-101587472D01*
X163262516Y-101745596D01*
X163259382Y-101750260D01*
X163171376Y-101881226D01*
X163139706Y-101928355D01*
X163051202Y-102129973D01*
X163049893Y-102135424D01*
X163049892Y-102135428D01*
X163020675Y-102257128D01*
X162999800Y-102344078D01*
X162987125Y-102563902D01*
X119708000Y-102563902D01*
X119708000Y-100500000D01*
X128386496Y-100500000D01*
X128387186Y-100506565D01*
X128404483Y-100671134D01*
X128406458Y-100689928D01*
X128465473Y-100871556D01*
X128560960Y-101036944D01*
X128688747Y-101178866D01*
X128843248Y-101291118D01*
X128849276Y-101293802D01*
X128849278Y-101293803D01*
X128990245Y-101356565D01*
X129017712Y-101368794D01*
X129111113Y-101388647D01*
X129198056Y-101407128D01*
X129198061Y-101407128D01*
X129204513Y-101408500D01*
X129395487Y-101408500D01*
X129401939Y-101407128D01*
X129401944Y-101407128D01*
X129488888Y-101388647D01*
X129582288Y-101368794D01*
X129609755Y-101356565D01*
X129624500Y-101350000D01*
X138586496Y-101350000D01*
X138587186Y-101356565D01*
X138592645Y-101408500D01*
X138606458Y-101539928D01*
X138665473Y-101721556D01*
X138668776Y-101727278D01*
X138668777Y-101727279D01*
X138682045Y-101750260D01*
X138760960Y-101886944D01*
X138765378Y-101891851D01*
X138765379Y-101891852D01*
X138802873Y-101933493D01*
X138888747Y-102028866D01*
X139043248Y-102141118D01*
X139049276Y-102143802D01*
X139049278Y-102143803D01*
X139211681Y-102216109D01*
X139217712Y-102218794D01*
X139311112Y-102238647D01*
X139398056Y-102257128D01*
X139398061Y-102257128D01*
X139404513Y-102258500D01*
X139595487Y-102258500D01*
X139601939Y-102257128D01*
X139601944Y-102257128D01*
X139688887Y-102238647D01*
X139782288Y-102218794D01*
X139788319Y-102216109D01*
X139950722Y-102143803D01*
X139950724Y-102143802D01*
X139956752Y-102141118D01*
X140111253Y-102028866D01*
X140197127Y-101933493D01*
X140234621Y-101891852D01*
X140234622Y-101891851D01*
X140239040Y-101886944D01*
X140317955Y-101750260D01*
X140331223Y-101727279D01*
X140331224Y-101727278D01*
X140334527Y-101721556D01*
X140393542Y-101539928D01*
X140407356Y-101408500D01*
X140412814Y-101356565D01*
X140413504Y-101350000D01*
X140407382Y-101291749D01*
X140394232Y-101166635D01*
X140394232Y-101166633D01*
X140393542Y-101160072D01*
X140334527Y-100978444D01*
X140239040Y-100813056D01*
X140199169Y-100768774D01*
X140115675Y-100676045D01*
X140115674Y-100676044D01*
X140111253Y-100671134D01*
X139956752Y-100558882D01*
X139950724Y-100556198D01*
X139950722Y-100556197D01*
X139788319Y-100483891D01*
X139788318Y-100483891D01*
X139782288Y-100481206D01*
X139688888Y-100461353D01*
X139601944Y-100442872D01*
X139601939Y-100442872D01*
X139595487Y-100441500D01*
X139404513Y-100441500D01*
X139398061Y-100442872D01*
X139398056Y-100442872D01*
X139311112Y-100461353D01*
X139217712Y-100481206D01*
X139211682Y-100483891D01*
X139211681Y-100483891D01*
X139049278Y-100556197D01*
X139049276Y-100556198D01*
X139043248Y-100558882D01*
X138888747Y-100671134D01*
X138884326Y-100676044D01*
X138884325Y-100676045D01*
X138800832Y-100768774D01*
X138760960Y-100813056D01*
X138665473Y-100978444D01*
X138606458Y-101160072D01*
X138605768Y-101166633D01*
X138605768Y-101166635D01*
X138592618Y-101291749D01*
X138586496Y-101350000D01*
X129624500Y-101350000D01*
X129750722Y-101293803D01*
X129750724Y-101293802D01*
X129756752Y-101291118D01*
X129911253Y-101178866D01*
X130039040Y-101036944D01*
X130134527Y-100871556D01*
X130193542Y-100689928D01*
X130195518Y-100671134D01*
X130212814Y-100506565D01*
X130213504Y-100500000D01*
X130211529Y-100481206D01*
X130194232Y-100316635D01*
X130194232Y-100316633D01*
X130193542Y-100310072D01*
X130134527Y-100128444D01*
X130039040Y-99963056D01*
X129911253Y-99821134D01*
X129756752Y-99708882D01*
X129750724Y-99706198D01*
X129750722Y-99706197D01*
X129588319Y-99633891D01*
X129588318Y-99633891D01*
X129582288Y-99631206D01*
X129466362Y-99606565D01*
X129401944Y-99592872D01*
X129401939Y-99592872D01*
X129395487Y-99591500D01*
X129204513Y-99591500D01*
X129198061Y-99592872D01*
X129198056Y-99592872D01*
X129133638Y-99606565D01*
X129017712Y-99631206D01*
X129011682Y-99633891D01*
X129011681Y-99633891D01*
X128849278Y-99706197D01*
X128849276Y-99706198D01*
X128843248Y-99708882D01*
X128688747Y-99821134D01*
X128560960Y-99963056D01*
X128465473Y-100128444D01*
X128406458Y-100310072D01*
X128405768Y-100316633D01*
X128405768Y-100316635D01*
X128388471Y-100481206D01*
X128386496Y-100500000D01*
X119708000Y-100500000D01*
X119708000Y-98050000D01*
X126836496Y-98050000D01*
X126837186Y-98056565D01*
X126844489Y-98126045D01*
X126856458Y-98239928D01*
X126915473Y-98421556D01*
X127010960Y-98586944D01*
X127015378Y-98591851D01*
X127015379Y-98591852D01*
X127106338Y-98692872D01*
X127138747Y-98728866D01*
X127293248Y-98841118D01*
X127299276Y-98843802D01*
X127299278Y-98843803D01*
X127461681Y-98916109D01*
X127467712Y-98918794D01*
X127561113Y-98938647D01*
X127648056Y-98957128D01*
X127648061Y-98957128D01*
X127654513Y-98958500D01*
X127845487Y-98958500D01*
X127851939Y-98957128D01*
X127851944Y-98957128D01*
X127938887Y-98938647D01*
X128032288Y-98918794D01*
X128038319Y-98916109D01*
X128200722Y-98843803D01*
X128200724Y-98843802D01*
X128206752Y-98841118D01*
X128263346Y-98800000D01*
X140986496Y-98800000D01*
X140987186Y-98806565D01*
X141003011Y-98957128D01*
X141006458Y-98989928D01*
X141065473Y-99171556D01*
X141160960Y-99336944D01*
X141288747Y-99478866D01*
X141443248Y-99591118D01*
X141449276Y-99593802D01*
X141449278Y-99593803D01*
X141539318Y-99633891D01*
X141617712Y-99668794D01*
X141711112Y-99688647D01*
X141798056Y-99707128D01*
X141798061Y-99707128D01*
X141804513Y-99708500D01*
X141995487Y-99708500D01*
X142001939Y-99707128D01*
X142001944Y-99707128D01*
X142088888Y-99688647D01*
X142182288Y-99668794D01*
X142260682Y-99633891D01*
X142336803Y-99600000D01*
X145586496Y-99600000D01*
X145606458Y-99789928D01*
X145665473Y-99971556D01*
X145760960Y-100136944D01*
X145888747Y-100278866D01*
X146043248Y-100391118D01*
X146049276Y-100393802D01*
X146049278Y-100393803D01*
X146139318Y-100433891D01*
X146217712Y-100468794D01*
X146311113Y-100488647D01*
X146398056Y-100507128D01*
X146398061Y-100507128D01*
X146404513Y-100508500D01*
X146595487Y-100508500D01*
X146601939Y-100507128D01*
X146601944Y-100507128D01*
X146688888Y-100488647D01*
X146782288Y-100468794D01*
X146860682Y-100433891D01*
X146950722Y-100393803D01*
X146950724Y-100393802D01*
X146956752Y-100391118D01*
X147111253Y-100278866D01*
X147239040Y-100136944D01*
X147334527Y-99971556D01*
X147393542Y-99789928D01*
X147413504Y-99600000D01*
X147401181Y-99482749D01*
X147394232Y-99416635D01*
X147394232Y-99416633D01*
X147393542Y-99410072D01*
X147334527Y-99228444D01*
X147239040Y-99063056D01*
X147144898Y-98958500D01*
X147115675Y-98926045D01*
X147115674Y-98926044D01*
X147111253Y-98921134D01*
X146956752Y-98808882D01*
X146950724Y-98806198D01*
X146950722Y-98806197D01*
X146788319Y-98733891D01*
X146788318Y-98733891D01*
X146782288Y-98731206D01*
X146688888Y-98711353D01*
X146601944Y-98692872D01*
X146601939Y-98692872D01*
X146595487Y-98691500D01*
X146404513Y-98691500D01*
X146398061Y-98692872D01*
X146398056Y-98692872D01*
X146311113Y-98711353D01*
X146217712Y-98731206D01*
X146211682Y-98733891D01*
X146211681Y-98733891D01*
X146049278Y-98806197D01*
X146049276Y-98806198D01*
X146043248Y-98808882D01*
X145888747Y-98921134D01*
X145884326Y-98926044D01*
X145884325Y-98926045D01*
X145855103Y-98958500D01*
X145760960Y-99063056D01*
X145665473Y-99228444D01*
X145606458Y-99410072D01*
X145605768Y-99416633D01*
X145605768Y-99416635D01*
X145598819Y-99482749D01*
X145586496Y-99600000D01*
X142336803Y-99600000D01*
X142350722Y-99593803D01*
X142350724Y-99593802D01*
X142356752Y-99591118D01*
X142511253Y-99478866D01*
X142639040Y-99336944D01*
X142734527Y-99171556D01*
X142793542Y-98989928D01*
X142796990Y-98957128D01*
X142812814Y-98806565D01*
X142813504Y-98800000D01*
X142806028Y-98728866D01*
X142794232Y-98616635D01*
X142794232Y-98616633D01*
X142793542Y-98610072D01*
X142734527Y-98428444D01*
X142639040Y-98263056D01*
X142618216Y-98239928D01*
X142515675Y-98126045D01*
X142515674Y-98126044D01*
X142511253Y-98121134D01*
X142356752Y-98008882D01*
X142350724Y-98006198D01*
X142350722Y-98006197D01*
X142188319Y-97933891D01*
X142188318Y-97933891D01*
X142182288Y-97931206D01*
X142088888Y-97911353D01*
X142001944Y-97892872D01*
X142001939Y-97892872D01*
X141995487Y-97891500D01*
X141804513Y-97891500D01*
X141798061Y-97892872D01*
X141798056Y-97892872D01*
X141711112Y-97911353D01*
X141617712Y-97931206D01*
X141611682Y-97933891D01*
X141611681Y-97933891D01*
X141449278Y-98006197D01*
X141449276Y-98006198D01*
X141443248Y-98008882D01*
X141288747Y-98121134D01*
X141284326Y-98126044D01*
X141284325Y-98126045D01*
X141181785Y-98239928D01*
X141160960Y-98263056D01*
X141065473Y-98428444D01*
X141006458Y-98610072D01*
X141005768Y-98616633D01*
X141005768Y-98616635D01*
X140993972Y-98728866D01*
X140986496Y-98800000D01*
X128263346Y-98800000D01*
X128361253Y-98728866D01*
X128393662Y-98692872D01*
X128484621Y-98591852D01*
X128484622Y-98591851D01*
X128489040Y-98586944D01*
X128584527Y-98421556D01*
X128643542Y-98239928D01*
X128655512Y-98126045D01*
X128662814Y-98056565D01*
X128663504Y-98050000D01*
X128651301Y-97933891D01*
X128644232Y-97866635D01*
X128644232Y-97866633D01*
X128643542Y-97860072D01*
X128584527Y-97678444D01*
X128489040Y-97513056D01*
X128483703Y-97507128D01*
X128365675Y-97376045D01*
X128365674Y-97376044D01*
X128361253Y-97371134D01*
X128206752Y-97258882D01*
X128200724Y-97256198D01*
X128200722Y-97256197D01*
X128038319Y-97183891D01*
X128038318Y-97183891D01*
X128032288Y-97181206D01*
X127938888Y-97161353D01*
X127851944Y-97142872D01*
X127851939Y-97142872D01*
X127845487Y-97141500D01*
X127654513Y-97141500D01*
X127648061Y-97142872D01*
X127648056Y-97142872D01*
X127561112Y-97161353D01*
X127467712Y-97181206D01*
X127461682Y-97183891D01*
X127461681Y-97183891D01*
X127299278Y-97256197D01*
X127299276Y-97256198D01*
X127293248Y-97258882D01*
X127138747Y-97371134D01*
X127134326Y-97376044D01*
X127134325Y-97376045D01*
X127016298Y-97507128D01*
X127010960Y-97513056D01*
X126915473Y-97678444D01*
X126856458Y-97860072D01*
X126855768Y-97866633D01*
X126855768Y-97866635D01*
X126848699Y-97933891D01*
X126836496Y-98050000D01*
X119708000Y-98050000D01*
X119708000Y-96600000D01*
X130961496Y-96600000D01*
X130981458Y-96789928D01*
X131040473Y-96971556D01*
X131135960Y-97136944D01*
X131140378Y-97141851D01*
X131140379Y-97141852D01*
X131178231Y-97183891D01*
X131263747Y-97278866D01*
X131418248Y-97391118D01*
X131424276Y-97393802D01*
X131424278Y-97393803D01*
X131586681Y-97466109D01*
X131592712Y-97468794D01*
X131686112Y-97488647D01*
X131773056Y-97507128D01*
X131773061Y-97507128D01*
X131779513Y-97508500D01*
X131970487Y-97508500D01*
X131976939Y-97507128D01*
X131976944Y-97507128D01*
X132063887Y-97488647D01*
X132157288Y-97468794D01*
X132163319Y-97466109D01*
X132325722Y-97393803D01*
X132325724Y-97393802D01*
X132331752Y-97391118D01*
X132486253Y-97278866D01*
X132571769Y-97183891D01*
X132609621Y-97141852D01*
X132609622Y-97141851D01*
X132614040Y-97136944D01*
X132709527Y-96971556D01*
X132768542Y-96789928D01*
X132788504Y-96600000D01*
X132768542Y-96410072D01*
X132709527Y-96228444D01*
X132614040Y-96063056D01*
X132551685Y-95993803D01*
X132490675Y-95926045D01*
X132490674Y-95926044D01*
X132486253Y-95921134D01*
X132331752Y-95808882D01*
X132325724Y-95806198D01*
X132325722Y-95806197D01*
X132163319Y-95733891D01*
X132163318Y-95733891D01*
X132157288Y-95731206D01*
X132063887Y-95711353D01*
X131976944Y-95692872D01*
X131976939Y-95692872D01*
X131970487Y-95691500D01*
X131779513Y-95691500D01*
X131773061Y-95692872D01*
X131773056Y-95692872D01*
X131686113Y-95711353D01*
X131592712Y-95731206D01*
X131586682Y-95733891D01*
X131586681Y-95733891D01*
X131424278Y-95806197D01*
X131424276Y-95806198D01*
X131418248Y-95808882D01*
X131263747Y-95921134D01*
X131259326Y-95926044D01*
X131259325Y-95926045D01*
X131198316Y-95993803D01*
X131135960Y-96063056D01*
X131040473Y-96228444D01*
X130981458Y-96410072D01*
X130961496Y-96600000D01*
X119708000Y-96600000D01*
X119708000Y-94713503D01*
X124768729Y-94713503D01*
X124781759Y-94912301D01*
X124830799Y-95105397D01*
X124914207Y-95286322D01*
X125029189Y-95449018D01*
X125171894Y-95588035D01*
X125176690Y-95591240D01*
X125176693Y-95591242D01*
X125311496Y-95681314D01*
X125337544Y-95698719D01*
X125342847Y-95700997D01*
X125342850Y-95700999D01*
X125419409Y-95733891D01*
X125520591Y-95777362D01*
X125591896Y-95793497D01*
X125709266Y-95820055D01*
X125709271Y-95820056D01*
X125714903Y-95821330D01*
X125720674Y-95821557D01*
X125720676Y-95821557D01*
X125779511Y-95823869D01*
X125913975Y-95829152D01*
X126027010Y-95812763D01*
X126105418Y-95801395D01*
X126105423Y-95801394D01*
X126111139Y-95800565D01*
X126116611Y-95798707D01*
X126116613Y-95798707D01*
X126294327Y-95738381D01*
X126294329Y-95738380D01*
X126299791Y-95736526D01*
X126473615Y-95639180D01*
X126626788Y-95511788D01*
X126754180Y-95358615D01*
X126843009Y-95200000D01*
X150261496Y-95200000D01*
X150281458Y-95389928D01*
X150340473Y-95571556D01*
X150435960Y-95736944D01*
X150440378Y-95741851D01*
X150440379Y-95741852D01*
X150500733Y-95808882D01*
X150563747Y-95878866D01*
X150718248Y-95991118D01*
X150724276Y-95993802D01*
X150724278Y-95993803D01*
X150876309Y-96061491D01*
X150892712Y-96068794D01*
X150986113Y-96088647D01*
X151073056Y-96107128D01*
X151073061Y-96107128D01*
X151079513Y-96108500D01*
X151270487Y-96108500D01*
X151276939Y-96107128D01*
X151276944Y-96107128D01*
X151363887Y-96088647D01*
X151457288Y-96068794D01*
X151473691Y-96061491D01*
X151625722Y-95993803D01*
X151625724Y-95993802D01*
X151631752Y-95991118D01*
X151786253Y-95878866D01*
X151849267Y-95808882D01*
X151909621Y-95741852D01*
X151909622Y-95741851D01*
X151914040Y-95736944D01*
X152009527Y-95571556D01*
X152068542Y-95389928D01*
X152088504Y-95200000D01*
X152079455Y-95113902D01*
X162987125Y-95113902D01*
X163013578Y-95332496D01*
X163078322Y-95542951D01*
X163179312Y-95738614D01*
X163313354Y-95913301D01*
X163476212Y-96061491D01*
X163662739Y-96178499D01*
X163867038Y-96260627D01*
X163872529Y-96261764D01*
X163872532Y-96261765D01*
X164007789Y-96289775D01*
X164082652Y-96305278D01*
X164087265Y-96305544D01*
X164136707Y-96308395D01*
X164136711Y-96308395D01*
X164138530Y-96308500D01*
X164523938Y-96308500D01*
X164592059Y-96328502D01*
X164638552Y-96382158D01*
X164649248Y-96421328D01*
X164656458Y-96489928D01*
X164715473Y-96671556D01*
X164810960Y-96836944D01*
X164938747Y-96978866D01*
X165093248Y-97091118D01*
X165099276Y-97093802D01*
X165099278Y-97093803D01*
X165183332Y-97131226D01*
X165267712Y-97168794D01*
X165361113Y-97188647D01*
X165448056Y-97207128D01*
X165448061Y-97207128D01*
X165454513Y-97208500D01*
X165645487Y-97208500D01*
X165651939Y-97207128D01*
X165651944Y-97207128D01*
X165738887Y-97188647D01*
X165832288Y-97168794D01*
X165916668Y-97131226D01*
X166000722Y-97093803D01*
X166000724Y-97093802D01*
X166006752Y-97091118D01*
X166161253Y-96978866D01*
X166289040Y-96836944D01*
X166384527Y-96671556D01*
X166443542Y-96489928D01*
X166463504Y-96300000D01*
X166443542Y-96110072D01*
X166384527Y-95928444D01*
X166377966Y-95917079D01*
X166327201Y-95829152D01*
X166289040Y-95763056D01*
X166271038Y-95743062D01*
X166165675Y-95626045D01*
X166165674Y-95626044D01*
X166161253Y-95621134D01*
X166120111Y-95591242D01*
X166017574Y-95516745D01*
X165974220Y-95460523D01*
X165969116Y-95385395D01*
X165969604Y-95383365D01*
X166000200Y-95255922D01*
X166012875Y-95036098D01*
X165986422Y-94817504D01*
X165921678Y-94607049D01*
X165871183Y-94509218D01*
X165823260Y-94416369D01*
X165823260Y-94416368D01*
X165820688Y-94411386D01*
X165686646Y-94236699D01*
X165523788Y-94088509D01*
X165337261Y-93971501D01*
X165132962Y-93889373D01*
X165127471Y-93888236D01*
X165127468Y-93888235D01*
X164980973Y-93857898D01*
X164917348Y-93844722D01*
X164912735Y-93844456D01*
X164863293Y-93841605D01*
X164863289Y-93841605D01*
X164861470Y-93841500D01*
X164169134Y-93841500D01*
X164166347Y-93841749D01*
X164166341Y-93841749D01*
X164011270Y-93855589D01*
X164011266Y-93855590D01*
X164005683Y-93856088D01*
X163793298Y-93914189D01*
X163788233Y-93916605D01*
X163788230Y-93916606D01*
X163599615Y-94006571D01*
X163599611Y-94006573D01*
X163594559Y-94008983D01*
X163415748Y-94137472D01*
X163262516Y-94295596D01*
X163259382Y-94300260D01*
X163147530Y-94466712D01*
X163139706Y-94478355D01*
X163051202Y-94679973D01*
X163049893Y-94685424D01*
X163049892Y-94685428D01*
X163022632Y-94798975D01*
X162999800Y-94894078D01*
X162997143Y-94940152D01*
X162989520Y-95072371D01*
X162987125Y-95113902D01*
X152079455Y-95113902D01*
X152076332Y-95084187D01*
X152069232Y-95016635D01*
X152069232Y-95016633D01*
X152068542Y-95010072D01*
X152009527Y-94828444D01*
X152000033Y-94811999D01*
X151946495Y-94719269D01*
X151914040Y-94663056D01*
X151859125Y-94602066D01*
X151790675Y-94526045D01*
X151790674Y-94526044D01*
X151786253Y-94521134D01*
X151631752Y-94408882D01*
X151625724Y-94406198D01*
X151625722Y-94406197D01*
X151463319Y-94333891D01*
X151463318Y-94333891D01*
X151457288Y-94331206D01*
X151363887Y-94311353D01*
X151276944Y-94292872D01*
X151276939Y-94292872D01*
X151270487Y-94291500D01*
X151079513Y-94291500D01*
X151073061Y-94292872D01*
X151073056Y-94292872D01*
X150986112Y-94311353D01*
X150892712Y-94331206D01*
X150886682Y-94333891D01*
X150886681Y-94333891D01*
X150724278Y-94406197D01*
X150724276Y-94406198D01*
X150718248Y-94408882D01*
X150563747Y-94521134D01*
X150559326Y-94526044D01*
X150559325Y-94526045D01*
X150490876Y-94602066D01*
X150435960Y-94663056D01*
X150403505Y-94719269D01*
X150349968Y-94811999D01*
X150340473Y-94828444D01*
X150281458Y-95010072D01*
X150280768Y-95016633D01*
X150280768Y-95016635D01*
X150273668Y-95084187D01*
X150261496Y-95200000D01*
X126843009Y-95200000D01*
X126851526Y-95184791D01*
X126900098Y-95041705D01*
X126913707Y-95001613D01*
X126913707Y-95001611D01*
X126915565Y-94996139D01*
X126916394Y-94990423D01*
X126916395Y-94990418D01*
X126934450Y-94865891D01*
X126944152Y-94798975D01*
X126945644Y-94742000D01*
X126928923Y-94560018D01*
X126927944Y-94549364D01*
X126927943Y-94549361D01*
X126927415Y-94543610D01*
X126922461Y-94526045D01*
X126874905Y-94357424D01*
X126874904Y-94357422D01*
X126873337Y-94351865D01*
X126864474Y-94333891D01*
X126787777Y-94178366D01*
X126785222Y-94173185D01*
X126771039Y-94154191D01*
X126669473Y-94018179D01*
X126669473Y-94018178D01*
X126666020Y-94013555D01*
X126519724Y-93878321D01*
X126434428Y-93824503D01*
X158550729Y-93824503D01*
X158563759Y-94023301D01*
X158612799Y-94216397D01*
X158696207Y-94397322D01*
X158811189Y-94560018D01*
X158875624Y-94622788D01*
X158916961Y-94663056D01*
X158953894Y-94699035D01*
X158958690Y-94702240D01*
X158958693Y-94702242D01*
X159093496Y-94792314D01*
X159119544Y-94809719D01*
X159124847Y-94811997D01*
X159124850Y-94811999D01*
X159207542Y-94847526D01*
X159302591Y-94888362D01*
X159352623Y-94899683D01*
X159491266Y-94931055D01*
X159491271Y-94931056D01*
X159496903Y-94932330D01*
X159502674Y-94932557D01*
X159502676Y-94932557D01*
X159561511Y-94934869D01*
X159695975Y-94940152D01*
X159795903Y-94925663D01*
X159887418Y-94912395D01*
X159887423Y-94912394D01*
X159893139Y-94911565D01*
X159898611Y-94909707D01*
X159898613Y-94909707D01*
X160076327Y-94849381D01*
X160076329Y-94849380D01*
X160081791Y-94847526D01*
X160255615Y-94750180D01*
X160408788Y-94622788D01*
X160474639Y-94543610D01*
X160532489Y-94474053D01*
X160536180Y-94469615D01*
X160633526Y-94295791D01*
X160636030Y-94288416D01*
X160695707Y-94112613D01*
X160695707Y-94112611D01*
X160697565Y-94107139D01*
X160698394Y-94101423D01*
X160698395Y-94101418D01*
X160725111Y-93917154D01*
X160726152Y-93909975D01*
X160727644Y-93853000D01*
X160712618Y-93689472D01*
X160709944Y-93660364D01*
X160709943Y-93660361D01*
X160709415Y-93654610D01*
X160703461Y-93633500D01*
X160656905Y-93468424D01*
X160656904Y-93468422D01*
X160655337Y-93462865D01*
X160645004Y-93441910D01*
X160569777Y-93289366D01*
X160567222Y-93284185D01*
X160553039Y-93265191D01*
X160451473Y-93129179D01*
X160451473Y-93129178D01*
X160448020Y-93124555D01*
X160398723Y-93078985D01*
X160305959Y-92993236D01*
X160301724Y-92989321D01*
X160133234Y-92883011D01*
X160127874Y-92880873D01*
X160127869Y-92880870D01*
X159953556Y-92811327D01*
X159948192Y-92809187D01*
X159942532Y-92808061D01*
X159942528Y-92808060D01*
X159758461Y-92771447D01*
X159758459Y-92771447D01*
X159752794Y-92770320D01*
X159747019Y-92770244D01*
X159747015Y-92770244D01*
X159647480Y-92768941D01*
X159553586Y-92767712D01*
X159547889Y-92768691D01*
X159547888Y-92768691D01*
X159362935Y-92800472D01*
X159357238Y-92801451D01*
X159170327Y-92870406D01*
X159165366Y-92873358D01*
X159165365Y-92873358D01*
X159004079Y-92969313D01*
X159004076Y-92969315D01*
X158999111Y-92972269D01*
X158849326Y-93103627D01*
X158845750Y-93108162D01*
X158845750Y-93108163D01*
X158729622Y-93255470D01*
X158725986Y-93260082D01*
X158633224Y-93436394D01*
X158574145Y-93626658D01*
X158550729Y-93824503D01*
X126434428Y-93824503D01*
X126351234Y-93772011D01*
X126345874Y-93769873D01*
X126345869Y-93769870D01*
X126171556Y-93700327D01*
X126166192Y-93698187D01*
X126160532Y-93697061D01*
X126160528Y-93697060D01*
X125976461Y-93660447D01*
X125976459Y-93660447D01*
X125970794Y-93659320D01*
X125965019Y-93659244D01*
X125965015Y-93659244D01*
X125865480Y-93657941D01*
X125771586Y-93656712D01*
X125765889Y-93657691D01*
X125765888Y-93657691D01*
X125580935Y-93689472D01*
X125575238Y-93690451D01*
X125388327Y-93759406D01*
X125383366Y-93762358D01*
X125383365Y-93762358D01*
X125222079Y-93858313D01*
X125222076Y-93858315D01*
X125217111Y-93861269D01*
X125067326Y-93992627D01*
X125063750Y-93997162D01*
X125063750Y-93997163D01*
X124949962Y-94141502D01*
X124943986Y-94149082D01*
X124851224Y-94325394D01*
X124849512Y-94330908D01*
X124849511Y-94330910D01*
X124824095Y-94412763D01*
X124792145Y-94515658D01*
X124768729Y-94713503D01*
X119708000Y-94713503D01*
X119708000Y-92147306D01*
X121651675Y-92147306D01*
X121659607Y-92158123D01*
X121923802Y-92364163D01*
X121928359Y-92367402D01*
X122283448Y-92596680D01*
X122288250Y-92599486D01*
X122662316Y-92796291D01*
X122667374Y-92798671D01*
X123057435Y-92961438D01*
X123062690Y-92963361D01*
X123465676Y-93090808D01*
X123471075Y-93092255D01*
X123883796Y-93183375D01*
X123889307Y-93184337D01*
X124308501Y-93238410D01*
X124314064Y-93238877D01*
X124736405Y-93255470D01*
X124741997Y-93255441D01*
X125164125Y-93234426D01*
X125169708Y-93233898D01*
X125588305Y-93175440D01*
X125593792Y-93174423D01*
X126005543Y-93078985D01*
X126010929Y-93077481D01*
X126412567Y-92945818D01*
X126417784Y-92943846D01*
X126806126Y-92777002D01*
X126811169Y-92774564D01*
X126903027Y-92725000D01*
X135836496Y-92725000D01*
X135837186Y-92731565D01*
X135851779Y-92870406D01*
X135856458Y-92914928D01*
X135915473Y-93096556D01*
X136010960Y-93261944D01*
X136138747Y-93403866D01*
X136293248Y-93516118D01*
X136299276Y-93518802D01*
X136299278Y-93518803D01*
X136461681Y-93591109D01*
X136467712Y-93593794D01*
X136561113Y-93613647D01*
X136648056Y-93632128D01*
X136648061Y-93632128D01*
X136654513Y-93633500D01*
X136845487Y-93633500D01*
X136851939Y-93632128D01*
X136851944Y-93632128D01*
X136938888Y-93613647D01*
X137032288Y-93593794D01*
X137038319Y-93591109D01*
X137200722Y-93518803D01*
X137200724Y-93518802D01*
X137206752Y-93516118D01*
X137361253Y-93403866D01*
X137489040Y-93261944D01*
X137584527Y-93096556D01*
X137643542Y-92914928D01*
X137648222Y-92870406D01*
X137662814Y-92731565D01*
X137663504Y-92725000D01*
X137643542Y-92535072D01*
X137584527Y-92353444D01*
X137573715Y-92334716D01*
X137492341Y-92193774D01*
X137489040Y-92188056D01*
X137471697Y-92168794D01*
X137365675Y-92051045D01*
X137365674Y-92051044D01*
X137361253Y-92046134D01*
X137206752Y-91933882D01*
X137200724Y-91931198D01*
X137200722Y-91931197D01*
X137038319Y-91858891D01*
X137038318Y-91858891D01*
X137032288Y-91856206D01*
X136938887Y-91836353D01*
X136851944Y-91817872D01*
X136851939Y-91817872D01*
X136845487Y-91816500D01*
X136654513Y-91816500D01*
X136648061Y-91817872D01*
X136648056Y-91817872D01*
X136561113Y-91836353D01*
X136467712Y-91856206D01*
X136461682Y-91858891D01*
X136461681Y-91858891D01*
X136299278Y-91931197D01*
X136299276Y-91931198D01*
X136293248Y-91933882D01*
X136138747Y-92046134D01*
X136134326Y-92051044D01*
X136134325Y-92051045D01*
X136028304Y-92168794D01*
X136010960Y-92188056D01*
X136007659Y-92193774D01*
X135926286Y-92334716D01*
X135915473Y-92353444D01*
X135856458Y-92535072D01*
X135836496Y-92725000D01*
X126903027Y-92725000D01*
X127183131Y-92573863D01*
X127187935Y-92570988D01*
X127540563Y-92338031D01*
X127545126Y-92334716D01*
X127767146Y-92157798D01*
X127775615Y-92145742D01*
X127769188Y-92134384D01*
X124726812Y-89092008D01*
X124712868Y-89084394D01*
X124711035Y-89084525D01*
X124704420Y-89088776D01*
X121658635Y-92134561D01*
X121651675Y-92147306D01*
X119708000Y-92147306D01*
X119708000Y-89200645D01*
X119728002Y-89132524D01*
X119781658Y-89086031D01*
X119851932Y-89075927D01*
X119916512Y-89105421D01*
X119954896Y-89165147D01*
X119957579Y-89176064D01*
X120039535Y-89588086D01*
X120040864Y-89593498D01*
X120159852Y-89999089D01*
X120161658Y-90004364D01*
X120316219Y-90397748D01*
X120318501Y-90402872D01*
X120507416Y-90780950D01*
X120510140Y-90785843D01*
X120731917Y-91145633D01*
X120735068Y-91150269D01*
X120987952Y-91488923D01*
X120991490Y-91493246D01*
X120996256Y-91498568D01*
X121009751Y-91506931D01*
X121019163Y-91501241D01*
X124076472Y-88443932D01*
X125355594Y-88443932D01*
X125355725Y-88445765D01*
X125359976Y-88452380D01*
X128405651Y-91498055D01*
X128419412Y-91505569D01*
X128428772Y-91499111D01*
X128468244Y-91454103D01*
X128471744Y-91449735D01*
X128721073Y-91108445D01*
X128724168Y-91103787D01*
X128942160Y-90741703D01*
X128944841Y-90736764D01*
X129129779Y-90356746D01*
X129132014Y-90351580D01*
X129282442Y-89956615D01*
X129284201Y-89951296D01*
X129350261Y-89717064D01*
X132037707Y-89717064D01*
X132066825Y-89909599D01*
X132069028Y-89915585D01*
X132069029Y-89915591D01*
X132131860Y-90086360D01*
X132131862Y-90086365D01*
X132134063Y-90092346D01*
X132185200Y-90174821D01*
X132229464Y-90246211D01*
X132236674Y-90257840D01*
X132370466Y-90399322D01*
X132375696Y-90402984D01*
X132375697Y-90402985D01*
X132410100Y-90427074D01*
X132529975Y-90511011D01*
X132535838Y-90513548D01*
X132702825Y-90585810D01*
X132702829Y-90585811D01*
X132708684Y-90588345D01*
X132714931Y-90589650D01*
X132714934Y-90589651D01*
X132894557Y-90627176D01*
X132894562Y-90627177D01*
X132899293Y-90628165D01*
X132905685Y-90628500D01*
X133048663Y-90628500D01*
X133159408Y-90617251D01*
X133187378Y-90614410D01*
X133187379Y-90614410D01*
X133193727Y-90613765D01*
X133250061Y-90596111D01*
X133373451Y-90557444D01*
X133373456Y-90557442D01*
X133379541Y-90555535D01*
X133468548Y-90506197D01*
X133544271Y-90464223D01*
X133544274Y-90464221D01*
X133549850Y-90461130D01*
X133554691Y-90456981D01*
X133554695Y-90456978D01*
X133692855Y-90338560D01*
X133697698Y-90334409D01*
X133817046Y-90180547D01*
X133857779Y-90097768D01*
X133900200Y-90011556D01*
X133903018Y-90005829D01*
X133904774Y-89999089D01*
X133950492Y-89823575D01*
X133950492Y-89823572D01*
X133952102Y-89817393D01*
X133957360Y-89717064D01*
X135037707Y-89717064D01*
X135066825Y-89909599D01*
X135069028Y-89915585D01*
X135069029Y-89915591D01*
X135131860Y-90086360D01*
X135131862Y-90086365D01*
X135134063Y-90092346D01*
X135185200Y-90174821D01*
X135229464Y-90246211D01*
X135236674Y-90257840D01*
X135370466Y-90399322D01*
X135375696Y-90402984D01*
X135375697Y-90402985D01*
X135410100Y-90427074D01*
X135529975Y-90511011D01*
X135535838Y-90513548D01*
X135702825Y-90585810D01*
X135702829Y-90585811D01*
X135708684Y-90588345D01*
X135714931Y-90589650D01*
X135714934Y-90589651D01*
X135894557Y-90627176D01*
X135894562Y-90627177D01*
X135899293Y-90628165D01*
X135905685Y-90628500D01*
X136048663Y-90628500D01*
X136159408Y-90617251D01*
X136187378Y-90614410D01*
X136187379Y-90614410D01*
X136193727Y-90613765D01*
X136250061Y-90596111D01*
X136373451Y-90557444D01*
X136373456Y-90557442D01*
X136379541Y-90555535D01*
X136468548Y-90506197D01*
X136544271Y-90464223D01*
X136544274Y-90464221D01*
X136549850Y-90461130D01*
X136554691Y-90456981D01*
X136554695Y-90456978D01*
X136692855Y-90338560D01*
X136697698Y-90334409D01*
X136788924Y-90216801D01*
X141154529Y-90216801D01*
X141156259Y-90233259D01*
X141158990Y-90246104D01*
X141213889Y-90415066D01*
X141219235Y-90427074D01*
X141308062Y-90580927D01*
X141315786Y-90591558D01*
X141434663Y-90723585D01*
X141444426Y-90732376D01*
X141588157Y-90836802D01*
X141599529Y-90843368D01*
X141633450Y-90858470D01*
X141647428Y-90860344D01*
X141650000Y-90856257D01*
X141650000Y-90218115D01*
X141645525Y-90202876D01*
X141644135Y-90201671D01*
X141636452Y-90200000D01*
X141170878Y-90200000D01*
X141156587Y-90204196D01*
X141154529Y-90216801D01*
X136788924Y-90216801D01*
X136817046Y-90180547D01*
X136857779Y-90097768D01*
X136900200Y-90011556D01*
X136903018Y-90005829D01*
X136904774Y-89999089D01*
X136950492Y-89823575D01*
X136950492Y-89823572D01*
X136952102Y-89817393D01*
X136962293Y-89622936D01*
X136933175Y-89430401D01*
X136930972Y-89424415D01*
X136930971Y-89424409D01*
X136915362Y-89381985D01*
X141154657Y-89381985D01*
X141157336Y-89396636D01*
X141169657Y-89400000D01*
X142265500Y-89400000D01*
X142333621Y-89420002D01*
X142380114Y-89473658D01*
X142391500Y-89526000D01*
X142391500Y-90097610D01*
X142391844Y-90100880D01*
X142402564Y-90202876D01*
X142406458Y-90239928D01*
X142437157Y-90334409D01*
X142443833Y-90354955D01*
X142450000Y-90393892D01*
X142450000Y-90847724D01*
X142453973Y-90861255D01*
X142458753Y-90861942D01*
X142500471Y-90843368D01*
X142511843Y-90836802D01*
X142600515Y-90772378D01*
X142667383Y-90748519D01*
X142736534Y-90764600D01*
X142748620Y-90772366D01*
X142843248Y-90841118D01*
X142849276Y-90843802D01*
X142849278Y-90843803D01*
X142925662Y-90877811D01*
X143017712Y-90918794D01*
X143092680Y-90934729D01*
X143198056Y-90957128D01*
X143198061Y-90957128D01*
X143204513Y-90958500D01*
X143395487Y-90958500D01*
X143401939Y-90957128D01*
X143401944Y-90957128D01*
X143507320Y-90934729D01*
X143582288Y-90918794D01*
X143674338Y-90877811D01*
X143750722Y-90843803D01*
X143750724Y-90843802D01*
X143756752Y-90841118D01*
X143762693Y-90836802D01*
X143850939Y-90772687D01*
X143917807Y-90748828D01*
X143986958Y-90764909D01*
X143999061Y-90772687D01*
X144087308Y-90836802D01*
X144093248Y-90841118D01*
X144099276Y-90843802D01*
X144099278Y-90843803D01*
X144175662Y-90877811D01*
X144267712Y-90918794D01*
X144342680Y-90934729D01*
X144448056Y-90957128D01*
X144448061Y-90957128D01*
X144454513Y-90958500D01*
X144645487Y-90958500D01*
X144651939Y-90957128D01*
X144651944Y-90957128D01*
X144764537Y-90933195D01*
X144835328Y-90938597D01*
X144891960Y-90981414D01*
X144916044Y-91043272D01*
X144917608Y-91058148D01*
X144931458Y-91189928D01*
X144990473Y-91371556D01*
X145085960Y-91536944D01*
X145213747Y-91678866D01*
X145368248Y-91791118D01*
X145374276Y-91793802D01*
X145374278Y-91793803D01*
X145520469Y-91858891D01*
X145542712Y-91868794D01*
X145636113Y-91888647D01*
X145723056Y-91907128D01*
X145723061Y-91907128D01*
X145729513Y-91908500D01*
X145920487Y-91908500D01*
X145926939Y-91907128D01*
X145926944Y-91907128D01*
X146013888Y-91888647D01*
X146107288Y-91868794D01*
X146129531Y-91858891D01*
X146275722Y-91793803D01*
X146275724Y-91793802D01*
X146281752Y-91791118D01*
X146436253Y-91678866D01*
X146507264Y-91600000D01*
X148361496Y-91600000D01*
X148381458Y-91789928D01*
X148440473Y-91971556D01*
X148535960Y-92136944D01*
X148540378Y-92141851D01*
X148540379Y-92141852D01*
X148562220Y-92166109D01*
X148663747Y-92278866D01*
X148818248Y-92391118D01*
X148824276Y-92393802D01*
X148824278Y-92393803D01*
X148986681Y-92466109D01*
X148992712Y-92468794D01*
X149086113Y-92488647D01*
X149173056Y-92507128D01*
X149173061Y-92507128D01*
X149179513Y-92508500D01*
X149370487Y-92508500D01*
X149376939Y-92507128D01*
X149376944Y-92507128D01*
X149463888Y-92488647D01*
X149557288Y-92468794D01*
X149563319Y-92466109D01*
X149725722Y-92393803D01*
X149725724Y-92393802D01*
X149731752Y-92391118D01*
X149886253Y-92278866D01*
X149987780Y-92166109D01*
X150009621Y-92141852D01*
X150009622Y-92141851D01*
X150014040Y-92136944D01*
X150109527Y-91971556D01*
X150168542Y-91789928D01*
X150188504Y-91600000D01*
X150187814Y-91593435D01*
X150169232Y-91416635D01*
X150169232Y-91416633D01*
X150168542Y-91410072D01*
X150132777Y-91300000D01*
X151161496Y-91300000D01*
X151162186Y-91306565D01*
X151177234Y-91449735D01*
X151181458Y-91489928D01*
X151240473Y-91671556D01*
X151335960Y-91836944D01*
X151340378Y-91841851D01*
X151340379Y-91841852D01*
X151355721Y-91858891D01*
X151463747Y-91978866D01*
X151618248Y-92091118D01*
X151624276Y-92093802D01*
X151624278Y-92093803D01*
X151768014Y-92157798D01*
X151792712Y-92168794D01*
X151883332Y-92188056D01*
X151973056Y-92207128D01*
X151973061Y-92207128D01*
X151979513Y-92208500D01*
X152170487Y-92208500D01*
X152176939Y-92207128D01*
X152176944Y-92207128D01*
X152266668Y-92188056D01*
X152357288Y-92168794D01*
X152381986Y-92157798D01*
X152405552Y-92147306D01*
X160996275Y-92147306D01*
X161004207Y-92158123D01*
X161268402Y-92364163D01*
X161272959Y-92367402D01*
X161628048Y-92596680D01*
X161632850Y-92599486D01*
X162006916Y-92796291D01*
X162011974Y-92798671D01*
X162402035Y-92961438D01*
X162407290Y-92963361D01*
X162810276Y-93090808D01*
X162815675Y-93092255D01*
X163228396Y-93183375D01*
X163233907Y-93184337D01*
X163653101Y-93238410D01*
X163658664Y-93238877D01*
X164081005Y-93255470D01*
X164086597Y-93255441D01*
X164508725Y-93234426D01*
X164514308Y-93233898D01*
X164932905Y-93175440D01*
X164938392Y-93174423D01*
X165350143Y-93078985D01*
X165355529Y-93077481D01*
X165757167Y-92945818D01*
X165762384Y-92943846D01*
X166150726Y-92777002D01*
X166155769Y-92774564D01*
X166527731Y-92573863D01*
X166532535Y-92570988D01*
X166885163Y-92338031D01*
X166889726Y-92334716D01*
X167111746Y-92157798D01*
X167120215Y-92145742D01*
X167113788Y-92134384D01*
X164071412Y-89092008D01*
X164057468Y-89084394D01*
X164055635Y-89084525D01*
X164049020Y-89088776D01*
X161003235Y-92134561D01*
X160996275Y-92147306D01*
X152405552Y-92147306D01*
X152525722Y-92093803D01*
X152525724Y-92093802D01*
X152531752Y-92091118D01*
X152686253Y-91978866D01*
X152794279Y-91858891D01*
X152809621Y-91841852D01*
X152809622Y-91841851D01*
X152814040Y-91836944D01*
X152909527Y-91671556D01*
X152968542Y-91489928D01*
X152972767Y-91449735D01*
X152987814Y-91306565D01*
X152988504Y-91300000D01*
X152968542Y-91110072D01*
X152909527Y-90928444D01*
X152902406Y-90916109D01*
X152856870Y-90837240D01*
X152814040Y-90763056D01*
X152698491Y-90634725D01*
X152690675Y-90626045D01*
X152690674Y-90626044D01*
X152686253Y-90621134D01*
X152531752Y-90508882D01*
X152525724Y-90506198D01*
X152525722Y-90506197D01*
X152363319Y-90433891D01*
X152363318Y-90433891D01*
X152357288Y-90431206D01*
X152263887Y-90411353D01*
X152176944Y-90392872D01*
X152176939Y-90392872D01*
X152170487Y-90391500D01*
X151979513Y-90391500D01*
X151973061Y-90392872D01*
X151973056Y-90392872D01*
X151886113Y-90411353D01*
X151792712Y-90431206D01*
X151786682Y-90433891D01*
X151786681Y-90433891D01*
X151624278Y-90506197D01*
X151624276Y-90506198D01*
X151618248Y-90508882D01*
X151463747Y-90621134D01*
X151459326Y-90626044D01*
X151459325Y-90626045D01*
X151451510Y-90634725D01*
X151335960Y-90763056D01*
X151293130Y-90837240D01*
X151247595Y-90916109D01*
X151240473Y-90928444D01*
X151181458Y-91110072D01*
X151161496Y-91300000D01*
X150132777Y-91300000D01*
X150109527Y-91228444D01*
X150014040Y-91063056D01*
X149996227Y-91043272D01*
X149890675Y-90926045D01*
X149890674Y-90926044D01*
X149886253Y-90921134D01*
X149770779Y-90837237D01*
X149737094Y-90812763D01*
X149737093Y-90812762D01*
X149731752Y-90808882D01*
X149725724Y-90806198D01*
X149725722Y-90806197D01*
X149563319Y-90733891D01*
X149563318Y-90733891D01*
X149557288Y-90731206D01*
X149463887Y-90711353D01*
X149376944Y-90692872D01*
X149376939Y-90692872D01*
X149370487Y-90691500D01*
X149179513Y-90691500D01*
X149173061Y-90692872D01*
X149173056Y-90692872D01*
X149086113Y-90711353D01*
X148992712Y-90731206D01*
X148986682Y-90733891D01*
X148986681Y-90733891D01*
X148824278Y-90806197D01*
X148824276Y-90806198D01*
X148818248Y-90808882D01*
X148812907Y-90812762D01*
X148812906Y-90812763D01*
X148779221Y-90837237D01*
X148663747Y-90921134D01*
X148659326Y-90926044D01*
X148659325Y-90926045D01*
X148553774Y-91043272D01*
X148535960Y-91063056D01*
X148440473Y-91228444D01*
X148381458Y-91410072D01*
X148380768Y-91416633D01*
X148380768Y-91416635D01*
X148362186Y-91593435D01*
X148361496Y-91600000D01*
X146507264Y-91600000D01*
X146564040Y-91536944D01*
X146659527Y-91371556D01*
X146718542Y-91189928D01*
X146732393Y-91058148D01*
X146737814Y-91006565D01*
X146738504Y-91000000D01*
X146723994Y-90861942D01*
X146719232Y-90816635D01*
X146719232Y-90816633D01*
X146718542Y-90810072D01*
X146659527Y-90628444D01*
X146657547Y-90625014D01*
X146648246Y-90555618D01*
X146652552Y-90537062D01*
X146694569Y-90402985D01*
X146701753Y-90380062D01*
X146708500Y-90306635D01*
X146708499Y-89293366D01*
X146701753Y-89219938D01*
X146685479Y-89168008D01*
X146652744Y-89063550D01*
X146652743Y-89063548D01*
X146650472Y-89056301D01*
X146561639Y-88909619D01*
X146440381Y-88788361D01*
X146387271Y-88756197D01*
X146343967Y-88729971D01*
X146296060Y-88677574D01*
X146284087Y-88607594D01*
X146311848Y-88542250D01*
X146370530Y-88502288D01*
X146383040Y-88498949D01*
X146400824Y-88495169D01*
X146400833Y-88495166D01*
X146407288Y-88493794D01*
X146500306Y-88452380D01*
X146575722Y-88418803D01*
X146575724Y-88418802D01*
X146581752Y-88416118D01*
X146603937Y-88400000D01*
X146646977Y-88368729D01*
X146714563Y-88319625D01*
X159247455Y-88319625D01*
X159255200Y-88742210D01*
X159255550Y-88747776D01*
X159300831Y-89168008D01*
X159301678Y-89173546D01*
X159384135Y-89588086D01*
X159385464Y-89593498D01*
X159504452Y-89999089D01*
X159506258Y-90004364D01*
X159660819Y-90397748D01*
X159663101Y-90402872D01*
X159852016Y-90780950D01*
X159854740Y-90785843D01*
X160076517Y-91145633D01*
X160079668Y-91150269D01*
X160332552Y-91488923D01*
X160336090Y-91493246D01*
X160340856Y-91498568D01*
X160354351Y-91506931D01*
X160363763Y-91501241D01*
X163409392Y-88455612D01*
X163417006Y-88441668D01*
X163416875Y-88439835D01*
X163412624Y-88433220D01*
X160368303Y-85388899D01*
X160354995Y-85381632D01*
X160344956Y-85388754D01*
X160226823Y-85530794D01*
X160223428Y-85535267D01*
X159983128Y-85882952D01*
X159980149Y-85887702D01*
X159771706Y-86255375D01*
X159769162Y-86260368D01*
X159594229Y-86645112D01*
X159592138Y-86650311D01*
X159452098Y-87049090D01*
X159450477Y-87054459D01*
X159346440Y-87464103D01*
X159345306Y-87469576D01*
X159278096Y-87886854D01*
X159277451Y-87892432D01*
X159247602Y-88314004D01*
X159247455Y-88319625D01*
X146714563Y-88319625D01*
X146736253Y-88303866D01*
X146864040Y-88161944D01*
X146959527Y-87996556D01*
X147018542Y-87814928D01*
X147020766Y-87793774D01*
X147037814Y-87631565D01*
X147038504Y-87625000D01*
X147028645Y-87531197D01*
X147019232Y-87441635D01*
X147019232Y-87441633D01*
X147018542Y-87435072D01*
X146959527Y-87253444D01*
X146864040Y-87088056D01*
X146736253Y-86946134D01*
X146581752Y-86833882D01*
X146575724Y-86831198D01*
X146575722Y-86831197D01*
X146413319Y-86758891D01*
X146413318Y-86758891D01*
X146407288Y-86756206D01*
X146313887Y-86736353D01*
X146226944Y-86717872D01*
X146226939Y-86717872D01*
X146220487Y-86716500D01*
X146029513Y-86716500D01*
X146023061Y-86717872D01*
X146023056Y-86717872D01*
X145936113Y-86736353D01*
X145842712Y-86756206D01*
X145836682Y-86758891D01*
X145836681Y-86758891D01*
X145674278Y-86831197D01*
X145674276Y-86831198D01*
X145668248Y-86833882D01*
X145513747Y-86946134D01*
X145385960Y-87088056D01*
X145290473Y-87253444D01*
X145231458Y-87435072D01*
X145230768Y-87441633D01*
X145230768Y-87441635D01*
X145221355Y-87531197D01*
X145211496Y-87625000D01*
X145212186Y-87631565D01*
X145229235Y-87793774D01*
X145231458Y-87814928D01*
X145290473Y-87996556D01*
X145385960Y-88161944D01*
X145513747Y-88303866D01*
X145603023Y-88368729D01*
X145664734Y-88413565D01*
X145708088Y-88469787D01*
X145714163Y-88540524D01*
X145681031Y-88603315D01*
X145619211Y-88638227D01*
X145590674Y-88641501D01*
X145543366Y-88641501D01*
X145540508Y-88641764D01*
X145540499Y-88641764D01*
X145504996Y-88645026D01*
X145469938Y-88648247D01*
X145463560Y-88650246D01*
X145463559Y-88650246D01*
X145313550Y-88697256D01*
X145313548Y-88697257D01*
X145306301Y-88699528D01*
X145216043Y-88754190D01*
X145169982Y-88782085D01*
X145101352Y-88800264D01*
X145030650Y-88776245D01*
X145012094Y-88762763D01*
X145012092Y-88762762D01*
X145006752Y-88758882D01*
X145000724Y-88756198D01*
X145000722Y-88756197D01*
X144838319Y-88683891D01*
X144838318Y-88683891D01*
X144832288Y-88681206D01*
X144738887Y-88661353D01*
X144651944Y-88642872D01*
X144651939Y-88642872D01*
X144645487Y-88641500D01*
X144454513Y-88641500D01*
X144448061Y-88642872D01*
X144448056Y-88642872D01*
X144361112Y-88661353D01*
X144267712Y-88681206D01*
X144261682Y-88683891D01*
X144261681Y-88683891D01*
X144099278Y-88756197D01*
X144099276Y-88756198D01*
X144093248Y-88758882D01*
X144087907Y-88762762D01*
X144087906Y-88762763D01*
X143999061Y-88827313D01*
X143932193Y-88851172D01*
X143863042Y-88835091D01*
X143850939Y-88827313D01*
X143762094Y-88762763D01*
X143762093Y-88762762D01*
X143756752Y-88758882D01*
X143750724Y-88756198D01*
X143750722Y-88756197D01*
X143588319Y-88683891D01*
X143588318Y-88683891D01*
X143582288Y-88681206D01*
X143488887Y-88661353D01*
X143401944Y-88642872D01*
X143401939Y-88642872D01*
X143395487Y-88641500D01*
X143320176Y-88641500D01*
X143252055Y-88621498D01*
X143205562Y-88567842D01*
X143194866Y-88502330D01*
X143194871Y-88502288D01*
X143213504Y-88325000D01*
X143196882Y-88166852D01*
X143194232Y-88141635D01*
X143194232Y-88141633D01*
X143193542Y-88135072D01*
X143134527Y-87953444D01*
X143039040Y-87788056D01*
X142911253Y-87646134D01*
X142756752Y-87533882D01*
X142750724Y-87531198D01*
X142750722Y-87531197D01*
X142588319Y-87458891D01*
X142588318Y-87458891D01*
X142582288Y-87456206D01*
X142482861Y-87435072D01*
X142401944Y-87417872D01*
X142401939Y-87417872D01*
X142395487Y-87416500D01*
X142204513Y-87416500D01*
X142198061Y-87417872D01*
X142198056Y-87417872D01*
X142117139Y-87435072D01*
X142017712Y-87456206D01*
X142011682Y-87458891D01*
X142011681Y-87458891D01*
X141849278Y-87531197D01*
X141849276Y-87531198D01*
X141843248Y-87533882D01*
X141688747Y-87646134D01*
X141560960Y-87788056D01*
X141465473Y-87953444D01*
X141406458Y-88135072D01*
X141405768Y-88141633D01*
X141405768Y-88141635D01*
X141403118Y-88166852D01*
X141386496Y-88325000D01*
X141387186Y-88331565D01*
X141404779Y-88498949D01*
X141406458Y-88514928D01*
X141465473Y-88696556D01*
X141472243Y-88708281D01*
X141488980Y-88777274D01*
X141465760Y-88844366D01*
X141447432Y-88864917D01*
X141434667Y-88876410D01*
X141315786Y-89008442D01*
X141308062Y-89019073D01*
X141219235Y-89172926D01*
X141213889Y-89184934D01*
X141158990Y-89353896D01*
X141156259Y-89366741D01*
X141154657Y-89381985D01*
X136915362Y-89381985D01*
X136868140Y-89253640D01*
X136868138Y-89253635D01*
X136865937Y-89247654D01*
X136794553Y-89132524D01*
X136766688Y-89087582D01*
X136766687Y-89087581D01*
X136763326Y-89082160D01*
X136629534Y-88940678D01*
X136594462Y-88916120D01*
X136479488Y-88835615D01*
X136470025Y-88828989D01*
X136376139Y-88788361D01*
X136297175Y-88754190D01*
X136297171Y-88754189D01*
X136291316Y-88751655D01*
X136285069Y-88750350D01*
X136285066Y-88750349D01*
X136105443Y-88712824D01*
X136105438Y-88712823D01*
X136100707Y-88711835D01*
X136094315Y-88711500D01*
X135951337Y-88711500D01*
X135882049Y-88718538D01*
X135812622Y-88725590D01*
X135812621Y-88725590D01*
X135806273Y-88726235D01*
X135755296Y-88742210D01*
X135626549Y-88782556D01*
X135626544Y-88782558D01*
X135620459Y-88784465D01*
X135544713Y-88826452D01*
X135455729Y-88875777D01*
X135455726Y-88875779D01*
X135450150Y-88878870D01*
X135445309Y-88883019D01*
X135445305Y-88883022D01*
X135382311Y-88937015D01*
X135302302Y-89005591D01*
X135182954Y-89159453D01*
X135180138Y-89165176D01*
X135180136Y-89165179D01*
X135115642Y-89296249D01*
X135096982Y-89334171D01*
X135095373Y-89340349D01*
X135095372Y-89340351D01*
X135073477Y-89424409D01*
X135047898Y-89522607D01*
X135037707Y-89717064D01*
X133957360Y-89717064D01*
X133962293Y-89622936D01*
X133933175Y-89430401D01*
X133930972Y-89424415D01*
X133930971Y-89424409D01*
X133868140Y-89253640D01*
X133868138Y-89253635D01*
X133865937Y-89247654D01*
X133794553Y-89132524D01*
X133766688Y-89087582D01*
X133766687Y-89087581D01*
X133763326Y-89082160D01*
X133629534Y-88940678D01*
X133594462Y-88916120D01*
X133479488Y-88835615D01*
X133470025Y-88828989D01*
X133376139Y-88788361D01*
X133297175Y-88754190D01*
X133297171Y-88754189D01*
X133291316Y-88751655D01*
X133285069Y-88750350D01*
X133285066Y-88750349D01*
X133105443Y-88712824D01*
X133105438Y-88712823D01*
X133100707Y-88711835D01*
X133094315Y-88711500D01*
X132951337Y-88711500D01*
X132882049Y-88718538D01*
X132812622Y-88725590D01*
X132812621Y-88725590D01*
X132806273Y-88726235D01*
X132755296Y-88742210D01*
X132626549Y-88782556D01*
X132626544Y-88782558D01*
X132620459Y-88784465D01*
X132544713Y-88826452D01*
X132455729Y-88875777D01*
X132455726Y-88875779D01*
X132450150Y-88878870D01*
X132445309Y-88883019D01*
X132445305Y-88883022D01*
X132382311Y-88937015D01*
X132302302Y-89005591D01*
X132182954Y-89159453D01*
X132180138Y-89165176D01*
X132180136Y-89165179D01*
X132115642Y-89296249D01*
X132096982Y-89334171D01*
X132095373Y-89340349D01*
X132095372Y-89340351D01*
X132073477Y-89424409D01*
X132047898Y-89522607D01*
X132037707Y-89717064D01*
X129350261Y-89717064D01*
X129398920Y-89544530D01*
X129400204Y-89539059D01*
X129478315Y-89123683D01*
X129479102Y-89118146D01*
X129520035Y-88696902D01*
X129520308Y-88692465D01*
X129526788Y-88445033D01*
X129526746Y-88440562D01*
X129507917Y-88017773D01*
X129507419Y-88012186D01*
X129451155Y-87593299D01*
X129450162Y-87587776D01*
X129356883Y-87175548D01*
X129355410Y-87170161D01*
X129225847Y-86767825D01*
X129223910Y-86762615D01*
X129059098Y-86373399D01*
X129056683Y-86368336D01*
X128857936Y-85995335D01*
X128855085Y-85990513D01*
X128623974Y-85636665D01*
X128620692Y-85632097D01*
X128429310Y-85389330D01*
X128417385Y-85380859D01*
X128405851Y-85387345D01*
X125363208Y-88429988D01*
X125355594Y-88443932D01*
X124076472Y-88443932D01*
X127769806Y-84750598D01*
X127777369Y-84736748D01*
X127771042Y-84727527D01*
X127744923Y-84704378D01*
X127740560Y-84700845D01*
X127400600Y-84449748D01*
X127395947Y-84446621D01*
X127034995Y-84226726D01*
X127030094Y-84224032D01*
X126651027Y-84037097D01*
X126645904Y-84034848D01*
X126251707Y-83882345D01*
X126246417Y-83880565D01*
X125840218Y-83763704D01*
X125834794Y-83762402D01*
X125419822Y-83682116D01*
X125414293Y-83681300D01*
X125200001Y-83659344D01*
X125134273Y-83632503D01*
X125093491Y-83574388D01*
X125090603Y-83503450D01*
X125126525Y-83442212D01*
X125189852Y-83410115D01*
X125212843Y-83408000D01*
X163538874Y-83408000D01*
X163606995Y-83428002D01*
G37*
%TD.AperFunction*%
%TA.AperFunction,Conductor*%
G36*
X122865108Y-124252662D02*
G01*
X122910171Y-124281623D01*
X123368377Y-124739829D01*
X123402403Y-124802141D01*
X123397338Y-124872956D01*
X123368377Y-124918019D01*
X122135181Y-126151215D01*
X122072869Y-126185241D01*
X122002054Y-126180176D01*
X121956991Y-126151215D01*
X121498785Y-125693009D01*
X121464759Y-125630697D01*
X121469824Y-125559882D01*
X121498785Y-125514819D01*
X122731981Y-124281623D01*
X122794293Y-124247597D01*
X122865108Y-124252662D01*
G37*
%TD.AperFunction*%
%TA.AperFunction,Conductor*%
G36*
X165995556Y-124252662D02*
G01*
X166040619Y-124281623D01*
X167273815Y-125514819D01*
X167307841Y-125577131D01*
X167302776Y-125647946D01*
X167273815Y-125693009D01*
X166815609Y-126151215D01*
X166753297Y-126185241D01*
X166682482Y-126180176D01*
X166637419Y-126151215D01*
X165404223Y-124918019D01*
X165370197Y-124855707D01*
X165375262Y-124784892D01*
X165404223Y-124739829D01*
X165862429Y-124281623D01*
X165924741Y-124247597D01*
X165995556Y-124252662D01*
G37*
%TD.AperFunction*%
%TA.AperFunction,Conductor*%
G36*
X122090118Y-85198624D02*
G01*
X122135181Y-85227585D01*
X123368377Y-86460781D01*
X123402403Y-86523093D01*
X123397338Y-86593908D01*
X123368377Y-86638971D01*
X122910171Y-87097177D01*
X122847859Y-87131203D01*
X122777044Y-87126138D01*
X122731981Y-87097177D01*
X121498785Y-85863981D01*
X121464759Y-85801669D01*
X121469824Y-85730854D01*
X121498785Y-85685791D01*
X121956991Y-85227585D01*
X122019303Y-85193559D01*
X122090118Y-85198624D01*
G37*
%TD.AperFunction*%
%TA.AperFunction,Conductor*%
G36*
X166770546Y-85198624D02*
G01*
X166815609Y-85227585D01*
X167273815Y-85685791D01*
X167307841Y-85748103D01*
X167302776Y-85818918D01*
X167273815Y-85863981D01*
X166040619Y-87097177D01*
X165978307Y-87131203D01*
X165907492Y-87126138D01*
X165862429Y-87097177D01*
X165404223Y-86638971D01*
X165370197Y-86576659D01*
X165375262Y-86505844D01*
X165404223Y-86460781D01*
X166637419Y-85227585D01*
X166699731Y-85193559D01*
X166770546Y-85198624D01*
G37*
%TD.AperFunction*%
%TD*%
M02*
