%TF.GenerationSoftware,KiCad,Pcbnew,(6.0.1)*%
%TF.CreationDate,2022-05-18T16:29:04+06:30*%
%TF.ProjectId,STM32_USB_Buck,53544d33-325f-4555-9342-5f4275636b2e,v1.0*%
%TF.SameCoordinates,Original*%
%TF.FileFunction,Soldermask,Bot*%
%TF.FilePolarity,Negative*%
%FSLAX46Y46*%
G04 Gerber Fmt 4.6, Leading zero omitted, Abs format (unit mm)*
G04 Created by KiCad (PCBNEW (6.0.1)) date 2022-05-18 16:29:04*
%MOMM*%
%LPD*%
G01*
G04 APERTURE LIST*
G04 Aperture macros list*
%AMRoundRect*
0 Rectangle with rounded corners*
0 $1 Rounding radius*
0 $2 $3 $4 $5 $6 $7 $8 $9 X,Y pos of 4 corners*
0 Add a 4 corners polygon primitive as box body*
4,1,4,$2,$3,$4,$5,$6,$7,$8,$9,$2,$3,0*
0 Add four circle primitives for the rounded corners*
1,1,$1+$1,$2,$3*
1,1,$1+$1,$4,$5*
1,1,$1+$1,$6,$7*
1,1,$1+$1,$8,$9*
0 Add four rect primitives between the rounded corners*
20,1,$1+$1,$2,$3,$4,$5,0*
20,1,$1+$1,$4,$5,$6,$7,0*
20,1,$1+$1,$6,$7,$8,$9,0*
20,1,$1+$1,$8,$9,$2,$3,0*%
G04 Aperture macros list end*
%ADD10C,0.900000*%
%ADD11C,8.600000*%
%ADD12RoundRect,0.200000X-0.200000X-0.450000X0.200000X-0.450000X0.200000X0.450000X-0.200000X0.450000X0*%
%ADD13O,0.800000X1.300000*%
%ADD14RoundRect,0.200000X0.200000X0.450000X-0.200000X0.450000X-0.200000X-0.450000X0.200000X-0.450000X0*%
%ADD15R,2.400000X2.400000*%
%ADD16C,2.400000*%
%ADD17O,0.800000X0.800000*%
%ADD18O,1.800000X1.150000*%
%ADD19O,2.000000X1.450000*%
G04 APERTURE END LIST*
D10*
%TO.C,H1*%
X166339019Y-90723219D03*
X161778181Y-86162381D03*
X161778181Y-90723219D03*
X167283600Y-88442800D03*
D11*
X164058600Y-88442800D03*
D10*
X164058600Y-85217800D03*
X164058600Y-91667800D03*
X160833600Y-88442800D03*
X166339019Y-86162381D03*
%TD*%
%TO.C,SW1*%
X136000000Y-89670000D03*
X133000000Y-89670000D03*
%TD*%
%TO.C,H3*%
X166339019Y-120655581D03*
X164058600Y-119711000D03*
X161778181Y-120655581D03*
D11*
X164058600Y-122936000D03*
D10*
X160833600Y-122936000D03*
X167283600Y-122936000D03*
X166339019Y-125216419D03*
X164058600Y-126161000D03*
X161778181Y-125216419D03*
%TD*%
D12*
%TO.C,J3*%
X133325000Y-121150000D03*
D13*
X134575000Y-121150000D03*
X135825000Y-121150000D03*
X137075000Y-121150000D03*
%TD*%
D14*
%TO.C,J2*%
X145800000Y-89800000D03*
D13*
X144550000Y-89800000D03*
X143300000Y-89800000D03*
X142050000Y-89800000D03*
%TD*%
D11*
%TO.C,H2*%
X124714000Y-122936000D03*
D10*
X124714000Y-126161000D03*
X124714000Y-119711000D03*
X126994419Y-120655581D03*
X121489000Y-122936000D03*
X126994419Y-125216419D03*
X127939000Y-122936000D03*
X122433581Y-120655581D03*
X122433581Y-125216419D03*
%TD*%
D15*
%TO.C,J5*%
X165035000Y-111960600D03*
D16*
X165035000Y-108460600D03*
%TD*%
D17*
%TO.C,J4*%
X165550000Y-101300000D03*
X165550000Y-96300000D03*
D18*
X168300000Y-94925000D03*
X168300000Y-102675000D03*
D19*
X164500000Y-102525000D03*
X164500000Y-95075000D03*
%TD*%
D10*
%TO.C,H4*%
X122433581Y-86162381D03*
X124714000Y-91667800D03*
X126994419Y-90723219D03*
X124714000Y-85217800D03*
X126994419Y-86162381D03*
D11*
X124714000Y-88442800D03*
D10*
X121489000Y-88442800D03*
X122433581Y-90723219D03*
X127939000Y-88442800D03*
%TD*%
M02*
