%TF.GenerationSoftware,KiCad,Pcbnew,(6.0.1)*%
%TF.CreationDate,2022-05-18T16:29:04+06:30*%
%TF.ProjectId,STM32_USB_Buck,53544d33-325f-4555-9342-5f4275636b2e,v1.0*%
%TF.SameCoordinates,Original*%
%TF.FileFunction,Copper,L3,Inr*%
%TF.FilePolarity,Positive*%
%FSLAX46Y46*%
G04 Gerber Fmt 4.6, Leading zero omitted, Abs format (unit mm)*
G04 Created by KiCad (PCBNEW (6.0.1)) date 2022-05-18 16:29:04*
%MOMM*%
%LPD*%
G01*
G04 APERTURE LIST*
G04 Aperture macros list*
%AMRoundRect*
0 Rectangle with rounded corners*
0 $1 Rounding radius*
0 $2 $3 $4 $5 $6 $7 $8 $9 X,Y pos of 4 corners*
0 Add a 4 corners polygon primitive as box body*
4,1,4,$2,$3,$4,$5,$6,$7,$8,$9,$2,$3,0*
0 Add four circle primitives for the rounded corners*
1,1,$1+$1,$2,$3*
1,1,$1+$1,$4,$5*
1,1,$1+$1,$6,$7*
1,1,$1+$1,$8,$9*
0 Add four rect primitives between the rounded corners*
20,1,$1+$1,$2,$3,$4,$5,0*
20,1,$1+$1,$4,$5,$6,$7,0*
20,1,$1+$1,$6,$7,$8,$9,0*
20,1,$1+$1,$8,$9,$2,$3,0*%
G04 Aperture macros list end*
%TA.AperFunction,ComponentPad*%
%ADD10C,0.900000*%
%TD*%
%TA.AperFunction,ComponentPad*%
%ADD11C,8.600000*%
%TD*%
%TA.AperFunction,ComponentPad*%
%ADD12RoundRect,0.200000X-0.200000X-0.450000X0.200000X-0.450000X0.200000X0.450000X-0.200000X0.450000X0*%
%TD*%
%TA.AperFunction,ComponentPad*%
%ADD13O,0.800000X1.300000*%
%TD*%
%TA.AperFunction,ComponentPad*%
%ADD14RoundRect,0.200000X0.200000X0.450000X-0.200000X0.450000X-0.200000X-0.450000X0.200000X-0.450000X0*%
%TD*%
%TA.AperFunction,ComponentPad*%
%ADD15R,2.400000X2.400000*%
%TD*%
%TA.AperFunction,ComponentPad*%
%ADD16C,2.400000*%
%TD*%
%TA.AperFunction,ComponentPad*%
%ADD17O,1.800000X1.150000*%
%TD*%
%TA.AperFunction,ComponentPad*%
%ADD18O,2.000000X1.450000*%
%TD*%
%TA.AperFunction,ViaPad*%
%ADD19C,0.800000*%
%TD*%
G04 APERTURE END LIST*
D10*
%TO.N,GND*%
%TO.C,H1*%
X166339019Y-90723219D03*
X161778181Y-86162381D03*
X161778181Y-90723219D03*
X167283600Y-88442800D03*
D11*
X164058600Y-88442800D03*
D10*
X164058600Y-85217800D03*
X164058600Y-91667800D03*
X160833600Y-88442800D03*
X166339019Y-86162381D03*
%TD*%
%TO.N,GND*%
%TO.C,H3*%
X166339019Y-120655581D03*
X164058600Y-119711000D03*
X161778181Y-120655581D03*
D11*
X164058600Y-122936000D03*
D10*
X160833600Y-122936000D03*
X167283600Y-122936000D03*
X166339019Y-125216419D03*
X164058600Y-126161000D03*
X161778181Y-125216419D03*
%TD*%
D12*
%TO.N,+3V3*%
%TO.C,J3*%
X133325000Y-121150000D03*
D13*
%TO.N,USART3_TX*%
X134575000Y-121150000D03*
%TO.N,USART3_RX*%
X135825000Y-121150000D03*
%TO.N,GND*%
X137075000Y-121150000D03*
%TD*%
D14*
%TO.N,+3V3*%
%TO.C,J2*%
X145800000Y-89800000D03*
D13*
%TO.N,I2C1_SCL*%
X144550000Y-89800000D03*
%TO.N,I2C1_SDA*%
X143300000Y-89800000D03*
%TO.N,GND*%
X142050000Y-89800000D03*
%TD*%
D11*
%TO.N,GND*%
%TO.C,H2*%
X124714000Y-122936000D03*
D10*
X124714000Y-126161000D03*
X124714000Y-119711000D03*
X126994419Y-120655581D03*
X121489000Y-122936000D03*
X126994419Y-125216419D03*
X127939000Y-122936000D03*
X122433581Y-120655581D03*
X122433581Y-125216419D03*
%TD*%
D15*
%TO.N,+12V*%
%TO.C,J5*%
X165035000Y-111960600D03*
D16*
%TO.N,GND*%
X165035000Y-108460600D03*
%TD*%
D17*
%TO.N,unconnected-(J4-Pad6)*%
%TO.C,J4*%
X168300000Y-94925000D03*
X168300000Y-102675000D03*
D18*
X164500000Y-102525000D03*
X164500000Y-95075000D03*
%TD*%
D10*
%TO.N,GND*%
%TO.C,H4*%
X122433581Y-86162381D03*
X124714000Y-91667800D03*
X126994419Y-90723219D03*
X124714000Y-85217800D03*
X126994419Y-86162381D03*
D11*
X124714000Y-88442800D03*
D10*
X121489000Y-88442800D03*
X122433581Y-90723219D03*
X127939000Y-88442800D03*
%TD*%
D19*
%TO.N,+3V3*%
X152225000Y-118100000D03*
X148325000Y-118100000D03*
X145825000Y-109450000D03*
X131875000Y-96600000D03*
X153100000Y-118125000D03*
X141900000Y-98800000D03*
X144900000Y-117900000D03*
X143975000Y-117875000D03*
X136750000Y-92725000D03*
X141478000Y-110125000D03*
X145825000Y-91000000D03*
X148325000Y-115125000D03*
X149325000Y-118100000D03*
X151175000Y-95200000D03*
X144650000Y-115650000D03*
X127750000Y-98050000D03*
X146800000Y-110325000D03*
X141200000Y-115000000D03*
X146125000Y-87625000D03*
X142300000Y-88325000D03*
X127350000Y-109100000D03*
X141775000Y-112775000D03*
X129300000Y-100500000D03*
X127325000Y-108250000D03*
X140475000Y-113825000D03*
X134925000Y-110825000D03*
X149300000Y-115100000D03*
%TO.N,GND*%
X145375000Y-98775000D03*
X165875000Y-97550000D03*
X159200000Y-113075000D03*
X130850000Y-98300000D03*
X152475000Y-95200000D03*
X159425000Y-97125000D03*
X160675000Y-116050000D03*
X156225000Y-95200000D03*
X148450000Y-104750000D03*
X133425000Y-107775000D03*
X128975000Y-104750000D03*
X127750000Y-101450000D03*
X161625000Y-117125000D03*
X133450000Y-99550000D03*
X157650000Y-111250000D03*
X125675000Y-106850000D03*
X130125000Y-98775000D03*
X132350000Y-105200000D03*
X160850000Y-113050000D03*
X142748000Y-117856000D03*
X124950000Y-106300000D03*
X153800000Y-95225000D03*
X144400000Y-97825000D03*
X126175000Y-98200000D03*
X163200000Y-97550000D03*
X141732000Y-117856000D03*
X160825000Y-112175000D03*
X157775000Y-106250000D03*
X143350000Y-109350000D03*
X149350000Y-105700000D03*
X158000000Y-114400000D03*
X127750000Y-102275000D03*
X158600000Y-106800000D03*
X129275000Y-107775000D03*
X160650000Y-118150000D03*
%TO.N,Net-(J1-Pad4)*%
X149275000Y-91600000D03*
X152075000Y-91300000D03*
%TO.N,NRST*%
X139500000Y-101350000D03*
X146500000Y-99600000D03*
%TD*%
%TA.AperFunction,Conductor*%
%TO.N,+3V3*%
G36*
X163600389Y-83428002D02*
G01*
X163646882Y-83481658D01*
X163656986Y-83551932D01*
X163627492Y-83616512D01*
X163567766Y-83654896D01*
X163541825Y-83659637D01*
X163480340Y-83664314D01*
X163057849Y-83734636D01*
X162972271Y-83756848D01*
X162646000Y-83841531D01*
X162645989Y-83841534D01*
X162643282Y-83842237D01*
X162385175Y-83934399D01*
X162242564Y-83985320D01*
X162242559Y-83985322D01*
X162239921Y-83986264D01*
X162237381Y-83987435D01*
X162237376Y-83987437D01*
X162189156Y-84009667D01*
X161850961Y-84165577D01*
X161479480Y-84378757D01*
X161477177Y-84380366D01*
X161477170Y-84380371D01*
X161313007Y-84495106D01*
X161128420Y-84624115D01*
X160800561Y-84899709D01*
X160498499Y-85203357D01*
X160224625Y-85532655D01*
X159981108Y-85884994D01*
X159769876Y-86257586D01*
X159592602Y-86647480D01*
X159591680Y-86650106D01*
X159591675Y-86650118D01*
X159552233Y-86762434D01*
X159450689Y-87051590D01*
X159345261Y-87466714D01*
X159277152Y-87889568D01*
X159246902Y-88316801D01*
X159254751Y-88745033D01*
X159300636Y-89170871D01*
X159301182Y-89173617D01*
X159301183Y-89173622D01*
X159334348Y-89340351D01*
X159384194Y-89590944D01*
X159504763Y-90001927D01*
X159505790Y-90004540D01*
X159505790Y-90004541D01*
X159659079Y-90394685D01*
X159661389Y-90400565D01*
X159715512Y-90508882D01*
X159847328Y-90772687D01*
X159852831Y-90783701D01*
X160077574Y-91148302D01*
X160333839Y-91491482D01*
X160335700Y-91493560D01*
X160335701Y-91493561D01*
X160617727Y-91808437D01*
X160617733Y-91808443D01*
X160619595Y-91810522D01*
X160621646Y-91812438D01*
X160621647Y-91812439D01*
X160653133Y-91841852D01*
X160932581Y-92102898D01*
X161270319Y-92366293D01*
X161630133Y-92598622D01*
X161632612Y-92599926D01*
X161632615Y-92599928D01*
X162006677Y-92796732D01*
X162006683Y-92796735D01*
X162009177Y-92798047D01*
X162011775Y-92799131D01*
X162011779Y-92799133D01*
X162401863Y-92961909D01*
X162401868Y-92961911D01*
X162404447Y-92962987D01*
X162407112Y-92963830D01*
X162407118Y-92963832D01*
X162629161Y-93034054D01*
X162812814Y-93092136D01*
X162815544Y-93092739D01*
X162815545Y-93092739D01*
X162941916Y-93120639D01*
X163231046Y-93184473D01*
X163233820Y-93184831D01*
X163233821Y-93184831D01*
X163653060Y-93238909D01*
X163653067Y-93238910D01*
X163655830Y-93239266D01*
X163658617Y-93239376D01*
X163658623Y-93239376D01*
X163906838Y-93249128D01*
X164083803Y-93256081D01*
X164086595Y-93255942D01*
X164086600Y-93255942D01*
X164508772Y-93234925D01*
X164508781Y-93234924D01*
X164511576Y-93234785D01*
X164514353Y-93234397D01*
X164514355Y-93234397D01*
X164588666Y-93224019D01*
X164935763Y-93175547D01*
X165353004Y-93078836D01*
X165614126Y-92993236D01*
X165757344Y-92946287D01*
X165757350Y-92946285D01*
X165759997Y-92945417D01*
X166079704Y-92808060D01*
X166150944Y-92777453D01*
X166150946Y-92777452D01*
X166153518Y-92776347D01*
X166162600Y-92771447D01*
X166262640Y-92717468D01*
X166530452Y-92572964D01*
X166887814Y-92336880D01*
X167222775Y-92069962D01*
X167532682Y-91774325D01*
X167534519Y-91772231D01*
X167534527Y-91772222D01*
X167813235Y-91454416D01*
X167815082Y-91452310D01*
X167841145Y-91416635D01*
X168060310Y-91116635D01*
X168067739Y-91106466D01*
X168069348Y-91103794D01*
X168287201Y-90741942D01*
X168287206Y-90741933D01*
X168288652Y-90739531D01*
X168443395Y-90421556D01*
X168474838Y-90356945D01*
X168474839Y-90356942D01*
X168476071Y-90354411D01*
X168609324Y-90004541D01*
X168627518Y-89956771D01*
X168627520Y-89956764D01*
X168628514Y-89954155D01*
X168737815Y-89566602D01*
X168744731Y-89542081D01*
X168782472Y-89481948D01*
X168846734Y-89451765D01*
X168917112Y-89461115D01*
X168971262Y-89507031D01*
X168992000Y-89576283D01*
X168992000Y-93739709D01*
X168971998Y-93807830D01*
X168918342Y-93854323D01*
X168841850Y-93863373D01*
X168735658Y-93842635D01*
X168735655Y-93842635D01*
X168731212Y-93841767D01*
X168725753Y-93841500D01*
X167923349Y-93841500D01*
X167769183Y-93856209D01*
X167570793Y-93914410D01*
X167565466Y-93917154D01*
X167565465Y-93917154D01*
X167392318Y-94006330D01*
X167392315Y-94006332D01*
X167386987Y-94009076D01*
X167224399Y-94136791D01*
X167088894Y-94292947D01*
X166985362Y-94471908D01*
X166917539Y-94667219D01*
X166916678Y-94673154D01*
X166916678Y-94673156D01*
X166889626Y-94859729D01*
X166887871Y-94871831D01*
X166897431Y-95078361D01*
X166898835Y-95084186D01*
X166898835Y-95084187D01*
X166924294Y-95189824D01*
X166945871Y-95279357D01*
X166948353Y-95284815D01*
X166948354Y-95284819D01*
X166979618Y-95353581D01*
X167031445Y-95467568D01*
X167151065Y-95636201D01*
X167155388Y-95640339D01*
X167155392Y-95640344D01*
X167261429Y-95741852D01*
X167300415Y-95779173D01*
X167305454Y-95782427D01*
X167305457Y-95782429D01*
X167441017Y-95869958D01*
X167474106Y-95891323D01*
X167479669Y-95893565D01*
X167479673Y-95893567D01*
X167660301Y-95966362D01*
X167660304Y-95966363D01*
X167665870Y-95968606D01*
X167761274Y-95987237D01*
X167864342Y-96007365D01*
X167864345Y-96007365D01*
X167868788Y-96008233D01*
X167874247Y-96008500D01*
X168676651Y-96008500D01*
X168830817Y-95993791D01*
X168836566Y-95992104D01*
X168842178Y-95991024D01*
X168912851Y-95997785D01*
X168968650Y-96041683D01*
X168992000Y-96114751D01*
X168992000Y-101489709D01*
X168971998Y-101557830D01*
X168918342Y-101604323D01*
X168841850Y-101613373D01*
X168735658Y-101592635D01*
X168735655Y-101592635D01*
X168731212Y-101591767D01*
X168725753Y-101591500D01*
X167923349Y-101591500D01*
X167769183Y-101606209D01*
X167570793Y-101664410D01*
X167565466Y-101667154D01*
X167565465Y-101667154D01*
X167392318Y-101756330D01*
X167392315Y-101756332D01*
X167386987Y-101759076D01*
X167224399Y-101886791D01*
X167088894Y-102042947D01*
X166985362Y-102221908D01*
X166917539Y-102417219D01*
X166887871Y-102621831D01*
X166897431Y-102828361D01*
X166898835Y-102834186D01*
X166898835Y-102834187D01*
X166920761Y-102925164D01*
X166945871Y-103029357D01*
X166948353Y-103034815D01*
X166948354Y-103034819D01*
X166987832Y-103121645D01*
X167031445Y-103217568D01*
X167151065Y-103386201D01*
X167155388Y-103390339D01*
X167155392Y-103390344D01*
X167226587Y-103458498D01*
X167300415Y-103529173D01*
X167305454Y-103532427D01*
X167305457Y-103532429D01*
X167391126Y-103587744D01*
X167474106Y-103641323D01*
X167479669Y-103643565D01*
X167479673Y-103643567D01*
X167660301Y-103716362D01*
X167660304Y-103716363D01*
X167665870Y-103718606D01*
X167766561Y-103738269D01*
X167864342Y-103757365D01*
X167864345Y-103757365D01*
X167868788Y-103758233D01*
X167874247Y-103758500D01*
X168676651Y-103758500D01*
X168830817Y-103743791D01*
X168836566Y-103742104D01*
X168842178Y-103741024D01*
X168912851Y-103747785D01*
X168968650Y-103791683D01*
X168992000Y-103864751D01*
X168992000Y-121822620D01*
X168971998Y-121890741D01*
X168918342Y-121937234D01*
X168848068Y-121947338D01*
X168783488Y-121917844D01*
X168745104Y-121858118D01*
X168743107Y-121850428D01*
X168701968Y-121668618D01*
X168701968Y-121668617D01*
X168701350Y-121665887D01*
X168659299Y-121535305D01*
X168570918Y-121260856D01*
X168570916Y-121260849D01*
X168570063Y-121258202D01*
X168440061Y-120951191D01*
X168404150Y-120866384D01*
X168404148Y-120866379D01*
X168403056Y-120863801D01*
X168201650Y-120485807D01*
X168182391Y-120456320D01*
X167968981Y-120129573D01*
X167968978Y-120129569D01*
X167967440Y-120127214D01*
X167702280Y-119790860D01*
X167408270Y-119479409D01*
X167406179Y-119477556D01*
X167406171Y-119477548D01*
X167089837Y-119197188D01*
X167089835Y-119197186D01*
X167087737Y-119195327D01*
X166743221Y-118940863D01*
X166514579Y-118801573D01*
X166379837Y-118719487D01*
X166379830Y-118719483D01*
X166377448Y-118718032D01*
X166324361Y-118691852D01*
X166006024Y-118534866D01*
X165993314Y-118528598D01*
X165593862Y-118374062D01*
X165347278Y-118303122D01*
X165184935Y-118256417D01*
X165184929Y-118256415D01*
X165182254Y-118255646D01*
X165179517Y-118255117D01*
X165179511Y-118255115D01*
X165034428Y-118227046D01*
X164761748Y-118174289D01*
X164758974Y-118174005D01*
X164758962Y-118174003D01*
X164475711Y-118144982D01*
X164335676Y-118130634D01*
X164332886Y-118130597D01*
X164332878Y-118130597D01*
X164065425Y-118127096D01*
X163907409Y-118125028D01*
X163904609Y-118125241D01*
X163904608Y-118125241D01*
X163492816Y-118156565D01*
X163480340Y-118157514D01*
X163057849Y-118227836D01*
X162972271Y-118250048D01*
X162646000Y-118334731D01*
X162645989Y-118334734D01*
X162643282Y-118335437D01*
X162468483Y-118397852D01*
X162242564Y-118478520D01*
X162242559Y-118478522D01*
X162239921Y-118479464D01*
X162237381Y-118480635D01*
X162237376Y-118480637D01*
X162119745Y-118534866D01*
X161850961Y-118658777D01*
X161848538Y-118660167D01*
X161848535Y-118660169D01*
X161590212Y-118808412D01*
X161521173Y-118824969D01*
X161454142Y-118801573D01*
X161410401Y-118745651D01*
X161403838Y-118674959D01*
X161418379Y-118636128D01*
X161481223Y-118527279D01*
X161481224Y-118527278D01*
X161484527Y-118521556D01*
X161543542Y-118339928D01*
X161555372Y-118227377D01*
X161563504Y-118150000D01*
X161565541Y-118150214D01*
X161582816Y-118091379D01*
X161636472Y-118044886D01*
X161688814Y-118033500D01*
X161720487Y-118033500D01*
X161726939Y-118032128D01*
X161726944Y-118032128D01*
X161813888Y-118013647D01*
X161907288Y-117993794D01*
X161913319Y-117991109D01*
X162075722Y-117918803D01*
X162075724Y-117918802D01*
X162081752Y-117916118D01*
X162236253Y-117803866D01*
X162364040Y-117661944D01*
X162459527Y-117496556D01*
X162518542Y-117314928D01*
X162522231Y-117279834D01*
X162537814Y-117131565D01*
X162538504Y-117125000D01*
X162524304Y-116989891D01*
X162519232Y-116941635D01*
X162519232Y-116941633D01*
X162518542Y-116935072D01*
X162459527Y-116753444D01*
X162442502Y-116723955D01*
X162367341Y-116593774D01*
X162364040Y-116588056D01*
X162236253Y-116446134D01*
X162081752Y-116333882D01*
X162075724Y-116331198D01*
X162075722Y-116331197D01*
X161913319Y-116258891D01*
X161913318Y-116258891D01*
X161907288Y-116256206D01*
X161813888Y-116236353D01*
X161726944Y-116217872D01*
X161726939Y-116217872D01*
X161720487Y-116216500D01*
X161710942Y-116216500D01*
X161709302Y-116216019D01*
X161707318Y-116215810D01*
X161707356Y-116215447D01*
X161642821Y-116196498D01*
X161596328Y-116142842D01*
X161585632Y-116077331D01*
X161587814Y-116056568D01*
X161587814Y-116056565D01*
X161588504Y-116050000D01*
X161568542Y-115860072D01*
X161509527Y-115678444D01*
X161414040Y-115513056D01*
X161286253Y-115371134D01*
X161131752Y-115258882D01*
X161125724Y-115256198D01*
X161125722Y-115256197D01*
X160963319Y-115183891D01*
X160963318Y-115183891D01*
X160957288Y-115181206D01*
X160863888Y-115161353D01*
X160776944Y-115142872D01*
X160776939Y-115142872D01*
X160770487Y-115141500D01*
X160579513Y-115141500D01*
X160573061Y-115142872D01*
X160573056Y-115142872D01*
X160486112Y-115161353D01*
X160392712Y-115181206D01*
X160386682Y-115183891D01*
X160386681Y-115183891D01*
X160224278Y-115256197D01*
X160224276Y-115256198D01*
X160218248Y-115258882D01*
X160063747Y-115371134D01*
X159935960Y-115513056D01*
X159840473Y-115678444D01*
X159781458Y-115860072D01*
X159761496Y-116050000D01*
X159762186Y-116056565D01*
X159778996Y-116216500D01*
X159781458Y-116239928D01*
X159840473Y-116421556D01*
X159843776Y-116427278D01*
X159843777Y-116427279D01*
X159877686Y-116486010D01*
X159935960Y-116586944D01*
X160063747Y-116728866D01*
X160218248Y-116841118D01*
X160224276Y-116843802D01*
X160224278Y-116843803D01*
X160386681Y-116916109D01*
X160392712Y-116918794D01*
X160469294Y-116935072D01*
X160573056Y-116957128D01*
X160573061Y-116957128D01*
X160579513Y-116958500D01*
X160589058Y-116958500D01*
X160590698Y-116958981D01*
X160592682Y-116959190D01*
X160592644Y-116959553D01*
X160657179Y-116978502D01*
X160703672Y-117032158D01*
X160714368Y-117097669D01*
X160711496Y-117124998D01*
X160709460Y-117124784D01*
X160692184Y-117183621D01*
X160638528Y-117230114D01*
X160586186Y-117241500D01*
X160554513Y-117241500D01*
X160548061Y-117242872D01*
X160548056Y-117242872D01*
X160461113Y-117261353D01*
X160367712Y-117281206D01*
X160361682Y-117283891D01*
X160361681Y-117283891D01*
X160199278Y-117356197D01*
X160199276Y-117356198D01*
X160193248Y-117358882D01*
X160038747Y-117471134D01*
X160034326Y-117476044D01*
X160034325Y-117476045D01*
X160021104Y-117490729D01*
X159910960Y-117613056D01*
X159815473Y-117778444D01*
X159756458Y-117960072D01*
X159755768Y-117966633D01*
X159755768Y-117966635D01*
X159748885Y-118032128D01*
X159736496Y-118150000D01*
X159737186Y-118156565D01*
X159744629Y-118227377D01*
X159756458Y-118339928D01*
X159815473Y-118521556D01*
X159818776Y-118527278D01*
X159818777Y-118527279D01*
X159825399Y-118538749D01*
X159910960Y-118686944D01*
X159915378Y-118691851D01*
X159915379Y-118691852D01*
X159963820Y-118745651D01*
X160038747Y-118828866D01*
X160193248Y-118941118D01*
X160199276Y-118943802D01*
X160199278Y-118943803D01*
X160361681Y-119016109D01*
X160367712Y-119018794D01*
X160441725Y-119034526D01*
X160548056Y-119057128D01*
X160548061Y-119057128D01*
X160554513Y-119058500D01*
X160745487Y-119058500D01*
X160751939Y-119057128D01*
X160751944Y-119057128D01*
X160858275Y-119034526D01*
X160929066Y-119039928D01*
X160985698Y-119082745D01*
X161010192Y-119149382D01*
X160994771Y-119218684D01*
X160965547Y-119254224D01*
X160800561Y-119392909D01*
X160498499Y-119696557D01*
X160224625Y-120025855D01*
X160223031Y-120028162D01*
X160223029Y-120028164D01*
X159987619Y-120368774D01*
X159981108Y-120378194D01*
X159769876Y-120750786D01*
X159592602Y-121140680D01*
X159591680Y-121143306D01*
X159591675Y-121143318D01*
X159587775Y-121154424D01*
X159450689Y-121544790D01*
X159449998Y-121547510D01*
X159449997Y-121547514D01*
X159394694Y-121765271D01*
X159345261Y-121959914D01*
X159277152Y-122382768D01*
X159246902Y-122810001D01*
X159254751Y-123238233D01*
X159300636Y-123664071D01*
X159384194Y-124084144D01*
X159504763Y-124495127D01*
X159505790Y-124497740D01*
X159505790Y-124497741D01*
X159647340Y-124858007D01*
X159661389Y-124893765D01*
X159662644Y-124896276D01*
X159830761Y-125232731D01*
X159852831Y-125276901D01*
X160077574Y-125641502D01*
X160333839Y-125984682D01*
X160335700Y-125986760D01*
X160335701Y-125986761D01*
X160617727Y-126301637D01*
X160617733Y-126301643D01*
X160619595Y-126303722D01*
X160932581Y-126596098D01*
X161270319Y-126859493D01*
X161630133Y-127091822D01*
X161632612Y-127093126D01*
X161632615Y-127093128D01*
X162006677Y-127289932D01*
X162006683Y-127289935D01*
X162009177Y-127291247D01*
X162011775Y-127292331D01*
X162011779Y-127292333D01*
X162401863Y-127455109D01*
X162401868Y-127455111D01*
X162404447Y-127456187D01*
X162407112Y-127457030D01*
X162407118Y-127457032D01*
X162629161Y-127527254D01*
X162812814Y-127585336D01*
X163231046Y-127677673D01*
X163233820Y-127678031D01*
X163233821Y-127678031D01*
X163653060Y-127732109D01*
X163653067Y-127732110D01*
X163655830Y-127732466D01*
X163658617Y-127732576D01*
X163658623Y-127732576D01*
X163850053Y-127740097D01*
X163917336Y-127762758D01*
X163961686Y-127818198D01*
X163969023Y-127888814D01*
X163937018Y-127952187D01*
X163875831Y-127988197D01*
X163845106Y-127992000D01*
X124928762Y-127992000D01*
X124860641Y-127971998D01*
X124814148Y-127918342D01*
X124804044Y-127848068D01*
X124833538Y-127783488D01*
X124893264Y-127745104D01*
X124922497Y-127740156D01*
X125164172Y-127728125D01*
X125164181Y-127728124D01*
X125166976Y-127727985D01*
X125169753Y-127727597D01*
X125169755Y-127727597D01*
X125244066Y-127717219D01*
X125591163Y-127668747D01*
X126008404Y-127572036D01*
X126222307Y-127501915D01*
X126412744Y-127439487D01*
X126412750Y-127439485D01*
X126415397Y-127438617D01*
X126808918Y-127269547D01*
X127185852Y-127066164D01*
X127543214Y-126830080D01*
X127878175Y-126563162D01*
X128188082Y-126267525D01*
X128189919Y-126265431D01*
X128189927Y-126265422D01*
X128468635Y-125947616D01*
X128470482Y-125945510D01*
X128723139Y-125599666D01*
X128857840Y-125375929D01*
X128942601Y-125235142D01*
X128942606Y-125235133D01*
X128944052Y-125232731D01*
X129131471Y-124847611D01*
X129264724Y-124497741D01*
X129282918Y-124449971D01*
X129282920Y-124449964D01*
X129283914Y-124447355D01*
X129400173Y-124035132D01*
X129469433Y-123666822D01*
X129478811Y-123616954D01*
X129478813Y-123616942D01*
X129479327Y-123614207D01*
X129520750Y-123187911D01*
X129525007Y-123025365D01*
X129527289Y-122938234D01*
X129527289Y-122938220D01*
X129527347Y-122936000D01*
X129508291Y-122508121D01*
X129506932Y-122497999D01*
X129476865Y-122274149D01*
X129451275Y-122083630D01*
X129450019Y-122078077D01*
X129357368Y-121668618D01*
X129357368Y-121668617D01*
X129356750Y-121665887D01*
X129352827Y-121653705D01*
X132417001Y-121653705D01*
X132417264Y-121659454D01*
X132423132Y-121723315D01*
X132425743Y-121736351D01*
X132472715Y-121886243D01*
X132478921Y-121899988D01*
X132559824Y-122033574D01*
X132569131Y-122045443D01*
X132679557Y-122155869D01*
X132691426Y-122165176D01*
X132825014Y-122246080D01*
X132838753Y-122252283D01*
X132907715Y-122273894D01*
X132921813Y-122274149D01*
X132925000Y-122267492D01*
X132925000Y-121568115D01*
X132920525Y-121552876D01*
X132919135Y-121551671D01*
X132911452Y-121550000D01*
X132435116Y-121550000D01*
X132419877Y-121554475D01*
X132418672Y-121555865D01*
X132417001Y-121563548D01*
X132417001Y-121653705D01*
X129352827Y-121653705D01*
X129314699Y-121535305D01*
X129286459Y-121447610D01*
X133666500Y-121447610D01*
X133666844Y-121450880D01*
X133677732Y-121554475D01*
X133681458Y-121589928D01*
X133684617Y-121599649D01*
X133718833Y-121704955D01*
X133725000Y-121743892D01*
X133725000Y-122261196D01*
X133728973Y-122274727D01*
X133736277Y-122275777D01*
X133811247Y-122252283D01*
X133824986Y-122246080D01*
X133954578Y-122167596D01*
X134023208Y-122149417D01*
X134093911Y-122173436D01*
X134118248Y-122191118D01*
X134124276Y-122193802D01*
X134124278Y-122193803D01*
X134286681Y-122266109D01*
X134292712Y-122268794D01*
X134386112Y-122288647D01*
X134473056Y-122307128D01*
X134473061Y-122307128D01*
X134479513Y-122308500D01*
X134670487Y-122308500D01*
X134676939Y-122307128D01*
X134676944Y-122307128D01*
X134763888Y-122288647D01*
X134857288Y-122268794D01*
X134863319Y-122266109D01*
X135025722Y-122193803D01*
X135025724Y-122193802D01*
X135031752Y-122191118D01*
X135080618Y-122155615D01*
X135125939Y-122122687D01*
X135192807Y-122098828D01*
X135261958Y-122114909D01*
X135274061Y-122122687D01*
X135319383Y-122155615D01*
X135368248Y-122191118D01*
X135374276Y-122193802D01*
X135374278Y-122193803D01*
X135536681Y-122266109D01*
X135542712Y-122268794D01*
X135636112Y-122288647D01*
X135723056Y-122307128D01*
X135723061Y-122307128D01*
X135729513Y-122308500D01*
X135920487Y-122308500D01*
X135926939Y-122307128D01*
X135926944Y-122307128D01*
X136013888Y-122288647D01*
X136107288Y-122268794D01*
X136113319Y-122266109D01*
X136275722Y-122193803D01*
X136275724Y-122193802D01*
X136281752Y-122191118D01*
X136330618Y-122155615D01*
X136375939Y-122122687D01*
X136442807Y-122098828D01*
X136511958Y-122114909D01*
X136524061Y-122122687D01*
X136569383Y-122155615D01*
X136618248Y-122191118D01*
X136624276Y-122193802D01*
X136624278Y-122193803D01*
X136786681Y-122266109D01*
X136792712Y-122268794D01*
X136886112Y-122288647D01*
X136973056Y-122307128D01*
X136973061Y-122307128D01*
X136979513Y-122308500D01*
X137170487Y-122308500D01*
X137176939Y-122307128D01*
X137176944Y-122307128D01*
X137263888Y-122288647D01*
X137357288Y-122268794D01*
X137363319Y-122266109D01*
X137525722Y-122193803D01*
X137525724Y-122193802D01*
X137531752Y-122191118D01*
X137580618Y-122155615D01*
X137636644Y-122114909D01*
X137686253Y-122078866D01*
X137773660Y-121981791D01*
X137809621Y-121941852D01*
X137809622Y-121941851D01*
X137814040Y-121936944D01*
X137909527Y-121771556D01*
X137968542Y-121589928D01*
X137976890Y-121510503D01*
X156264729Y-121510503D01*
X156277759Y-121709301D01*
X156326799Y-121902397D01*
X156410207Y-122083322D01*
X156525189Y-122246018D01*
X156667894Y-122385035D01*
X156672690Y-122388240D01*
X156672693Y-122388242D01*
X156807496Y-122478314D01*
X156833544Y-122495719D01*
X156838847Y-122497997D01*
X156838850Y-122497999D01*
X156921542Y-122533526D01*
X157016591Y-122574362D01*
X157087896Y-122590497D01*
X157205266Y-122617055D01*
X157205271Y-122617056D01*
X157210903Y-122618330D01*
X157216674Y-122618557D01*
X157216676Y-122618557D01*
X157275511Y-122620869D01*
X157409975Y-122626152D01*
X157509903Y-122611663D01*
X157601418Y-122598395D01*
X157601423Y-122598394D01*
X157607139Y-122597565D01*
X157612611Y-122595707D01*
X157612613Y-122595707D01*
X157790327Y-122535381D01*
X157790329Y-122535380D01*
X157795791Y-122533526D01*
X157969615Y-122436180D01*
X158122788Y-122308788D01*
X158250180Y-122155615D01*
X158347526Y-121981791D01*
X158354014Y-121962680D01*
X158409707Y-121798613D01*
X158409707Y-121798611D01*
X158411565Y-121793139D01*
X158412394Y-121787423D01*
X158412395Y-121787418D01*
X158439619Y-121599649D01*
X158440152Y-121595975D01*
X158441644Y-121539000D01*
X158423415Y-121340610D01*
X158421847Y-121335050D01*
X158370905Y-121154424D01*
X158370904Y-121154422D01*
X158369337Y-121148865D01*
X158364046Y-121138134D01*
X158283777Y-120975366D01*
X158281222Y-120970185D01*
X158267039Y-120951191D01*
X158165473Y-120815179D01*
X158165473Y-120815178D01*
X158162020Y-120810555D01*
X158094724Y-120748347D01*
X158060417Y-120716635D01*
X158015724Y-120675321D01*
X157847234Y-120569011D01*
X157841874Y-120566873D01*
X157841869Y-120566870D01*
X157667556Y-120497327D01*
X157662192Y-120495187D01*
X157656532Y-120494061D01*
X157656528Y-120494060D01*
X157472461Y-120457447D01*
X157472459Y-120457447D01*
X157466794Y-120456320D01*
X157461019Y-120456244D01*
X157461015Y-120456244D01*
X157361480Y-120454941D01*
X157267586Y-120453712D01*
X157261889Y-120454691D01*
X157261888Y-120454691D01*
X157080805Y-120485807D01*
X157071238Y-120487451D01*
X156884327Y-120556406D01*
X156879366Y-120559358D01*
X156879365Y-120559358D01*
X156718079Y-120655313D01*
X156718076Y-120655315D01*
X156713111Y-120658269D01*
X156563326Y-120789627D01*
X156559750Y-120794162D01*
X156559750Y-120794163D01*
X156504852Y-120863801D01*
X156439986Y-120946082D01*
X156347224Y-121122394D01*
X156345512Y-121127908D01*
X156345511Y-121127910D01*
X156305054Y-121258202D01*
X156288145Y-121312658D01*
X156264729Y-121510503D01*
X137976890Y-121510503D01*
X137983500Y-121447610D01*
X137983500Y-120852390D01*
X137974829Y-120769889D01*
X137969232Y-120716635D01*
X137969232Y-120716633D01*
X137968542Y-120710072D01*
X137909527Y-120528444D01*
X137884911Y-120485807D01*
X137843312Y-120413757D01*
X137814040Y-120363056D01*
X137686253Y-120221134D01*
X137531752Y-120108882D01*
X137525724Y-120106198D01*
X137525722Y-120106197D01*
X137363319Y-120033891D01*
X137363318Y-120033891D01*
X137357288Y-120031206D01*
X137263887Y-120011353D01*
X137176944Y-119992872D01*
X137176939Y-119992872D01*
X137170487Y-119991500D01*
X136979513Y-119991500D01*
X136973061Y-119992872D01*
X136973056Y-119992872D01*
X136886113Y-120011353D01*
X136792712Y-120031206D01*
X136786682Y-120033891D01*
X136786681Y-120033891D01*
X136624278Y-120106197D01*
X136624276Y-120106198D01*
X136618248Y-120108882D01*
X136612907Y-120112762D01*
X136612906Y-120112763D01*
X136524061Y-120177313D01*
X136457193Y-120201172D01*
X136388042Y-120185091D01*
X136375939Y-120177313D01*
X136287094Y-120112763D01*
X136287093Y-120112762D01*
X136281752Y-120108882D01*
X136275724Y-120106198D01*
X136275722Y-120106197D01*
X136113319Y-120033891D01*
X136113318Y-120033891D01*
X136107288Y-120031206D01*
X136013887Y-120011353D01*
X135926944Y-119992872D01*
X135926939Y-119992872D01*
X135920487Y-119991500D01*
X135729513Y-119991500D01*
X135723061Y-119992872D01*
X135723056Y-119992872D01*
X135636113Y-120011353D01*
X135542712Y-120031206D01*
X135536682Y-120033891D01*
X135536681Y-120033891D01*
X135374278Y-120106197D01*
X135374276Y-120106198D01*
X135368248Y-120108882D01*
X135362907Y-120112762D01*
X135362906Y-120112763D01*
X135274061Y-120177313D01*
X135207193Y-120201172D01*
X135138042Y-120185091D01*
X135125939Y-120177313D01*
X135037094Y-120112763D01*
X135037093Y-120112762D01*
X135031752Y-120108882D01*
X135025724Y-120106198D01*
X135025722Y-120106197D01*
X134863319Y-120033891D01*
X134863318Y-120033891D01*
X134857288Y-120031206D01*
X134763887Y-120011353D01*
X134676944Y-119992872D01*
X134676939Y-119992872D01*
X134670487Y-119991500D01*
X134479513Y-119991500D01*
X134473061Y-119992872D01*
X134473056Y-119992872D01*
X134386113Y-120011353D01*
X134292712Y-120031206D01*
X134286682Y-120033891D01*
X134286681Y-120033891D01*
X134124278Y-120106197D01*
X134124276Y-120106198D01*
X134118248Y-120108882D01*
X134112907Y-120112762D01*
X134112906Y-120112763D01*
X134093911Y-120126564D01*
X134027044Y-120150422D01*
X133954578Y-120132404D01*
X133824986Y-120053920D01*
X133811247Y-120047717D01*
X133742285Y-120026106D01*
X133728187Y-120025851D01*
X133725000Y-120032508D01*
X133725000Y-120556108D01*
X133718833Y-120595044D01*
X133681458Y-120710072D01*
X133680768Y-120716635D01*
X133680767Y-120716642D01*
X133673497Y-120785820D01*
X133666500Y-120852390D01*
X133666500Y-121447610D01*
X129286459Y-121447610D01*
X129226318Y-121260856D01*
X129226316Y-121260849D01*
X129225463Y-121258202D01*
X129095461Y-120951191D01*
X129059550Y-120866384D01*
X129059548Y-120866379D01*
X129058456Y-120863801D01*
X128988167Y-120731885D01*
X132417000Y-120731885D01*
X132421475Y-120747124D01*
X132422865Y-120748329D01*
X132430548Y-120750000D01*
X132906885Y-120750000D01*
X132922124Y-120745525D01*
X132923329Y-120744135D01*
X132925000Y-120736452D01*
X132925000Y-120038804D01*
X132921027Y-120025273D01*
X132913723Y-120024223D01*
X132838753Y-120047717D01*
X132825014Y-120053920D01*
X132691426Y-120134824D01*
X132679557Y-120144131D01*
X132569131Y-120254557D01*
X132559824Y-120266426D01*
X132478921Y-120400012D01*
X132472715Y-120413757D01*
X132425744Y-120563644D01*
X132423131Y-120576694D01*
X132417266Y-120640521D01*
X132417000Y-120646309D01*
X132417000Y-120731885D01*
X128988167Y-120731885D01*
X128857050Y-120485807D01*
X128837791Y-120456320D01*
X128624381Y-120129573D01*
X128624378Y-120129569D01*
X128622840Y-120127214D01*
X128357680Y-119790860D01*
X128063670Y-119479409D01*
X128061579Y-119477556D01*
X128061571Y-119477548D01*
X127745237Y-119197188D01*
X127745235Y-119197186D01*
X127743137Y-119195327D01*
X127398621Y-118940863D01*
X127169979Y-118801573D01*
X127035237Y-118719487D01*
X127035230Y-118719483D01*
X127032848Y-118718032D01*
X126979761Y-118691852D01*
X126661424Y-118534866D01*
X126648714Y-118528598D01*
X126249262Y-118374062D01*
X126002678Y-118303122D01*
X125840335Y-118256417D01*
X125840329Y-118256415D01*
X125837654Y-118255646D01*
X125834917Y-118255117D01*
X125834911Y-118255115D01*
X125689828Y-118227046D01*
X125417148Y-118174289D01*
X125414374Y-118174005D01*
X125414362Y-118174003D01*
X125131111Y-118144982D01*
X124991076Y-118130634D01*
X124988286Y-118130597D01*
X124988278Y-118130597D01*
X124720825Y-118127096D01*
X124562809Y-118125028D01*
X124560009Y-118125241D01*
X124560008Y-118125241D01*
X124148216Y-118156565D01*
X124135740Y-118157514D01*
X123713249Y-118227836D01*
X123627671Y-118250048D01*
X123301400Y-118334731D01*
X123301389Y-118334734D01*
X123298682Y-118335437D01*
X123123883Y-118397852D01*
X122897964Y-118478520D01*
X122897959Y-118478522D01*
X122895321Y-118479464D01*
X122892781Y-118480635D01*
X122892776Y-118480637D01*
X122775145Y-118534866D01*
X122506361Y-118658777D01*
X122503938Y-118660167D01*
X122503935Y-118660169D01*
X122419422Y-118708668D01*
X122134880Y-118871957D01*
X122132577Y-118873566D01*
X122132570Y-118873571D01*
X121869936Y-119057128D01*
X121783820Y-119117315D01*
X121455961Y-119392909D01*
X121153899Y-119696557D01*
X120880025Y-120025855D01*
X120878431Y-120028162D01*
X120878429Y-120028164D01*
X120643019Y-120368774D01*
X120636508Y-120378194D01*
X120425276Y-120750786D01*
X120248002Y-121140680D01*
X120247080Y-121143306D01*
X120247075Y-121143318D01*
X120243175Y-121154424D01*
X120106089Y-121544790D01*
X120105398Y-121547510D01*
X120105397Y-121547514D01*
X120050094Y-121765271D01*
X120000661Y-121959914D01*
X119967210Y-122167596D01*
X119958397Y-122222310D01*
X119927817Y-122286383D01*
X119867450Y-122323752D01*
X119796464Y-122322552D01*
X119737395Y-122283165D01*
X119708997Y-122218095D01*
X119708000Y-122202273D01*
X119708000Y-117856000D01*
X140818496Y-117856000D01*
X140819186Y-117862565D01*
X140837008Y-118032128D01*
X140838458Y-118045928D01*
X140897473Y-118227556D01*
X140992960Y-118392944D01*
X140997378Y-118397851D01*
X140997379Y-118397852D01*
X141108763Y-118521556D01*
X141120747Y-118534866D01*
X141219843Y-118606864D01*
X141260122Y-118636128D01*
X141275248Y-118647118D01*
X141281276Y-118649802D01*
X141281278Y-118649803D01*
X141431741Y-118716793D01*
X141449712Y-118724794D01*
X141543113Y-118744647D01*
X141630056Y-118763128D01*
X141630061Y-118763128D01*
X141636513Y-118764500D01*
X141827487Y-118764500D01*
X141833939Y-118763128D01*
X141833944Y-118763128D01*
X141920887Y-118744647D01*
X142014288Y-118724794D01*
X142188752Y-118647118D01*
X142259118Y-118637684D01*
X142291247Y-118647118D01*
X142291248Y-118647118D01*
X142465712Y-118724794D01*
X142559113Y-118744647D01*
X142646056Y-118763128D01*
X142646061Y-118763128D01*
X142652513Y-118764500D01*
X142843487Y-118764500D01*
X142849939Y-118763128D01*
X142849944Y-118763128D01*
X142936887Y-118744647D01*
X143030288Y-118724794D01*
X143048259Y-118716793D01*
X143198722Y-118649803D01*
X143198724Y-118649802D01*
X143204752Y-118647118D01*
X143219879Y-118636128D01*
X143260157Y-118606864D01*
X143359253Y-118534866D01*
X143371237Y-118521556D01*
X143482621Y-118397852D01*
X143482622Y-118397851D01*
X143487040Y-118392944D01*
X143582527Y-118227556D01*
X143641542Y-118045928D01*
X143642993Y-118032128D01*
X143660814Y-117862565D01*
X143661504Y-117856000D01*
X143641542Y-117666072D01*
X143582527Y-117484444D01*
X143574843Y-117471134D01*
X143512274Y-117362763D01*
X143487040Y-117319056D01*
X143451725Y-117279834D01*
X143363675Y-117182045D01*
X143363674Y-117182044D01*
X143359253Y-117177134D01*
X143204752Y-117064882D01*
X143198724Y-117062198D01*
X143198722Y-117062197D01*
X143036319Y-116989891D01*
X143036318Y-116989891D01*
X143030288Y-116987206D01*
X142936888Y-116967353D01*
X142849944Y-116948872D01*
X142849939Y-116948872D01*
X142843487Y-116947500D01*
X142652513Y-116947500D01*
X142646061Y-116948872D01*
X142646056Y-116948872D01*
X142559112Y-116967353D01*
X142465712Y-116987206D01*
X142291248Y-117064882D01*
X142220882Y-117074316D01*
X142188753Y-117064882D01*
X142188752Y-117064882D01*
X142014288Y-116987206D01*
X141920888Y-116967353D01*
X141833944Y-116948872D01*
X141833939Y-116948872D01*
X141827487Y-116947500D01*
X141636513Y-116947500D01*
X141630061Y-116948872D01*
X141630056Y-116948872D01*
X141543112Y-116967353D01*
X141449712Y-116987206D01*
X141443682Y-116989891D01*
X141443681Y-116989891D01*
X141281278Y-117062197D01*
X141281276Y-117062198D01*
X141275248Y-117064882D01*
X141120747Y-117177134D01*
X141116326Y-117182044D01*
X141116325Y-117182045D01*
X141028276Y-117279834D01*
X140992960Y-117319056D01*
X140967726Y-117362763D01*
X140905158Y-117471134D01*
X140897473Y-117484444D01*
X140838458Y-117666072D01*
X140818496Y-117856000D01*
X119708000Y-117856000D01*
X119708000Y-114400000D01*
X157086496Y-114400000D01*
X157106458Y-114589928D01*
X157165473Y-114771556D01*
X157260960Y-114936944D01*
X157388747Y-115078866D01*
X157543248Y-115191118D01*
X157549276Y-115193802D01*
X157549278Y-115193803D01*
X157695449Y-115258882D01*
X157717712Y-115268794D01*
X157811113Y-115288647D01*
X157898056Y-115307128D01*
X157898061Y-115307128D01*
X157904513Y-115308500D01*
X158095487Y-115308500D01*
X158101939Y-115307128D01*
X158101944Y-115307128D01*
X158188887Y-115288647D01*
X158282288Y-115268794D01*
X158304551Y-115258882D01*
X158450722Y-115193803D01*
X158450724Y-115193802D01*
X158456752Y-115191118D01*
X158611253Y-115078866D01*
X158739040Y-114936944D01*
X158834527Y-114771556D01*
X158893542Y-114589928D01*
X158913504Y-114400000D01*
X158893542Y-114210072D01*
X158886300Y-114187784D01*
X158866251Y-114126078D01*
X158864224Y-114055110D01*
X158900886Y-113994312D01*
X158964599Y-113962987D01*
X159012281Y-113963896D01*
X159098047Y-113982127D01*
X159098060Y-113982128D01*
X159104513Y-113983500D01*
X159295487Y-113983500D01*
X159301939Y-113982128D01*
X159301944Y-113982128D01*
X159388887Y-113963647D01*
X159482288Y-113943794D01*
X159535358Y-113920166D01*
X159650722Y-113868803D01*
X159650724Y-113868802D01*
X159656752Y-113866118D01*
X159691162Y-113841118D01*
X159712157Y-113825864D01*
X159811253Y-113753866D01*
X159838181Y-113723960D01*
X159939040Y-113611944D01*
X159940184Y-113612974D01*
X159990163Y-113574438D01*
X160060899Y-113568364D01*
X160123690Y-113601498D01*
X160129484Y-113607517D01*
X160238747Y-113728866D01*
X160393248Y-113841118D01*
X160399276Y-113843802D01*
X160399278Y-113843803D01*
X160561681Y-113916109D01*
X160567712Y-113918794D01*
X160661113Y-113938647D01*
X160748056Y-113957128D01*
X160748061Y-113957128D01*
X160754513Y-113958500D01*
X160945487Y-113958500D01*
X160951939Y-113957128D01*
X160951944Y-113957128D01*
X161038888Y-113938647D01*
X161132288Y-113918794D01*
X161138319Y-113916109D01*
X161300722Y-113843803D01*
X161300724Y-113843802D01*
X161306752Y-113841118D01*
X161461253Y-113728866D01*
X161471711Y-113717251D01*
X161584621Y-113591852D01*
X161584622Y-113591851D01*
X161589040Y-113586944D01*
X161684527Y-113421556D01*
X161743542Y-113239928D01*
X161763504Y-113050000D01*
X161762814Y-113043435D01*
X161744232Y-112866635D01*
X161744232Y-112866633D01*
X161743542Y-112860072D01*
X161684527Y-112678444D01*
X161668931Y-112651431D01*
X161652194Y-112582435D01*
X161660633Y-112546915D01*
X161659527Y-112546556D01*
X161716502Y-112371206D01*
X161718542Y-112364928D01*
X161738504Y-112175000D01*
X161718542Y-111985072D01*
X161659527Y-111803444D01*
X161652835Y-111791852D01*
X161567341Y-111643774D01*
X161564040Y-111638056D01*
X161554337Y-111627279D01*
X161440675Y-111501045D01*
X161440674Y-111501044D01*
X161436253Y-111496134D01*
X161281752Y-111383882D01*
X161275724Y-111381198D01*
X161275722Y-111381197D01*
X161113319Y-111308891D01*
X161113318Y-111308891D01*
X161107288Y-111306206D01*
X161013887Y-111286353D01*
X160926944Y-111267872D01*
X160926939Y-111267872D01*
X160920487Y-111266500D01*
X160729513Y-111266500D01*
X160723061Y-111267872D01*
X160723056Y-111267872D01*
X160636113Y-111286353D01*
X160542712Y-111306206D01*
X160536682Y-111308891D01*
X160536681Y-111308891D01*
X160374278Y-111381197D01*
X160374276Y-111381198D01*
X160368248Y-111383882D01*
X160213747Y-111496134D01*
X160209326Y-111501044D01*
X160209325Y-111501045D01*
X160095664Y-111627279D01*
X160085960Y-111638056D01*
X160082659Y-111643774D01*
X159997166Y-111791852D01*
X159990473Y-111803444D01*
X159931458Y-111985072D01*
X159911496Y-112175000D01*
X159912186Y-112181564D01*
X159915366Y-112211818D01*
X159902594Y-112281656D01*
X159854092Y-112333503D01*
X159785260Y-112350898D01*
X159715995Y-112326925D01*
X159662094Y-112287763D01*
X159662093Y-112287762D01*
X159656752Y-112283882D01*
X159650724Y-112281198D01*
X159650722Y-112281197D01*
X159488319Y-112208891D01*
X159488318Y-112208891D01*
X159482288Y-112206206D01*
X159366362Y-112181565D01*
X159301944Y-112167872D01*
X159301939Y-112167872D01*
X159295487Y-112166500D01*
X159104513Y-112166500D01*
X159098061Y-112167872D01*
X159098056Y-112167872D01*
X159033638Y-112181565D01*
X158917712Y-112206206D01*
X158911682Y-112208891D01*
X158911681Y-112208891D01*
X158749278Y-112281197D01*
X158749276Y-112281198D01*
X158743248Y-112283882D01*
X158588747Y-112396134D01*
X158460960Y-112538056D01*
X158365473Y-112703444D01*
X158306458Y-112885072D01*
X158286496Y-113075000D01*
X158287186Y-113081565D01*
X158303141Y-113233365D01*
X158306458Y-113264928D01*
X158308498Y-113271206D01*
X158333749Y-113348922D01*
X158335776Y-113419890D01*
X158299114Y-113480688D01*
X158235401Y-113512013D01*
X158187719Y-113511104D01*
X158101953Y-113492873D01*
X158101940Y-113492872D01*
X158095487Y-113491500D01*
X157904513Y-113491500D01*
X157898061Y-113492872D01*
X157898056Y-113492872D01*
X157812284Y-113511104D01*
X157717712Y-113531206D01*
X157711682Y-113533891D01*
X157711681Y-113533891D01*
X157549278Y-113606197D01*
X157549276Y-113606198D01*
X157543248Y-113608882D01*
X157537907Y-113612762D01*
X157537906Y-113612763D01*
X157487843Y-113649136D01*
X157388747Y-113721134D01*
X157384326Y-113726044D01*
X157384325Y-113726045D01*
X157284208Y-113837237D01*
X157260960Y-113863056D01*
X157165473Y-114028444D01*
X157106458Y-114210072D01*
X157086496Y-114400000D01*
X119708000Y-114400000D01*
X119708000Y-111250000D01*
X156736496Y-111250000D01*
X156756458Y-111439928D01*
X156815473Y-111621556D01*
X156818776Y-111627278D01*
X156818777Y-111627279D01*
X156852686Y-111686010D01*
X156910960Y-111786944D01*
X156915378Y-111791851D01*
X156915379Y-111791852D01*
X156931476Y-111809729D01*
X157038747Y-111928866D01*
X157193248Y-112041118D01*
X157199276Y-112043802D01*
X157199278Y-112043803D01*
X157361681Y-112116109D01*
X157367712Y-112118794D01*
X157461112Y-112138647D01*
X157548056Y-112157128D01*
X157548061Y-112157128D01*
X157554513Y-112158500D01*
X157745487Y-112158500D01*
X157751939Y-112157128D01*
X157751944Y-112157128D01*
X157838888Y-112138647D01*
X157932288Y-112118794D01*
X157938319Y-112116109D01*
X158100722Y-112043803D01*
X158100724Y-112043802D01*
X158106752Y-112041118D01*
X158261253Y-111928866D01*
X158368524Y-111809729D01*
X158384621Y-111791852D01*
X158384622Y-111791851D01*
X158389040Y-111786944D01*
X158447314Y-111686010D01*
X158481223Y-111627279D01*
X158481224Y-111627278D01*
X158484527Y-111621556D01*
X158543542Y-111439928D01*
X158563504Y-111250000D01*
X158543542Y-111060072D01*
X158484527Y-110878444D01*
X158389040Y-110713056D01*
X158339594Y-110658140D01*
X158265675Y-110576045D01*
X158265674Y-110576044D01*
X158261253Y-110571134D01*
X158106752Y-110458882D01*
X158100724Y-110456198D01*
X158100722Y-110456197D01*
X157938319Y-110383891D01*
X157938318Y-110383891D01*
X157932288Y-110381206D01*
X157838887Y-110361353D01*
X157751944Y-110342872D01*
X157751939Y-110342872D01*
X157745487Y-110341500D01*
X157554513Y-110341500D01*
X157548061Y-110342872D01*
X157548056Y-110342872D01*
X157461113Y-110361353D01*
X157367712Y-110381206D01*
X157361682Y-110383891D01*
X157361681Y-110383891D01*
X157199278Y-110456197D01*
X157199276Y-110456198D01*
X157193248Y-110458882D01*
X157038747Y-110571134D01*
X157034326Y-110576044D01*
X157034325Y-110576045D01*
X156960407Y-110658140D01*
X156910960Y-110713056D01*
X156815473Y-110878444D01*
X156756458Y-111060072D01*
X156736496Y-111250000D01*
X119708000Y-111250000D01*
X119708000Y-109350000D01*
X142436496Y-109350000D01*
X142437186Y-109356565D01*
X142451757Y-109495197D01*
X142456458Y-109539928D01*
X142515473Y-109721556D01*
X142610960Y-109886944D01*
X142738747Y-110028866D01*
X142759010Y-110043588D01*
X142858005Y-110115512D01*
X142893248Y-110141118D01*
X142899276Y-110143802D01*
X142899278Y-110143803D01*
X143061681Y-110216109D01*
X143067712Y-110218794D01*
X143161113Y-110238647D01*
X143248056Y-110257128D01*
X143248061Y-110257128D01*
X143254513Y-110258500D01*
X143445487Y-110258500D01*
X143451939Y-110257128D01*
X143451944Y-110257128D01*
X143538887Y-110238647D01*
X143632288Y-110218794D01*
X143638319Y-110216109D01*
X143800722Y-110143803D01*
X143800724Y-110143802D01*
X143806752Y-110141118D01*
X143841996Y-110115512D01*
X143940990Y-110043588D01*
X143961253Y-110028866D01*
X144089040Y-109886944D01*
X144184527Y-109721556D01*
X144243542Y-109539928D01*
X144248244Y-109495197D01*
X144262814Y-109356565D01*
X144263504Y-109350000D01*
X144243542Y-109160072D01*
X144184527Y-108978444D01*
X144089040Y-108813056D01*
X143972388Y-108683500D01*
X143965675Y-108676045D01*
X143965674Y-108676044D01*
X143961253Y-108671134D01*
X143820407Y-108568803D01*
X143812094Y-108562763D01*
X143812093Y-108562762D01*
X143806752Y-108558882D01*
X143800724Y-108556198D01*
X143800722Y-108556197D01*
X143638319Y-108483891D01*
X143638318Y-108483891D01*
X143632288Y-108481206D01*
X143535345Y-108460600D01*
X143451944Y-108442872D01*
X143451939Y-108442872D01*
X143445487Y-108441500D01*
X143254513Y-108441500D01*
X143248061Y-108442872D01*
X143248056Y-108442872D01*
X143164655Y-108460600D01*
X143067712Y-108481206D01*
X143061682Y-108483891D01*
X143061681Y-108483891D01*
X142899278Y-108556197D01*
X142899276Y-108556198D01*
X142893248Y-108558882D01*
X142887907Y-108562762D01*
X142887906Y-108562763D01*
X142879593Y-108568803D01*
X142738747Y-108671134D01*
X142734326Y-108676044D01*
X142734325Y-108676045D01*
X142727613Y-108683500D01*
X142610960Y-108813056D01*
X142515473Y-108978444D01*
X142456458Y-109160072D01*
X142436496Y-109350000D01*
X119708000Y-109350000D01*
X119708000Y-107775000D01*
X128361496Y-107775000D01*
X128362186Y-107781565D01*
X128376894Y-107921500D01*
X128381458Y-107964928D01*
X128440473Y-108146556D01*
X128535960Y-108311944D01*
X128540378Y-108316851D01*
X128540379Y-108316852D01*
X128653848Y-108442872D01*
X128663747Y-108453866D01*
X128673016Y-108460600D01*
X128808289Y-108558882D01*
X128818248Y-108566118D01*
X128824276Y-108568802D01*
X128824278Y-108568803D01*
X128986681Y-108641109D01*
X128992712Y-108643794D01*
X129086112Y-108663647D01*
X129173056Y-108682128D01*
X129173061Y-108682128D01*
X129179513Y-108683500D01*
X129370487Y-108683500D01*
X129376939Y-108682128D01*
X129376944Y-108682128D01*
X129463888Y-108663647D01*
X129557288Y-108643794D01*
X129563319Y-108641109D01*
X129725722Y-108568803D01*
X129725724Y-108568802D01*
X129731752Y-108566118D01*
X129741712Y-108558882D01*
X129876984Y-108460600D01*
X129886253Y-108453866D01*
X129896152Y-108442872D01*
X130009621Y-108316852D01*
X130009622Y-108316851D01*
X130014040Y-108311944D01*
X130109527Y-108146556D01*
X130168542Y-107964928D01*
X130173107Y-107921500D01*
X130187814Y-107781565D01*
X130188504Y-107775000D01*
X132511496Y-107775000D01*
X132512186Y-107781565D01*
X132526894Y-107921500D01*
X132531458Y-107964928D01*
X132590473Y-108146556D01*
X132685960Y-108311944D01*
X132690378Y-108316851D01*
X132690379Y-108316852D01*
X132803848Y-108442872D01*
X132813747Y-108453866D01*
X132823016Y-108460600D01*
X132958289Y-108558882D01*
X132968248Y-108566118D01*
X132974276Y-108568802D01*
X132974278Y-108568803D01*
X133136681Y-108641109D01*
X133142712Y-108643794D01*
X133236112Y-108663647D01*
X133323056Y-108682128D01*
X133323061Y-108682128D01*
X133329513Y-108683500D01*
X133520487Y-108683500D01*
X133526939Y-108682128D01*
X133526944Y-108682128D01*
X133613888Y-108663647D01*
X133707288Y-108643794D01*
X133713319Y-108641109D01*
X133875722Y-108568803D01*
X133875724Y-108568802D01*
X133881752Y-108566118D01*
X133891712Y-108558882D01*
X134026984Y-108460600D01*
X134036253Y-108453866D01*
X134046152Y-108442872D01*
X134070572Y-108415751D01*
X163322296Y-108415751D01*
X163322520Y-108420417D01*
X163322520Y-108420422D01*
X163323891Y-108448955D01*
X163334480Y-108669398D01*
X163384021Y-108918457D01*
X163385600Y-108922855D01*
X163385602Y-108922862D01*
X163430022Y-109046580D01*
X163469831Y-109157458D01*
X163472048Y-109161584D01*
X163576815Y-109356565D01*
X163590025Y-109381151D01*
X163592820Y-109384894D01*
X163592822Y-109384897D01*
X163739171Y-109580882D01*
X163739176Y-109580888D01*
X163741963Y-109584620D01*
X163745272Y-109587900D01*
X163745277Y-109587906D01*
X163843859Y-109685631D01*
X163922307Y-109763397D01*
X163926069Y-109766155D01*
X163926072Y-109766158D01*
X164123323Y-109910788D01*
X164127094Y-109913553D01*
X164131229Y-109915729D01*
X164131233Y-109915731D01*
X164319137Y-110014592D01*
X164370109Y-110064011D01*
X164386272Y-110133144D01*
X164362493Y-110200040D01*
X164306322Y-110243460D01*
X164260469Y-110252100D01*
X163786866Y-110252100D01*
X163724684Y-110258855D01*
X163588295Y-110309985D01*
X163471739Y-110397339D01*
X163384385Y-110513895D01*
X163333255Y-110650284D01*
X163326500Y-110712466D01*
X163326500Y-113208734D01*
X163333255Y-113270916D01*
X163384385Y-113407305D01*
X163471739Y-113523861D01*
X163588295Y-113611215D01*
X163724684Y-113662345D01*
X163786866Y-113669100D01*
X166283134Y-113669100D01*
X166345316Y-113662345D01*
X166481705Y-113611215D01*
X166598261Y-113523861D01*
X166685615Y-113407305D01*
X166736745Y-113270916D01*
X166743500Y-113208734D01*
X166743500Y-110712466D01*
X166736745Y-110650284D01*
X166685615Y-110513895D01*
X166598261Y-110397339D01*
X166481705Y-110309985D01*
X166345316Y-110258855D01*
X166283134Y-110252100D01*
X165805964Y-110252100D01*
X165737843Y-110232098D01*
X165691350Y-110178442D01*
X165681246Y-110108168D01*
X165710740Y-110043588D01*
X165756225Y-110010333D01*
X165826110Y-109980308D01*
X165830090Y-109977845D01*
X165830094Y-109977843D01*
X166038064Y-109849147D01*
X166038066Y-109849145D01*
X166042047Y-109846682D01*
X166140428Y-109763397D01*
X166232289Y-109685631D01*
X166232291Y-109685629D01*
X166235862Y-109682606D01*
X166403295Y-109491684D01*
X166540669Y-109278112D01*
X166644967Y-109046580D01*
X166713896Y-108802175D01*
X166724115Y-108721852D01*
X166745545Y-108553398D01*
X166745545Y-108553392D01*
X166745943Y-108550267D01*
X166748291Y-108460600D01*
X166729472Y-108207359D01*
X166714292Y-108140271D01*
X166674459Y-107964239D01*
X166673428Y-107959682D01*
X166581391Y-107723009D01*
X166578982Y-107718794D01*
X166457702Y-107506597D01*
X166457700Y-107506595D01*
X166455383Y-107502540D01*
X166298171Y-107303117D01*
X166211409Y-107221500D01*
X166116610Y-107132322D01*
X166116608Y-107132320D01*
X166113209Y-107129123D01*
X166069483Y-107098789D01*
X165908393Y-106987037D01*
X165908390Y-106987035D01*
X165904561Y-106984379D01*
X165900384Y-106982319D01*
X165900377Y-106982315D01*
X165680996Y-106874128D01*
X165680992Y-106874127D01*
X165676810Y-106872064D01*
X165434960Y-106794647D01*
X165387661Y-106786944D01*
X165188935Y-106754580D01*
X165188934Y-106754580D01*
X165184323Y-106753829D01*
X165057365Y-106752167D01*
X164935083Y-106750566D01*
X164935080Y-106750566D01*
X164930406Y-106750505D01*
X164678787Y-106784749D01*
X164674301Y-106786057D01*
X164674299Y-106786057D01*
X164648986Y-106793435D01*
X164434993Y-106855808D01*
X164204380Y-106962122D01*
X164200471Y-106964685D01*
X163995928Y-107098789D01*
X163995923Y-107098793D01*
X163992015Y-107101355D01*
X163929527Y-107157128D01*
X163823393Y-107251856D01*
X163802562Y-107270448D01*
X163640183Y-107465687D01*
X163508447Y-107682782D01*
X163506638Y-107687096D01*
X163506637Y-107687098D01*
X163472530Y-107768435D01*
X163410246Y-107916965D01*
X163347738Y-108163090D01*
X163322296Y-108415751D01*
X134070572Y-108415751D01*
X134159621Y-108316852D01*
X134159622Y-108316851D01*
X134164040Y-108311944D01*
X134259527Y-108146556D01*
X134318542Y-107964928D01*
X134323107Y-107921500D01*
X134337814Y-107781565D01*
X134338504Y-107775000D01*
X134331515Y-107708500D01*
X134319232Y-107591635D01*
X134319232Y-107591633D01*
X134318542Y-107585072D01*
X134259527Y-107403444D01*
X134252835Y-107391852D01*
X134201603Y-107303117D01*
X134164040Y-107238056D01*
X134154337Y-107227279D01*
X134040675Y-107101045D01*
X134040674Y-107101044D01*
X134036253Y-107096134D01*
X133937157Y-107024136D01*
X133887094Y-106987763D01*
X133887093Y-106987762D01*
X133881752Y-106983882D01*
X133875724Y-106981198D01*
X133875722Y-106981197D01*
X133713319Y-106908891D01*
X133713318Y-106908891D01*
X133707288Y-106906206D01*
X133613888Y-106886353D01*
X133526944Y-106867872D01*
X133526939Y-106867872D01*
X133520487Y-106866500D01*
X133329513Y-106866500D01*
X133323061Y-106867872D01*
X133323056Y-106867872D01*
X133236113Y-106886353D01*
X133142712Y-106906206D01*
X133136682Y-106908891D01*
X133136681Y-106908891D01*
X132974278Y-106981197D01*
X132974276Y-106981198D01*
X132968248Y-106983882D01*
X132962907Y-106987762D01*
X132962906Y-106987763D01*
X132912843Y-107024136D01*
X132813747Y-107096134D01*
X132809326Y-107101044D01*
X132809325Y-107101045D01*
X132695664Y-107227279D01*
X132685960Y-107238056D01*
X132648397Y-107303117D01*
X132597166Y-107391852D01*
X132590473Y-107403444D01*
X132531458Y-107585072D01*
X132530768Y-107591633D01*
X132530768Y-107591635D01*
X132518485Y-107708500D01*
X132511496Y-107775000D01*
X130188504Y-107775000D01*
X130181515Y-107708500D01*
X130169232Y-107591635D01*
X130169232Y-107591633D01*
X130168542Y-107585072D01*
X130109527Y-107403444D01*
X130102835Y-107391852D01*
X130051603Y-107303117D01*
X130014040Y-107238056D01*
X130004337Y-107227279D01*
X129890675Y-107101045D01*
X129890674Y-107101044D01*
X129886253Y-107096134D01*
X129787157Y-107024136D01*
X129737094Y-106987763D01*
X129737093Y-106987762D01*
X129731752Y-106983882D01*
X129725724Y-106981198D01*
X129725722Y-106981197D01*
X129563319Y-106908891D01*
X129563318Y-106908891D01*
X129557288Y-106906206D01*
X129463888Y-106886353D01*
X129376944Y-106867872D01*
X129376939Y-106867872D01*
X129370487Y-106866500D01*
X129179513Y-106866500D01*
X129173061Y-106867872D01*
X129173056Y-106867872D01*
X129086113Y-106886353D01*
X128992712Y-106906206D01*
X128986682Y-106908891D01*
X128986681Y-106908891D01*
X128824278Y-106981197D01*
X128824276Y-106981198D01*
X128818248Y-106983882D01*
X128812907Y-106987762D01*
X128812906Y-106987763D01*
X128762843Y-107024136D01*
X128663747Y-107096134D01*
X128659326Y-107101044D01*
X128659325Y-107101045D01*
X128545664Y-107227279D01*
X128535960Y-107238056D01*
X128498397Y-107303117D01*
X128447166Y-107391852D01*
X128440473Y-107403444D01*
X128381458Y-107585072D01*
X128380768Y-107591633D01*
X128380768Y-107591635D01*
X128368485Y-107708500D01*
X128361496Y-107775000D01*
X119708000Y-107775000D01*
X119708000Y-106300000D01*
X124036496Y-106300000D01*
X124056458Y-106489928D01*
X124115473Y-106671556D01*
X124210960Y-106836944D01*
X124215378Y-106841851D01*
X124215379Y-106841852D01*
X124323671Y-106962122D01*
X124338747Y-106978866D01*
X124493248Y-107091118D01*
X124499276Y-107093802D01*
X124499278Y-107093803D01*
X124644591Y-107158500D01*
X124667712Y-107168794D01*
X124674167Y-107170166D01*
X124674176Y-107170169D01*
X124775046Y-107191610D01*
X124837519Y-107225338D01*
X124857966Y-107251855D01*
X124935960Y-107386944D01*
X124940378Y-107391851D01*
X124940379Y-107391852D01*
X124956476Y-107409729D01*
X125063747Y-107528866D01*
X125218248Y-107641118D01*
X125224276Y-107643802D01*
X125224278Y-107643803D01*
X125369591Y-107708500D01*
X125392712Y-107718794D01*
X125486112Y-107738647D01*
X125573056Y-107757128D01*
X125573061Y-107757128D01*
X125579513Y-107758500D01*
X125770487Y-107758500D01*
X125776939Y-107757128D01*
X125776944Y-107757128D01*
X125863887Y-107738647D01*
X125957288Y-107718794D01*
X125980409Y-107708500D01*
X126125722Y-107643803D01*
X126125724Y-107643802D01*
X126131752Y-107641118D01*
X126286253Y-107528866D01*
X126393524Y-107409729D01*
X126409621Y-107391852D01*
X126409622Y-107391851D01*
X126414040Y-107386944D01*
X126492033Y-107251856D01*
X126506223Y-107227279D01*
X126506224Y-107227278D01*
X126509527Y-107221556D01*
X126568542Y-107039928D01*
X126574381Y-106984379D01*
X126587814Y-106856565D01*
X126588504Y-106850000D01*
X126582559Y-106793435D01*
X126569232Y-106666635D01*
X126569232Y-106666633D01*
X126568542Y-106660072D01*
X126509527Y-106478444D01*
X126414040Y-106313056D01*
X126408196Y-106306565D01*
X126290675Y-106176045D01*
X126290674Y-106176044D01*
X126286253Y-106171134D01*
X126131752Y-106058882D01*
X126125724Y-106056198D01*
X126125722Y-106056197D01*
X125963319Y-105983891D01*
X125963318Y-105983891D01*
X125957288Y-105981206D01*
X125950833Y-105979834D01*
X125950824Y-105979831D01*
X125849954Y-105958390D01*
X125787481Y-105924662D01*
X125767033Y-105898144D01*
X125762799Y-105890810D01*
X125689040Y-105763056D01*
X125649169Y-105718774D01*
X125565675Y-105626045D01*
X125565674Y-105626044D01*
X125561253Y-105621134D01*
X125406752Y-105508882D01*
X125400724Y-105506198D01*
X125400722Y-105506197D01*
X125238319Y-105433891D01*
X125238318Y-105433891D01*
X125232288Y-105431206D01*
X125138888Y-105411353D01*
X125051944Y-105392872D01*
X125051939Y-105392872D01*
X125045487Y-105391500D01*
X124854513Y-105391500D01*
X124848061Y-105392872D01*
X124848056Y-105392872D01*
X124761113Y-105411353D01*
X124667712Y-105431206D01*
X124661682Y-105433891D01*
X124661681Y-105433891D01*
X124499278Y-105506197D01*
X124499276Y-105506198D01*
X124493248Y-105508882D01*
X124338747Y-105621134D01*
X124334326Y-105626044D01*
X124334325Y-105626045D01*
X124250832Y-105718774D01*
X124210960Y-105763056D01*
X124207659Y-105768774D01*
X124136011Y-105892872D01*
X124115473Y-105928444D01*
X124056458Y-106110072D01*
X124055768Y-106116633D01*
X124055768Y-106116635D01*
X124042441Y-106243435D01*
X124036496Y-106300000D01*
X119708000Y-106300000D01*
X119708000Y-104750000D01*
X128061496Y-104750000D01*
X128081458Y-104939928D01*
X128140473Y-105121556D01*
X128235960Y-105286944D01*
X128240378Y-105291851D01*
X128240379Y-105291852D01*
X128331338Y-105392872D01*
X128363747Y-105428866D01*
X128518248Y-105541118D01*
X128524276Y-105543802D01*
X128524278Y-105543803D01*
X128599467Y-105577279D01*
X128692712Y-105618794D01*
X128786112Y-105638647D01*
X128873056Y-105657128D01*
X128873061Y-105657128D01*
X128879513Y-105658500D01*
X129070487Y-105658500D01*
X129076939Y-105657128D01*
X129076944Y-105657128D01*
X129163888Y-105638647D01*
X129257288Y-105618794D01*
X129350533Y-105577279D01*
X129425722Y-105543803D01*
X129425724Y-105543802D01*
X129431752Y-105541118D01*
X129586253Y-105428866D01*
X129618662Y-105392872D01*
X129709621Y-105291852D01*
X129709622Y-105291851D01*
X129714040Y-105286944D01*
X129764237Y-105200000D01*
X131436496Y-105200000D01*
X131456458Y-105389928D01*
X131515473Y-105571556D01*
X131610960Y-105736944D01*
X131738747Y-105878866D01*
X131893248Y-105991118D01*
X131899276Y-105993802D01*
X131899278Y-105993803D01*
X132045449Y-106058882D01*
X132067712Y-106068794D01*
X132161113Y-106088647D01*
X132248056Y-106107128D01*
X132248061Y-106107128D01*
X132254513Y-106108500D01*
X132445487Y-106108500D01*
X132451939Y-106107128D01*
X132451944Y-106107128D01*
X132538887Y-106088647D01*
X132632288Y-106068794D01*
X132654551Y-106058882D01*
X132800722Y-105993803D01*
X132800724Y-105993802D01*
X132806752Y-105991118D01*
X132961253Y-105878866D01*
X133089040Y-105736944D01*
X133184527Y-105571556D01*
X133243542Y-105389928D01*
X133263504Y-105200000D01*
X133243542Y-105010072D01*
X133184527Y-104828444D01*
X133139237Y-104750000D01*
X147536496Y-104750000D01*
X147556458Y-104939928D01*
X147615473Y-105121556D01*
X147710960Y-105286944D01*
X147715378Y-105291851D01*
X147715379Y-105291852D01*
X147806338Y-105392872D01*
X147838747Y-105428866D01*
X147993248Y-105541118D01*
X147999276Y-105543802D01*
X147999278Y-105543803D01*
X148074467Y-105577279D01*
X148167712Y-105618794D01*
X148286720Y-105644090D01*
X148344364Y-105656343D01*
X148406838Y-105690072D01*
X148441159Y-105752221D01*
X148443477Y-105766419D01*
X148456458Y-105889928D01*
X148515473Y-106071556D01*
X148518776Y-106077278D01*
X148518777Y-106077279D01*
X148536803Y-106108500D01*
X148610960Y-106236944D01*
X148615378Y-106241851D01*
X148615379Y-106241852D01*
X148628627Y-106256565D01*
X148738747Y-106378866D01*
X148893248Y-106491118D01*
X148899276Y-106493802D01*
X148899278Y-106493803D01*
X149061681Y-106566109D01*
X149067712Y-106568794D01*
X149161112Y-106588647D01*
X149248056Y-106607128D01*
X149248061Y-106607128D01*
X149254513Y-106608500D01*
X149445487Y-106608500D01*
X149451939Y-106607128D01*
X149451944Y-106607128D01*
X149538888Y-106588647D01*
X149632288Y-106568794D01*
X149638319Y-106566109D01*
X149800722Y-106493803D01*
X149800724Y-106493802D01*
X149806752Y-106491118D01*
X149961253Y-106378866D01*
X150071373Y-106256565D01*
X150077284Y-106250000D01*
X156861496Y-106250000D01*
X156862186Y-106256565D01*
X156867608Y-106308148D01*
X156881458Y-106439928D01*
X156940473Y-106621556D01*
X157035960Y-106786944D01*
X157040378Y-106791851D01*
X157040379Y-106791852D01*
X157143344Y-106906206D01*
X157163747Y-106928866D01*
X157318248Y-107041118D01*
X157324276Y-107043802D01*
X157324278Y-107043803D01*
X157453543Y-107101355D01*
X157492712Y-107118794D01*
X157586112Y-107138647D01*
X157673056Y-107157128D01*
X157673061Y-107157128D01*
X157679513Y-107158500D01*
X157686115Y-107158500D01*
X157692682Y-107159190D01*
X157692528Y-107160655D01*
X157753310Y-107178502D01*
X157794308Y-107221500D01*
X157796524Y-107225338D01*
X157860960Y-107336944D01*
X157865378Y-107341851D01*
X157865379Y-107341852D01*
X157980479Y-107469684D01*
X157988747Y-107478866D01*
X158057566Y-107528866D01*
X158126286Y-107578794D01*
X158143248Y-107591118D01*
X158149276Y-107593802D01*
X158149278Y-107593803D01*
X158246833Y-107637237D01*
X158317712Y-107668794D01*
X158403825Y-107687098D01*
X158498056Y-107707128D01*
X158498061Y-107707128D01*
X158504513Y-107708500D01*
X158695487Y-107708500D01*
X158701939Y-107707128D01*
X158701944Y-107707128D01*
X158796175Y-107687098D01*
X158882288Y-107668794D01*
X158953167Y-107637237D01*
X159050722Y-107593803D01*
X159050724Y-107593802D01*
X159056752Y-107591118D01*
X159073715Y-107578794D01*
X159142434Y-107528866D01*
X159211253Y-107478866D01*
X159219521Y-107469684D01*
X159334621Y-107341852D01*
X159334622Y-107341851D01*
X159339040Y-107336944D01*
X159434527Y-107171556D01*
X159493542Y-106989928D01*
X159496465Y-106962122D01*
X159512814Y-106806565D01*
X159513504Y-106800000D01*
X159493542Y-106610072D01*
X159434527Y-106428444D01*
X159339040Y-106263056D01*
X159333196Y-106256565D01*
X159215675Y-106126045D01*
X159215674Y-106126044D01*
X159211253Y-106121134D01*
X159056752Y-106008882D01*
X159050724Y-106006198D01*
X159050722Y-106006197D01*
X158888319Y-105933891D01*
X158888318Y-105933891D01*
X158882288Y-105931206D01*
X158788888Y-105911353D01*
X158701944Y-105892872D01*
X158701939Y-105892872D01*
X158695487Y-105891500D01*
X158688885Y-105891500D01*
X158682318Y-105890810D01*
X158682472Y-105889345D01*
X158621690Y-105871498D01*
X158580692Y-105828500D01*
X158544850Y-105766420D01*
X158514040Y-105713056D01*
X158508196Y-105706565D01*
X158390675Y-105576045D01*
X158390674Y-105576044D01*
X158386253Y-105571134D01*
X158231752Y-105458882D01*
X158225724Y-105456198D01*
X158225722Y-105456197D01*
X158063319Y-105383891D01*
X158063318Y-105383891D01*
X158057288Y-105381206D01*
X157963888Y-105361353D01*
X157876944Y-105342872D01*
X157876939Y-105342872D01*
X157870487Y-105341500D01*
X157679513Y-105341500D01*
X157673061Y-105342872D01*
X157673056Y-105342872D01*
X157586112Y-105361353D01*
X157492712Y-105381206D01*
X157486682Y-105383891D01*
X157486681Y-105383891D01*
X157324278Y-105456197D01*
X157324276Y-105456198D01*
X157318248Y-105458882D01*
X157163747Y-105571134D01*
X157159326Y-105576044D01*
X157159325Y-105576045D01*
X157041805Y-105706565D01*
X157035960Y-105713056D01*
X156940473Y-105878444D01*
X156881458Y-106060072D01*
X156861496Y-106250000D01*
X150077284Y-106250000D01*
X150084621Y-106241852D01*
X150084622Y-106241851D01*
X150089040Y-106236944D01*
X150163197Y-106108500D01*
X150181223Y-106077279D01*
X150181224Y-106077278D01*
X150184527Y-106071556D01*
X150243542Y-105889928D01*
X150257393Y-105758148D01*
X150262814Y-105706565D01*
X150263504Y-105700000D01*
X150243542Y-105510072D01*
X150184527Y-105328444D01*
X150089040Y-105163056D01*
X149961253Y-105021134D01*
X149806752Y-104908882D01*
X149800724Y-104906198D01*
X149800722Y-104906197D01*
X149638319Y-104833891D01*
X149638318Y-104833891D01*
X149632288Y-104831206D01*
X149513280Y-104805910D01*
X149455636Y-104793657D01*
X149393162Y-104759928D01*
X149358841Y-104697779D01*
X149356523Y-104683580D01*
X149344232Y-104566635D01*
X149344232Y-104566633D01*
X149343542Y-104560072D01*
X149284527Y-104378444D01*
X149189040Y-104213056D01*
X149061253Y-104071134D01*
X148906752Y-103958882D01*
X148900724Y-103956198D01*
X148900722Y-103956197D01*
X148738319Y-103883891D01*
X148738318Y-103883891D01*
X148732288Y-103881206D01*
X148638887Y-103861353D01*
X148551944Y-103842872D01*
X148551939Y-103842872D01*
X148545487Y-103841500D01*
X148354513Y-103841500D01*
X148348061Y-103842872D01*
X148348056Y-103842872D01*
X148261113Y-103861353D01*
X148167712Y-103881206D01*
X148161682Y-103883891D01*
X148161681Y-103883891D01*
X147999278Y-103956197D01*
X147999276Y-103956198D01*
X147993248Y-103958882D01*
X147838747Y-104071134D01*
X147710960Y-104213056D01*
X147615473Y-104378444D01*
X147556458Y-104560072D01*
X147536496Y-104750000D01*
X133139237Y-104750000D01*
X133089040Y-104663056D01*
X132961253Y-104521134D01*
X132806752Y-104408882D01*
X132800724Y-104406198D01*
X132800722Y-104406197D01*
X132638319Y-104333891D01*
X132638318Y-104333891D01*
X132632288Y-104331206D01*
X132538888Y-104311353D01*
X132451944Y-104292872D01*
X132451939Y-104292872D01*
X132445487Y-104291500D01*
X132254513Y-104291500D01*
X132248061Y-104292872D01*
X132248056Y-104292872D01*
X132161112Y-104311353D01*
X132067712Y-104331206D01*
X132061682Y-104333891D01*
X132061681Y-104333891D01*
X131899278Y-104406197D01*
X131899276Y-104406198D01*
X131893248Y-104408882D01*
X131738747Y-104521134D01*
X131610960Y-104663056D01*
X131515473Y-104828444D01*
X131456458Y-105010072D01*
X131436496Y-105200000D01*
X129764237Y-105200000D01*
X129809527Y-105121556D01*
X129868542Y-104939928D01*
X129888504Y-104750000D01*
X129868542Y-104560072D01*
X129809527Y-104378444D01*
X129714040Y-104213056D01*
X129586253Y-104071134D01*
X129431752Y-103958882D01*
X129425724Y-103956198D01*
X129425722Y-103956197D01*
X129263319Y-103883891D01*
X129263318Y-103883891D01*
X129257288Y-103881206D01*
X129163887Y-103861353D01*
X129076944Y-103842872D01*
X129076939Y-103842872D01*
X129070487Y-103841500D01*
X128879513Y-103841500D01*
X128873061Y-103842872D01*
X128873056Y-103842872D01*
X128786113Y-103861353D01*
X128692712Y-103881206D01*
X128686682Y-103883891D01*
X128686681Y-103883891D01*
X128524278Y-103956197D01*
X128524276Y-103956198D01*
X128518248Y-103958882D01*
X128363747Y-104071134D01*
X128235960Y-104213056D01*
X128140473Y-104378444D01*
X128081458Y-104560072D01*
X128061496Y-104750000D01*
X119708000Y-104750000D01*
X119708000Y-102275000D01*
X126836496Y-102275000D01*
X126837186Y-102281565D01*
X126852068Y-102423156D01*
X126856458Y-102464928D01*
X126915473Y-102646556D01*
X127010960Y-102811944D01*
X127015378Y-102816851D01*
X127015379Y-102816852D01*
X127108278Y-102920027D01*
X127138747Y-102953866D01*
X127293248Y-103066118D01*
X127299276Y-103068802D01*
X127299278Y-103068803D01*
X127461681Y-103141109D01*
X127467712Y-103143794D01*
X127561113Y-103163647D01*
X127648056Y-103182128D01*
X127648061Y-103182128D01*
X127654513Y-103183500D01*
X127845487Y-103183500D01*
X127851939Y-103182128D01*
X127851944Y-103182128D01*
X127938887Y-103163647D01*
X128032288Y-103143794D01*
X128038319Y-103141109D01*
X128200722Y-103068803D01*
X128200724Y-103068802D01*
X128206752Y-103066118D01*
X128361253Y-102953866D01*
X128391722Y-102920027D01*
X128484621Y-102816852D01*
X128484622Y-102816851D01*
X128489040Y-102811944D01*
X128584527Y-102646556D01*
X128611383Y-102563902D01*
X162987125Y-102563902D01*
X163013578Y-102782496D01*
X163078322Y-102992951D01*
X163080894Y-102997934D01*
X163142095Y-103116507D01*
X163179312Y-103188614D01*
X163313354Y-103363301D01*
X163476212Y-103511491D01*
X163662739Y-103628499D01*
X163667948Y-103630593D01*
X163667950Y-103630594D01*
X163762315Y-103668528D01*
X163867038Y-103710627D01*
X163872529Y-103711764D01*
X163872532Y-103711765D01*
X164007789Y-103739775D01*
X164082652Y-103755278D01*
X164087265Y-103755544D01*
X164136707Y-103758395D01*
X164136711Y-103758395D01*
X164138530Y-103758500D01*
X164830866Y-103758500D01*
X164833653Y-103758251D01*
X164833659Y-103758251D01*
X164988730Y-103744411D01*
X164988734Y-103744410D01*
X164994317Y-103743912D01*
X165206702Y-103685811D01*
X165211767Y-103683395D01*
X165211770Y-103683394D01*
X165400385Y-103593429D01*
X165400389Y-103593427D01*
X165405441Y-103591017D01*
X165584252Y-103462528D01*
X165737484Y-103304404D01*
X165799502Y-103212113D01*
X165857163Y-103126305D01*
X165857165Y-103126302D01*
X165860294Y-103121645D01*
X165948798Y-102920027D01*
X165969407Y-102834187D01*
X165998890Y-102711379D01*
X165998890Y-102711378D01*
X166000200Y-102705922D01*
X166012875Y-102486098D01*
X165986422Y-102267504D01*
X165972261Y-102221473D01*
X165971349Y-102150482D01*
X166008962Y-102090268D01*
X166018630Y-102082488D01*
X166155909Y-101982749D01*
X166155911Y-101982747D01*
X166161253Y-101978866D01*
X166229163Y-101903444D01*
X166284621Y-101841852D01*
X166284622Y-101841851D01*
X166289040Y-101836944D01*
X166384527Y-101671556D01*
X166443542Y-101489928D01*
X166446451Y-101462256D01*
X166462814Y-101306565D01*
X166463504Y-101300000D01*
X166443542Y-101110072D01*
X166384527Y-100928444D01*
X166289040Y-100763056D01*
X166195242Y-100658882D01*
X166165675Y-100626045D01*
X166165674Y-100626044D01*
X166161253Y-100621134D01*
X166006752Y-100508882D01*
X166000724Y-100506198D01*
X166000722Y-100506197D01*
X165838319Y-100433891D01*
X165838318Y-100433891D01*
X165832288Y-100431206D01*
X165738887Y-100411353D01*
X165651944Y-100392872D01*
X165651939Y-100392872D01*
X165645487Y-100391500D01*
X165454513Y-100391500D01*
X165448061Y-100392872D01*
X165448056Y-100392872D01*
X165361113Y-100411353D01*
X165267712Y-100431206D01*
X165261682Y-100433891D01*
X165261681Y-100433891D01*
X165099278Y-100506197D01*
X165099276Y-100506198D01*
X165093248Y-100508882D01*
X164938747Y-100621134D01*
X164934326Y-100626044D01*
X164934325Y-100626045D01*
X164904759Y-100658882D01*
X164810960Y-100763056D01*
X164715473Y-100928444D01*
X164713431Y-100934729D01*
X164664693Y-101084729D01*
X164656458Y-101110072D01*
X164655768Y-101116635D01*
X164655768Y-101116636D01*
X164649248Y-101178671D01*
X164622235Y-101244327D01*
X164564013Y-101284957D01*
X164523938Y-101291500D01*
X164169134Y-101291500D01*
X164166347Y-101291749D01*
X164166341Y-101291749D01*
X164011270Y-101305589D01*
X164011266Y-101305590D01*
X164005683Y-101306088D01*
X163793298Y-101364189D01*
X163788233Y-101366605D01*
X163788230Y-101366606D01*
X163599615Y-101456571D01*
X163599611Y-101456573D01*
X163594559Y-101458983D01*
X163415748Y-101587472D01*
X163262516Y-101745596D01*
X163259382Y-101750260D01*
X163156446Y-101903444D01*
X163139706Y-101928355D01*
X163051202Y-102129973D01*
X163049893Y-102135424D01*
X163049892Y-102135428D01*
X163020675Y-102257128D01*
X162999800Y-102344078D01*
X162987125Y-102563902D01*
X128611383Y-102563902D01*
X128643542Y-102464928D01*
X128647933Y-102423156D01*
X128662814Y-102281565D01*
X128663504Y-102275000D01*
X128643542Y-102085072D01*
X128584527Y-101903444D01*
X128586875Y-101902681D01*
X128578925Y-101843381D01*
X128585263Y-101821795D01*
X128584527Y-101821556D01*
X128609208Y-101745596D01*
X128643542Y-101639928D01*
X128646909Y-101607898D01*
X128662814Y-101456565D01*
X128663504Y-101450000D01*
X128652994Y-101350000D01*
X138586496Y-101350000D01*
X138606458Y-101539928D01*
X138665473Y-101721556D01*
X138668776Y-101727278D01*
X138668777Y-101727279D01*
X138682045Y-101750260D01*
X138760960Y-101886944D01*
X138765378Y-101891851D01*
X138765379Y-101891852D01*
X138802873Y-101933493D01*
X138888747Y-102028866D01*
X139043248Y-102141118D01*
X139049276Y-102143802D01*
X139049278Y-102143803D01*
X139211681Y-102216109D01*
X139217712Y-102218794D01*
X139311112Y-102238647D01*
X139398056Y-102257128D01*
X139398061Y-102257128D01*
X139404513Y-102258500D01*
X139595487Y-102258500D01*
X139601939Y-102257128D01*
X139601944Y-102257128D01*
X139688887Y-102238647D01*
X139782288Y-102218794D01*
X139788319Y-102216109D01*
X139950722Y-102143803D01*
X139950724Y-102143802D01*
X139956752Y-102141118D01*
X140111253Y-102028866D01*
X140197127Y-101933493D01*
X140234621Y-101891852D01*
X140234622Y-101891851D01*
X140239040Y-101886944D01*
X140317955Y-101750260D01*
X140331223Y-101727279D01*
X140331224Y-101727278D01*
X140334527Y-101721556D01*
X140393542Y-101539928D01*
X140413504Y-101350000D01*
X140407382Y-101291749D01*
X140394232Y-101166635D01*
X140394232Y-101166633D01*
X140393542Y-101160072D01*
X140334527Y-100978444D01*
X140239040Y-100813056D01*
X140199169Y-100768774D01*
X140115675Y-100676045D01*
X140115674Y-100676044D01*
X140111253Y-100671134D01*
X139956752Y-100558882D01*
X139950724Y-100556198D01*
X139950722Y-100556197D01*
X139788319Y-100483891D01*
X139788318Y-100483891D01*
X139782288Y-100481206D01*
X139688888Y-100461353D01*
X139601944Y-100442872D01*
X139601939Y-100442872D01*
X139595487Y-100441500D01*
X139404513Y-100441500D01*
X139398061Y-100442872D01*
X139398056Y-100442872D01*
X139311112Y-100461353D01*
X139217712Y-100481206D01*
X139211682Y-100483891D01*
X139211681Y-100483891D01*
X139049278Y-100556197D01*
X139049276Y-100556198D01*
X139043248Y-100558882D01*
X138888747Y-100671134D01*
X138884326Y-100676044D01*
X138884325Y-100676045D01*
X138800832Y-100768774D01*
X138760960Y-100813056D01*
X138665473Y-100978444D01*
X138606458Y-101160072D01*
X138605768Y-101166633D01*
X138605768Y-101166635D01*
X138592618Y-101291749D01*
X138586496Y-101350000D01*
X128652994Y-101350000D01*
X128648429Y-101306565D01*
X128644232Y-101266635D01*
X128644232Y-101266633D01*
X128643542Y-101260072D01*
X128584527Y-101078444D01*
X128489040Y-100913056D01*
X128361253Y-100771134D01*
X128230375Y-100676045D01*
X128212094Y-100662763D01*
X128212093Y-100662762D01*
X128206752Y-100658882D01*
X128200724Y-100656198D01*
X128200722Y-100656197D01*
X128038319Y-100583891D01*
X128038318Y-100583891D01*
X128032288Y-100581206D01*
X127938888Y-100561353D01*
X127851944Y-100542872D01*
X127851939Y-100542872D01*
X127845487Y-100541500D01*
X127654513Y-100541500D01*
X127648061Y-100542872D01*
X127648056Y-100542872D01*
X127561112Y-100561353D01*
X127467712Y-100581206D01*
X127461682Y-100583891D01*
X127461681Y-100583891D01*
X127299278Y-100656197D01*
X127299276Y-100656198D01*
X127293248Y-100658882D01*
X127287907Y-100662762D01*
X127287906Y-100662763D01*
X127269625Y-100676045D01*
X127138747Y-100771134D01*
X127010960Y-100913056D01*
X126915473Y-101078444D01*
X126856458Y-101260072D01*
X126855768Y-101266633D01*
X126855768Y-101266635D01*
X126851571Y-101306565D01*
X126836496Y-101450000D01*
X126837186Y-101456565D01*
X126853092Y-101607898D01*
X126856458Y-101639928D01*
X126890792Y-101745596D01*
X126915473Y-101821556D01*
X126913125Y-101822319D01*
X126921075Y-101881619D01*
X126914737Y-101903205D01*
X126915473Y-101903444D01*
X126856458Y-102085072D01*
X126836496Y-102275000D01*
X119708000Y-102275000D01*
X119708000Y-98200000D01*
X125261496Y-98200000D01*
X125262186Y-98206565D01*
X125279033Y-98366852D01*
X125281458Y-98389928D01*
X125340473Y-98571556D01*
X125343776Y-98577278D01*
X125343777Y-98577279D01*
X125405330Y-98683891D01*
X125435960Y-98736944D01*
X125440378Y-98741851D01*
X125440379Y-98741852D01*
X125499181Y-98807158D01*
X125563747Y-98878866D01*
X125616579Y-98917251D01*
X125701385Y-98978866D01*
X125718248Y-98991118D01*
X125724276Y-98993802D01*
X125724278Y-98993803D01*
X125879824Y-99063056D01*
X125892712Y-99068794D01*
X125979479Y-99087237D01*
X126073056Y-99107128D01*
X126073061Y-99107128D01*
X126079513Y-99108500D01*
X126270487Y-99108500D01*
X126276939Y-99107128D01*
X126276944Y-99107128D01*
X126370521Y-99087237D01*
X126457288Y-99068794D01*
X126470176Y-99063056D01*
X126625722Y-98993803D01*
X126625724Y-98993802D01*
X126631752Y-98991118D01*
X126648616Y-98978866D01*
X126733421Y-98917251D01*
X126786253Y-98878866D01*
X126850819Y-98807158D01*
X126879774Y-98775000D01*
X129211496Y-98775000D01*
X129212186Y-98781565D01*
X129217406Y-98831226D01*
X129231458Y-98964928D01*
X129290473Y-99146556D01*
X129293776Y-99152278D01*
X129293777Y-99152279D01*
X129312512Y-99184729D01*
X129385960Y-99311944D01*
X129390378Y-99316851D01*
X129390379Y-99316852D01*
X129435204Y-99366635D01*
X129513747Y-99453866D01*
X129612843Y-99525864D01*
X129646064Y-99550000D01*
X129668248Y-99566118D01*
X129674276Y-99568802D01*
X129674278Y-99568803D01*
X129836681Y-99641109D01*
X129842712Y-99643794D01*
X129936113Y-99663647D01*
X130023056Y-99682128D01*
X130023061Y-99682128D01*
X130029513Y-99683500D01*
X130220487Y-99683500D01*
X130226939Y-99682128D01*
X130226944Y-99682128D01*
X130313888Y-99663647D01*
X130407288Y-99643794D01*
X130413319Y-99641109D01*
X130575722Y-99568803D01*
X130575724Y-99568802D01*
X130581752Y-99566118D01*
X130603937Y-99550000D01*
X132536496Y-99550000D01*
X132556458Y-99739928D01*
X132615473Y-99921556D01*
X132710960Y-100086944D01*
X132715378Y-100091851D01*
X132715379Y-100091852D01*
X132755980Y-100136944D01*
X132838747Y-100228866D01*
X132993248Y-100341118D01*
X132999276Y-100343802D01*
X132999278Y-100343803D01*
X133096833Y-100387237D01*
X133167712Y-100418794D01*
X133261112Y-100438647D01*
X133348056Y-100457128D01*
X133348061Y-100457128D01*
X133354513Y-100458500D01*
X133545487Y-100458500D01*
X133551939Y-100457128D01*
X133551944Y-100457128D01*
X133638887Y-100438647D01*
X133732288Y-100418794D01*
X133803167Y-100387237D01*
X133900722Y-100343803D01*
X133900724Y-100343802D01*
X133906752Y-100341118D01*
X134061253Y-100228866D01*
X134144020Y-100136944D01*
X134184621Y-100091852D01*
X134184622Y-100091851D01*
X134189040Y-100086944D01*
X134284527Y-99921556D01*
X134343542Y-99739928D01*
X134363504Y-99550000D01*
X134343542Y-99360072D01*
X134284527Y-99178444D01*
X134277406Y-99166109D01*
X134234109Y-99091118D01*
X134189040Y-99013056D01*
X134165793Y-98987237D01*
X134065675Y-98876045D01*
X134065674Y-98876044D01*
X134061253Y-98871134D01*
X133937972Y-98781565D01*
X133912094Y-98762763D01*
X133912093Y-98762762D01*
X133906752Y-98758882D01*
X133900724Y-98756198D01*
X133900722Y-98756197D01*
X133738319Y-98683891D01*
X133738318Y-98683891D01*
X133732288Y-98681206D01*
X133638888Y-98661353D01*
X133551944Y-98642872D01*
X133551939Y-98642872D01*
X133545487Y-98641500D01*
X133354513Y-98641500D01*
X133348061Y-98642872D01*
X133348056Y-98642872D01*
X133261112Y-98661353D01*
X133167712Y-98681206D01*
X133161682Y-98683891D01*
X133161681Y-98683891D01*
X132999278Y-98756197D01*
X132999276Y-98756198D01*
X132993248Y-98758882D01*
X132987907Y-98762762D01*
X132987906Y-98762763D01*
X132962028Y-98781565D01*
X132838747Y-98871134D01*
X132834326Y-98876044D01*
X132834325Y-98876045D01*
X132734208Y-98987237D01*
X132710960Y-99013056D01*
X132665891Y-99091118D01*
X132622595Y-99166109D01*
X132615473Y-99178444D01*
X132556458Y-99360072D01*
X132536496Y-99550000D01*
X130603937Y-99550000D01*
X130637157Y-99525864D01*
X130736253Y-99453866D01*
X130814796Y-99366635D01*
X130859621Y-99316852D01*
X130859622Y-99316851D01*
X130864040Y-99311944D01*
X130892675Y-99262347D01*
X130944058Y-99213354D01*
X130975597Y-99202100D01*
X131004132Y-99196034D01*
X131132288Y-99168794D01*
X131138319Y-99166109D01*
X131300722Y-99093803D01*
X131300724Y-99093802D01*
X131306752Y-99091118D01*
X131461253Y-98978866D01*
X131551293Y-98878866D01*
X131584621Y-98841852D01*
X131584622Y-98841851D01*
X131589040Y-98836944D01*
X131650880Y-98729834D01*
X131681223Y-98677279D01*
X131681224Y-98677278D01*
X131684527Y-98671556D01*
X131743542Y-98489928D01*
X131746990Y-98457128D01*
X131762814Y-98306565D01*
X131763504Y-98300000D01*
X131762814Y-98293435D01*
X131744232Y-98116635D01*
X131744232Y-98116633D01*
X131743542Y-98110072D01*
X131684527Y-97928444D01*
X131624803Y-97825000D01*
X143486496Y-97825000D01*
X143487186Y-97831565D01*
X143503955Y-97991109D01*
X143506458Y-98014928D01*
X143565473Y-98196556D01*
X143660960Y-98361944D01*
X143665378Y-98366851D01*
X143665379Y-98366852D01*
X143693174Y-98397721D01*
X143788747Y-98503866D01*
X143943248Y-98616118D01*
X143949276Y-98618802D01*
X143949278Y-98618803D01*
X144095469Y-98683891D01*
X144117712Y-98693794D01*
X144211113Y-98713647D01*
X144298056Y-98732128D01*
X144298061Y-98732128D01*
X144304513Y-98733500D01*
X144343683Y-98733500D01*
X144411804Y-98753502D01*
X144458297Y-98807158D01*
X144468993Y-98846330D01*
X144481458Y-98964928D01*
X144540473Y-99146556D01*
X144543776Y-99152278D01*
X144543777Y-99152279D01*
X144562512Y-99184729D01*
X144635960Y-99311944D01*
X144640378Y-99316851D01*
X144640379Y-99316852D01*
X144685204Y-99366635D01*
X144763747Y-99453866D01*
X144862843Y-99525864D01*
X144896064Y-99550000D01*
X144918248Y-99566118D01*
X144924276Y-99568802D01*
X144924278Y-99568803D01*
X145086681Y-99641109D01*
X145092712Y-99643794D01*
X145186113Y-99663647D01*
X145273056Y-99682128D01*
X145273061Y-99682128D01*
X145279513Y-99683500D01*
X145470487Y-99683500D01*
X145471215Y-99683345D01*
X145538913Y-99695726D01*
X145590760Y-99744227D01*
X145605492Y-99782065D01*
X145605768Y-99783364D01*
X145606458Y-99789928D01*
X145665473Y-99971556D01*
X145760960Y-100136944D01*
X145888747Y-100278866D01*
X146043248Y-100391118D01*
X146049276Y-100393802D01*
X146049278Y-100393803D01*
X146194591Y-100458500D01*
X146217712Y-100468794D01*
X146311113Y-100488647D01*
X146398056Y-100507128D01*
X146398061Y-100507128D01*
X146404513Y-100508500D01*
X146595487Y-100508500D01*
X146601939Y-100507128D01*
X146601944Y-100507128D01*
X146688888Y-100488647D01*
X146782288Y-100468794D01*
X146805409Y-100458500D01*
X146950722Y-100393803D01*
X146950724Y-100393802D01*
X146956752Y-100391118D01*
X147111253Y-100278866D01*
X147239040Y-100136944D01*
X147334527Y-99971556D01*
X147393542Y-99789928D01*
X147394369Y-99782065D01*
X147412814Y-99606565D01*
X147413504Y-99600000D01*
X147393542Y-99410072D01*
X147334527Y-99228444D01*
X147239040Y-99063056D01*
X147199169Y-99018774D01*
X147115675Y-98926045D01*
X147115674Y-98926044D01*
X147111253Y-98921134D01*
X146956752Y-98808882D01*
X146950724Y-98806198D01*
X146950722Y-98806197D01*
X146788319Y-98733891D01*
X146788318Y-98733891D01*
X146782288Y-98731206D01*
X146688888Y-98711353D01*
X146601944Y-98692872D01*
X146601939Y-98692872D01*
X146595487Y-98691500D01*
X146404513Y-98691500D01*
X146403785Y-98691655D01*
X146336087Y-98679274D01*
X146284240Y-98630773D01*
X146269508Y-98592935D01*
X146269232Y-98591635D01*
X146268542Y-98585072D01*
X146264151Y-98571556D01*
X146214960Y-98420166D01*
X146209527Y-98403444D01*
X146114040Y-98238056D01*
X146101344Y-98223955D01*
X145990675Y-98101045D01*
X145990674Y-98101044D01*
X145986253Y-98096134D01*
X145883124Y-98021206D01*
X145837094Y-97987763D01*
X145837093Y-97987762D01*
X145831752Y-97983882D01*
X145825724Y-97981198D01*
X145825722Y-97981197D01*
X145663319Y-97908891D01*
X145663318Y-97908891D01*
X145657288Y-97906206D01*
X145563888Y-97886353D01*
X145476944Y-97867872D01*
X145476939Y-97867872D01*
X145470487Y-97866500D01*
X145431317Y-97866500D01*
X145363196Y-97846498D01*
X145316703Y-97792842D01*
X145306007Y-97753670D01*
X145294232Y-97641635D01*
X145294232Y-97641633D01*
X145293542Y-97635072D01*
X145234527Y-97453444D01*
X145139040Y-97288056D01*
X145011253Y-97146134D01*
X144982165Y-97125000D01*
X158511496Y-97125000D01*
X158512186Y-97131565D01*
X158529235Y-97293774D01*
X158531458Y-97314928D01*
X158590473Y-97496556D01*
X158593776Y-97502278D01*
X158593777Y-97502279D01*
X158617539Y-97543435D01*
X158685960Y-97661944D01*
X158690378Y-97666851D01*
X158690379Y-97666852D01*
X158782150Y-97768774D01*
X158813747Y-97803866D01*
X158968248Y-97916118D01*
X158974276Y-97918802D01*
X158974278Y-97918803D01*
X159120449Y-97983882D01*
X159142712Y-97993794D01*
X159211263Y-98008365D01*
X159323056Y-98032128D01*
X159323061Y-98032128D01*
X159329513Y-98033500D01*
X159520487Y-98033500D01*
X159526939Y-98032128D01*
X159526944Y-98032128D01*
X159638737Y-98008365D01*
X159707288Y-97993794D01*
X159729551Y-97983882D01*
X159875722Y-97918803D01*
X159875724Y-97918802D01*
X159881752Y-97916118D01*
X160036253Y-97803866D01*
X160067850Y-97768774D01*
X160159621Y-97666852D01*
X160159622Y-97666851D01*
X160164040Y-97661944D01*
X160228671Y-97550000D01*
X162286496Y-97550000D01*
X162287186Y-97556565D01*
X162298980Y-97668774D01*
X162306458Y-97739928D01*
X162365473Y-97921556D01*
X162460960Y-98086944D01*
X162465378Y-98091851D01*
X162465379Y-98091852D01*
X162487694Y-98116635D01*
X162588747Y-98228866D01*
X162743248Y-98341118D01*
X162749276Y-98343802D01*
X162749278Y-98343803D01*
X162911681Y-98416109D01*
X162917712Y-98418794D01*
X163011112Y-98438647D01*
X163098056Y-98457128D01*
X163098061Y-98457128D01*
X163104513Y-98458500D01*
X163295487Y-98458500D01*
X163301939Y-98457128D01*
X163301944Y-98457128D01*
X163388887Y-98438647D01*
X163482288Y-98418794D01*
X163488319Y-98416109D01*
X163650722Y-98343803D01*
X163650724Y-98343802D01*
X163656752Y-98341118D01*
X163811253Y-98228866D01*
X163912306Y-98116635D01*
X163934621Y-98091852D01*
X163934622Y-98091851D01*
X163939040Y-98086944D01*
X164034527Y-97921556D01*
X164093542Y-97739928D01*
X164101021Y-97668774D01*
X164112814Y-97556565D01*
X164113504Y-97550000D01*
X164101301Y-97433891D01*
X164094232Y-97366635D01*
X164094232Y-97366633D01*
X164093542Y-97360072D01*
X164034527Y-97178444D01*
X163939040Y-97013056D01*
X163903834Y-96973955D01*
X163815675Y-96876045D01*
X163815674Y-96876044D01*
X163811253Y-96871134D01*
X163656752Y-96758882D01*
X163650724Y-96756198D01*
X163650722Y-96756197D01*
X163488319Y-96683891D01*
X163488318Y-96683891D01*
X163482288Y-96681206D01*
X163388888Y-96661353D01*
X163301944Y-96642872D01*
X163301939Y-96642872D01*
X163295487Y-96641500D01*
X163104513Y-96641500D01*
X163098061Y-96642872D01*
X163098056Y-96642872D01*
X163011112Y-96661353D01*
X162917712Y-96681206D01*
X162911682Y-96683891D01*
X162911681Y-96683891D01*
X162749278Y-96756197D01*
X162749276Y-96756198D01*
X162743248Y-96758882D01*
X162588747Y-96871134D01*
X162584326Y-96876044D01*
X162584325Y-96876045D01*
X162496167Y-96973955D01*
X162460960Y-97013056D01*
X162365473Y-97178444D01*
X162306458Y-97360072D01*
X162305768Y-97366633D01*
X162305768Y-97366635D01*
X162298699Y-97433891D01*
X162286496Y-97550000D01*
X160228671Y-97550000D01*
X160232461Y-97543435D01*
X160256223Y-97502279D01*
X160256224Y-97502278D01*
X160259527Y-97496556D01*
X160318542Y-97314928D01*
X160320766Y-97293774D01*
X160337814Y-97131565D01*
X160338504Y-97125000D01*
X160328645Y-97031197D01*
X160319232Y-96941635D01*
X160319232Y-96941633D01*
X160318542Y-96935072D01*
X160259527Y-96753444D01*
X160164040Y-96588056D01*
X160036253Y-96446134D01*
X159881752Y-96333882D01*
X159875724Y-96331198D01*
X159875722Y-96331197D01*
X159713319Y-96258891D01*
X159713318Y-96258891D01*
X159707288Y-96256206D01*
X159613888Y-96236353D01*
X159526944Y-96217872D01*
X159526939Y-96217872D01*
X159520487Y-96216500D01*
X159329513Y-96216500D01*
X159323061Y-96217872D01*
X159323056Y-96217872D01*
X159236112Y-96236353D01*
X159142712Y-96256206D01*
X159136682Y-96258891D01*
X159136681Y-96258891D01*
X158974278Y-96331197D01*
X158974276Y-96331198D01*
X158968248Y-96333882D01*
X158813747Y-96446134D01*
X158685960Y-96588056D01*
X158590473Y-96753444D01*
X158531458Y-96935072D01*
X158530768Y-96941633D01*
X158530768Y-96941635D01*
X158521355Y-97031197D01*
X158511496Y-97125000D01*
X144982165Y-97125000D01*
X144856752Y-97033882D01*
X144850724Y-97031198D01*
X144850722Y-97031197D01*
X144688319Y-96958891D01*
X144688318Y-96958891D01*
X144682288Y-96956206D01*
X144582861Y-96935072D01*
X144501944Y-96917872D01*
X144501939Y-96917872D01*
X144495487Y-96916500D01*
X144304513Y-96916500D01*
X144298061Y-96917872D01*
X144298056Y-96917872D01*
X144217139Y-96935072D01*
X144117712Y-96956206D01*
X144111682Y-96958891D01*
X144111681Y-96958891D01*
X143949278Y-97031197D01*
X143949276Y-97031198D01*
X143943248Y-97033882D01*
X143788747Y-97146134D01*
X143660960Y-97288056D01*
X143565473Y-97453444D01*
X143506458Y-97635072D01*
X143505768Y-97641633D01*
X143505768Y-97641635D01*
X143489876Y-97792842D01*
X143486496Y-97825000D01*
X131624803Y-97825000D01*
X131589040Y-97763056D01*
X131568216Y-97739928D01*
X131465675Y-97626045D01*
X131465674Y-97626044D01*
X131461253Y-97621134D01*
X131330375Y-97526045D01*
X131312094Y-97512763D01*
X131312093Y-97512762D01*
X131306752Y-97508882D01*
X131300724Y-97506198D01*
X131300722Y-97506197D01*
X131138319Y-97433891D01*
X131138318Y-97433891D01*
X131132288Y-97431206D01*
X131038887Y-97411353D01*
X130951944Y-97392872D01*
X130951939Y-97392872D01*
X130945487Y-97391500D01*
X130754513Y-97391500D01*
X130748061Y-97392872D01*
X130748056Y-97392872D01*
X130661113Y-97411353D01*
X130567712Y-97431206D01*
X130561682Y-97433891D01*
X130561681Y-97433891D01*
X130399278Y-97506197D01*
X130399276Y-97506198D01*
X130393248Y-97508882D01*
X130387907Y-97512762D01*
X130387906Y-97512763D01*
X130369625Y-97526045D01*
X130238747Y-97621134D01*
X130234326Y-97626044D01*
X130234325Y-97626045D01*
X130131785Y-97739928D01*
X130110960Y-97763056D01*
X130107659Y-97768774D01*
X130082325Y-97812653D01*
X130030942Y-97861646D01*
X129999403Y-97872900D01*
X129970868Y-97878966D01*
X129842712Y-97906206D01*
X129836682Y-97908891D01*
X129836681Y-97908891D01*
X129674278Y-97981197D01*
X129674276Y-97981198D01*
X129668248Y-97983882D01*
X129662907Y-97987762D01*
X129662906Y-97987763D01*
X129616876Y-98021206D01*
X129513747Y-98096134D01*
X129509326Y-98101044D01*
X129509325Y-98101045D01*
X129398657Y-98223955D01*
X129385960Y-98238056D01*
X129290473Y-98403444D01*
X129231458Y-98585072D01*
X129230768Y-98591633D01*
X129230768Y-98591635D01*
X129213472Y-98756197D01*
X129211496Y-98775000D01*
X126879774Y-98775000D01*
X126909621Y-98741852D01*
X126909622Y-98741851D01*
X126914040Y-98736944D01*
X126944670Y-98683891D01*
X127006223Y-98577279D01*
X127006224Y-98577278D01*
X127009527Y-98571556D01*
X127068542Y-98389928D01*
X127070968Y-98366852D01*
X127087814Y-98206565D01*
X127088504Y-98200000D01*
X127079052Y-98110072D01*
X127069232Y-98016635D01*
X127069232Y-98016633D01*
X127068542Y-98010072D01*
X127009527Y-97828444D01*
X126992502Y-97798955D01*
X126971775Y-97763056D01*
X126914040Y-97663056D01*
X126894753Y-97641635D01*
X126790675Y-97526045D01*
X126790674Y-97526044D01*
X126786253Y-97521134D01*
X126631752Y-97408882D01*
X126625724Y-97406198D01*
X126625722Y-97406197D01*
X126463319Y-97333891D01*
X126463318Y-97333891D01*
X126457288Y-97331206D01*
X126363887Y-97311353D01*
X126276944Y-97292872D01*
X126276939Y-97292872D01*
X126270487Y-97291500D01*
X126079513Y-97291500D01*
X126073061Y-97292872D01*
X126073056Y-97292872D01*
X125986112Y-97311353D01*
X125892712Y-97331206D01*
X125886682Y-97333891D01*
X125886681Y-97333891D01*
X125724278Y-97406197D01*
X125724276Y-97406198D01*
X125718248Y-97408882D01*
X125563747Y-97521134D01*
X125559326Y-97526044D01*
X125559325Y-97526045D01*
X125455248Y-97641635D01*
X125435960Y-97663056D01*
X125378225Y-97763056D01*
X125357499Y-97798955D01*
X125340473Y-97828444D01*
X125281458Y-98010072D01*
X125280768Y-98016633D01*
X125280768Y-98016635D01*
X125270948Y-98110072D01*
X125261496Y-98200000D01*
X119708000Y-98200000D01*
X119708000Y-94713503D01*
X124768729Y-94713503D01*
X124781759Y-94912301D01*
X124830799Y-95105397D01*
X124914207Y-95286322D01*
X125029189Y-95449018D01*
X125171894Y-95588035D01*
X125176690Y-95591240D01*
X125176693Y-95591242D01*
X125311496Y-95681314D01*
X125337544Y-95698719D01*
X125342847Y-95700997D01*
X125342850Y-95700999D01*
X125487293Y-95763056D01*
X125520591Y-95777362D01*
X125591896Y-95793497D01*
X125709266Y-95820055D01*
X125709271Y-95820056D01*
X125714903Y-95821330D01*
X125720674Y-95821557D01*
X125720676Y-95821557D01*
X125779511Y-95823869D01*
X125913975Y-95829152D01*
X126013903Y-95814663D01*
X126105418Y-95801395D01*
X126105423Y-95801394D01*
X126111139Y-95800565D01*
X126116611Y-95798707D01*
X126116613Y-95798707D01*
X126294327Y-95738381D01*
X126294329Y-95738380D01*
X126299791Y-95736526D01*
X126473615Y-95639180D01*
X126626788Y-95511788D01*
X126754180Y-95358615D01*
X126843009Y-95200000D01*
X151561496Y-95200000D01*
X151581458Y-95389928D01*
X151640473Y-95571556D01*
X151735960Y-95736944D01*
X151740378Y-95741851D01*
X151740379Y-95741852D01*
X151793992Y-95801395D01*
X151863747Y-95878866D01*
X152018248Y-95991118D01*
X152024276Y-95993802D01*
X152024278Y-95993803D01*
X152131819Y-96041683D01*
X152192712Y-96068794D01*
X152286113Y-96088647D01*
X152373056Y-96107128D01*
X152373061Y-96107128D01*
X152379513Y-96108500D01*
X152570487Y-96108500D01*
X152576939Y-96107128D01*
X152576944Y-96107128D01*
X152663887Y-96088647D01*
X152757288Y-96068794D01*
X152818181Y-96041683D01*
X152925722Y-95993803D01*
X152925724Y-95993802D01*
X152931752Y-95991118D01*
X153046237Y-95907940D01*
X153113101Y-95884083D01*
X153182253Y-95900163D01*
X153194356Y-95907941D01*
X153332675Y-96008436D01*
X153343248Y-96016118D01*
X153349276Y-96018802D01*
X153349278Y-96018803D01*
X153464642Y-96070166D01*
X153517712Y-96093794D01*
X153594294Y-96110072D01*
X153698056Y-96132128D01*
X153698061Y-96132128D01*
X153704513Y-96133500D01*
X153895487Y-96133500D01*
X153901939Y-96132128D01*
X153901944Y-96132128D01*
X154005706Y-96110072D01*
X154082288Y-96093794D01*
X154135358Y-96070166D01*
X154250722Y-96018803D01*
X154250724Y-96018802D01*
X154256752Y-96016118D01*
X154267326Y-96008436D01*
X154325235Y-95966362D01*
X154411253Y-95903866D01*
X154438185Y-95873955D01*
X154534621Y-95766852D01*
X154534622Y-95766851D01*
X154539040Y-95761944D01*
X154614459Y-95631315D01*
X154631223Y-95602279D01*
X154631224Y-95602278D01*
X154634527Y-95596556D01*
X154693542Y-95414928D01*
X154696860Y-95383365D01*
X154712814Y-95231565D01*
X154713504Y-95225000D01*
X154710877Y-95200000D01*
X155311496Y-95200000D01*
X155331458Y-95389928D01*
X155390473Y-95571556D01*
X155485960Y-95736944D01*
X155490378Y-95741851D01*
X155490379Y-95741852D01*
X155543992Y-95801395D01*
X155613747Y-95878866D01*
X155768248Y-95991118D01*
X155774276Y-95993802D01*
X155774278Y-95993803D01*
X155881819Y-96041683D01*
X155942712Y-96068794D01*
X156036113Y-96088647D01*
X156123056Y-96107128D01*
X156123061Y-96107128D01*
X156129513Y-96108500D01*
X156320487Y-96108500D01*
X156326939Y-96107128D01*
X156326944Y-96107128D01*
X156413887Y-96088647D01*
X156507288Y-96068794D01*
X156568181Y-96041683D01*
X156675722Y-95993803D01*
X156675724Y-95993802D01*
X156681752Y-95991118D01*
X156836253Y-95878866D01*
X156906008Y-95801395D01*
X156959621Y-95741852D01*
X156959622Y-95741851D01*
X156964040Y-95736944D01*
X157059527Y-95571556D01*
X157118542Y-95389928D01*
X157138504Y-95200000D01*
X157129455Y-95113902D01*
X162987125Y-95113902D01*
X163013578Y-95332496D01*
X163078322Y-95542951D01*
X163179312Y-95738614D01*
X163313354Y-95913301D01*
X163476212Y-96061491D01*
X163662739Y-96178499D01*
X163867038Y-96260627D01*
X163872529Y-96261764D01*
X163872532Y-96261765D01*
X164007789Y-96289775D01*
X164082652Y-96305278D01*
X164087265Y-96305544D01*
X164136707Y-96308395D01*
X164136711Y-96308395D01*
X164138530Y-96308500D01*
X164523938Y-96308500D01*
X164592059Y-96328502D01*
X164638552Y-96382158D01*
X164649248Y-96421328D01*
X164656458Y-96489928D01*
X164715473Y-96671556D01*
X164718776Y-96677278D01*
X164718777Y-96677279D01*
X164731381Y-96699109D01*
X164810960Y-96836944D01*
X164815378Y-96841851D01*
X164815379Y-96841852D01*
X164918344Y-96956206D01*
X164938747Y-96978866D01*
X164993676Y-97018774D01*
X165000775Y-97023932D01*
X165044128Y-97080155D01*
X165050203Y-97150891D01*
X165042538Y-97174867D01*
X165040473Y-97178444D01*
X164981458Y-97360072D01*
X164980768Y-97366633D01*
X164980768Y-97366635D01*
X164973699Y-97433891D01*
X164961496Y-97550000D01*
X164962186Y-97556565D01*
X164973980Y-97668774D01*
X164981458Y-97739928D01*
X165040473Y-97921556D01*
X165135960Y-98086944D01*
X165140378Y-98091851D01*
X165140379Y-98091852D01*
X165162694Y-98116635D01*
X165263747Y-98228866D01*
X165418248Y-98341118D01*
X165424276Y-98343802D01*
X165424278Y-98343803D01*
X165586681Y-98416109D01*
X165592712Y-98418794D01*
X165686112Y-98438647D01*
X165773056Y-98457128D01*
X165773061Y-98457128D01*
X165779513Y-98458500D01*
X165970487Y-98458500D01*
X165976939Y-98457128D01*
X165976944Y-98457128D01*
X166063887Y-98438647D01*
X166157288Y-98418794D01*
X166163319Y-98416109D01*
X166325722Y-98343803D01*
X166325724Y-98343802D01*
X166331752Y-98341118D01*
X166486253Y-98228866D01*
X166587306Y-98116635D01*
X166609621Y-98091852D01*
X166609622Y-98091851D01*
X166614040Y-98086944D01*
X166709527Y-97921556D01*
X166768542Y-97739928D01*
X166776021Y-97668774D01*
X166787814Y-97556565D01*
X166788504Y-97550000D01*
X166776301Y-97433891D01*
X166769232Y-97366635D01*
X166769232Y-97366633D01*
X166768542Y-97360072D01*
X166709527Y-97178444D01*
X166614040Y-97013056D01*
X166578834Y-96973955D01*
X166490675Y-96876045D01*
X166490674Y-96876044D01*
X166486253Y-96871134D01*
X166424225Y-96826068D01*
X166380872Y-96769845D01*
X166374797Y-96699109D01*
X166382462Y-96675133D01*
X166384527Y-96671556D01*
X166443542Y-96489928D01*
X166463504Y-96300000D01*
X166450420Y-96175513D01*
X166444232Y-96116635D01*
X166444232Y-96116633D01*
X166443542Y-96110072D01*
X166384527Y-95928444D01*
X166377966Y-95917079D01*
X166327201Y-95829152D01*
X166289040Y-95763056D01*
X166271038Y-95743062D01*
X166165675Y-95626045D01*
X166165674Y-95626044D01*
X166161253Y-95621134D01*
X166135302Y-95602279D01*
X166017574Y-95516745D01*
X165974220Y-95460523D01*
X165969116Y-95385395D01*
X165969604Y-95383365D01*
X166000200Y-95255922D01*
X166012875Y-95036098D01*
X165986422Y-94817504D01*
X165921678Y-94607049D01*
X165871183Y-94509218D01*
X165823260Y-94416369D01*
X165823260Y-94416368D01*
X165820688Y-94411386D01*
X165686646Y-94236699D01*
X165523788Y-94088509D01*
X165337261Y-93971501D01*
X165132962Y-93889373D01*
X165127471Y-93888236D01*
X165127468Y-93888235D01*
X164980973Y-93857898D01*
X164917348Y-93844722D01*
X164912735Y-93844456D01*
X164863293Y-93841605D01*
X164863289Y-93841605D01*
X164861470Y-93841500D01*
X164169134Y-93841500D01*
X164166347Y-93841749D01*
X164166341Y-93841749D01*
X164011270Y-93855589D01*
X164011266Y-93855590D01*
X164005683Y-93856088D01*
X163793298Y-93914189D01*
X163788233Y-93916605D01*
X163788230Y-93916606D01*
X163599615Y-94006571D01*
X163599611Y-94006573D01*
X163594559Y-94008983D01*
X163415748Y-94137472D01*
X163262516Y-94295596D01*
X163259382Y-94300260D01*
X163147530Y-94466712D01*
X163139706Y-94478355D01*
X163051202Y-94679973D01*
X163049893Y-94685424D01*
X163049892Y-94685428D01*
X163022632Y-94798975D01*
X162999800Y-94894078D01*
X162997143Y-94940152D01*
X162989520Y-95072371D01*
X162987125Y-95113902D01*
X157129455Y-95113902D01*
X157126332Y-95084187D01*
X157119232Y-95016635D01*
X157119232Y-95016633D01*
X157118542Y-95010072D01*
X157059527Y-94828444D01*
X157050033Y-94811999D01*
X156996495Y-94719269D01*
X156964040Y-94663056D01*
X156909125Y-94602066D01*
X156840675Y-94526045D01*
X156840674Y-94526044D01*
X156836253Y-94521134D01*
X156721499Y-94437760D01*
X156687094Y-94412763D01*
X156687093Y-94412762D01*
X156681752Y-94408882D01*
X156675724Y-94406198D01*
X156675722Y-94406197D01*
X156513319Y-94333891D01*
X156513318Y-94333891D01*
X156507288Y-94331206D01*
X156413887Y-94311353D01*
X156326944Y-94292872D01*
X156326939Y-94292872D01*
X156320487Y-94291500D01*
X156129513Y-94291500D01*
X156123061Y-94292872D01*
X156123056Y-94292872D01*
X156036112Y-94311353D01*
X155942712Y-94331206D01*
X155936682Y-94333891D01*
X155936681Y-94333891D01*
X155774278Y-94406197D01*
X155774276Y-94406198D01*
X155768248Y-94408882D01*
X155762907Y-94412762D01*
X155762906Y-94412763D01*
X155728501Y-94437760D01*
X155613747Y-94521134D01*
X155609326Y-94526044D01*
X155609325Y-94526045D01*
X155540876Y-94602066D01*
X155485960Y-94663056D01*
X155453505Y-94719269D01*
X155399968Y-94811999D01*
X155390473Y-94828444D01*
X155331458Y-95010072D01*
X155330768Y-95016633D01*
X155330768Y-95016635D01*
X155323668Y-95084187D01*
X155311496Y-95200000D01*
X154710877Y-95200000D01*
X154708704Y-95179327D01*
X154694232Y-95041635D01*
X154694232Y-95041633D01*
X154693542Y-95035072D01*
X154634527Y-94853444D01*
X154539040Y-94688056D01*
X154521679Y-94668774D01*
X154415675Y-94551045D01*
X154415674Y-94551044D01*
X154411253Y-94546134D01*
X154256752Y-94433882D01*
X154250724Y-94431198D01*
X154250722Y-94431197D01*
X154088319Y-94358891D01*
X154088318Y-94358891D01*
X154082288Y-94356206D01*
X153977305Y-94333891D01*
X153901944Y-94317872D01*
X153901939Y-94317872D01*
X153895487Y-94316500D01*
X153704513Y-94316500D01*
X153698061Y-94317872D01*
X153698056Y-94317872D01*
X153622695Y-94333891D01*
X153517712Y-94356206D01*
X153511682Y-94358891D01*
X153511681Y-94358891D01*
X153349278Y-94431197D01*
X153349276Y-94431198D01*
X153343248Y-94433882D01*
X153228763Y-94517060D01*
X153161899Y-94540917D01*
X153092747Y-94524837D01*
X153080644Y-94517059D01*
X152937094Y-94412763D01*
X152937093Y-94412762D01*
X152931752Y-94408882D01*
X152925724Y-94406198D01*
X152925722Y-94406197D01*
X152763319Y-94333891D01*
X152763318Y-94333891D01*
X152757288Y-94331206D01*
X152663887Y-94311353D01*
X152576944Y-94292872D01*
X152576939Y-94292872D01*
X152570487Y-94291500D01*
X152379513Y-94291500D01*
X152373061Y-94292872D01*
X152373056Y-94292872D01*
X152286112Y-94311353D01*
X152192712Y-94331206D01*
X152186682Y-94333891D01*
X152186681Y-94333891D01*
X152024278Y-94406197D01*
X152024276Y-94406198D01*
X152018248Y-94408882D01*
X152012907Y-94412762D01*
X152012906Y-94412763D01*
X151978501Y-94437760D01*
X151863747Y-94521134D01*
X151859326Y-94526044D01*
X151859325Y-94526045D01*
X151790876Y-94602066D01*
X151735960Y-94663056D01*
X151703505Y-94719269D01*
X151649968Y-94811999D01*
X151640473Y-94828444D01*
X151581458Y-95010072D01*
X151580768Y-95016633D01*
X151580768Y-95016635D01*
X151573668Y-95084187D01*
X151561496Y-95200000D01*
X126843009Y-95200000D01*
X126851526Y-95184791D01*
X126900098Y-95041705D01*
X126913707Y-95001613D01*
X126913707Y-95001611D01*
X126915565Y-94996139D01*
X126916394Y-94990423D01*
X126916395Y-94990418D01*
X126936254Y-94853444D01*
X126944152Y-94798975D01*
X126945644Y-94742000D01*
X126928923Y-94560018D01*
X126927944Y-94549364D01*
X126927943Y-94549361D01*
X126927415Y-94543610D01*
X126922461Y-94526045D01*
X126874905Y-94357424D01*
X126874904Y-94357422D01*
X126873337Y-94351865D01*
X126864474Y-94333891D01*
X126787777Y-94178366D01*
X126785222Y-94173185D01*
X126771039Y-94154191D01*
X126669473Y-94018179D01*
X126669473Y-94018178D01*
X126666020Y-94013555D01*
X126519724Y-93878321D01*
X126434428Y-93824503D01*
X158550729Y-93824503D01*
X158563759Y-94023301D01*
X158612799Y-94216397D01*
X158696207Y-94397322D01*
X158811189Y-94560018D01*
X158875624Y-94622788D01*
X158937586Y-94683148D01*
X158953894Y-94699035D01*
X158958690Y-94702240D01*
X158958693Y-94702242D01*
X159093496Y-94792314D01*
X159119544Y-94809719D01*
X159124847Y-94811997D01*
X159124850Y-94811999D01*
X159250288Y-94865891D01*
X159302591Y-94888362D01*
X159352623Y-94899683D01*
X159491266Y-94931055D01*
X159491271Y-94931056D01*
X159496903Y-94932330D01*
X159502674Y-94932557D01*
X159502676Y-94932557D01*
X159561511Y-94934869D01*
X159695975Y-94940152D01*
X159795903Y-94925663D01*
X159887418Y-94912395D01*
X159887423Y-94912394D01*
X159893139Y-94911565D01*
X159898611Y-94909707D01*
X159898613Y-94909707D01*
X160076327Y-94849381D01*
X160076329Y-94849380D01*
X160081791Y-94847526D01*
X160255615Y-94750180D01*
X160408788Y-94622788D01*
X160476879Y-94540917D01*
X160532489Y-94474053D01*
X160536180Y-94469615D01*
X160633526Y-94295791D01*
X160636030Y-94288416D01*
X160695707Y-94112613D01*
X160695707Y-94112611D01*
X160697565Y-94107139D01*
X160698394Y-94101423D01*
X160698395Y-94101418D01*
X160725111Y-93917154D01*
X160726152Y-93909975D01*
X160727644Y-93853000D01*
X160712618Y-93689472D01*
X160709944Y-93660364D01*
X160709943Y-93660361D01*
X160709415Y-93654610D01*
X160707847Y-93649050D01*
X160656905Y-93468424D01*
X160656904Y-93468422D01*
X160655337Y-93462865D01*
X160645004Y-93441910D01*
X160569777Y-93289366D01*
X160567222Y-93284185D01*
X160553039Y-93265191D01*
X160451473Y-93129179D01*
X160451473Y-93129178D01*
X160448020Y-93124555D01*
X160413602Y-93092739D01*
X160305959Y-92993236D01*
X160301724Y-92989321D01*
X160133234Y-92883011D01*
X160127874Y-92880873D01*
X160127869Y-92880870D01*
X159953556Y-92811327D01*
X159948192Y-92809187D01*
X159942532Y-92808061D01*
X159942528Y-92808060D01*
X159758461Y-92771447D01*
X159758459Y-92771447D01*
X159752794Y-92770320D01*
X159747019Y-92770244D01*
X159747015Y-92770244D01*
X159647480Y-92768941D01*
X159553586Y-92767712D01*
X159547889Y-92768691D01*
X159547888Y-92768691D01*
X159362935Y-92800472D01*
X159357238Y-92801451D01*
X159170327Y-92870406D01*
X159165366Y-92873358D01*
X159165365Y-92873358D01*
X159004079Y-92969313D01*
X159004076Y-92969315D01*
X158999111Y-92972269D01*
X158849326Y-93103627D01*
X158845750Y-93108162D01*
X158845750Y-93108163D01*
X158742678Y-93238909D01*
X158725986Y-93260082D01*
X158633224Y-93436394D01*
X158574145Y-93626658D01*
X158550729Y-93824503D01*
X126434428Y-93824503D01*
X126351234Y-93772011D01*
X126345874Y-93769873D01*
X126345869Y-93769870D01*
X126171556Y-93700327D01*
X126166192Y-93698187D01*
X126160532Y-93697061D01*
X126160528Y-93697060D01*
X125976461Y-93660447D01*
X125976459Y-93660447D01*
X125970794Y-93659320D01*
X125965019Y-93659244D01*
X125965015Y-93659244D01*
X125865480Y-93657941D01*
X125771586Y-93656712D01*
X125765889Y-93657691D01*
X125765888Y-93657691D01*
X125580935Y-93689472D01*
X125575238Y-93690451D01*
X125388327Y-93759406D01*
X125383366Y-93762358D01*
X125383365Y-93762358D01*
X125222079Y-93858313D01*
X125222076Y-93858315D01*
X125217111Y-93861269D01*
X125067326Y-93992627D01*
X125063750Y-93997162D01*
X125063750Y-93997163D01*
X124949962Y-94141502D01*
X124943986Y-94149082D01*
X124851224Y-94325394D01*
X124849512Y-94330908D01*
X124849511Y-94330910D01*
X124824095Y-94412763D01*
X124792145Y-94515658D01*
X124791466Y-94521393D01*
X124791466Y-94521394D01*
X124788837Y-94543610D01*
X124768729Y-94713503D01*
X119708000Y-94713503D01*
X119708000Y-89203209D01*
X119728002Y-89135088D01*
X119781658Y-89088595D01*
X119851932Y-89078491D01*
X119916512Y-89107985D01*
X119954896Y-89167711D01*
X119957579Y-89178627D01*
X120039594Y-89590944D01*
X120160163Y-90001927D01*
X120161190Y-90004540D01*
X120161190Y-90004541D01*
X120314479Y-90394685D01*
X120316789Y-90400565D01*
X120370912Y-90508882D01*
X120502728Y-90772687D01*
X120508231Y-90783701D01*
X120732974Y-91148302D01*
X120989239Y-91491482D01*
X120991100Y-91493560D01*
X120991101Y-91493561D01*
X121273127Y-91808437D01*
X121273133Y-91808443D01*
X121274995Y-91810522D01*
X121277046Y-91812438D01*
X121277047Y-91812439D01*
X121308533Y-91841852D01*
X121587981Y-92102898D01*
X121925719Y-92366293D01*
X122285533Y-92598622D01*
X122288012Y-92599926D01*
X122288015Y-92599928D01*
X122662077Y-92796732D01*
X122662083Y-92796735D01*
X122664577Y-92798047D01*
X122667175Y-92799131D01*
X122667179Y-92799133D01*
X123057263Y-92961909D01*
X123057268Y-92961911D01*
X123059847Y-92962987D01*
X123062512Y-92963830D01*
X123062518Y-92963832D01*
X123284561Y-93034054D01*
X123468214Y-93092136D01*
X123470944Y-93092739D01*
X123470945Y-93092739D01*
X123597316Y-93120639D01*
X123886446Y-93184473D01*
X123889220Y-93184831D01*
X123889221Y-93184831D01*
X124308460Y-93238909D01*
X124308467Y-93238910D01*
X124311230Y-93239266D01*
X124314017Y-93239376D01*
X124314023Y-93239376D01*
X124562238Y-93249128D01*
X124739203Y-93256081D01*
X124741995Y-93255942D01*
X124742000Y-93255942D01*
X125164172Y-93234925D01*
X125164181Y-93234924D01*
X125166976Y-93234785D01*
X125169753Y-93234397D01*
X125169755Y-93234397D01*
X125244066Y-93224019D01*
X125591163Y-93175547D01*
X126008404Y-93078836D01*
X126269526Y-92993236D01*
X126412744Y-92946287D01*
X126412750Y-92946285D01*
X126415397Y-92945417D01*
X126735104Y-92808060D01*
X126806344Y-92777453D01*
X126806346Y-92777452D01*
X126808918Y-92776347D01*
X126818000Y-92771447D01*
X126918040Y-92717468D01*
X127185852Y-92572964D01*
X127543214Y-92336880D01*
X127878175Y-92069962D01*
X128188082Y-91774325D01*
X128189919Y-91772231D01*
X128189927Y-91772222D01*
X128340961Y-91600000D01*
X148361496Y-91600000D01*
X148381458Y-91789928D01*
X148440473Y-91971556D01*
X148535960Y-92136944D01*
X148663747Y-92278866D01*
X148818248Y-92391118D01*
X148824276Y-92393802D01*
X148824278Y-92393803D01*
X148986681Y-92466109D01*
X148992712Y-92468794D01*
X149086113Y-92488647D01*
X149173056Y-92507128D01*
X149173061Y-92507128D01*
X149179513Y-92508500D01*
X149370487Y-92508500D01*
X149376939Y-92507128D01*
X149376944Y-92507128D01*
X149463888Y-92488647D01*
X149557288Y-92468794D01*
X149563319Y-92466109D01*
X149725722Y-92393803D01*
X149725724Y-92393802D01*
X149731752Y-92391118D01*
X149886253Y-92278866D01*
X150014040Y-92136944D01*
X150109527Y-91971556D01*
X150168542Y-91789928D01*
X150188504Y-91600000D01*
X150177317Y-91493561D01*
X150169232Y-91416635D01*
X150169232Y-91416633D01*
X150168542Y-91410072D01*
X150132777Y-91300000D01*
X151161496Y-91300000D01*
X151162186Y-91306565D01*
X151177726Y-91454416D01*
X151181458Y-91489928D01*
X151240473Y-91671556D01*
X151335960Y-91836944D01*
X151463747Y-91978866D01*
X151618248Y-92091118D01*
X151624276Y-92093802D01*
X151624278Y-92093803D01*
X151708332Y-92131226D01*
X151792712Y-92168794D01*
X151886112Y-92188647D01*
X151973056Y-92207128D01*
X151973061Y-92207128D01*
X151979513Y-92208500D01*
X152170487Y-92208500D01*
X152176939Y-92207128D01*
X152176944Y-92207128D01*
X152263888Y-92188647D01*
X152357288Y-92168794D01*
X152441668Y-92131226D01*
X152525722Y-92093803D01*
X152525724Y-92093802D01*
X152531752Y-92091118D01*
X152686253Y-91978866D01*
X152814040Y-91836944D01*
X152909527Y-91671556D01*
X152968542Y-91489928D01*
X152972275Y-91454416D01*
X152987814Y-91306565D01*
X152988504Y-91300000D01*
X152980382Y-91222721D01*
X152969232Y-91116635D01*
X152969232Y-91116633D01*
X152968542Y-91110072D01*
X152909527Y-90928444D01*
X152902406Y-90916109D01*
X152859109Y-90841118D01*
X152814040Y-90763056D01*
X152786752Y-90732749D01*
X152690675Y-90626045D01*
X152690674Y-90626044D01*
X152686253Y-90621134D01*
X152531752Y-90508882D01*
X152525724Y-90506198D01*
X152525722Y-90506197D01*
X152363319Y-90433891D01*
X152363318Y-90433891D01*
X152357288Y-90431206D01*
X152263887Y-90411353D01*
X152176944Y-90392872D01*
X152176939Y-90392872D01*
X152170487Y-90391500D01*
X151979513Y-90391500D01*
X151973061Y-90392872D01*
X151973056Y-90392872D01*
X151886113Y-90411353D01*
X151792712Y-90431206D01*
X151786682Y-90433891D01*
X151786681Y-90433891D01*
X151624278Y-90506197D01*
X151624276Y-90506198D01*
X151618248Y-90508882D01*
X151463747Y-90621134D01*
X151459326Y-90626044D01*
X151459325Y-90626045D01*
X151363249Y-90732749D01*
X151335960Y-90763056D01*
X151290891Y-90841118D01*
X151247595Y-90916109D01*
X151240473Y-90928444D01*
X151181458Y-91110072D01*
X151180768Y-91116633D01*
X151180768Y-91116635D01*
X151169618Y-91222721D01*
X151161496Y-91300000D01*
X150132777Y-91300000D01*
X150109527Y-91228444D01*
X150014040Y-91063056D01*
X149919898Y-90958500D01*
X149890675Y-90926045D01*
X149890674Y-90926044D01*
X149886253Y-90921134D01*
X149731752Y-90808882D01*
X149725724Y-90806198D01*
X149725722Y-90806197D01*
X149563319Y-90733891D01*
X149563318Y-90733891D01*
X149557288Y-90731206D01*
X149463887Y-90711353D01*
X149376944Y-90692872D01*
X149376939Y-90692872D01*
X149370487Y-90691500D01*
X149179513Y-90691500D01*
X149173061Y-90692872D01*
X149173056Y-90692872D01*
X149086113Y-90711353D01*
X148992712Y-90731206D01*
X148986682Y-90733891D01*
X148986681Y-90733891D01*
X148824278Y-90806197D01*
X148824276Y-90806198D01*
X148818248Y-90808882D01*
X148663747Y-90921134D01*
X148659326Y-90926044D01*
X148659325Y-90926045D01*
X148630103Y-90958500D01*
X148535960Y-91063056D01*
X148440473Y-91228444D01*
X148381458Y-91410072D01*
X148380768Y-91416633D01*
X148380768Y-91416635D01*
X148372683Y-91493561D01*
X148361496Y-91600000D01*
X128340961Y-91600000D01*
X128468635Y-91454416D01*
X128470482Y-91452310D01*
X128496545Y-91416635D01*
X128715710Y-91116635D01*
X128723139Y-91106466D01*
X128724748Y-91103794D01*
X128942601Y-90741942D01*
X128942606Y-90741933D01*
X128944052Y-90739531D01*
X129098795Y-90421556D01*
X129130238Y-90356945D01*
X129130239Y-90356942D01*
X129131471Y-90354411D01*
X129264724Y-90004541D01*
X129282918Y-89956771D01*
X129282920Y-89956764D01*
X129283914Y-89954155D01*
X129350781Y-89717064D01*
X132037707Y-89717064D01*
X132066825Y-89909599D01*
X132069028Y-89915585D01*
X132069029Y-89915591D01*
X132131860Y-90086360D01*
X132131862Y-90086365D01*
X132134063Y-90092346D01*
X132185200Y-90174821D01*
X132229464Y-90246211D01*
X132236674Y-90257840D01*
X132370466Y-90399322D01*
X132375696Y-90402984D01*
X132375697Y-90402985D01*
X132410393Y-90427279D01*
X132529975Y-90511011D01*
X132535838Y-90513548D01*
X132702825Y-90585810D01*
X132702829Y-90585811D01*
X132708684Y-90588345D01*
X132714931Y-90589650D01*
X132714934Y-90589651D01*
X132894557Y-90627176D01*
X132894562Y-90627177D01*
X132899293Y-90628165D01*
X132905685Y-90628500D01*
X133048663Y-90628500D01*
X133159408Y-90617251D01*
X133187378Y-90614410D01*
X133187379Y-90614410D01*
X133193727Y-90613765D01*
X133279314Y-90586944D01*
X133373451Y-90557444D01*
X133373456Y-90557442D01*
X133379541Y-90555535D01*
X133468548Y-90506197D01*
X133544271Y-90464223D01*
X133544274Y-90464221D01*
X133549850Y-90461130D01*
X133554691Y-90456981D01*
X133554695Y-90456978D01*
X133692855Y-90338560D01*
X133697698Y-90334409D01*
X133721526Y-90303691D01*
X133813131Y-90185594D01*
X133817046Y-90180547D01*
X133857779Y-90097768D01*
X133900200Y-90011556D01*
X133903018Y-90005829D01*
X133916478Y-89954155D01*
X133950492Y-89823575D01*
X133950492Y-89823572D01*
X133952102Y-89817393D01*
X133957360Y-89717064D01*
X135037707Y-89717064D01*
X135066825Y-89909599D01*
X135069028Y-89915585D01*
X135069029Y-89915591D01*
X135131860Y-90086360D01*
X135131862Y-90086365D01*
X135134063Y-90092346D01*
X135185200Y-90174821D01*
X135229464Y-90246211D01*
X135236674Y-90257840D01*
X135370466Y-90399322D01*
X135375696Y-90402984D01*
X135375697Y-90402985D01*
X135410393Y-90427279D01*
X135529975Y-90511011D01*
X135535838Y-90513548D01*
X135702825Y-90585810D01*
X135702829Y-90585811D01*
X135708684Y-90588345D01*
X135714931Y-90589650D01*
X135714934Y-90589651D01*
X135894557Y-90627176D01*
X135894562Y-90627177D01*
X135899293Y-90628165D01*
X135905685Y-90628500D01*
X136048663Y-90628500D01*
X136159408Y-90617251D01*
X136187378Y-90614410D01*
X136187379Y-90614410D01*
X136193727Y-90613765D01*
X136279314Y-90586944D01*
X136373451Y-90557444D01*
X136373456Y-90557442D01*
X136379541Y-90555535D01*
X136468548Y-90506197D01*
X136544271Y-90464223D01*
X136544274Y-90464221D01*
X136549850Y-90461130D01*
X136554691Y-90456981D01*
X136554695Y-90456978D01*
X136692855Y-90338560D01*
X136697698Y-90334409D01*
X136721526Y-90303691D01*
X136813131Y-90185594D01*
X136817046Y-90180547D01*
X136857779Y-90097768D01*
X136857857Y-90097610D01*
X141141500Y-90097610D01*
X141156458Y-90239928D01*
X141215473Y-90421556D01*
X141218776Y-90427278D01*
X141218777Y-90427279D01*
X141235924Y-90456978D01*
X141310960Y-90586944D01*
X141315378Y-90591851D01*
X141315379Y-90591852D01*
X141406338Y-90692872D01*
X141438747Y-90728866D01*
X141593248Y-90841118D01*
X141599276Y-90843802D01*
X141599278Y-90843803D01*
X141761681Y-90916109D01*
X141767712Y-90918794D01*
X141842680Y-90934729D01*
X141948056Y-90957128D01*
X141948061Y-90957128D01*
X141954513Y-90958500D01*
X142145487Y-90958500D01*
X142151939Y-90957128D01*
X142151944Y-90957128D01*
X142257320Y-90934729D01*
X142332288Y-90918794D01*
X142338319Y-90916109D01*
X142500722Y-90843803D01*
X142500724Y-90843802D01*
X142506752Y-90841118D01*
X142554817Y-90806197D01*
X142600939Y-90772687D01*
X142667807Y-90748828D01*
X142736958Y-90764909D01*
X142749061Y-90772687D01*
X142795184Y-90806197D01*
X142843248Y-90841118D01*
X142849276Y-90843802D01*
X142849278Y-90843803D01*
X143011681Y-90916109D01*
X143017712Y-90918794D01*
X143092680Y-90934729D01*
X143198056Y-90957128D01*
X143198061Y-90957128D01*
X143204513Y-90958500D01*
X143395487Y-90958500D01*
X143401939Y-90957128D01*
X143401944Y-90957128D01*
X143507320Y-90934729D01*
X143582288Y-90918794D01*
X143588319Y-90916109D01*
X143750722Y-90843803D01*
X143750724Y-90843802D01*
X143756752Y-90841118D01*
X143804817Y-90806197D01*
X143850939Y-90772687D01*
X143917807Y-90748828D01*
X143986958Y-90764909D01*
X143999061Y-90772687D01*
X144045184Y-90806197D01*
X144093248Y-90841118D01*
X144099276Y-90843802D01*
X144099278Y-90843803D01*
X144261681Y-90916109D01*
X144267712Y-90918794D01*
X144342680Y-90934729D01*
X144448056Y-90957128D01*
X144448061Y-90957128D01*
X144454513Y-90958500D01*
X144645487Y-90958500D01*
X144651939Y-90957128D01*
X144651944Y-90957128D01*
X144757320Y-90934729D01*
X144832288Y-90918794D01*
X144838319Y-90916109D01*
X145000722Y-90843803D01*
X145000724Y-90843802D01*
X145006752Y-90841118D01*
X145031089Y-90823436D01*
X145097956Y-90799578D01*
X145170422Y-90817596D01*
X145300014Y-90896080D01*
X145313753Y-90902283D01*
X145382715Y-90923894D01*
X145396813Y-90924149D01*
X145400000Y-90917492D01*
X145400000Y-90911196D01*
X146200000Y-90911196D01*
X146203973Y-90924727D01*
X146211277Y-90925777D01*
X146286247Y-90902283D01*
X146299986Y-90896080D01*
X146433574Y-90815176D01*
X146445443Y-90805869D01*
X146555869Y-90695443D01*
X146565176Y-90683574D01*
X146646079Y-90549988D01*
X146652285Y-90536243D01*
X146699256Y-90386356D01*
X146701869Y-90373306D01*
X146707734Y-90309479D01*
X146708000Y-90303691D01*
X146708000Y-90218115D01*
X146703525Y-90202876D01*
X146702135Y-90201671D01*
X146694452Y-90200000D01*
X146218115Y-90200000D01*
X146202876Y-90204475D01*
X146201671Y-90205865D01*
X146200000Y-90213548D01*
X146200000Y-90911196D01*
X145400000Y-90911196D01*
X145400000Y-90393892D01*
X145406167Y-90354955D01*
X145412843Y-90334409D01*
X145443542Y-90239928D01*
X145447269Y-90204475D01*
X145458156Y-90100880D01*
X145458500Y-90097610D01*
X145458500Y-89502390D01*
X145447563Y-89398329D01*
X145445835Y-89381885D01*
X146200000Y-89381885D01*
X146204475Y-89397124D01*
X146205865Y-89398329D01*
X146213548Y-89400000D01*
X146689884Y-89400000D01*
X146705123Y-89395525D01*
X146706328Y-89394135D01*
X146707999Y-89386452D01*
X146707999Y-89296295D01*
X146707736Y-89290546D01*
X146701868Y-89226685D01*
X146699257Y-89213649D01*
X146652285Y-89063757D01*
X146646079Y-89050012D01*
X146565176Y-88916426D01*
X146555869Y-88904557D01*
X146445443Y-88794131D01*
X146433574Y-88784824D01*
X146299986Y-88703920D01*
X146286247Y-88697717D01*
X146217285Y-88676106D01*
X146203187Y-88675851D01*
X146200000Y-88682508D01*
X146200000Y-89381885D01*
X145445835Y-89381885D01*
X145444233Y-89366642D01*
X145444232Y-89366635D01*
X145443542Y-89360072D01*
X145406167Y-89245044D01*
X145400000Y-89206108D01*
X145400000Y-88688804D01*
X145396027Y-88675273D01*
X145388723Y-88674223D01*
X145313753Y-88697717D01*
X145300014Y-88703920D01*
X145170422Y-88782404D01*
X145101792Y-88800583D01*
X145031089Y-88776564D01*
X145012094Y-88762763D01*
X145012093Y-88762762D01*
X145006752Y-88758882D01*
X145000724Y-88756198D01*
X145000722Y-88756197D01*
X144838319Y-88683891D01*
X144838318Y-88683891D01*
X144832288Y-88681206D01*
X144738887Y-88661353D01*
X144651944Y-88642872D01*
X144651939Y-88642872D01*
X144645487Y-88641500D01*
X144454513Y-88641500D01*
X144448061Y-88642872D01*
X144448056Y-88642872D01*
X144361112Y-88661353D01*
X144267712Y-88681206D01*
X144261682Y-88683891D01*
X144261681Y-88683891D01*
X144099278Y-88756197D01*
X144099276Y-88756198D01*
X144093248Y-88758882D01*
X144087907Y-88762762D01*
X144087906Y-88762763D01*
X143999061Y-88827313D01*
X143932193Y-88851172D01*
X143863042Y-88835091D01*
X143850939Y-88827313D01*
X143762094Y-88762763D01*
X143762093Y-88762762D01*
X143756752Y-88758882D01*
X143750724Y-88756198D01*
X143750722Y-88756197D01*
X143588319Y-88683891D01*
X143588318Y-88683891D01*
X143582288Y-88681206D01*
X143488887Y-88661353D01*
X143401944Y-88642872D01*
X143401939Y-88642872D01*
X143395487Y-88641500D01*
X143204513Y-88641500D01*
X143198061Y-88642872D01*
X143198056Y-88642872D01*
X143111112Y-88661353D01*
X143017712Y-88681206D01*
X143011682Y-88683891D01*
X143011681Y-88683891D01*
X142849278Y-88756197D01*
X142849276Y-88756198D01*
X142843248Y-88758882D01*
X142837907Y-88762762D01*
X142837906Y-88762763D01*
X142749061Y-88827313D01*
X142682193Y-88851172D01*
X142613042Y-88835091D01*
X142600939Y-88827313D01*
X142512094Y-88762763D01*
X142512093Y-88762762D01*
X142506752Y-88758882D01*
X142500724Y-88756198D01*
X142500722Y-88756197D01*
X142338319Y-88683891D01*
X142338318Y-88683891D01*
X142332288Y-88681206D01*
X142238887Y-88661353D01*
X142151944Y-88642872D01*
X142151939Y-88642872D01*
X142145487Y-88641500D01*
X141954513Y-88641500D01*
X141948061Y-88642872D01*
X141948056Y-88642872D01*
X141861112Y-88661353D01*
X141767712Y-88681206D01*
X141761682Y-88683891D01*
X141761681Y-88683891D01*
X141599278Y-88756197D01*
X141599276Y-88756198D01*
X141593248Y-88758882D01*
X141438747Y-88871134D01*
X141434326Y-88876044D01*
X141434325Y-88876045D01*
X141317682Y-89005591D01*
X141310960Y-89013056D01*
X141256153Y-89107985D01*
X141223132Y-89165179D01*
X141215473Y-89178444D01*
X141156458Y-89360072D01*
X141141500Y-89502390D01*
X141141500Y-90097610D01*
X136857857Y-90097610D01*
X136900200Y-90011556D01*
X136903018Y-90005829D01*
X136916478Y-89954155D01*
X136950492Y-89823575D01*
X136950492Y-89823572D01*
X136952102Y-89817393D01*
X136962293Y-89622936D01*
X136933175Y-89430401D01*
X136930972Y-89424415D01*
X136930971Y-89424409D01*
X136868140Y-89253640D01*
X136868138Y-89253635D01*
X136865937Y-89247654D01*
X136796143Y-89135088D01*
X136766688Y-89087582D01*
X136766687Y-89087581D01*
X136763326Y-89082160D01*
X136629534Y-88940678D01*
X136594899Y-88916426D01*
X136501706Y-88851172D01*
X136470025Y-88828989D01*
X136389473Y-88794131D01*
X136297175Y-88754190D01*
X136297171Y-88754189D01*
X136291316Y-88751655D01*
X136285069Y-88750350D01*
X136285066Y-88750349D01*
X136105443Y-88712824D01*
X136105438Y-88712823D01*
X136100707Y-88711835D01*
X136094315Y-88711500D01*
X135951337Y-88711500D01*
X135882049Y-88718538D01*
X135812622Y-88725590D01*
X135812621Y-88725590D01*
X135806273Y-88726235D01*
X135755194Y-88742242D01*
X135626549Y-88782556D01*
X135626544Y-88782558D01*
X135620459Y-88784465D01*
X135591382Y-88800583D01*
X135455729Y-88875777D01*
X135455726Y-88875779D01*
X135450150Y-88878870D01*
X135445309Y-88883019D01*
X135445305Y-88883022D01*
X135382311Y-88937015D01*
X135302302Y-89005591D01*
X135298391Y-89010633D01*
X135298390Y-89010634D01*
X135292076Y-89018774D01*
X135182954Y-89159453D01*
X135180138Y-89165176D01*
X135180136Y-89165179D01*
X135136608Y-89253640D01*
X135096982Y-89334171D01*
X135095373Y-89340349D01*
X135095372Y-89340351D01*
X135073477Y-89424409D01*
X135047898Y-89522607D01*
X135037707Y-89717064D01*
X133957360Y-89717064D01*
X133962293Y-89622936D01*
X133933175Y-89430401D01*
X133930972Y-89424415D01*
X133930971Y-89424409D01*
X133868140Y-89253640D01*
X133868138Y-89253635D01*
X133865937Y-89247654D01*
X133796143Y-89135088D01*
X133766688Y-89087582D01*
X133766687Y-89087581D01*
X133763326Y-89082160D01*
X133629534Y-88940678D01*
X133594899Y-88916426D01*
X133501706Y-88851172D01*
X133470025Y-88828989D01*
X133389473Y-88794131D01*
X133297175Y-88754190D01*
X133297171Y-88754189D01*
X133291316Y-88751655D01*
X133285069Y-88750350D01*
X133285066Y-88750349D01*
X133105443Y-88712824D01*
X133105438Y-88712823D01*
X133100707Y-88711835D01*
X133094315Y-88711500D01*
X132951337Y-88711500D01*
X132882049Y-88718538D01*
X132812622Y-88725590D01*
X132812621Y-88725590D01*
X132806273Y-88726235D01*
X132755194Y-88742242D01*
X132626549Y-88782556D01*
X132626544Y-88782558D01*
X132620459Y-88784465D01*
X132591382Y-88800583D01*
X132455729Y-88875777D01*
X132455726Y-88875779D01*
X132450150Y-88878870D01*
X132445309Y-88883019D01*
X132445305Y-88883022D01*
X132382311Y-88937015D01*
X132302302Y-89005591D01*
X132298391Y-89010633D01*
X132298390Y-89010634D01*
X132292076Y-89018774D01*
X132182954Y-89159453D01*
X132180138Y-89165176D01*
X132180136Y-89165179D01*
X132136608Y-89253640D01*
X132096982Y-89334171D01*
X132095373Y-89340349D01*
X132095372Y-89340351D01*
X132073477Y-89424409D01*
X132047898Y-89522607D01*
X132037707Y-89717064D01*
X129350781Y-89717064D01*
X129400173Y-89541932D01*
X129400689Y-89539189D01*
X129478811Y-89123754D01*
X129478813Y-89123742D01*
X129479327Y-89121007D01*
X129520750Y-88694711D01*
X129522194Y-88639580D01*
X129527289Y-88445034D01*
X129527289Y-88445020D01*
X129527347Y-88442800D01*
X129508291Y-88014921D01*
X129504644Y-87987764D01*
X129489256Y-87873204D01*
X129451275Y-87590430D01*
X129448541Y-87578344D01*
X129357368Y-87175418D01*
X129357368Y-87175417D01*
X129356750Y-87172687D01*
X129225463Y-86765002D01*
X129058456Y-86370601D01*
X128857050Y-85992607D01*
X128785257Y-85882686D01*
X128624381Y-85636373D01*
X128624378Y-85636369D01*
X128622840Y-85634014D01*
X128357680Y-85297660D01*
X128063670Y-84986209D01*
X128061579Y-84984356D01*
X128061571Y-84984348D01*
X127745237Y-84703988D01*
X127745235Y-84703986D01*
X127743137Y-84702127D01*
X127398621Y-84447663D01*
X127205733Y-84330155D01*
X127035237Y-84226287D01*
X127035230Y-84226283D01*
X127032848Y-84224832D01*
X126915514Y-84166969D01*
X126651228Y-84036638D01*
X126648714Y-84035398D01*
X126249262Y-83880862D01*
X126002678Y-83809922D01*
X125840335Y-83763217D01*
X125840329Y-83763215D01*
X125837654Y-83762446D01*
X125834917Y-83761917D01*
X125834911Y-83761915D01*
X125689828Y-83733846D01*
X125417148Y-83681089D01*
X125414374Y-83680805D01*
X125414362Y-83680803D01*
X125204917Y-83659344D01*
X125139190Y-83632503D01*
X125098408Y-83574388D01*
X125095520Y-83503450D01*
X125131442Y-83442211D01*
X125194769Y-83410115D01*
X125217760Y-83408000D01*
X163532268Y-83408000D01*
X163600389Y-83428002D01*
G37*
%TD.AperFunction*%
%TD*%
M02*
