%TF.GenerationSoftware,KiCad,Pcbnew,(6.0.1)*%
%TF.CreationDate,2022-05-18T16:29:04+06:30*%
%TF.ProjectId,STM32_USB_Buck,53544d33-325f-4555-9342-5f4275636b2e,v1.0*%
%TF.SameCoordinates,Original*%
%TF.FileFunction,Copper,L4,Bot*%
%TF.FilePolarity,Positive*%
%FSLAX46Y46*%
G04 Gerber Fmt 4.6, Leading zero omitted, Abs format (unit mm)*
G04 Created by KiCad (PCBNEW (6.0.1)) date 2022-05-18 16:29:04*
%MOMM*%
%LPD*%
G01*
G04 APERTURE LIST*
G04 Aperture macros list*
%AMRoundRect*
0 Rectangle with rounded corners*
0 $1 Rounding radius*
0 $2 $3 $4 $5 $6 $7 $8 $9 X,Y pos of 4 corners*
0 Add a 4 corners polygon primitive as box body*
4,1,4,$2,$3,$4,$5,$6,$7,$8,$9,$2,$3,0*
0 Add four circle primitives for the rounded corners*
1,1,$1+$1,$2,$3*
1,1,$1+$1,$4,$5*
1,1,$1+$1,$6,$7*
1,1,$1+$1,$8,$9*
0 Add four rect primitives between the rounded corners*
20,1,$1+$1,$2,$3,$4,$5,0*
20,1,$1+$1,$4,$5,$6,$7,0*
20,1,$1+$1,$6,$7,$8,$9,0*
20,1,$1+$1,$8,$9,$2,$3,0*%
G04 Aperture macros list end*
%TA.AperFunction,ComponentPad*%
%ADD10C,0.900000*%
%TD*%
%TA.AperFunction,ComponentPad*%
%ADD11C,8.600000*%
%TD*%
%TA.AperFunction,ComponentPad*%
%ADD12RoundRect,0.200000X-0.200000X-0.450000X0.200000X-0.450000X0.200000X0.450000X-0.200000X0.450000X0*%
%TD*%
%TA.AperFunction,ComponentPad*%
%ADD13O,0.800000X1.300000*%
%TD*%
%TA.AperFunction,ComponentPad*%
%ADD14RoundRect,0.200000X0.200000X0.450000X-0.200000X0.450000X-0.200000X-0.450000X0.200000X-0.450000X0*%
%TD*%
%TA.AperFunction,ComponentPad*%
%ADD15R,2.400000X2.400000*%
%TD*%
%TA.AperFunction,ComponentPad*%
%ADD16C,2.400000*%
%TD*%
%TA.AperFunction,ComponentPad*%
%ADD17O,1.800000X1.150000*%
%TD*%
%TA.AperFunction,ComponentPad*%
%ADD18O,2.000000X1.450000*%
%TD*%
%TA.AperFunction,ViaPad*%
%ADD19C,0.800000*%
%TD*%
%TA.AperFunction,Conductor*%
%ADD20C,0.300000*%
%TD*%
G04 APERTURE END LIST*
D10*
%TO.P,H1,1,1*%
%TO.N,GND*%
X166339019Y-90723219D03*
X161778181Y-86162381D03*
X161778181Y-90723219D03*
X167283600Y-88442800D03*
D11*
X164058600Y-88442800D03*
D10*
X164058600Y-85217800D03*
X164058600Y-91667800D03*
X160833600Y-88442800D03*
X166339019Y-86162381D03*
%TD*%
%TO.P,H3,1,1*%
%TO.N,GND*%
X166339019Y-120655581D03*
X164058600Y-119711000D03*
X161778181Y-120655581D03*
D11*
X164058600Y-122936000D03*
D10*
X160833600Y-122936000D03*
X167283600Y-122936000D03*
X166339019Y-125216419D03*
X164058600Y-126161000D03*
X161778181Y-125216419D03*
%TD*%
D12*
%TO.P,J3,1,Pin_1*%
%TO.N,+3V3*%
X133325000Y-121150000D03*
D13*
%TO.P,J3,2,Pin_2*%
%TO.N,USART3_TX*%
X134575000Y-121150000D03*
%TO.P,J3,3,Pin_3*%
%TO.N,USART3_RX*%
X135825000Y-121150000D03*
%TO.P,J3,4,Pin_4*%
%TO.N,GND*%
X137075000Y-121150000D03*
%TD*%
D14*
%TO.P,J2,1,Pin_1*%
%TO.N,+3V3*%
X145800000Y-89800000D03*
D13*
%TO.P,J2,2,Pin_2*%
%TO.N,I2C1_SCL*%
X144550000Y-89800000D03*
%TO.P,J2,3,Pin_3*%
%TO.N,I2C1_SDA*%
X143300000Y-89800000D03*
%TO.P,J2,4,Pin_4*%
%TO.N,GND*%
X142050000Y-89800000D03*
%TD*%
D11*
%TO.P,H2,1,1*%
%TO.N,GND*%
X124714000Y-122936000D03*
D10*
X124714000Y-126161000D03*
X124714000Y-119711000D03*
X126994419Y-120655581D03*
X121489000Y-122936000D03*
X126994419Y-125216419D03*
X127939000Y-122936000D03*
X122433581Y-120655581D03*
X122433581Y-125216419D03*
%TD*%
D15*
%TO.P,J5,1,Pin_1*%
%TO.N,+12V*%
X165035000Y-111960600D03*
D16*
%TO.P,J5,2,Pin_2*%
%TO.N,GND*%
X165035000Y-108460600D03*
%TD*%
D17*
%TO.P,J4,6,Shield*%
%TO.N,unconnected-(J4-Pad6)*%
X168300000Y-94925000D03*
X168300000Y-102675000D03*
D18*
X164500000Y-102525000D03*
X164500000Y-95075000D03*
%TD*%
D10*
%TO.P,H4,1,1*%
%TO.N,GND*%
X122433581Y-86162381D03*
X124714000Y-91667800D03*
X126994419Y-90723219D03*
X124714000Y-85217800D03*
X126994419Y-86162381D03*
D11*
X124714000Y-88442800D03*
D10*
X121489000Y-88442800D03*
X122433581Y-90723219D03*
X127939000Y-88442800D03*
%TD*%
D19*
%TO.N,+3V3*%
X152225000Y-118100000D03*
X148325000Y-118100000D03*
X145825000Y-109450000D03*
X131875000Y-96600000D03*
X153100000Y-118125000D03*
X141900000Y-98800000D03*
X144900000Y-117900000D03*
X143975000Y-117875000D03*
X136750000Y-92725000D03*
X141478000Y-110125000D03*
X145825000Y-91000000D03*
X148325000Y-115125000D03*
X149325000Y-118100000D03*
X151175000Y-95200000D03*
X144650000Y-115650000D03*
X127750000Y-98050000D03*
X146800000Y-110325000D03*
X141200000Y-115000000D03*
X146125000Y-87625000D03*
X142300000Y-88325000D03*
X127350000Y-109100000D03*
X141775000Y-112775000D03*
X129300000Y-100500000D03*
X127325000Y-108250000D03*
X140475000Y-113825000D03*
X134925000Y-110825000D03*
X149300000Y-115100000D03*
%TO.N,GND*%
X145375000Y-98775000D03*
X165875000Y-97550000D03*
X159200000Y-113075000D03*
X130850000Y-98300000D03*
X152475000Y-95200000D03*
X159425000Y-97125000D03*
X160675000Y-116050000D03*
X156225000Y-95200000D03*
X148450000Y-104750000D03*
X133425000Y-107775000D03*
X128975000Y-104750000D03*
X127750000Y-101450000D03*
X161625000Y-117125000D03*
X133450000Y-99550000D03*
X157650000Y-111250000D03*
X125675000Y-106850000D03*
X130125000Y-98775000D03*
X132350000Y-105200000D03*
X160850000Y-113050000D03*
X142748000Y-117856000D03*
X124950000Y-106300000D03*
X153800000Y-95225000D03*
X144400000Y-97825000D03*
X126175000Y-98200000D03*
X163200000Y-97550000D03*
X141732000Y-117856000D03*
X160825000Y-112175000D03*
X157775000Y-106250000D03*
X143350000Y-109350000D03*
X149350000Y-105700000D03*
X158000000Y-114400000D03*
X127750000Y-102275000D03*
X158600000Y-106800000D03*
X129275000Y-107775000D03*
X160650000Y-118150000D03*
%TO.N,Net-(J1-Pad4)*%
X149275000Y-91600000D03*
X152075000Y-91300000D03*
%TO.N,NRST*%
X139500000Y-101350000D03*
X146500000Y-99600000D03*
%TD*%
D20*
%TO.N,Net-(J1-Pad4)*%
X149275000Y-91600000D02*
X149575000Y-91300000D01*
X149575000Y-91300000D02*
X152075000Y-91300000D01*
%TO.N,NRST*%
X146500000Y-99600000D02*
X144750000Y-101350000D01*
X144750000Y-101350000D02*
X139500000Y-101350000D01*
%TD*%
M02*
