%TF.GenerationSoftware,KiCad,Pcbnew,(6.0.1)*%
%TF.CreationDate,2022-02-08T00:13:08+06:30*%
%TF.ProjectId,soft power  latch v1.0,736f6674-2070-46f7-9765-7220206c6174,rev?*%
%TF.SameCoordinates,Original*%
%TF.FileFunction,Copper,L2,Bot*%
%TF.FilePolarity,Positive*%
%FSLAX46Y46*%
G04 Gerber Fmt 4.6, Leading zero omitted, Abs format (unit mm)*
G04 Created by KiCad (PCBNEW (6.0.1)) date 2022-02-08 00:13:08*
%MOMM*%
%LPD*%
G01*
G04 APERTURE LIST*
G04 Aperture macros list*
%AMRoundRect*
0 Rectangle with rounded corners*
0 $1 Rounding radius*
0 $2 $3 $4 $5 $6 $7 $8 $9 X,Y pos of 4 corners*
0 Add a 4 corners polygon primitive as box body*
4,1,4,$2,$3,$4,$5,$6,$7,$8,$9,$2,$3,0*
0 Add four circle primitives for the rounded corners*
1,1,$1+$1,$2,$3*
1,1,$1+$1,$4,$5*
1,1,$1+$1,$6,$7*
1,1,$1+$1,$8,$9*
0 Add four rect primitives between the rounded corners*
20,1,$1+$1,$2,$3,$4,$5,0*
20,1,$1+$1,$4,$5,$6,$7,0*
20,1,$1+$1,$6,$7,$8,$9,0*
20,1,$1+$1,$8,$9,$2,$3,0*%
G04 Aperture macros list end*
%TA.AperFunction,ComponentPad*%
%ADD10RoundRect,0.250001X-0.899999X0.899999X-0.899999X-0.899999X0.899999X-0.899999X0.899999X0.899999X0*%
%TD*%
%TA.AperFunction,ComponentPad*%
%ADD11C,2.300000*%
%TD*%
%TA.AperFunction,ComponentPad*%
%ADD12C,1.600000*%
%TD*%
%TA.AperFunction,ComponentPad*%
%ADD13C,2.400000*%
%TD*%
%TA.AperFunction,ComponentPad*%
%ADD14O,2.400000X2.400000*%
%TD*%
%TA.AperFunction,ComponentPad*%
%ADD15R,2.000000X2.000000*%
%TD*%
%TA.AperFunction,ComponentPad*%
%ADD16C,2.000000*%
%TD*%
%TA.AperFunction,ComponentPad*%
%ADD17R,1.050000X1.500000*%
%TD*%
%TA.AperFunction,ComponentPad*%
%ADD18O,1.050000X1.500000*%
%TD*%
%TA.AperFunction,ComponentPad*%
%ADD19R,1.500000X1.050000*%
%TD*%
%TA.AperFunction,ComponentPad*%
%ADD20O,1.500000X1.050000*%
%TD*%
%TA.AperFunction,ComponentPad*%
%ADD21R,2.100000X2.100000*%
%TD*%
%TA.AperFunction,ComponentPad*%
%ADD22C,2.100000*%
%TD*%
%TA.AperFunction,Conductor*%
%ADD23C,0.250000*%
%TD*%
%TA.AperFunction,Conductor*%
%ADD24C,2.000000*%
%TD*%
%TA.AperFunction,Conductor*%
%ADD25C,1.500000*%
%TD*%
G04 APERTURE END LIST*
D10*
%TO.P,J2,1,Pin_1*%
%TO.N,/Power_out*%
X176530000Y-119380000D03*
D11*
%TO.P,J2,2,Pin_2*%
%TO.N,GND*%
X176530000Y-124180000D03*
%TD*%
D12*
%TO.P,C2,1*%
%TO.N,/Power_out*%
X168910000Y-119420000D03*
%TO.P,C2,2*%
%TO.N,GND*%
X168910000Y-124420000D03*
%TD*%
D13*
%TO.P,R4,1*%
%TO.N,/Power_out*%
X133350000Y-124460000D03*
D14*
%TO.P,R4,2*%
%TO.N,Net-(C1-Pad1)*%
X148590000Y-124460000D03*
%TD*%
D13*
%TO.P,R5,1*%
%TO.N,/Power_out*%
X125730000Y-110490000D03*
D14*
%TO.P,R5,2*%
%TO.N,GND*%
X125730000Y-125730000D03*
%TD*%
D13*
%TO.P,R1,1*%
%TO.N,VCC*%
X140970000Y-104140000D03*
D14*
%TO.P,R1,2*%
%TO.N,Net-(Q1-Pad1)*%
X156210000Y-104140000D03*
%TD*%
D13*
%TO.P,R2,1*%
%TO.N,/Power_out*%
X133350000Y-111760000D03*
D14*
%TO.P,R2,2*%
%TO.N,Net-(Q1-Pad2)*%
X148590000Y-111760000D03*
%TD*%
D10*
%TO.P,J1,1,Pin_1*%
%TO.N,VCC*%
X118110000Y-106820000D03*
D11*
%TO.P,J1,2,Pin_2*%
%TO.N,GND*%
X118110000Y-111620000D03*
%TD*%
D13*
%TO.P,SW1,1*%
%TO.N,Net-(Q1-Pad2)*%
X163160000Y-106570000D03*
%TO.P,SW1,2*%
%TO.N,Net-(Q2-Pad1)*%
X163160000Y-111870000D03*
%TD*%
D15*
%TO.P,C1,1*%
%TO.N,Net-(C1-Pad1)*%
X156210000Y-124632323D03*
D16*
%TO.P,C1,2*%
%TO.N,GND*%
X156210000Y-129632323D03*
%TD*%
D13*
%TO.P,R3,1*%
%TO.N,VCC*%
X133350000Y-118110000D03*
D14*
%TO.P,R3,2*%
%TO.N,Net-(Q2-Pad1)*%
X148590000Y-118110000D03*
%TD*%
D17*
%TO.P,Q1,1,E*%
%TO.N,Net-(Q1-Pad1)*%
X154940000Y-110490000D03*
D18*
%TO.P,Q1,2,B*%
%TO.N,Net-(Q1-Pad2)*%
X156210000Y-110490000D03*
%TO.P,Q1,3,C*%
%TO.N,GND*%
X157480000Y-110490000D03*
%TD*%
D19*
%TO.P,Q2,1,E*%
%TO.N,Net-(Q2-Pad1)*%
X156210000Y-116840000D03*
D20*
%TO.P,Q2,2,B*%
%TO.N,Net-(C1-Pad1)*%
X156210000Y-118110000D03*
%TO.P,Q2,3,C*%
%TO.N,GND*%
X156210000Y-119380000D03*
%TD*%
D21*
%TO.P,Q3,1*%
%TO.N,Net-(Q1-Pad1)*%
X134620000Y-104140000D03*
D22*
%TO.P,Q3,2*%
%TO.N,/Power_out*%
X132080000Y-104140000D03*
%TO.P,Q3,3*%
%TO.N,VCC*%
X129540000Y-104140000D03*
%TD*%
D23*
%TO.N,Net-(C1-Pad1)*%
X148590000Y-124460000D02*
X156037677Y-124460000D01*
X156037677Y-124460000D02*
X156210000Y-124632323D01*
X148590000Y-124460000D02*
X154940000Y-118110000D01*
X154940000Y-118110000D02*
X156210000Y-118110000D01*
%TO.N,GND*%
X160020000Y-118110000D02*
X160655000Y-117475000D01*
X163830000Y-109220000D02*
X164984511Y-110374511D01*
X160655000Y-117475000D02*
X158750000Y-119380000D01*
X179070000Y-121640000D02*
X179070000Y-116840000D01*
X176530000Y-124180000D02*
X179070000Y-121640000D01*
X169150000Y-124180000D02*
X168910000Y-124420000D01*
X176530000Y-124180000D02*
X169150000Y-124180000D01*
X125730000Y-125730000D02*
X134974520Y-134974520D01*
X118110000Y-118110000D02*
X125730000Y-125730000D01*
X163830000Y-114300000D02*
X160655000Y-117475000D01*
X164984511Y-113145489D02*
X163830000Y-114300000D01*
X157480000Y-110490000D02*
X158750000Y-109220000D01*
X134974520Y-134974520D02*
X165735480Y-134974520D01*
X175260000Y-113030000D02*
X165100000Y-113030000D01*
X158750000Y-109220000D02*
X163830000Y-109220000D01*
X179070000Y-116840000D02*
X175260000Y-113030000D01*
X158750000Y-119380000D02*
X156210000Y-119380000D01*
X160020000Y-125822323D02*
X160020000Y-118110000D01*
X164984511Y-110374511D02*
X164984511Y-113145489D01*
X165100000Y-113030000D02*
X163830000Y-114300000D01*
X165735480Y-134974520D02*
X176530000Y-124180000D01*
X118110000Y-111620000D02*
X118110000Y-118110000D01*
X156210000Y-129632323D02*
X160020000Y-125822323D01*
D24*
%TO.N,/Power_out*%
X162560000Y-129540000D02*
X158750000Y-133350000D01*
D25*
X137160000Y-115570000D02*
X137160000Y-123190000D01*
D24*
X162560000Y-125770000D02*
X162560000Y-129540000D01*
D25*
X137160000Y-123190000D02*
X135890000Y-124460000D01*
D24*
X153670000Y-133350000D02*
X148590000Y-128270000D01*
D25*
X125730000Y-110490000D02*
X132080000Y-110490000D01*
D24*
X168910000Y-119420000D02*
X162560000Y-125770000D01*
D25*
X135890000Y-124460000D02*
X133350000Y-124460000D01*
X132080000Y-110490000D02*
X132080000Y-104140000D01*
D24*
X148590000Y-128270000D02*
X139700000Y-128270000D01*
D25*
X133350000Y-111760000D02*
X132080000Y-110490000D01*
X133350000Y-111760000D02*
X137160000Y-115570000D01*
D24*
X168950000Y-119380000D02*
X168910000Y-119420000D01*
X139700000Y-128270000D02*
X135890000Y-124460000D01*
X176530000Y-119380000D02*
X168950000Y-119380000D01*
X158750000Y-133350000D02*
X153670000Y-133350000D01*
D25*
%TO.N,VCC*%
X118110000Y-106820000D02*
X120510000Y-106820000D01*
X129540000Y-102655076D02*
X130595076Y-101600000D01*
X121285000Y-106045000D02*
X123190000Y-104140000D01*
X120510000Y-106820000D02*
X121285000Y-106045000D01*
X129540000Y-104140000D02*
X129540000Y-102655076D01*
X125730000Y-118110000D02*
X121285000Y-113665000D01*
X123190000Y-104140000D02*
X129540000Y-104140000D01*
X138430000Y-101600000D02*
X140970000Y-104140000D01*
X121285000Y-113665000D02*
X121285000Y-106045000D01*
X130595076Y-101600000D02*
X138430000Y-101600000D01*
X133350000Y-118110000D02*
X125730000Y-118110000D01*
D23*
%TO.N,Net-(Q1-Pad1)*%
X154560480Y-108329520D02*
X154560480Y-110490000D01*
X138809520Y-108329520D02*
X154560480Y-108329520D01*
X134620000Y-104140000D02*
X138809520Y-108329520D01*
X154560480Y-105789520D02*
X154560480Y-108329520D01*
X156210000Y-104140000D02*
X154560480Y-105789520D01*
%TO.N,Net-(Q1-Pad2)*%
X156210000Y-111760000D02*
X156210000Y-110490000D01*
X148590000Y-111760000D02*
X149790000Y-112960000D01*
X156210000Y-109490000D02*
X159130000Y-106570000D01*
X149790000Y-112960000D02*
X155010000Y-112960000D01*
X155010000Y-112960000D02*
X156210000Y-111760000D01*
X159130000Y-106570000D02*
X163160000Y-106570000D01*
X156210000Y-110490000D02*
X156210000Y-109490000D01*
%TO.N,Net-(Q2-Pad1)*%
X149860000Y-116840000D02*
X148590000Y-118110000D01*
X163160000Y-111870000D02*
X158190000Y-116840000D01*
X158190000Y-116840000D02*
X156210000Y-116840000D01*
X156210000Y-116840000D02*
X149860000Y-116840000D01*
%TD*%
%TA.AperFunction,Conductor*%
%TO.N,GND*%
G36*
X179774121Y-98318002D02*
G01*
X179820614Y-98371658D01*
X179832000Y-98424000D01*
X179832000Y-135256000D01*
X179811998Y-135324121D01*
X179758342Y-135370614D01*
X179706000Y-135382000D01*
X114934000Y-135382000D01*
X114865879Y-135361998D01*
X114819386Y-135308342D01*
X114808000Y-135256000D01*
X114808000Y-126003460D01*
X124042852Y-126003460D01*
X124078593Y-126183143D01*
X124081082Y-126192118D01*
X124163708Y-126422250D01*
X124167505Y-126430778D01*
X124283234Y-126646160D01*
X124288245Y-126654027D01*
X124434550Y-126849953D01*
X124440656Y-126856977D01*
X124614316Y-127029127D01*
X124621398Y-127035176D01*
X124818586Y-127179760D01*
X124826505Y-127184708D01*
X125042877Y-127298547D01*
X125051451Y-127302275D01*
X125282282Y-127382885D01*
X125291291Y-127385299D01*
X125458201Y-127416988D01*
X125471261Y-127415704D01*
X125475506Y-127402360D01*
X125984000Y-127402360D01*
X125988171Y-127416565D01*
X126000933Y-127418620D01*
X126037487Y-127414617D01*
X126046649Y-127412919D01*
X126283107Y-127350665D01*
X126291926Y-127347628D01*
X126516584Y-127251107D01*
X126524856Y-127246800D01*
X126732777Y-127118135D01*
X126740317Y-127112657D01*
X126926943Y-126954668D01*
X126933593Y-126948132D01*
X127094813Y-126764295D01*
X127100420Y-126756854D01*
X127232700Y-126551202D01*
X127237147Y-126543011D01*
X127337572Y-126320076D01*
X127340767Y-126311298D01*
X127407135Y-126075973D01*
X127408993Y-126066844D01*
X127417246Y-126001969D01*
X127414958Y-125987708D01*
X127401938Y-125984000D01*
X126002115Y-125984000D01*
X125986876Y-125988475D01*
X125985671Y-125989865D01*
X125984000Y-125997548D01*
X125984000Y-127402360D01*
X125475506Y-127402360D01*
X125476000Y-127400808D01*
X125476000Y-126002115D01*
X125471525Y-125986876D01*
X125470135Y-125985671D01*
X125462452Y-125984000D01*
X124057096Y-125984000D01*
X124044695Y-125987641D01*
X124042852Y-126003460D01*
X114808000Y-126003460D01*
X114808000Y-125457976D01*
X124040675Y-125457976D01*
X124043435Y-125472703D01*
X124055614Y-125476000D01*
X125457885Y-125476000D01*
X125473124Y-125471525D01*
X125474329Y-125470135D01*
X125476000Y-125462452D01*
X125476000Y-125457885D01*
X125984000Y-125457885D01*
X125988475Y-125473124D01*
X125989865Y-125474329D01*
X125997548Y-125476000D01*
X127405671Y-125476000D01*
X127419202Y-125472027D01*
X127420634Y-125462068D01*
X127368979Y-125233786D01*
X127366255Y-125224875D01*
X127277633Y-124996983D01*
X127273619Y-124988567D01*
X127152286Y-124776281D01*
X127147070Y-124768548D01*
X126995692Y-124576525D01*
X126989399Y-124569657D01*
X126811294Y-124402112D01*
X126804060Y-124396254D01*
X126603141Y-124256872D01*
X126595115Y-124252144D01*
X126375810Y-124143995D01*
X126367177Y-124140507D01*
X126134288Y-124065958D01*
X126125238Y-124063785D01*
X126001880Y-124043696D01*
X125988286Y-124045393D01*
X125984000Y-124059500D01*
X125984000Y-125457885D01*
X125476000Y-125457885D01*
X125476000Y-124058859D01*
X125471982Y-124045175D01*
X125458290Y-124043154D01*
X125378521Y-124054010D01*
X125369403Y-124055948D01*
X125134668Y-124124367D01*
X125125915Y-124127639D01*
X124903869Y-124230004D01*
X124895714Y-124234524D01*
X124691233Y-124368587D01*
X124683828Y-124374270D01*
X124501413Y-124537082D01*
X124494935Y-124543790D01*
X124338584Y-124731781D01*
X124333163Y-124739381D01*
X124206322Y-124948409D01*
X124202084Y-124956726D01*
X124107529Y-125182214D01*
X124104572Y-125191052D01*
X124044382Y-125428048D01*
X124042764Y-125437228D01*
X124040675Y-125457976D01*
X114808000Y-125457976D01*
X114808000Y-112962204D01*
X117133151Y-112962204D01*
X117137720Y-112968735D01*
X117350736Y-113099271D01*
X117359530Y-113103752D01*
X117591492Y-113199834D01*
X117600877Y-113202883D01*
X117845017Y-113261496D01*
X117854764Y-113263039D01*
X118105070Y-113282739D01*
X118114930Y-113282739D01*
X118365236Y-113263039D01*
X118374983Y-113261496D01*
X118619123Y-113202883D01*
X118628508Y-113199834D01*
X118860470Y-113103752D01*
X118869264Y-113099271D01*
X119080875Y-112969596D01*
X119086922Y-112960330D01*
X119080915Y-112950125D01*
X118122812Y-111992022D01*
X118108868Y-111984408D01*
X118107035Y-111984539D01*
X118100420Y-111988790D01*
X117140544Y-112948666D01*
X117133151Y-112962204D01*
X114808000Y-112962204D01*
X114808000Y-111624930D01*
X116447261Y-111624930D01*
X116466961Y-111875236D01*
X116468504Y-111884983D01*
X116527117Y-112129123D01*
X116530166Y-112138508D01*
X116626248Y-112370470D01*
X116630729Y-112379264D01*
X116760404Y-112590875D01*
X116769670Y-112596922D01*
X116779875Y-112590915D01*
X117737978Y-111632812D01*
X117744356Y-111621132D01*
X118474408Y-111621132D01*
X118474539Y-111622965D01*
X118478790Y-111629580D01*
X119438666Y-112589456D01*
X119452204Y-112596849D01*
X119458735Y-112592280D01*
X119589271Y-112379264D01*
X119593752Y-112370470D01*
X119689834Y-112138508D01*
X119692883Y-112129123D01*
X119751496Y-111884983D01*
X119753039Y-111875236D01*
X119772739Y-111624930D01*
X119772739Y-111615070D01*
X119753039Y-111364764D01*
X119751496Y-111355017D01*
X119692883Y-111110877D01*
X119689834Y-111101492D01*
X119593752Y-110869530D01*
X119589271Y-110860736D01*
X119459596Y-110649125D01*
X119450330Y-110643078D01*
X119440125Y-110649085D01*
X118482022Y-111607188D01*
X118474408Y-111621132D01*
X117744356Y-111621132D01*
X117745592Y-111618868D01*
X117745461Y-111617035D01*
X117741210Y-111610420D01*
X116781334Y-110650544D01*
X116767796Y-110643151D01*
X116761265Y-110647720D01*
X116630729Y-110860736D01*
X116626248Y-110869530D01*
X116530166Y-111101492D01*
X116527117Y-111110877D01*
X116468504Y-111355017D01*
X116466961Y-111364764D01*
X116447261Y-111615070D01*
X116447261Y-111624930D01*
X114808000Y-111624930D01*
X114808000Y-110279670D01*
X117133078Y-110279670D01*
X117139085Y-110289875D01*
X118097188Y-111247978D01*
X118111132Y-111255592D01*
X118112965Y-111255461D01*
X118119580Y-111251210D01*
X119079456Y-110291334D01*
X119086849Y-110277796D01*
X119082280Y-110271265D01*
X118869264Y-110140729D01*
X118860470Y-110136248D01*
X118628508Y-110040166D01*
X118619123Y-110037117D01*
X118374983Y-109978504D01*
X118365236Y-109976961D01*
X118114930Y-109957261D01*
X118105070Y-109957261D01*
X117854764Y-109976961D01*
X117845017Y-109978504D01*
X117600877Y-110037117D01*
X117591492Y-110040166D01*
X117359530Y-110136248D01*
X117350736Y-110140729D01*
X117139125Y-110270404D01*
X117133078Y-110279670D01*
X114808000Y-110279670D01*
X114808000Y-107770400D01*
X116451500Y-107770400D01*
X116451837Y-107773646D01*
X116451837Y-107773650D01*
X116454056Y-107795031D01*
X116462474Y-107876165D01*
X116518450Y-108043945D01*
X116611522Y-108194348D01*
X116736697Y-108319305D01*
X116742927Y-108323145D01*
X116742928Y-108323146D01*
X116880090Y-108407694D01*
X116887262Y-108412115D01*
X116967005Y-108438564D01*
X117048611Y-108465632D01*
X117048613Y-108465632D01*
X117055139Y-108467797D01*
X117061975Y-108468497D01*
X117061978Y-108468498D01*
X117105031Y-108472909D01*
X117159600Y-108478500D01*
X119060400Y-108478500D01*
X119063646Y-108478163D01*
X119063650Y-108478163D01*
X119159307Y-108468238D01*
X119159311Y-108468237D01*
X119166165Y-108467526D01*
X119172701Y-108465345D01*
X119172703Y-108465345D01*
X119304805Y-108421272D01*
X119333945Y-108411550D01*
X119484348Y-108318478D01*
X119609305Y-108193303D01*
X119613144Y-108187075D01*
X119613148Y-108187070D01*
X119643159Y-108138383D01*
X119695931Y-108090890D01*
X119750418Y-108078500D01*
X119900500Y-108078500D01*
X119968621Y-108098502D01*
X120015114Y-108152158D01*
X120026500Y-108204500D01*
X120026500Y-113573604D01*
X120025422Y-113590051D01*
X120024347Y-113598220D01*
X120022521Y-113612086D01*
X120022786Y-113617698D01*
X120026360Y-113693488D01*
X120026500Y-113699424D01*
X120026500Y-113721999D01*
X120026750Y-113724796D01*
X120028819Y-113747988D01*
X120029178Y-113753248D01*
X120033104Y-113836488D01*
X120034354Y-113841947D01*
X120034355Y-113841952D01*
X120037108Y-113853970D01*
X120039789Y-113870899D01*
X120041383Y-113888762D01*
X120042865Y-113894178D01*
X120042865Y-113894180D01*
X120063370Y-113969133D01*
X120064656Y-113974251D01*
X120083258Y-114055470D01*
X120085460Y-114060632D01*
X120090294Y-114071967D01*
X120095927Y-114088142D01*
X120100663Y-114105451D01*
X120103079Y-114110516D01*
X120136539Y-114180667D01*
X120138710Y-114185476D01*
X120171397Y-114262109D01*
X120181251Y-114277110D01*
X120189654Y-114292025D01*
X120197378Y-114308218D01*
X120200648Y-114312769D01*
X120200650Y-114312772D01*
X120245999Y-114375881D01*
X120248989Y-114380232D01*
X120292196Y-114446010D01*
X120292202Y-114446018D01*
X120294735Y-114449874D01*
X120313257Y-114470662D01*
X120321490Y-114480939D01*
X120328471Y-114490654D01*
X120332498Y-114494556D01*
X120405255Y-114565063D01*
X120406665Y-114566452D01*
X124775475Y-118935263D01*
X124786342Y-118947653D01*
X124799877Y-118965292D01*
X124859794Y-119019812D01*
X124860174Y-119020158D01*
X124864469Y-119024257D01*
X124880410Y-119040198D01*
X124900436Y-119056942D01*
X124904391Y-119060392D01*
X124966036Y-119116485D01*
X124970790Y-119119467D01*
X124981230Y-119126016D01*
X124995090Y-119136085D01*
X125008853Y-119147593D01*
X125013734Y-119150377D01*
X125081218Y-119188869D01*
X125085748Y-119191579D01*
X125156344Y-119235864D01*
X125161548Y-119237956D01*
X125172983Y-119242553D01*
X125188413Y-119250012D01*
X125199119Y-119256119D01*
X125199128Y-119256123D01*
X125203993Y-119258898D01*
X125282538Y-119286712D01*
X125287450Y-119288568D01*
X125364783Y-119319656D01*
X125382361Y-119323296D01*
X125398854Y-119327902D01*
X125415759Y-119333888D01*
X125421293Y-119334794D01*
X125421296Y-119334795D01*
X125497977Y-119347352D01*
X125503149Y-119348311D01*
X125584767Y-119365213D01*
X125600398Y-119366114D01*
X125612563Y-119366816D01*
X125625669Y-119368263D01*
X125631914Y-119369286D01*
X125631921Y-119369287D01*
X125637457Y-119370193D01*
X125643071Y-119370105D01*
X125643073Y-119370105D01*
X125744230Y-119368516D01*
X125746209Y-119368500D01*
X132140753Y-119368500D01*
X132208874Y-119388502D01*
X132229459Y-119405017D01*
X132237307Y-119412797D01*
X132241069Y-119415555D01*
X132241072Y-119415558D01*
X132346764Y-119493054D01*
X132442094Y-119562953D01*
X132446229Y-119565129D01*
X132446233Y-119565131D01*
X132564289Y-119627243D01*
X132666827Y-119681191D01*
X132906568Y-119764912D01*
X133156050Y-119812278D01*
X133276532Y-119817011D01*
X133405125Y-119822064D01*
X133405130Y-119822064D01*
X133409793Y-119822247D01*
X133508774Y-119811407D01*
X133657569Y-119795112D01*
X133657575Y-119795111D01*
X133662222Y-119794602D01*
X133771680Y-119765784D01*
X133903273Y-119731138D01*
X133907793Y-119729948D01*
X134088956Y-119652115D01*
X134136807Y-119631557D01*
X134136810Y-119631555D01*
X134141110Y-119629708D01*
X134145090Y-119627245D01*
X134145094Y-119627243D01*
X134353064Y-119498547D01*
X134353066Y-119498545D01*
X134357047Y-119496082D01*
X134455428Y-119412797D01*
X134547289Y-119335031D01*
X134547291Y-119335029D01*
X134550862Y-119332006D01*
X134718295Y-119141084D01*
X134725052Y-119130580D01*
X134853141Y-118931442D01*
X134855669Y-118927512D01*
X134959967Y-118695980D01*
X135028896Y-118451575D01*
X135045788Y-118318798D01*
X135060545Y-118202798D01*
X135060545Y-118202792D01*
X135060943Y-118199667D01*
X135061839Y-118165471D01*
X135063208Y-118113160D01*
X135063291Y-118110000D01*
X135057854Y-118036836D01*
X135044818Y-117861411D01*
X135044817Y-117861407D01*
X135044472Y-117856759D01*
X135029757Y-117791725D01*
X134989459Y-117613639D01*
X134988428Y-117609082D01*
X134961307Y-117539341D01*
X134898084Y-117376762D01*
X134898083Y-117376760D01*
X134896391Y-117372409D01*
X134875866Y-117336498D01*
X134772702Y-117155997D01*
X134772700Y-117155995D01*
X134770383Y-117151940D01*
X134613171Y-116952517D01*
X134504129Y-116849941D01*
X134431610Y-116781722D01*
X134431608Y-116781720D01*
X134428209Y-116778523D01*
X134384483Y-116748189D01*
X134223393Y-116636437D01*
X134223390Y-116636435D01*
X134219561Y-116633779D01*
X134215384Y-116631719D01*
X134215377Y-116631715D01*
X133995996Y-116523528D01*
X133995992Y-116523527D01*
X133991810Y-116521464D01*
X133749960Y-116444047D01*
X133745355Y-116443297D01*
X133503935Y-116403980D01*
X133503934Y-116403980D01*
X133499323Y-116403229D01*
X133372365Y-116401567D01*
X133250083Y-116399966D01*
X133250080Y-116399966D01*
X133245406Y-116399905D01*
X132993787Y-116434149D01*
X132749993Y-116505208D01*
X132519380Y-116611522D01*
X132515471Y-116614085D01*
X132310928Y-116748189D01*
X132310923Y-116748193D01*
X132307015Y-116750755D01*
X132235489Y-116814595D01*
X132229990Y-116819503D01*
X132165850Y-116849941D01*
X132146089Y-116851500D01*
X126303478Y-116851500D01*
X126235357Y-116831498D01*
X126214383Y-116814595D01*
X122580405Y-113180617D01*
X122546379Y-113118305D01*
X122543500Y-113091522D01*
X122543500Y-106618477D01*
X122563502Y-106550356D01*
X122580405Y-106529382D01*
X123674382Y-105435405D01*
X123736694Y-105401379D01*
X123763477Y-105398500D01*
X128575366Y-105398500D01*
X128641200Y-105417067D01*
X128679663Y-105440637D01*
X128830268Y-105532927D01*
X128932051Y-105575087D01*
X129052335Y-105624911D01*
X129052337Y-105624912D01*
X129056908Y-105626805D01*
X129138173Y-105646315D01*
X129290630Y-105682917D01*
X129290636Y-105682918D01*
X129295443Y-105684072D01*
X129540000Y-105703319D01*
X129784557Y-105684072D01*
X129789364Y-105682918D01*
X129789370Y-105682917D01*
X129941827Y-105646315D01*
X130023092Y-105626805D01*
X130027663Y-105624912D01*
X130027665Y-105624911D01*
X130147949Y-105575087D01*
X130249732Y-105532927D01*
X130400337Y-105440637D01*
X130454670Y-105407342D01*
X130454673Y-105407340D01*
X130458896Y-105404752D01*
X130462846Y-105401379D01*
X130561810Y-105316854D01*
X130613670Y-105272562D01*
X130678459Y-105243531D01*
X130748659Y-105254136D01*
X130801981Y-105301010D01*
X130821500Y-105368373D01*
X130821500Y-109105500D01*
X130801498Y-109173621D01*
X130747842Y-109220114D01*
X130695500Y-109231500D01*
X126935737Y-109231500D01*
X126867616Y-109211498D01*
X126849404Y-109197275D01*
X126811610Y-109161722D01*
X126811607Y-109161720D01*
X126808209Y-109158523D01*
X126698549Y-109082449D01*
X126603393Y-109016437D01*
X126603390Y-109016435D01*
X126599561Y-109013779D01*
X126595384Y-109011719D01*
X126595377Y-109011715D01*
X126375996Y-108903528D01*
X126375992Y-108903527D01*
X126371810Y-108901464D01*
X126129960Y-108824047D01*
X126079566Y-108815840D01*
X125883935Y-108783980D01*
X125883934Y-108783980D01*
X125879323Y-108783229D01*
X125752364Y-108781567D01*
X125630083Y-108779966D01*
X125630080Y-108779966D01*
X125625406Y-108779905D01*
X125373787Y-108814149D01*
X125129993Y-108885208D01*
X125125740Y-108887168D01*
X125125739Y-108887169D01*
X125090254Y-108903528D01*
X124899380Y-108991522D01*
X124880688Y-109003777D01*
X124690928Y-109128189D01*
X124690923Y-109128193D01*
X124687015Y-109130755D01*
X124497562Y-109299848D01*
X124335183Y-109495087D01*
X124203447Y-109712182D01*
X124201638Y-109716496D01*
X124201637Y-109716498D01*
X124137580Y-109869258D01*
X124105246Y-109946365D01*
X124104095Y-109950897D01*
X124104094Y-109950900D01*
X124097084Y-109978504D01*
X124042738Y-110192490D01*
X124017296Y-110445151D01*
X124029480Y-110698798D01*
X124039638Y-110749865D01*
X124076799Y-110936685D01*
X124079021Y-110947857D01*
X124080600Y-110952255D01*
X124080602Y-110952262D01*
X124144168Y-111129308D01*
X124164831Y-111186858D01*
X124167048Y-111190984D01*
X124265192Y-111373639D01*
X124285025Y-111410551D01*
X124287820Y-111414294D01*
X124287822Y-111414297D01*
X124434171Y-111610282D01*
X124434176Y-111610288D01*
X124436963Y-111614020D01*
X124440272Y-111617300D01*
X124440277Y-111617306D01*
X124594515Y-111770203D01*
X124617307Y-111792797D01*
X124621069Y-111795555D01*
X124621072Y-111795558D01*
X124740132Y-111882856D01*
X124822094Y-111942953D01*
X124826229Y-111945129D01*
X124826233Y-111945131D01*
X124921133Y-111995060D01*
X125046827Y-112061191D01*
X125175350Y-112106073D01*
X125268230Y-112138508D01*
X125286568Y-112144912D01*
X125536050Y-112192278D01*
X125656532Y-112197011D01*
X125785125Y-112202064D01*
X125785130Y-112202064D01*
X125789793Y-112202247D01*
X125888774Y-112191407D01*
X126037569Y-112175112D01*
X126037575Y-112175111D01*
X126042222Y-112174602D01*
X126151680Y-112145784D01*
X126283273Y-112111138D01*
X126287793Y-112109948D01*
X126465004Y-112033813D01*
X126516807Y-112011557D01*
X126516810Y-112011555D01*
X126521110Y-112009708D01*
X126525090Y-112007245D01*
X126525094Y-112007243D01*
X126733074Y-111878541D01*
X126733078Y-111878538D01*
X126737047Y-111876082D01*
X126788255Y-111832731D01*
X126852513Y-111778333D01*
X126917429Y-111749584D01*
X126933925Y-111748500D01*
X131506523Y-111748500D01*
X131574644Y-111768502D01*
X131595618Y-111785405D01*
X131608520Y-111798307D01*
X131642546Y-111860619D01*
X131645280Y-111881354D01*
X131649480Y-111968798D01*
X131664533Y-112044473D01*
X131695880Y-112202064D01*
X131699021Y-112217857D01*
X131700600Y-112222255D01*
X131700602Y-112222262D01*
X131756972Y-112379264D01*
X131784831Y-112456858D01*
X131787048Y-112460984D01*
X131863378Y-112603041D01*
X131905025Y-112680551D01*
X131907820Y-112684294D01*
X131907822Y-112684297D01*
X132054171Y-112880282D01*
X132054176Y-112880288D01*
X132056963Y-112884020D01*
X132060272Y-112887300D01*
X132060277Y-112887306D01*
X132143289Y-112969596D01*
X132237307Y-113062797D01*
X132241069Y-113065555D01*
X132241072Y-113065558D01*
X132313010Y-113118305D01*
X132442094Y-113212953D01*
X132446229Y-113215129D01*
X132446233Y-113215131D01*
X132572706Y-113281671D01*
X132666827Y-113331191D01*
X132736950Y-113355679D01*
X132834395Y-113389708D01*
X132906568Y-113414912D01*
X132911161Y-113415784D01*
X133151461Y-113461407D01*
X133151464Y-113461407D01*
X133156050Y-113462278D01*
X133223290Y-113464920D01*
X133227977Y-113465104D01*
X133295260Y-113487765D01*
X133312125Y-113501912D01*
X135864595Y-116054382D01*
X135898621Y-116116694D01*
X135901500Y-116143477D01*
X135901500Y-122616522D01*
X135881498Y-122684643D01*
X135864595Y-122705617D01*
X135615736Y-122954476D01*
X135558827Y-122987201D01*
X135392192Y-123031227D01*
X135392186Y-123031229D01*
X135387304Y-123032519D01*
X135165544Y-123131254D01*
X135161311Y-123134024D01*
X135089628Y-123180932D01*
X135020635Y-123201500D01*
X134555737Y-123201500D01*
X134487616Y-123181498D01*
X134469404Y-123167275D01*
X134431610Y-123131722D01*
X134431607Y-123131720D01*
X134428209Y-123128523D01*
X134384483Y-123098189D01*
X134223393Y-122986437D01*
X134223390Y-122986435D01*
X134219561Y-122983779D01*
X134215384Y-122981719D01*
X134215377Y-122981715D01*
X133995996Y-122873528D01*
X133995992Y-122873527D01*
X133991810Y-122871464D01*
X133749960Y-122794047D01*
X133745355Y-122793297D01*
X133503935Y-122753980D01*
X133503934Y-122753980D01*
X133499323Y-122753229D01*
X133372365Y-122751567D01*
X133250083Y-122749966D01*
X133250080Y-122749966D01*
X133245406Y-122749905D01*
X132993787Y-122784149D01*
X132749993Y-122855208D01*
X132519380Y-122961522D01*
X132515471Y-122964085D01*
X132310928Y-123098189D01*
X132310923Y-123098193D01*
X132307015Y-123100755D01*
X132270493Y-123133352D01*
X132124472Y-123263681D01*
X132117562Y-123269848D01*
X131955183Y-123465087D01*
X131823447Y-123682182D01*
X131821638Y-123686496D01*
X131821637Y-123686498D01*
X131729481Y-123906266D01*
X131725246Y-123916365D01*
X131724095Y-123920897D01*
X131724094Y-123920900D01*
X131719556Y-123938770D01*
X131662738Y-124162490D01*
X131637296Y-124415151D01*
X131637520Y-124419817D01*
X131637520Y-124419822D01*
X131638729Y-124444983D01*
X131649480Y-124668798D01*
X131653523Y-124689123D01*
X131698020Y-124912824D01*
X131699021Y-124917857D01*
X131700600Y-124922255D01*
X131700602Y-124922262D01*
X131754188Y-125071511D01*
X131784831Y-125156858D01*
X131787048Y-125160984D01*
X131895364Y-125362570D01*
X131905025Y-125380551D01*
X131907820Y-125384294D01*
X131907822Y-125384297D01*
X132054171Y-125580282D01*
X132054176Y-125580288D01*
X132056963Y-125584020D01*
X132060272Y-125587300D01*
X132060277Y-125587306D01*
X132209047Y-125734783D01*
X132237307Y-125762797D01*
X132241069Y-125765555D01*
X132241072Y-125765558D01*
X132438323Y-125910188D01*
X132442094Y-125912953D01*
X132446229Y-125915129D01*
X132446233Y-125915131D01*
X132564289Y-125977243D01*
X132666827Y-126031191D01*
X132906568Y-126114912D01*
X133156050Y-126162278D01*
X133276532Y-126167011D01*
X133405125Y-126172064D01*
X133405130Y-126172064D01*
X133409793Y-126172247D01*
X133508774Y-126161407D01*
X133657569Y-126145112D01*
X133657575Y-126145111D01*
X133662222Y-126144602D01*
X133771680Y-126115784D01*
X133903273Y-126081138D01*
X133907793Y-126079948D01*
X134026353Y-126029011D01*
X134136807Y-125981557D01*
X134136810Y-125981555D01*
X134141110Y-125979708D01*
X134145090Y-125977245D01*
X134145094Y-125977243D01*
X134353074Y-125848541D01*
X134353078Y-125848538D01*
X134357047Y-125846082D01*
X134415718Y-125796413D01*
X134472513Y-125748333D01*
X134537429Y-125719584D01*
X134553925Y-125718500D01*
X134962969Y-125718500D01*
X135031090Y-125738502D01*
X135052064Y-125755405D01*
X138616325Y-129319666D01*
X138618779Y-129322188D01*
X138683735Y-129390877D01*
X138687332Y-129394681D01*
X138749757Y-129442408D01*
X138754892Y-129446552D01*
X138814720Y-129497470D01*
X138819045Y-129500089D01*
X138819050Y-129500093D01*
X138842824Y-129514491D01*
X138854071Y-129522163D01*
X138880174Y-129542120D01*
X138884632Y-129544510D01*
X138884633Y-129544511D01*
X138949401Y-129579239D01*
X138955126Y-129582504D01*
X139022358Y-129623221D01*
X139027047Y-129625116D01*
X139027054Y-129625119D01*
X139052828Y-129635533D01*
X139065164Y-129641312D01*
X139089649Y-129654440D01*
X139089653Y-129654442D01*
X139094109Y-129656831D01*
X139098891Y-129658478D01*
X139098892Y-129658478D01*
X139168381Y-129682405D01*
X139174551Y-129684711D01*
X139210461Y-129699220D01*
X139242743Y-129712263D01*
X139242746Y-129712264D01*
X139247429Y-129714156D01*
X139274191Y-129720236D01*
X139279471Y-129721436D01*
X139292575Y-129725169D01*
X139323631Y-129735862D01*
X139328611Y-129736722D01*
X139328622Y-129736725D01*
X139401065Y-129749238D01*
X139407533Y-129750530D01*
X139479212Y-129766815D01*
X139479221Y-129766816D01*
X139484145Y-129767935D01*
X139516951Y-129769999D01*
X139530455Y-129771586D01*
X139552683Y-129775425D01*
X139558933Y-129776505D01*
X139558936Y-129776505D01*
X139562836Y-129777179D01*
X139566793Y-129777359D01*
X139566796Y-129777359D01*
X139590506Y-129778436D01*
X139590525Y-129778436D01*
X139591925Y-129778500D01*
X139648108Y-129778500D01*
X139656019Y-129778749D01*
X139726413Y-129783178D01*
X139767993Y-129779101D01*
X139780289Y-129778500D01*
X147912969Y-129778500D01*
X147981090Y-129798502D01*
X148002064Y-129815405D01*
X152586325Y-134399666D01*
X152588779Y-134402188D01*
X152632060Y-134447956D01*
X152657332Y-134474681D01*
X152703601Y-134510056D01*
X152719757Y-134522408D01*
X152724892Y-134526552D01*
X152784720Y-134577470D01*
X152789045Y-134580089D01*
X152789050Y-134580093D01*
X152812824Y-134594491D01*
X152824071Y-134602163D01*
X152850174Y-134622120D01*
X152911255Y-134654871D01*
X152919401Y-134659239D01*
X152925126Y-134662504D01*
X152992358Y-134703221D01*
X153022817Y-134715527D01*
X153035158Y-134721307D01*
X153064109Y-134736831D01*
X153068890Y-134738477D01*
X153068894Y-134738479D01*
X153138401Y-134762412D01*
X153144579Y-134764722D01*
X153158962Y-134770533D01*
X153217429Y-134794155D01*
X153222369Y-134795277D01*
X153222368Y-134795277D01*
X153249460Y-134801432D01*
X153262559Y-134805163D01*
X153293631Y-134815862D01*
X153371100Y-134829243D01*
X153377504Y-134830523D01*
X153454144Y-134847935D01*
X153486953Y-134849999D01*
X153500453Y-134851585D01*
X153532836Y-134857179D01*
X153536793Y-134857359D01*
X153536796Y-134857359D01*
X153560506Y-134858436D01*
X153560525Y-134858436D01*
X153561925Y-134858500D01*
X153618108Y-134858500D01*
X153626019Y-134858749D01*
X153696413Y-134863178D01*
X153737992Y-134859101D01*
X153750288Y-134858500D01*
X158725984Y-134858500D01*
X158729502Y-134858549D01*
X158824150Y-134861193D01*
X158824153Y-134861193D01*
X158829205Y-134861334D01*
X158907098Y-134850941D01*
X158913639Y-134850242D01*
X158942332Y-134847933D01*
X158986923Y-134844346D01*
X158986927Y-134844345D01*
X158991965Y-134843940D01*
X159023878Y-134836101D01*
X159037258Y-134833574D01*
X159069820Y-134829229D01*
X159074661Y-134827768D01*
X159074663Y-134827767D01*
X159145029Y-134806522D01*
X159151392Y-134804781D01*
X159165027Y-134801432D01*
X159227706Y-134786037D01*
X159257952Y-134773199D01*
X159270763Y-134768561D01*
X159297362Y-134760530D01*
X159302208Y-134759067D01*
X159306756Y-134756849D01*
X159306763Y-134756846D01*
X159372818Y-134724629D01*
X159378820Y-134721893D01*
X159428978Y-134700602D01*
X159451156Y-134691188D01*
X159478956Y-134673681D01*
X159490860Y-134667055D01*
X159520388Y-134652654D01*
X159584600Y-134607357D01*
X159590086Y-134603699D01*
X159652286Y-134564529D01*
X159652287Y-134564528D01*
X159656567Y-134561833D01*
X159660356Y-134558492D01*
X159660362Y-134558488D01*
X159681217Y-134540102D01*
X159691912Y-134531656D01*
X159705022Y-134522408D01*
X159718747Y-134512726D01*
X159740250Y-134493091D01*
X159779966Y-134453375D01*
X159785736Y-134447956D01*
X159834858Y-134404650D01*
X159834861Y-134404647D01*
X159838655Y-134401302D01*
X159865179Y-134369011D01*
X159873449Y-134359892D01*
X163609666Y-130623675D01*
X163612188Y-130621221D01*
X163681012Y-130556138D01*
X163681014Y-130556135D01*
X163684681Y-130552668D01*
X163732411Y-130490239D01*
X163736552Y-130485108D01*
X163784191Y-130429133D01*
X163784192Y-130429132D01*
X163787470Y-130425280D01*
X163790089Y-130420955D01*
X163790093Y-130420950D01*
X163804491Y-130397176D01*
X163812163Y-130385929D01*
X163832120Y-130359826D01*
X163869243Y-130290592D01*
X163872507Y-130284868D01*
X163910601Y-130221968D01*
X163913221Y-130217642D01*
X163915116Y-130212953D01*
X163915119Y-130212946D01*
X163925533Y-130187172D01*
X163931312Y-130174836D01*
X163944440Y-130150351D01*
X163944442Y-130150347D01*
X163946831Y-130145891D01*
X163972405Y-130071619D01*
X163974715Y-130065439D01*
X164002263Y-129997257D01*
X164002264Y-129997254D01*
X164004156Y-129992571D01*
X164011436Y-129960529D01*
X164015169Y-129947425D01*
X164024216Y-129921149D01*
X164025862Y-129916369D01*
X164026722Y-129911389D01*
X164026725Y-129911378D01*
X164039238Y-129838935D01*
X164040530Y-129832467D01*
X164056815Y-129760788D01*
X164056816Y-129760779D01*
X164057935Y-129755855D01*
X164059999Y-129723049D01*
X164061586Y-129709545D01*
X164067179Y-129677164D01*
X164068028Y-129658478D01*
X164068436Y-129649494D01*
X164068436Y-129649475D01*
X164068500Y-129648075D01*
X164068500Y-129591892D01*
X164068749Y-129583980D01*
X164072860Y-129518641D01*
X164073178Y-129513587D01*
X164069101Y-129472006D01*
X164068500Y-129459711D01*
X164068500Y-126447031D01*
X164088502Y-126378910D01*
X164105405Y-126357936D01*
X164957279Y-125506062D01*
X168188493Y-125506062D01*
X168197789Y-125518077D01*
X168248994Y-125553931D01*
X168258489Y-125559414D01*
X168455947Y-125651490D01*
X168466239Y-125655236D01*
X168676688Y-125711625D01*
X168687481Y-125713528D01*
X168904525Y-125732517D01*
X168915475Y-125732517D01*
X169132519Y-125713528D01*
X169143312Y-125711625D01*
X169353761Y-125655236D01*
X169364053Y-125651490D01*
X169561511Y-125559414D01*
X169571006Y-125553931D01*
X169616317Y-125522204D01*
X175553151Y-125522204D01*
X175557720Y-125528735D01*
X175770736Y-125659271D01*
X175779530Y-125663752D01*
X176011492Y-125759834D01*
X176020877Y-125762883D01*
X176265017Y-125821496D01*
X176274764Y-125823039D01*
X176525070Y-125842739D01*
X176534930Y-125842739D01*
X176785236Y-125823039D01*
X176794983Y-125821496D01*
X177039123Y-125762883D01*
X177048508Y-125759834D01*
X177280470Y-125663752D01*
X177289264Y-125659271D01*
X177500875Y-125529596D01*
X177506922Y-125520330D01*
X177500915Y-125510125D01*
X176542812Y-124552022D01*
X176528868Y-124544408D01*
X176527035Y-124544539D01*
X176520420Y-124548790D01*
X175560544Y-125508666D01*
X175553151Y-125522204D01*
X169616317Y-125522204D01*
X169623048Y-125517491D01*
X169631424Y-125507012D01*
X169624356Y-125493566D01*
X168922812Y-124792022D01*
X168908868Y-124784408D01*
X168907035Y-124784539D01*
X168900420Y-124788790D01*
X168194923Y-125494287D01*
X168188493Y-125506062D01*
X164957279Y-125506062D01*
X166037866Y-124425475D01*
X167597483Y-124425475D01*
X167616472Y-124642519D01*
X167618375Y-124653312D01*
X167674764Y-124863761D01*
X167678510Y-124874053D01*
X167770586Y-125071511D01*
X167776069Y-125081006D01*
X167812509Y-125133048D01*
X167822988Y-125141424D01*
X167836434Y-125134356D01*
X168537978Y-124432812D01*
X168544356Y-124421132D01*
X169274408Y-124421132D01*
X169274539Y-124422965D01*
X169278790Y-124429580D01*
X169984287Y-125135077D01*
X169996062Y-125141507D01*
X170008077Y-125132211D01*
X170043931Y-125081006D01*
X170049414Y-125071511D01*
X170141490Y-124874053D01*
X170145236Y-124863761D01*
X170201625Y-124653312D01*
X170203528Y-124642519D01*
X170222517Y-124425475D01*
X170222517Y-124414525D01*
X170203528Y-124197481D01*
X170201625Y-124186688D01*
X170201154Y-124184930D01*
X174867261Y-124184930D01*
X174886961Y-124435236D01*
X174888504Y-124444983D01*
X174947117Y-124689123D01*
X174950166Y-124698508D01*
X175046248Y-124930470D01*
X175050729Y-124939264D01*
X175180404Y-125150875D01*
X175189670Y-125156922D01*
X175199875Y-125150915D01*
X176157978Y-124192812D01*
X176164356Y-124181132D01*
X176894408Y-124181132D01*
X176894539Y-124182965D01*
X176898790Y-124189580D01*
X177858666Y-125149456D01*
X177872204Y-125156849D01*
X177878735Y-125152280D01*
X178009271Y-124939264D01*
X178013752Y-124930470D01*
X178109834Y-124698508D01*
X178112883Y-124689123D01*
X178171496Y-124444983D01*
X178173039Y-124435236D01*
X178192739Y-124184930D01*
X178192739Y-124175070D01*
X178173039Y-123924764D01*
X178171496Y-123915017D01*
X178112883Y-123670877D01*
X178109834Y-123661492D01*
X178013752Y-123429530D01*
X178009271Y-123420736D01*
X177879596Y-123209125D01*
X177870330Y-123203078D01*
X177860125Y-123209085D01*
X176902022Y-124167188D01*
X176894408Y-124181132D01*
X176164356Y-124181132D01*
X176165592Y-124178868D01*
X176165461Y-124177035D01*
X176161210Y-124170420D01*
X175201334Y-123210544D01*
X175187796Y-123203151D01*
X175181265Y-123207720D01*
X175050729Y-123420736D01*
X175046248Y-123429530D01*
X174950166Y-123661492D01*
X174947117Y-123670877D01*
X174888504Y-123915017D01*
X174886961Y-123924764D01*
X174867261Y-124175070D01*
X174867261Y-124184930D01*
X170201154Y-124184930D01*
X170145236Y-123976239D01*
X170141490Y-123965947D01*
X170049414Y-123768489D01*
X170043931Y-123758994D01*
X170007491Y-123706952D01*
X169997012Y-123698576D01*
X169983566Y-123705644D01*
X169282022Y-124407188D01*
X169274408Y-124421132D01*
X168544356Y-124421132D01*
X168545592Y-124418868D01*
X168545461Y-124417035D01*
X168541210Y-124410420D01*
X167835713Y-123704923D01*
X167823938Y-123698493D01*
X167811923Y-123707789D01*
X167776069Y-123758994D01*
X167770586Y-123768489D01*
X167678510Y-123965947D01*
X167674764Y-123976239D01*
X167618375Y-124186688D01*
X167616472Y-124197481D01*
X167597483Y-124414525D01*
X167597483Y-124425475D01*
X166037866Y-124425475D01*
X167130353Y-123332988D01*
X168188576Y-123332988D01*
X168195644Y-123346434D01*
X168897188Y-124047978D01*
X168911132Y-124055592D01*
X168912965Y-124055461D01*
X168919580Y-124051210D01*
X169625077Y-123345713D01*
X169631507Y-123333938D01*
X169622211Y-123321923D01*
X169571006Y-123286069D01*
X169561511Y-123280586D01*
X169364053Y-123188510D01*
X169353761Y-123184764D01*
X169143312Y-123128375D01*
X169132519Y-123126472D01*
X168915475Y-123107483D01*
X168904525Y-123107483D01*
X168687481Y-123126472D01*
X168676688Y-123128375D01*
X168466239Y-123184764D01*
X168455947Y-123188510D01*
X168258489Y-123280586D01*
X168248994Y-123286069D01*
X168196952Y-123322509D01*
X168188576Y-123332988D01*
X167130353Y-123332988D01*
X167623671Y-122839670D01*
X175553078Y-122839670D01*
X175559085Y-122849875D01*
X176517188Y-123807978D01*
X176531132Y-123815592D01*
X176532965Y-123815461D01*
X176539580Y-123811210D01*
X177499456Y-122851334D01*
X177506849Y-122837796D01*
X177502280Y-122831265D01*
X177289264Y-122700729D01*
X177280470Y-122696248D01*
X177048508Y-122600166D01*
X177039123Y-122597117D01*
X176794983Y-122538504D01*
X176785236Y-122536961D01*
X176534930Y-122517261D01*
X176525070Y-122517261D01*
X176274764Y-122536961D01*
X176265017Y-122538504D01*
X176020877Y-122597117D01*
X176011492Y-122600166D01*
X175779530Y-122696248D01*
X175770736Y-122700729D01*
X175559125Y-122830404D01*
X175553078Y-122839670D01*
X167623671Y-122839670D01*
X169537936Y-120925405D01*
X169600248Y-120891379D01*
X169627031Y-120888500D01*
X175135900Y-120888500D01*
X175202016Y-120907240D01*
X175300090Y-120967694D01*
X175307262Y-120972115D01*
X175387005Y-120998564D01*
X175468611Y-121025632D01*
X175468613Y-121025632D01*
X175475139Y-121027797D01*
X175481975Y-121028497D01*
X175481978Y-121028498D01*
X175525031Y-121032909D01*
X175579600Y-121038500D01*
X177480400Y-121038500D01*
X177483646Y-121038163D01*
X177483650Y-121038163D01*
X177579307Y-121028238D01*
X177579311Y-121028237D01*
X177586165Y-121027526D01*
X177592701Y-121025345D01*
X177592703Y-121025345D01*
X177724805Y-120981272D01*
X177753945Y-120971550D01*
X177904348Y-120878478D01*
X178029305Y-120753303D01*
X178122115Y-120602738D01*
X178177797Y-120434861D01*
X178180496Y-120408525D01*
X178188172Y-120333598D01*
X178188500Y-120330400D01*
X178188500Y-118429600D01*
X178188163Y-118426350D01*
X178178238Y-118330693D01*
X178178237Y-118330689D01*
X178177526Y-118323835D01*
X178163584Y-118282044D01*
X178123868Y-118163003D01*
X178121550Y-118156055D01*
X178028478Y-118005652D01*
X177903303Y-117880695D01*
X177884017Y-117868807D01*
X177758968Y-117791725D01*
X177758966Y-117791724D01*
X177752738Y-117787885D01*
X177592254Y-117734655D01*
X177591389Y-117734368D01*
X177591387Y-117734368D01*
X177584861Y-117732203D01*
X177578025Y-117731503D01*
X177578022Y-117731502D01*
X177532899Y-117726879D01*
X177480400Y-117721500D01*
X175579600Y-117721500D01*
X175576354Y-117721837D01*
X175576350Y-117721837D01*
X175480693Y-117731762D01*
X175480689Y-117731763D01*
X175473835Y-117732474D01*
X175467299Y-117734655D01*
X175467297Y-117734655D01*
X175404629Y-117755563D01*
X175306055Y-117788450D01*
X175299834Y-117792299D01*
X175299831Y-117792301D01*
X175202315Y-117852645D01*
X175136013Y-117871500D01*
X168974016Y-117871500D01*
X168970498Y-117871451D01*
X168875851Y-117868807D01*
X168875848Y-117868807D01*
X168870795Y-117868666D01*
X168865782Y-117869335D01*
X168865779Y-117869335D01*
X168792911Y-117879057D01*
X168786354Y-117879758D01*
X168713080Y-117885654D01*
X168713079Y-117885654D01*
X168708035Y-117886060D01*
X168703124Y-117887266D01*
X168703119Y-117887267D01*
X168676139Y-117893894D01*
X168662750Y-117896424D01*
X168650315Y-117898083D01*
X168630180Y-117900770D01*
X168554949Y-117923484D01*
X168548604Y-117925220D01*
X168472294Y-117943963D01*
X168467642Y-117945938D01*
X168467638Y-117945939D01*
X168442052Y-117956800D01*
X168429239Y-117961438D01*
X168397792Y-117970932D01*
X168327138Y-118005392D01*
X168321204Y-118008097D01*
X168248844Y-118038812D01*
X168244564Y-118041507D01*
X168244553Y-118041513D01*
X168221047Y-118056316D01*
X168209140Y-118062944D01*
X168197087Y-118068823D01*
X168179612Y-118077346D01*
X168131749Y-118111110D01*
X168115403Y-118122641D01*
X168109914Y-118126301D01*
X168072561Y-118149824D01*
X168043433Y-118168167D01*
X168039644Y-118171508D01*
X168039638Y-118171512D01*
X168018783Y-118189898D01*
X168008088Y-118198344D01*
X167981253Y-118217274D01*
X167959750Y-118236909D01*
X167920034Y-118276625D01*
X167914264Y-118282044D01*
X167865142Y-118325350D01*
X167865139Y-118325353D01*
X167861345Y-118328698D01*
X167858135Y-118332606D01*
X167858134Y-118332607D01*
X167834821Y-118360989D01*
X167826551Y-118370108D01*
X161510334Y-124686325D01*
X161507812Y-124688779D01*
X161454302Y-124739381D01*
X161435319Y-124757332D01*
X161432252Y-124761344D01*
X161387592Y-124819757D01*
X161383448Y-124824892D01*
X161332530Y-124884720D01*
X161329911Y-124889045D01*
X161329907Y-124889050D01*
X161315509Y-124912824D01*
X161307837Y-124924071D01*
X161287880Y-124950174D01*
X161285490Y-124954632D01*
X161285489Y-124954633D01*
X161250761Y-125019401D01*
X161247496Y-125025126D01*
X161206779Y-125092358D01*
X161198094Y-125113855D01*
X161194473Y-125122817D01*
X161188693Y-125135158D01*
X161173169Y-125164109D01*
X161171523Y-125168890D01*
X161171521Y-125168894D01*
X161147588Y-125238401D01*
X161145278Y-125244579D01*
X161115845Y-125317429D01*
X161114723Y-125322368D01*
X161108568Y-125349460D01*
X161104837Y-125362559D01*
X161094138Y-125393631D01*
X161080757Y-125471100D01*
X161079477Y-125477504D01*
X161062065Y-125554144D01*
X161060001Y-125586953D01*
X161058415Y-125600453D01*
X161052821Y-125632836D01*
X161052641Y-125636793D01*
X161052641Y-125636796D01*
X161051621Y-125659271D01*
X161051500Y-125661925D01*
X161051500Y-125718108D01*
X161051251Y-125726019D01*
X161046822Y-125796413D01*
X161047316Y-125801448D01*
X161050899Y-125837992D01*
X161051500Y-125850288D01*
X161051500Y-128862969D01*
X161031498Y-128931090D01*
X161014595Y-128952064D01*
X158162064Y-131804595D01*
X158099752Y-131838621D01*
X158072969Y-131841500D01*
X154347031Y-131841500D01*
X154278910Y-131821498D01*
X154257936Y-131804595D01*
X153318334Y-130864993D01*
X155342160Y-130864993D01*
X155347887Y-130872643D01*
X155519042Y-130977528D01*
X155527837Y-130982010D01*
X155737988Y-131069057D01*
X155747373Y-131072106D01*
X155968554Y-131125208D01*
X155978301Y-131126751D01*
X156205070Y-131144598D01*
X156214930Y-131144598D01*
X156441699Y-131126751D01*
X156451446Y-131125208D01*
X156672627Y-131072106D01*
X156682012Y-131069057D01*
X156892163Y-130982010D01*
X156900958Y-130977528D01*
X157068445Y-130874891D01*
X157077907Y-130864433D01*
X157074124Y-130855657D01*
X156222812Y-130004345D01*
X156208868Y-129996731D01*
X156207035Y-129996862D01*
X156200420Y-130001113D01*
X155348920Y-130852613D01*
X155342160Y-130864993D01*
X153318334Y-130864993D01*
X152090594Y-129637253D01*
X154697725Y-129637253D01*
X154715572Y-129864022D01*
X154717115Y-129873769D01*
X154770217Y-130094950D01*
X154773266Y-130104335D01*
X154860313Y-130314486D01*
X154864795Y-130323281D01*
X154967432Y-130490768D01*
X154977890Y-130500230D01*
X154986666Y-130496447D01*
X155837978Y-129645135D01*
X155844356Y-129633455D01*
X156574408Y-129633455D01*
X156574539Y-129635288D01*
X156578790Y-129641903D01*
X157430290Y-130493403D01*
X157442670Y-130500163D01*
X157450320Y-130494436D01*
X157555205Y-130323281D01*
X157559687Y-130314486D01*
X157646734Y-130104335D01*
X157649783Y-130094950D01*
X157702885Y-129873769D01*
X157704428Y-129864022D01*
X157722275Y-129637253D01*
X157722275Y-129627393D01*
X157704428Y-129400624D01*
X157702885Y-129390877D01*
X157649783Y-129169696D01*
X157646734Y-129160311D01*
X157559687Y-128950160D01*
X157555205Y-128941365D01*
X157452568Y-128773878D01*
X157442110Y-128764416D01*
X157433334Y-128768199D01*
X156582022Y-129619511D01*
X156574408Y-129633455D01*
X155844356Y-129633455D01*
X155845592Y-129631191D01*
X155845461Y-129629358D01*
X155841210Y-129622743D01*
X154989710Y-128771243D01*
X154977330Y-128764483D01*
X154969680Y-128770210D01*
X154864795Y-128941365D01*
X154860313Y-128950160D01*
X154773266Y-129160311D01*
X154770217Y-129169696D01*
X154717115Y-129390877D01*
X154715572Y-129400624D01*
X154697725Y-129627393D01*
X154697725Y-129637253D01*
X152090594Y-129637253D01*
X150853554Y-128400213D01*
X155342093Y-128400213D01*
X155345876Y-128408989D01*
X156197188Y-129260301D01*
X156211132Y-129267915D01*
X156212965Y-129267784D01*
X156219580Y-129263533D01*
X157071080Y-128412033D01*
X157077840Y-128399653D01*
X157072113Y-128392003D01*
X156900958Y-128287118D01*
X156892163Y-128282636D01*
X156682012Y-128195589D01*
X156672627Y-128192540D01*
X156451446Y-128139438D01*
X156441699Y-128137895D01*
X156214930Y-128120048D01*
X156205070Y-128120048D01*
X155978301Y-128137895D01*
X155968554Y-128139438D01*
X155747373Y-128192540D01*
X155737988Y-128195589D01*
X155527837Y-128282636D01*
X155519042Y-128287118D01*
X155351555Y-128389755D01*
X155342093Y-128400213D01*
X150853554Y-128400213D01*
X149673675Y-127220334D01*
X149671221Y-127217812D01*
X149606138Y-127148988D01*
X149606135Y-127148986D01*
X149602668Y-127145319D01*
X149540239Y-127097589D01*
X149535108Y-127093448D01*
X149479133Y-127045809D01*
X149479132Y-127045808D01*
X149475280Y-127042530D01*
X149470955Y-127039911D01*
X149470950Y-127039907D01*
X149447176Y-127025509D01*
X149435929Y-127017837D01*
X149409826Y-126997880D01*
X149340592Y-126960757D01*
X149334868Y-126957493D01*
X149267642Y-126916779D01*
X149237181Y-126904472D01*
X149224841Y-126898692D01*
X149200350Y-126885560D01*
X149200351Y-126885560D01*
X149195891Y-126883169D01*
X149191110Y-126881523D01*
X149191106Y-126881521D01*
X149121599Y-126857588D01*
X149115421Y-126855278D01*
X149047266Y-126827742D01*
X149047267Y-126827742D01*
X149042571Y-126825845D01*
X149010539Y-126818568D01*
X148997441Y-126814837D01*
X148966369Y-126804138D01*
X148888900Y-126790757D01*
X148882496Y-126789477D01*
X148805856Y-126772065D01*
X148773047Y-126770001D01*
X148759547Y-126768415D01*
X148727164Y-126762821D01*
X148723207Y-126762641D01*
X148723204Y-126762641D01*
X148699494Y-126761564D01*
X148699475Y-126761564D01*
X148698075Y-126761500D01*
X148641892Y-126761500D01*
X148633980Y-126761251D01*
X148628386Y-126760899D01*
X148563587Y-126756822D01*
X148524545Y-126760650D01*
X148522008Y-126760899D01*
X148509712Y-126761500D01*
X140377031Y-126761500D01*
X140308910Y-126741498D01*
X140287936Y-126724595D01*
X137978492Y-124415151D01*
X146877296Y-124415151D01*
X146877520Y-124419817D01*
X146877520Y-124419822D01*
X146878729Y-124444983D01*
X146889480Y-124668798D01*
X146893523Y-124689123D01*
X146938020Y-124912824D01*
X146939021Y-124917857D01*
X146940600Y-124922255D01*
X146940602Y-124922262D01*
X146994188Y-125071511D01*
X147024831Y-125156858D01*
X147027048Y-125160984D01*
X147135364Y-125362570D01*
X147145025Y-125380551D01*
X147147820Y-125384294D01*
X147147822Y-125384297D01*
X147294171Y-125580282D01*
X147294176Y-125580288D01*
X147296963Y-125584020D01*
X147300272Y-125587300D01*
X147300277Y-125587306D01*
X147449047Y-125734783D01*
X147477307Y-125762797D01*
X147481069Y-125765555D01*
X147481072Y-125765558D01*
X147678323Y-125910188D01*
X147682094Y-125912953D01*
X147686229Y-125915129D01*
X147686233Y-125915131D01*
X147804289Y-125977243D01*
X147906827Y-126031191D01*
X148146568Y-126114912D01*
X148396050Y-126162278D01*
X148516532Y-126167011D01*
X148645125Y-126172064D01*
X148645130Y-126172064D01*
X148649793Y-126172247D01*
X148748774Y-126161407D01*
X148897569Y-126145112D01*
X148897575Y-126145111D01*
X148902222Y-126144602D01*
X149011680Y-126115784D01*
X149143273Y-126081138D01*
X149147793Y-126079948D01*
X149266353Y-126029011D01*
X149376807Y-125981557D01*
X149376810Y-125981555D01*
X149381110Y-125979708D01*
X149385090Y-125977245D01*
X149385094Y-125977243D01*
X149593064Y-125848547D01*
X149593066Y-125848545D01*
X149597047Y-125846082D01*
X149698928Y-125759834D01*
X149787289Y-125685031D01*
X149787291Y-125685029D01*
X149790862Y-125682006D01*
X149958295Y-125491084D01*
X149967998Y-125476000D01*
X150093141Y-125281442D01*
X150095669Y-125277512D01*
X150145114Y-125167749D01*
X150191330Y-125113855D01*
X150259996Y-125093500D01*
X154575500Y-125093500D01*
X154643621Y-125113502D01*
X154690114Y-125167158D01*
X154701500Y-125219500D01*
X154701500Y-125680457D01*
X154708255Y-125742639D01*
X154759385Y-125879028D01*
X154846739Y-125995584D01*
X154963295Y-126082938D01*
X155099684Y-126134068D01*
X155161866Y-126140823D01*
X157258134Y-126140823D01*
X157320316Y-126134068D01*
X157456705Y-126082938D01*
X157573261Y-125995584D01*
X157660615Y-125879028D01*
X157711745Y-125742639D01*
X157718500Y-125680457D01*
X157718500Y-123584189D01*
X157711745Y-123522007D01*
X157660615Y-123385618D01*
X157573261Y-123269062D01*
X157456705Y-123181708D01*
X157320316Y-123130578D01*
X157258134Y-123123823D01*
X155161866Y-123123823D01*
X155099684Y-123130578D01*
X154963295Y-123181708D01*
X154846739Y-123269062D01*
X154759385Y-123385618D01*
X154708255Y-123522007D01*
X154701500Y-123584189D01*
X154701500Y-123700500D01*
X154681498Y-123768621D01*
X154627842Y-123815114D01*
X154575500Y-123826500D01*
X150423594Y-123826500D01*
X150355473Y-123806498D01*
X150308980Y-123752842D01*
X150298876Y-123682568D01*
X150328370Y-123617988D01*
X150334499Y-123611405D01*
X154300137Y-119645768D01*
X154986363Y-119645768D01*
X155020846Y-119762932D01*
X155025439Y-119774300D01*
X155113586Y-119942911D01*
X155120302Y-119953173D01*
X155239515Y-120101443D01*
X155248103Y-120110213D01*
X155393838Y-120232499D01*
X155403969Y-120239437D01*
X155570692Y-120331094D01*
X155581962Y-120335924D01*
X155763315Y-120393452D01*
X155775309Y-120396002D01*
X155923350Y-120412607D01*
X155930374Y-120413000D01*
X155937885Y-120413000D01*
X155953124Y-120408525D01*
X155954329Y-120407135D01*
X155956000Y-120399452D01*
X155956000Y-120394885D01*
X156464000Y-120394885D01*
X156468475Y-120410124D01*
X156469865Y-120411329D01*
X156477548Y-120413000D01*
X156482890Y-120413000D01*
X156489035Y-120412700D01*
X156630481Y-120398830D01*
X156642519Y-120396447D01*
X156824651Y-120341458D01*
X156835993Y-120336783D01*
X157003977Y-120247465D01*
X157014193Y-120240678D01*
X157161634Y-120120428D01*
X157170338Y-120111784D01*
X157291610Y-119965191D01*
X157298470Y-119955020D01*
X157388962Y-119787658D01*
X157393714Y-119776353D01*
X157432422Y-119651308D01*
X157432628Y-119637205D01*
X157425873Y-119634000D01*
X156482115Y-119634000D01*
X156466876Y-119638475D01*
X156465671Y-119639865D01*
X156464000Y-119647548D01*
X156464000Y-120394885D01*
X155956000Y-120394885D01*
X155956000Y-119652115D01*
X155951525Y-119636876D01*
X155950135Y-119635671D01*
X155942452Y-119634000D01*
X155001014Y-119634000D01*
X154987483Y-119637973D01*
X154986363Y-119645768D01*
X154300137Y-119645768D01*
X154813137Y-119132768D01*
X154875449Y-119098742D01*
X154946264Y-119103807D01*
X154956241Y-119108025D01*
X154994128Y-119126000D01*
X155763758Y-119126000D01*
X155777803Y-119126785D01*
X155926817Y-119143500D01*
X156486004Y-119143500D01*
X156636713Y-119128723D01*
X156639002Y-119128032D01*
X156659724Y-119126000D01*
X157418986Y-119126000D01*
X157432517Y-119122027D01*
X157433637Y-119114232D01*
X157399154Y-118997068D01*
X157394561Y-118985700D01*
X157306416Y-118817093D01*
X157304403Y-118814017D01*
X157303846Y-118812178D01*
X157303560Y-118811630D01*
X157303664Y-118811576D01*
X157283839Y-118746064D01*
X157298999Y-118685094D01*
X157389426Y-118517853D01*
X157392356Y-118512435D01*
X157437765Y-118365743D01*
X157450468Y-118324707D01*
X157450469Y-118324704D01*
X157452290Y-118318820D01*
X157464485Y-118202798D01*
X157472832Y-118123378D01*
X157472832Y-118123377D01*
X157473476Y-118117250D01*
X157463886Y-118011880D01*
X157455665Y-117921543D01*
X157455664Y-117921540D01*
X157455106Y-117915404D01*
X157449255Y-117895522D01*
X157399620Y-117726879D01*
X157399619Y-117726877D01*
X157397881Y-117720971D01*
X157398740Y-117720718D01*
X157392286Y-117655338D01*
X157405452Y-117618594D01*
X157410615Y-117611705D01*
X157425912Y-117570900D01*
X157431772Y-117555270D01*
X157474414Y-117498505D01*
X157540976Y-117473806D01*
X157549754Y-117473500D01*
X158111233Y-117473500D01*
X158122416Y-117474027D01*
X158129909Y-117475702D01*
X158137835Y-117475453D01*
X158137836Y-117475453D01*
X158197986Y-117473562D01*
X158201945Y-117473500D01*
X158229856Y-117473500D01*
X158233791Y-117473003D01*
X158233856Y-117472995D01*
X158245693Y-117472062D01*
X158277951Y-117471048D01*
X158281970Y-117470922D01*
X158289889Y-117470673D01*
X158309343Y-117465021D01*
X158328700Y-117461013D01*
X158340930Y-117459468D01*
X158340931Y-117459468D01*
X158348797Y-117458474D01*
X158356168Y-117455555D01*
X158356170Y-117455555D01*
X158389912Y-117442196D01*
X158401142Y-117438351D01*
X158435983Y-117428229D01*
X158435984Y-117428229D01*
X158443593Y-117426018D01*
X158450412Y-117421985D01*
X158450417Y-117421983D01*
X158461028Y-117415707D01*
X158478776Y-117407012D01*
X158497617Y-117399552D01*
X158533387Y-117373564D01*
X158543307Y-117367048D01*
X158574535Y-117348580D01*
X158574538Y-117348578D01*
X158581362Y-117344542D01*
X158595683Y-117330221D01*
X158610717Y-117317380D01*
X158620694Y-117310131D01*
X158627107Y-117305472D01*
X158655298Y-117271395D01*
X158663288Y-117262616D01*
X162426728Y-113499176D01*
X162489040Y-113465150D01*
X162557364Y-113469316D01*
X162712151Y-113523370D01*
X162712157Y-113523372D01*
X162716568Y-113524912D01*
X162966050Y-113572278D01*
X163086532Y-113577011D01*
X163215125Y-113582064D01*
X163215130Y-113582064D01*
X163219793Y-113582247D01*
X163299587Y-113573508D01*
X163467569Y-113555112D01*
X163467575Y-113555111D01*
X163472222Y-113554602D01*
X163490173Y-113549876D01*
X163713273Y-113491138D01*
X163717793Y-113489948D01*
X163843050Y-113436134D01*
X163946807Y-113391557D01*
X163946810Y-113391555D01*
X163951110Y-113389708D01*
X163955090Y-113387245D01*
X163955094Y-113387243D01*
X164163064Y-113258547D01*
X164163066Y-113258545D01*
X164167047Y-113256082D01*
X164170624Y-113253054D01*
X164357289Y-113095031D01*
X164357291Y-113095029D01*
X164360862Y-113092006D01*
X164528295Y-112901084D01*
X164537158Y-112887306D01*
X164663141Y-112691442D01*
X164665669Y-112687512D01*
X164769967Y-112455980D01*
X164838896Y-112211575D01*
X164857831Y-112062734D01*
X164870545Y-111962798D01*
X164870545Y-111962792D01*
X164870943Y-111959667D01*
X164873291Y-111870000D01*
X164865875Y-111770203D01*
X164854818Y-111621411D01*
X164854817Y-111621407D01*
X164854472Y-111616759D01*
X164853007Y-111610282D01*
X164808659Y-111414297D01*
X164798428Y-111369082D01*
X164794008Y-111357715D01*
X164708084Y-111136762D01*
X164708083Y-111136760D01*
X164706391Y-111132409D01*
X164701647Y-111124109D01*
X164582702Y-110915997D01*
X164582700Y-110915995D01*
X164580383Y-110911940D01*
X164423171Y-110712517D01*
X164302835Y-110599317D01*
X164241610Y-110541722D01*
X164241608Y-110541720D01*
X164238209Y-110538523D01*
X164084256Y-110431722D01*
X164033393Y-110396437D01*
X164033390Y-110396435D01*
X164029561Y-110393779D01*
X164025384Y-110391719D01*
X164025377Y-110391715D01*
X163805996Y-110283528D01*
X163805992Y-110283527D01*
X163801810Y-110281464D01*
X163559960Y-110204047D01*
X163517598Y-110197148D01*
X163313935Y-110163980D01*
X163313934Y-110163980D01*
X163309323Y-110163229D01*
X163182364Y-110161567D01*
X163060083Y-110159966D01*
X163060080Y-110159966D01*
X163055406Y-110159905D01*
X162803787Y-110194149D01*
X162799301Y-110195457D01*
X162799299Y-110195457D01*
X162735695Y-110213996D01*
X162559993Y-110265208D01*
X162555740Y-110267168D01*
X162555739Y-110267169D01*
X162520254Y-110283528D01*
X162329380Y-110371522D01*
X162325471Y-110374085D01*
X162120928Y-110508189D01*
X162120923Y-110508193D01*
X162117015Y-110510755D01*
X162022288Y-110595302D01*
X161968678Y-110643151D01*
X161927562Y-110679848D01*
X161765183Y-110875087D01*
X161633447Y-111092182D01*
X161631638Y-111096496D01*
X161631637Y-111096498D01*
X161543718Y-111306162D01*
X161535246Y-111326365D01*
X161472738Y-111572490D01*
X161447296Y-111825151D01*
X161447520Y-111829817D01*
X161447520Y-111829822D01*
X161449996Y-111881357D01*
X161459480Y-112078798D01*
X161477996Y-112171886D01*
X161494100Y-112252842D01*
X161509021Y-112327857D01*
X161510600Y-112332255D01*
X161510602Y-112332262D01*
X161560547Y-112471369D01*
X161564741Y-112542241D01*
X161531054Y-112603041D01*
X157964500Y-116169595D01*
X157902188Y-116203621D01*
X157875405Y-116206500D01*
X157549754Y-116206500D01*
X157481633Y-116186498D01*
X157435140Y-116132842D01*
X157431772Y-116124730D01*
X157413767Y-116076703D01*
X157410615Y-116068295D01*
X157323261Y-115951739D01*
X157206705Y-115864385D01*
X157070316Y-115813255D01*
X157008134Y-115806500D01*
X155411866Y-115806500D01*
X155349684Y-115813255D01*
X155213295Y-115864385D01*
X155096739Y-115951739D01*
X155009385Y-116068295D01*
X155006233Y-116076703D01*
X154988228Y-116124730D01*
X154945586Y-116181495D01*
X154879024Y-116206194D01*
X154870246Y-116206500D01*
X149938767Y-116206500D01*
X149927584Y-116205973D01*
X149920091Y-116204298D01*
X149912165Y-116204547D01*
X149912164Y-116204547D01*
X149852014Y-116206438D01*
X149848055Y-116206500D01*
X149820144Y-116206500D01*
X149816210Y-116206997D01*
X149816209Y-116206997D01*
X149816144Y-116207005D01*
X149804307Y-116207938D01*
X149772490Y-116208938D01*
X149768029Y-116209078D01*
X149760110Y-116209327D01*
X149742454Y-116214456D01*
X149740658Y-116214978D01*
X149721306Y-116218986D01*
X149714235Y-116219880D01*
X149701203Y-116221526D01*
X149693834Y-116224443D01*
X149693832Y-116224444D01*
X149660097Y-116237800D01*
X149648869Y-116241645D01*
X149606407Y-116253982D01*
X149599585Y-116258016D01*
X149599579Y-116258019D01*
X149588968Y-116264294D01*
X149571218Y-116272990D01*
X149559756Y-116277528D01*
X149559751Y-116277531D01*
X149552383Y-116280448D01*
X149545968Y-116285109D01*
X149516625Y-116306427D01*
X149506707Y-116312943D01*
X149488019Y-116323995D01*
X149468637Y-116335458D01*
X149454313Y-116349782D01*
X149439281Y-116362621D01*
X149422893Y-116374528D01*
X149398528Y-116403980D01*
X149394712Y-116408593D01*
X149386722Y-116417373D01*
X149324639Y-116479456D01*
X149262327Y-116513482D01*
X149197131Y-116510363D01*
X148994405Y-116445470D01*
X148994407Y-116445470D01*
X148989960Y-116444047D01*
X148985355Y-116443297D01*
X148743935Y-116403980D01*
X148743934Y-116403980D01*
X148739323Y-116403229D01*
X148612365Y-116401567D01*
X148490083Y-116399966D01*
X148490080Y-116399966D01*
X148485406Y-116399905D01*
X148233787Y-116434149D01*
X147989993Y-116505208D01*
X147759380Y-116611522D01*
X147755471Y-116614085D01*
X147550928Y-116748189D01*
X147550923Y-116748193D01*
X147547015Y-116750755D01*
X147357562Y-116919848D01*
X147195183Y-117115087D01*
X147063447Y-117332182D01*
X147061638Y-117336496D01*
X147061637Y-117336498D01*
X146969899Y-117555270D01*
X146965246Y-117566365D01*
X146964095Y-117570897D01*
X146964094Y-117570900D01*
X146952061Y-117618279D01*
X146902738Y-117812490D01*
X146877296Y-118065151D01*
X146877520Y-118069817D01*
X146877520Y-118069822D01*
X146880093Y-118123378D01*
X146889480Y-118318798D01*
X146911520Y-118429600D01*
X146929075Y-118517853D01*
X146939021Y-118567857D01*
X146940600Y-118572255D01*
X146940602Y-118572262D01*
X146985022Y-118695980D01*
X147024831Y-118806858D01*
X147027048Y-118810984D01*
X147140505Y-119022138D01*
X147145025Y-119030551D01*
X147147820Y-119034294D01*
X147147822Y-119034297D01*
X147294171Y-119230282D01*
X147294176Y-119230288D01*
X147296963Y-119234020D01*
X147300272Y-119237300D01*
X147300277Y-119237306D01*
X147452799Y-119388502D01*
X147477307Y-119412797D01*
X147481069Y-119415555D01*
X147481072Y-119415558D01*
X147586764Y-119493054D01*
X147682094Y-119562953D01*
X147686229Y-119565129D01*
X147686233Y-119565131D01*
X147804289Y-119627243D01*
X147906827Y-119681191D01*
X148146568Y-119764912D01*
X148396050Y-119812278D01*
X148516532Y-119817011D01*
X148645125Y-119822064D01*
X148645130Y-119822064D01*
X148649793Y-119822247D01*
X148748774Y-119811407D01*
X148897569Y-119795112D01*
X148897575Y-119795111D01*
X148902222Y-119794602D01*
X149011680Y-119765784D01*
X149143273Y-119731138D01*
X149147793Y-119729948D01*
X149328956Y-119652115D01*
X149376807Y-119631557D01*
X149376810Y-119631555D01*
X149381110Y-119629708D01*
X149385090Y-119627245D01*
X149385094Y-119627243D01*
X149593064Y-119498547D01*
X149593066Y-119498545D01*
X149597047Y-119496082D01*
X149695428Y-119412797D01*
X149787289Y-119335031D01*
X149787291Y-119335029D01*
X149790862Y-119332006D01*
X149958295Y-119141084D01*
X149965052Y-119130580D01*
X150093141Y-118931442D01*
X150095669Y-118927512D01*
X150199967Y-118695980D01*
X150268896Y-118451575D01*
X150285788Y-118318798D01*
X150300545Y-118202798D01*
X150300545Y-118202792D01*
X150300943Y-118199667D01*
X150301839Y-118165471D01*
X150303208Y-118113160D01*
X150303291Y-118110000D01*
X150297854Y-118036836D01*
X150284818Y-117861411D01*
X150284817Y-117861407D01*
X150284472Y-117856759D01*
X150269757Y-117791725D01*
X150232552Y-117627308D01*
X150237027Y-117556453D01*
X150279098Y-117499264D01*
X150345409Y-117473900D01*
X150355445Y-117473500D01*
X154376406Y-117473500D01*
X154444527Y-117493502D01*
X154491020Y-117547158D01*
X154501124Y-117617432D01*
X154471630Y-117682012D01*
X154465501Y-117688595D01*
X149324639Y-122829456D01*
X149262327Y-122863482D01*
X149197131Y-122860363D01*
X148994405Y-122795470D01*
X148994407Y-122795470D01*
X148989960Y-122794047D01*
X148985355Y-122793297D01*
X148743935Y-122753980D01*
X148743934Y-122753980D01*
X148739323Y-122753229D01*
X148612365Y-122751567D01*
X148490083Y-122749966D01*
X148490080Y-122749966D01*
X148485406Y-122749905D01*
X148233787Y-122784149D01*
X147989993Y-122855208D01*
X147759380Y-122961522D01*
X147755471Y-122964085D01*
X147550928Y-123098189D01*
X147550923Y-123098193D01*
X147547015Y-123100755D01*
X147510493Y-123133352D01*
X147364472Y-123263681D01*
X147357562Y-123269848D01*
X147195183Y-123465087D01*
X147063447Y-123682182D01*
X147061638Y-123686496D01*
X147061637Y-123686498D01*
X146969481Y-123906266D01*
X146965246Y-123916365D01*
X146964095Y-123920897D01*
X146964094Y-123920900D01*
X146959556Y-123938770D01*
X146902738Y-124162490D01*
X146877296Y-124415151D01*
X137978492Y-124415151D01*
X137935660Y-124372319D01*
X137901634Y-124310007D01*
X137906699Y-124239192D01*
X137935660Y-124194129D01*
X137985267Y-124144522D01*
X137997658Y-124133654D01*
X138010841Y-124123538D01*
X138015292Y-124120123D01*
X138019065Y-124115977D01*
X138019070Y-124115972D01*
X138070149Y-124059836D01*
X138074247Y-124055541D01*
X138090198Y-124039590D01*
X138106942Y-124019564D01*
X138110401Y-124015599D01*
X138162708Y-123958115D01*
X138162709Y-123958114D01*
X138166485Y-123953964D01*
X138176016Y-123938770D01*
X138186085Y-123924910D01*
X138197593Y-123911147D01*
X138238869Y-123838782D01*
X138241579Y-123834253D01*
X138282885Y-123768405D01*
X138285864Y-123763656D01*
X138292553Y-123747017D01*
X138300012Y-123731587D01*
X138306119Y-123720881D01*
X138306123Y-123720872D01*
X138308898Y-123716007D01*
X138336715Y-123637454D01*
X138338576Y-123632529D01*
X138347068Y-123611405D01*
X138369656Y-123555217D01*
X138373294Y-123537650D01*
X138377899Y-123521156D01*
X138383889Y-123504241D01*
X138397359Y-123421990D01*
X138398319Y-123416811D01*
X138414276Y-123339758D01*
X138414276Y-123339757D01*
X138415213Y-123335233D01*
X138415947Y-123322509D01*
X138416815Y-123307452D01*
X138418262Y-123294347D01*
X138419286Y-123288090D01*
X138419286Y-123288086D01*
X138420194Y-123282543D01*
X138419019Y-123207720D01*
X138418516Y-123175736D01*
X138418500Y-123173757D01*
X138418500Y-115661396D01*
X138419578Y-115644949D01*
X138421747Y-115628472D01*
X138422479Y-115622914D01*
X138418640Y-115541504D01*
X138418500Y-115535569D01*
X138418500Y-115513001D01*
X138418252Y-115510218D01*
X138418251Y-115510204D01*
X138416182Y-115487023D01*
X138415823Y-115481760D01*
X138412161Y-115404116D01*
X138411897Y-115398512D01*
X138407892Y-115381023D01*
X138405212Y-115364104D01*
X138404115Y-115351821D01*
X138403617Y-115346238D01*
X138402137Y-115340827D01*
X138381631Y-115265870D01*
X138380345Y-115260752D01*
X138362994Y-115184997D01*
X138361742Y-115179530D01*
X138354707Y-115163037D01*
X138349072Y-115146855D01*
X138345820Y-115134967D01*
X138345817Y-115134958D01*
X138344337Y-115129549D01*
X138341922Y-115124486D01*
X138341918Y-115124475D01*
X138308466Y-115054343D01*
X138306293Y-115049532D01*
X138275803Y-114978048D01*
X138273604Y-114972892D01*
X138263756Y-114957900D01*
X138255344Y-114942971D01*
X138247622Y-114926782D01*
X138198996Y-114859111D01*
X138196013Y-114854771D01*
X138152805Y-114788992D01*
X138152801Y-114788987D01*
X138150265Y-114785126D01*
X138131751Y-114764346D01*
X138123506Y-114754055D01*
X138119807Y-114748907D01*
X138119803Y-114748903D01*
X138116529Y-114744346D01*
X138039777Y-114669968D01*
X138038367Y-114668579D01*
X135091044Y-111721256D01*
X135057018Y-111658944D01*
X135054485Y-111641499D01*
X135044818Y-111511411D01*
X135044817Y-111511407D01*
X135044472Y-111506759D01*
X135041561Y-111493891D01*
X134996789Y-111296031D01*
X134988428Y-111259082D01*
X134958627Y-111182449D01*
X134898084Y-111026762D01*
X134898083Y-111026760D01*
X134896391Y-111022409D01*
X134875866Y-110986498D01*
X134772702Y-110805997D01*
X134772700Y-110805995D01*
X134770383Y-110801940D01*
X134613171Y-110602517D01*
X134428209Y-110428523D01*
X134343221Y-110369565D01*
X134223393Y-110286437D01*
X134223390Y-110286435D01*
X134219561Y-110283779D01*
X134215384Y-110281719D01*
X134215377Y-110281715D01*
X133995996Y-110173528D01*
X133995992Y-110173527D01*
X133991810Y-110171464D01*
X133749960Y-110094047D01*
X133745355Y-110093297D01*
X133503935Y-110053980D01*
X133503934Y-110053980D01*
X133499323Y-110053229D01*
X133487229Y-110053071D01*
X133473225Y-110052887D01*
X133405372Y-110031994D01*
X133385781Y-110015993D01*
X133375405Y-110005617D01*
X133341379Y-109943305D01*
X133338500Y-109916522D01*
X133338500Y-105819009D01*
X133358502Y-105750888D01*
X133412158Y-105704395D01*
X133478107Y-105693746D01*
X133521866Y-105698500D01*
X135230406Y-105698500D01*
X135298527Y-105718502D01*
X135319501Y-105735405D01*
X136824500Y-107240405D01*
X138305868Y-108721773D01*
X138313408Y-108730059D01*
X138317520Y-108736538D01*
X138364374Y-108780536D01*
X138367171Y-108783163D01*
X138370013Y-108785918D01*
X138389750Y-108805655D01*
X138392947Y-108808135D01*
X138401967Y-108815838D01*
X138434199Y-108846106D01*
X138441145Y-108849925D01*
X138441148Y-108849927D01*
X138451954Y-108855868D01*
X138468473Y-108866719D01*
X138484479Y-108879134D01*
X138491748Y-108882279D01*
X138491752Y-108882282D01*
X138525057Y-108896694D01*
X138535707Y-108901911D01*
X138574460Y-108923215D01*
X138582135Y-108925186D01*
X138582136Y-108925186D01*
X138594082Y-108928253D01*
X138612787Y-108934657D01*
X138631375Y-108942701D01*
X138639198Y-108943940D01*
X138639208Y-108943943D01*
X138675044Y-108949619D01*
X138686664Y-108952025D01*
X138721809Y-108961048D01*
X138729490Y-108963020D01*
X138749744Y-108963020D01*
X138769454Y-108964571D01*
X138789463Y-108967740D01*
X138797355Y-108966994D01*
X138833481Y-108963579D01*
X138845339Y-108963020D01*
X153800980Y-108963020D01*
X153869101Y-108983022D01*
X153915594Y-109036678D01*
X153926980Y-109089020D01*
X153926980Y-109570231D01*
X153918962Y-109614460D01*
X153913255Y-109629684D01*
X153906500Y-109691866D01*
X153906500Y-111288134D01*
X153913255Y-111350316D01*
X153964385Y-111486705D01*
X154051739Y-111603261D01*
X154168295Y-111690615D01*
X154304684Y-111741745D01*
X154366866Y-111748500D01*
X155021405Y-111748500D01*
X155089526Y-111768502D01*
X155136019Y-111822158D01*
X155146123Y-111892432D01*
X155116629Y-111957012D01*
X155110500Y-111963595D01*
X154784500Y-112289595D01*
X154722188Y-112323621D01*
X154695405Y-112326500D01*
X150371911Y-112326500D01*
X150303790Y-112306498D01*
X150257297Y-112252842D01*
X150247193Y-112182568D01*
X150250642Y-112166299D01*
X150256674Y-112144912D01*
X150268896Y-112101575D01*
X150286382Y-111964126D01*
X150300545Y-111852798D01*
X150300545Y-111852792D01*
X150300943Y-111849667D01*
X150301196Y-111840030D01*
X150303208Y-111763160D01*
X150303291Y-111760000D01*
X150295781Y-111658944D01*
X150284818Y-111511411D01*
X150284817Y-111511407D01*
X150284472Y-111506759D01*
X150281561Y-111493891D01*
X150236789Y-111296031D01*
X150228428Y-111259082D01*
X150198627Y-111182449D01*
X150138084Y-111026762D01*
X150138083Y-111026760D01*
X150136391Y-111022409D01*
X150115866Y-110986498D01*
X150012702Y-110805997D01*
X150012700Y-110805995D01*
X150010383Y-110801940D01*
X149853171Y-110602517D01*
X149668209Y-110428523D01*
X149583221Y-110369565D01*
X149463393Y-110286437D01*
X149463390Y-110286435D01*
X149459561Y-110283779D01*
X149455384Y-110281719D01*
X149455377Y-110281715D01*
X149235996Y-110173528D01*
X149235992Y-110173527D01*
X149231810Y-110171464D01*
X148989960Y-110094047D01*
X148985355Y-110093297D01*
X148743935Y-110053980D01*
X148743934Y-110053980D01*
X148739323Y-110053229D01*
X148612364Y-110051567D01*
X148490083Y-110049966D01*
X148490080Y-110049966D01*
X148485406Y-110049905D01*
X148233787Y-110084149D01*
X147989993Y-110155208D01*
X147985740Y-110157168D01*
X147985739Y-110157169D01*
X147972726Y-110163168D01*
X147759380Y-110261522D01*
X147728581Y-110281715D01*
X147550928Y-110398189D01*
X147550923Y-110398193D01*
X147547015Y-110400755D01*
X147492040Y-110449822D01*
X147389075Y-110541722D01*
X147357562Y-110569848D01*
X147195183Y-110765087D01*
X147063447Y-110982182D01*
X147061638Y-110986496D01*
X147061637Y-110986498D01*
X147000452Y-111132409D01*
X146965246Y-111216365D01*
X146964095Y-111220897D01*
X146964094Y-111220900D01*
X146954397Y-111259082D01*
X146902738Y-111462490D01*
X146877296Y-111715151D01*
X146889480Y-111968798D01*
X146904533Y-112044473D01*
X146935880Y-112202064D01*
X146939021Y-112217857D01*
X146940600Y-112222255D01*
X146940602Y-112222262D01*
X146996972Y-112379264D01*
X147024831Y-112456858D01*
X147027048Y-112460984D01*
X147103378Y-112603041D01*
X147145025Y-112680551D01*
X147147820Y-112684294D01*
X147147822Y-112684297D01*
X147294171Y-112880282D01*
X147294176Y-112880288D01*
X147296963Y-112884020D01*
X147300272Y-112887300D01*
X147300277Y-112887306D01*
X147383289Y-112969596D01*
X147477307Y-113062797D01*
X147481069Y-113065555D01*
X147481072Y-113065558D01*
X147553010Y-113118305D01*
X147682094Y-113212953D01*
X147686229Y-113215129D01*
X147686233Y-113215131D01*
X147812706Y-113281671D01*
X147906827Y-113331191D01*
X147976950Y-113355679D01*
X148074395Y-113389708D01*
X148146568Y-113414912D01*
X148396050Y-113462278D01*
X148516532Y-113467011D01*
X148645125Y-113472064D01*
X148645130Y-113472064D01*
X148649793Y-113472247D01*
X148748774Y-113461407D01*
X148897569Y-113445112D01*
X148897575Y-113445111D01*
X148902222Y-113444602D01*
X148911160Y-113442249D01*
X149143273Y-113381138D01*
X149147793Y-113379948D01*
X149152092Y-113378101D01*
X149152095Y-113378100D01*
X149184471Y-113364191D01*
X149254956Y-113355679D01*
X149320460Y-113388109D01*
X149347667Y-113413658D01*
X149350509Y-113416413D01*
X149370230Y-113436134D01*
X149373425Y-113438612D01*
X149382447Y-113446318D01*
X149414679Y-113476586D01*
X149421628Y-113480406D01*
X149432432Y-113486346D01*
X149448956Y-113497199D01*
X149464959Y-113509613D01*
X149505543Y-113527176D01*
X149516173Y-113532383D01*
X149554940Y-113553695D01*
X149562617Y-113555666D01*
X149562622Y-113555668D01*
X149574558Y-113558732D01*
X149593266Y-113565137D01*
X149611855Y-113573181D01*
X149619683Y-113574421D01*
X149619690Y-113574423D01*
X149655524Y-113580099D01*
X149667144Y-113582505D01*
X149698959Y-113590673D01*
X149709970Y-113593500D01*
X149730224Y-113593500D01*
X149749934Y-113595051D01*
X149769943Y-113598220D01*
X149777835Y-113597474D01*
X149796580Y-113595702D01*
X149813962Y-113594059D01*
X149825819Y-113593500D01*
X154931233Y-113593500D01*
X154942416Y-113594027D01*
X154949909Y-113595702D01*
X154957835Y-113595453D01*
X154957836Y-113595453D01*
X155017986Y-113593562D01*
X155021945Y-113593500D01*
X155049856Y-113593500D01*
X155053791Y-113593003D01*
X155053856Y-113592995D01*
X155065693Y-113592062D01*
X155097951Y-113591048D01*
X155101970Y-113590922D01*
X155109889Y-113590673D01*
X155129343Y-113585021D01*
X155148700Y-113581013D01*
X155160930Y-113579468D01*
X155160931Y-113579468D01*
X155168797Y-113578474D01*
X155176168Y-113575555D01*
X155176170Y-113575555D01*
X155209912Y-113562196D01*
X155221142Y-113558351D01*
X155255983Y-113548229D01*
X155255984Y-113548229D01*
X155263593Y-113546018D01*
X155270412Y-113541985D01*
X155270417Y-113541983D01*
X155281028Y-113535707D01*
X155298776Y-113527012D01*
X155317617Y-113519552D01*
X155337987Y-113504753D01*
X155353387Y-113493564D01*
X155363307Y-113487048D01*
X155394535Y-113468580D01*
X155394538Y-113468578D01*
X155401362Y-113464542D01*
X155415683Y-113450221D01*
X155430717Y-113437380D01*
X155432432Y-113436134D01*
X155447107Y-113425472D01*
X155475298Y-113391395D01*
X155483288Y-113382616D01*
X156602247Y-112263657D01*
X156610537Y-112256113D01*
X156617018Y-112252000D01*
X156663659Y-112202332D01*
X156666413Y-112199491D01*
X156686134Y-112179770D01*
X156688612Y-112176575D01*
X156696318Y-112167553D01*
X156698775Y-112164937D01*
X156726586Y-112135321D01*
X156736346Y-112117568D01*
X156747199Y-112101045D01*
X156754753Y-112091306D01*
X156759613Y-112085041D01*
X156777176Y-112044457D01*
X156782383Y-112033827D01*
X156803695Y-111995060D01*
X156805666Y-111987383D01*
X156805668Y-111987378D01*
X156808732Y-111975442D01*
X156815138Y-111956730D01*
X156815234Y-111956510D01*
X156823181Y-111938145D01*
X156824421Y-111930317D01*
X156824423Y-111930310D01*
X156830099Y-111894476D01*
X156832505Y-111882856D01*
X156841528Y-111847711D01*
X156841528Y-111847710D01*
X156843500Y-111840030D01*
X156843500Y-111819776D01*
X156845051Y-111800065D01*
X156846980Y-111787886D01*
X156848220Y-111780057D01*
X156847288Y-111770201D01*
X156847584Y-111768677D01*
X156847723Y-111764242D01*
X156848438Y-111764264D01*
X156860789Y-111700502D01*
X156909830Y-111649164D01*
X156978841Y-111632490D01*
X157032657Y-111647506D01*
X157072337Y-111668960D01*
X157083647Y-111673714D01*
X157208692Y-111712422D01*
X157222795Y-111712628D01*
X157226000Y-111705873D01*
X157226000Y-111698986D01*
X157734000Y-111698986D01*
X157737973Y-111712517D01*
X157745768Y-111713637D01*
X157862932Y-111679154D01*
X157874300Y-111674561D01*
X158042911Y-111586414D01*
X158053173Y-111579698D01*
X158201443Y-111460485D01*
X158210213Y-111451897D01*
X158332499Y-111306162D01*
X158339437Y-111296031D01*
X158431094Y-111129308D01*
X158435924Y-111118038D01*
X158493452Y-110936685D01*
X158496002Y-110924691D01*
X158512607Y-110776650D01*
X158513000Y-110769626D01*
X158513000Y-110762115D01*
X158508525Y-110746876D01*
X158507135Y-110745671D01*
X158499452Y-110744000D01*
X157752115Y-110744000D01*
X157736876Y-110748475D01*
X157735671Y-110749865D01*
X157734000Y-110757548D01*
X157734000Y-111698986D01*
X157226000Y-111698986D01*
X157226000Y-110936242D01*
X157226785Y-110922197D01*
X157232069Y-110875087D01*
X157243500Y-110773183D01*
X157243500Y-110362000D01*
X157263502Y-110293879D01*
X157317158Y-110247386D01*
X157369500Y-110236000D01*
X158494885Y-110236000D01*
X158510124Y-110231525D01*
X158511329Y-110230135D01*
X158513000Y-110222452D01*
X158513000Y-110217110D01*
X158512700Y-110210965D01*
X158498830Y-110069519D01*
X158496447Y-110057481D01*
X158441458Y-109875349D01*
X158436783Y-109864007D01*
X158347465Y-109696023D01*
X158340678Y-109685807D01*
X158220428Y-109538366D01*
X158211784Y-109529662D01*
X158065191Y-109408390D01*
X158055020Y-109401530D01*
X157887658Y-109311038D01*
X157876353Y-109306286D01*
X157694605Y-109250025D01*
X157682592Y-109247559D01*
X157642851Y-109243382D01*
X157577194Y-109216368D01*
X157536565Y-109158147D01*
X157533862Y-109087202D01*
X157566927Y-109028977D01*
X159355499Y-107240405D01*
X159417811Y-107206379D01*
X159444594Y-107203500D01*
X161485453Y-107203500D01*
X161553574Y-107223502D01*
X161596445Y-107269862D01*
X161715025Y-107490551D01*
X161717820Y-107494294D01*
X161717822Y-107494297D01*
X161864171Y-107690282D01*
X161864176Y-107690288D01*
X161866963Y-107694020D01*
X161870272Y-107697300D01*
X161870277Y-107697306D01*
X161968859Y-107795031D01*
X162047307Y-107872797D01*
X162051069Y-107875555D01*
X162051072Y-107875558D01*
X162051900Y-107876165D01*
X162252094Y-108022953D01*
X162256229Y-108025129D01*
X162256233Y-108025131D01*
X162278787Y-108036997D01*
X162476827Y-108141191D01*
X162716568Y-108224912D01*
X162966050Y-108272278D01*
X163086532Y-108277011D01*
X163215125Y-108282064D01*
X163215130Y-108282064D01*
X163219793Y-108282247D01*
X163318774Y-108271407D01*
X163467569Y-108255112D01*
X163467575Y-108255111D01*
X163472222Y-108254602D01*
X163581680Y-108225784D01*
X163662521Y-108204500D01*
X163717793Y-108189948D01*
X163837815Y-108138383D01*
X163946807Y-108091557D01*
X163946810Y-108091555D01*
X163951110Y-108089708D01*
X163955090Y-108087245D01*
X163955094Y-108087243D01*
X164163064Y-107958547D01*
X164163066Y-107958545D01*
X164167047Y-107956082D01*
X164265428Y-107872797D01*
X164357289Y-107795031D01*
X164357291Y-107795029D01*
X164360862Y-107792006D01*
X164528295Y-107601084D01*
X164665669Y-107387512D01*
X164769967Y-107155980D01*
X164838896Y-106911575D01*
X164870943Y-106659667D01*
X164873291Y-106570000D01*
X164854472Y-106316759D01*
X164798428Y-106069082D01*
X164785733Y-106036437D01*
X164708084Y-105836762D01*
X164708083Y-105836760D01*
X164706391Y-105832409D01*
X164702350Y-105825339D01*
X164582702Y-105615997D01*
X164582700Y-105615995D01*
X164580383Y-105611940D01*
X164423171Y-105412517D01*
X164295177Y-105292113D01*
X164241610Y-105241722D01*
X164241608Y-105241720D01*
X164238209Y-105238523D01*
X164146892Y-105175174D01*
X164033393Y-105096437D01*
X164033390Y-105096435D01*
X164029561Y-105093779D01*
X164025384Y-105091719D01*
X164025377Y-105091715D01*
X163805996Y-104983528D01*
X163805992Y-104983527D01*
X163801810Y-104981464D01*
X163559960Y-104904047D01*
X163555355Y-104903297D01*
X163313935Y-104863980D01*
X163313934Y-104863980D01*
X163309323Y-104863229D01*
X163182365Y-104861567D01*
X163060083Y-104859966D01*
X163060080Y-104859966D01*
X163055406Y-104859905D01*
X162803787Y-104894149D01*
X162559993Y-104965208D01*
X162329380Y-105071522D01*
X162325471Y-105074085D01*
X162120928Y-105208189D01*
X162120923Y-105208193D01*
X162117015Y-105210755D01*
X162080293Y-105243531D01*
X161940419Y-105368373D01*
X161927562Y-105379848D01*
X161765183Y-105575087D01*
X161633447Y-105792182D01*
X161631638Y-105796496D01*
X161631637Y-105796498D01*
X161622197Y-105819009D01*
X161608260Y-105852247D01*
X161605333Y-105859226D01*
X161560544Y-105914312D01*
X161489136Y-105936500D01*
X159208768Y-105936500D01*
X159197585Y-105935973D01*
X159190092Y-105934298D01*
X159182166Y-105934547D01*
X159182165Y-105934547D01*
X159122002Y-105936438D01*
X159118044Y-105936500D01*
X159090144Y-105936500D01*
X159086154Y-105937004D01*
X159074320Y-105937936D01*
X159030111Y-105939326D01*
X159022495Y-105941539D01*
X159022493Y-105941539D01*
X159010652Y-105944979D01*
X158991293Y-105948988D01*
X158989983Y-105949154D01*
X158971203Y-105951526D01*
X158963837Y-105954442D01*
X158963831Y-105954444D01*
X158930098Y-105967800D01*
X158918868Y-105971645D01*
X158884017Y-105981770D01*
X158876407Y-105983981D01*
X158869584Y-105988016D01*
X158858966Y-105994295D01*
X158841213Y-106002992D01*
X158833568Y-106006019D01*
X158822383Y-106010448D01*
X158815968Y-106015109D01*
X158786612Y-106036437D01*
X158776695Y-106042951D01*
X158738638Y-106065458D01*
X158724317Y-106079779D01*
X158709284Y-106092619D01*
X158692893Y-106104528D01*
X158687842Y-106110634D01*
X158664702Y-106138605D01*
X158656712Y-106147384D01*
X155817747Y-108986348D01*
X155809461Y-108993888D01*
X155802982Y-108998000D01*
X155797557Y-109003777D01*
X155756357Y-109047651D01*
X155753602Y-109050493D01*
X155733865Y-109070230D01*
X155731385Y-109073427D01*
X155723682Y-109082447D01*
X155693414Y-109114679D01*
X155689595Y-109121625D01*
X155689593Y-109121628D01*
X155683652Y-109132434D01*
X155672801Y-109148953D01*
X155660386Y-109164959D01*
X155657240Y-109172229D01*
X155656939Y-109172738D01*
X155605046Y-109221191D01*
X155534879Y-109233862D01*
X155516533Y-109231869D01*
X155516529Y-109231869D01*
X155513134Y-109231500D01*
X155319980Y-109231500D01*
X155251859Y-109211498D01*
X155205366Y-109157842D01*
X155193980Y-109105500D01*
X155193980Y-108401313D01*
X155196212Y-108377704D01*
X155196270Y-108377401D01*
X155196270Y-108377397D01*
X155197755Y-108369614D01*
X155194229Y-108313569D01*
X155193980Y-108305658D01*
X155193980Y-106104114D01*
X155213982Y-106035993D01*
X155230885Y-106015019D01*
X155476728Y-105769176D01*
X155539040Y-105735150D01*
X155607364Y-105739316D01*
X155762151Y-105793370D01*
X155762157Y-105793372D01*
X155766568Y-105794912D01*
X156016050Y-105842278D01*
X156136532Y-105847011D01*
X156265125Y-105852064D01*
X156265130Y-105852064D01*
X156269793Y-105852247D01*
X156368774Y-105841407D01*
X156517569Y-105825112D01*
X156517575Y-105825111D01*
X156522222Y-105824602D01*
X156542000Y-105819395D01*
X156763273Y-105761138D01*
X156767793Y-105759948D01*
X156900505Y-105702931D01*
X156996807Y-105661557D01*
X156996810Y-105661555D01*
X157001110Y-105659708D01*
X157005090Y-105657245D01*
X157005094Y-105657243D01*
X157213064Y-105528547D01*
X157213066Y-105528545D01*
X157217047Y-105526082D01*
X157220624Y-105523054D01*
X157407289Y-105365031D01*
X157407291Y-105365029D01*
X157410862Y-105362006D01*
X157578295Y-105171084D01*
X157630145Y-105090475D01*
X157698935Y-104983528D01*
X157715669Y-104957512D01*
X157819967Y-104725980D01*
X157888896Y-104481575D01*
X157906382Y-104344125D01*
X157920545Y-104232798D01*
X157920545Y-104232792D01*
X157920943Y-104229667D01*
X157921387Y-104212732D01*
X157923208Y-104143160D01*
X157923291Y-104140000D01*
X157904472Y-103886759D01*
X157848428Y-103639082D01*
X157756391Y-103402409D01*
X157735866Y-103366498D01*
X157632702Y-103185997D01*
X157632700Y-103185995D01*
X157630383Y-103181940D01*
X157473171Y-102982517D01*
X157374136Y-102889355D01*
X157291610Y-102811722D01*
X157291608Y-102811720D01*
X157288209Y-102808523D01*
X157089045Y-102670358D01*
X157083393Y-102666437D01*
X157083390Y-102666435D01*
X157079561Y-102663779D01*
X157075384Y-102661719D01*
X157075377Y-102661715D01*
X156855996Y-102553528D01*
X156855992Y-102553527D01*
X156851810Y-102551464D01*
X156609960Y-102474047D01*
X156605355Y-102473297D01*
X156363935Y-102433980D01*
X156363934Y-102433980D01*
X156359323Y-102433229D01*
X156232364Y-102431567D01*
X156110083Y-102429966D01*
X156110080Y-102429966D01*
X156105406Y-102429905D01*
X155853787Y-102464149D01*
X155609993Y-102535208D01*
X155379380Y-102641522D01*
X155375471Y-102644085D01*
X155170928Y-102778189D01*
X155170923Y-102778193D01*
X155167015Y-102780755D01*
X155118988Y-102823621D01*
X154982492Y-102945448D01*
X154977562Y-102949848D01*
X154815183Y-103145087D01*
X154683447Y-103362182D01*
X154585246Y-103596365D01*
X154522738Y-103842490D01*
X154497296Y-104095151D01*
X154509480Y-104348798D01*
X154559021Y-104597857D01*
X154560600Y-104602255D01*
X154560602Y-104602262D01*
X154610547Y-104741369D01*
X154614741Y-104812241D01*
X154581054Y-104873041D01*
X154168227Y-105285868D01*
X154159941Y-105293408D01*
X154153462Y-105297520D01*
X154148037Y-105303297D01*
X154106837Y-105347171D01*
X154104082Y-105350013D01*
X154084345Y-105369750D01*
X154081865Y-105372947D01*
X154074162Y-105381967D01*
X154043894Y-105414199D01*
X154040075Y-105421145D01*
X154040073Y-105421148D01*
X154034132Y-105431954D01*
X154023281Y-105448473D01*
X154010866Y-105464479D01*
X154007721Y-105471748D01*
X154007718Y-105471752D01*
X153993306Y-105505057D01*
X153988089Y-105515707D01*
X153966785Y-105554460D01*
X153964814Y-105562135D01*
X153964814Y-105562136D01*
X153961747Y-105574082D01*
X153955343Y-105592786D01*
X153947299Y-105611375D01*
X153946060Y-105619198D01*
X153946057Y-105619208D01*
X153940381Y-105655044D01*
X153937975Y-105666664D01*
X153933506Y-105684072D01*
X153926980Y-105709490D01*
X153926980Y-105729744D01*
X153925429Y-105749454D01*
X153922260Y-105769463D01*
X153923006Y-105777355D01*
X153926421Y-105813481D01*
X153926980Y-105825339D01*
X153926980Y-107570020D01*
X153906978Y-107638141D01*
X153853322Y-107684634D01*
X153800980Y-107696020D01*
X139124114Y-107696020D01*
X139055993Y-107676018D01*
X139035019Y-107659115D01*
X136215405Y-104839500D01*
X136181379Y-104777188D01*
X136178500Y-104750405D01*
X136178500Y-103041866D01*
X136173746Y-102998107D01*
X136186274Y-102928226D01*
X136234594Y-102876210D01*
X136299009Y-102858500D01*
X137856523Y-102858500D01*
X137924644Y-102878502D01*
X137945618Y-102895405D01*
X139228520Y-104178308D01*
X139262546Y-104240620D01*
X139265280Y-104261358D01*
X139269255Y-104344125D01*
X139269256Y-104344132D01*
X139269480Y-104348798D01*
X139319021Y-104597857D01*
X139320600Y-104602255D01*
X139320602Y-104602262D01*
X139365022Y-104725980D01*
X139404831Y-104836858D01*
X139407048Y-104840984D01*
X139481766Y-104980041D01*
X139525025Y-105060551D01*
X139527820Y-105064294D01*
X139527822Y-105064297D01*
X139674171Y-105260282D01*
X139674176Y-105260288D01*
X139676963Y-105264020D01*
X139680272Y-105267300D01*
X139680277Y-105267306D01*
X139831351Y-105417067D01*
X139857307Y-105442797D01*
X139861069Y-105445555D01*
X139861072Y-105445558D01*
X140020065Y-105562136D01*
X140062094Y-105592953D01*
X140066229Y-105595129D01*
X140066233Y-105595131D01*
X140097108Y-105611375D01*
X140286827Y-105711191D01*
X140526568Y-105794912D01*
X140776050Y-105842278D01*
X140896532Y-105847011D01*
X141025125Y-105852064D01*
X141025130Y-105852064D01*
X141029793Y-105852247D01*
X141128774Y-105841407D01*
X141277569Y-105825112D01*
X141277575Y-105825111D01*
X141282222Y-105824602D01*
X141302000Y-105819395D01*
X141523273Y-105761138D01*
X141527793Y-105759948D01*
X141660505Y-105702931D01*
X141756807Y-105661557D01*
X141756810Y-105661555D01*
X141761110Y-105659708D01*
X141765090Y-105657245D01*
X141765094Y-105657243D01*
X141973064Y-105528547D01*
X141973066Y-105528545D01*
X141977047Y-105526082D01*
X141980624Y-105523054D01*
X142167289Y-105365031D01*
X142167291Y-105365029D01*
X142170862Y-105362006D01*
X142338295Y-105171084D01*
X142390145Y-105090475D01*
X142458935Y-104983528D01*
X142475669Y-104957512D01*
X142579967Y-104725980D01*
X142648896Y-104481575D01*
X142666382Y-104344125D01*
X142680545Y-104232798D01*
X142680545Y-104232792D01*
X142680943Y-104229667D01*
X142681387Y-104212732D01*
X142683208Y-104143160D01*
X142683291Y-104140000D01*
X142664472Y-103886759D01*
X142608428Y-103639082D01*
X142516391Y-103402409D01*
X142495866Y-103366498D01*
X142392702Y-103185997D01*
X142392700Y-103185995D01*
X142390383Y-103181940D01*
X142233171Y-102982517D01*
X142134136Y-102889355D01*
X142051610Y-102811722D01*
X142051608Y-102811720D01*
X142048209Y-102808523D01*
X141849045Y-102670358D01*
X141843393Y-102666437D01*
X141843390Y-102666435D01*
X141839561Y-102663779D01*
X141835384Y-102661719D01*
X141835377Y-102661715D01*
X141615996Y-102553528D01*
X141615992Y-102553527D01*
X141611810Y-102551464D01*
X141369960Y-102474047D01*
X141365355Y-102473297D01*
X141123935Y-102433980D01*
X141123934Y-102433980D01*
X141119323Y-102433229D01*
X141107229Y-102433071D01*
X141093225Y-102432887D01*
X141025372Y-102411994D01*
X141005781Y-102395993D01*
X139384525Y-100774737D01*
X139373657Y-100762346D01*
X139363533Y-100749152D01*
X139360123Y-100744708D01*
X139299826Y-100689842D01*
X139295531Y-100685743D01*
X139279590Y-100669802D01*
X139277440Y-100668004D01*
X139259577Y-100653068D01*
X139255602Y-100649600D01*
X139198112Y-100597288D01*
X139198103Y-100597281D01*
X139193964Y-100593515D01*
X139178773Y-100583986D01*
X139164907Y-100573911D01*
X139155451Y-100566004D01*
X139155441Y-100565997D01*
X139151146Y-100562406D01*
X139078752Y-100521113D01*
X139074232Y-100518408D01*
X139069841Y-100515653D01*
X139038900Y-100496244D01*
X139008404Y-100477114D01*
X139008401Y-100477112D01*
X139003656Y-100474136D01*
X138998451Y-100472043D01*
X138998448Y-100472042D01*
X138987021Y-100467448D01*
X138971589Y-100459988D01*
X138960881Y-100453880D01*
X138960872Y-100453876D01*
X138956007Y-100451101D01*
X138950730Y-100449232D01*
X138950725Y-100449230D01*
X138877458Y-100423285D01*
X138872522Y-100421420D01*
X138800416Y-100392434D01*
X138795217Y-100390344D01*
X138789730Y-100389208D01*
X138789728Y-100389207D01*
X138777651Y-100386706D01*
X138761156Y-100382101D01*
X138744241Y-100376111D01*
X138661990Y-100362641D01*
X138656820Y-100361683D01*
X138575233Y-100344787D01*
X138570621Y-100344521D01*
X138570620Y-100344521D01*
X138547452Y-100343185D01*
X138534347Y-100341738D01*
X138528090Y-100340714D01*
X138528086Y-100340714D01*
X138522543Y-100339806D01*
X138516930Y-100339894D01*
X138516928Y-100339894D01*
X138415736Y-100341484D01*
X138413757Y-100341500D01*
X130686472Y-100341500D01*
X130670025Y-100340422D01*
X130665346Y-100339806D01*
X130647990Y-100337521D01*
X130642390Y-100337785D01*
X130642389Y-100337785D01*
X130566580Y-100341360D01*
X130560645Y-100341500D01*
X130538077Y-100341500D01*
X130535294Y-100341748D01*
X130535280Y-100341749D01*
X130512099Y-100343818D01*
X130506836Y-100344177D01*
X130477418Y-100345564D01*
X130423588Y-100348103D01*
X130406099Y-100352108D01*
X130389180Y-100354788D01*
X130384694Y-100355189D01*
X130371314Y-100356383D01*
X130365906Y-100357862D01*
X130365903Y-100357863D01*
X130290946Y-100378369D01*
X130285828Y-100379655D01*
X130229022Y-100392666D01*
X130204606Y-100398258D01*
X130188113Y-100405293D01*
X130171931Y-100410928D01*
X130160043Y-100414180D01*
X130160034Y-100414183D01*
X130154625Y-100415663D01*
X130149562Y-100418078D01*
X130149551Y-100418082D01*
X130079419Y-100451534D01*
X130074618Y-100453702D01*
X129997968Y-100486396D01*
X129993280Y-100489475D01*
X129993279Y-100489476D01*
X129982976Y-100496244D01*
X129968047Y-100504656D01*
X129951858Y-100512378D01*
X129947302Y-100515652D01*
X129947300Y-100515653D01*
X129884198Y-100560997D01*
X129879847Y-100563987D01*
X129814068Y-100607195D01*
X129814063Y-100607199D01*
X129810202Y-100609735D01*
X129806751Y-100612810D01*
X129789422Y-100628249D01*
X129779131Y-100636494D01*
X129773983Y-100640193D01*
X129773979Y-100640197D01*
X129769422Y-100643471D01*
X129741980Y-100671789D01*
X129695044Y-100720223D01*
X129693655Y-100721633D01*
X128714737Y-101700551D01*
X128702347Y-101711418D01*
X128684708Y-101724953D01*
X128630188Y-101784870D01*
X128629842Y-101785250D01*
X128625743Y-101789545D01*
X128609802Y-101805486D01*
X128608007Y-101807633D01*
X128608005Y-101807635D01*
X128593068Y-101825499D01*
X128589600Y-101829474D01*
X128537288Y-101886964D01*
X128537281Y-101886973D01*
X128533515Y-101891112D01*
X128530538Y-101895858D01*
X128530537Y-101895859D01*
X128523987Y-101906301D01*
X128513911Y-101920169D01*
X128506004Y-101929625D01*
X128505997Y-101929635D01*
X128502406Y-101933930D01*
X128461118Y-102006316D01*
X128458413Y-102010835D01*
X128414136Y-102081420D01*
X128412043Y-102086625D01*
X128412042Y-102086628D01*
X128407448Y-102098055D01*
X128399988Y-102113487D01*
X128393880Y-102124195D01*
X128393876Y-102124204D01*
X128391101Y-102129069D01*
X128389232Y-102134346D01*
X128389230Y-102134351D01*
X128363285Y-102207618D01*
X128361420Y-102212554D01*
X128330344Y-102289859D01*
X128329208Y-102295346D01*
X128329207Y-102295348D01*
X128326706Y-102307425D01*
X128322101Y-102323920D01*
X128316111Y-102340835D01*
X128315204Y-102346374D01*
X128302643Y-102423077D01*
X128301683Y-102428256D01*
X128284787Y-102509843D01*
X128284521Y-102514455D01*
X128284521Y-102514456D01*
X128283185Y-102537624D01*
X128281738Y-102550729D01*
X128280714Y-102556986D01*
X128279806Y-102562533D01*
X128279894Y-102568146D01*
X128279894Y-102568148D01*
X128281484Y-102669340D01*
X128281500Y-102671319D01*
X128281500Y-102755500D01*
X128261498Y-102823621D01*
X128207842Y-102870114D01*
X128155500Y-102881500D01*
X123281396Y-102881500D01*
X123264949Y-102880422D01*
X123264270Y-102880333D01*
X123242914Y-102877521D01*
X123237314Y-102877785D01*
X123237313Y-102877785D01*
X123161504Y-102881360D01*
X123155569Y-102881500D01*
X123133001Y-102881500D01*
X123130218Y-102881748D01*
X123130204Y-102881749D01*
X123107023Y-102883818D01*
X123101760Y-102884177D01*
X123072342Y-102885564D01*
X123018512Y-102888103D01*
X123001023Y-102892108D01*
X122984104Y-102894788D01*
X122979618Y-102895189D01*
X122966238Y-102896383D01*
X122960830Y-102897862D01*
X122960827Y-102897863D01*
X122885870Y-102918369D01*
X122880752Y-102919655D01*
X122805000Y-102937005D01*
X122804998Y-102937006D01*
X122799530Y-102938258D01*
X122789030Y-102942737D01*
X122783033Y-102945294D01*
X122766858Y-102950927D01*
X122760806Y-102952583D01*
X122749549Y-102955663D01*
X122744494Y-102958074D01*
X122744489Y-102958076D01*
X122674317Y-102991546D01*
X122669508Y-102993717D01*
X122598053Y-103024195D01*
X122598047Y-103024198D01*
X122592892Y-103026397D01*
X122577902Y-103036244D01*
X122562974Y-103044655D01*
X122546782Y-103052378D01*
X122542229Y-103055650D01*
X122542225Y-103055652D01*
X122479103Y-103101010D01*
X122474753Y-103103999D01*
X122405126Y-103149735D01*
X122384338Y-103168257D01*
X122374061Y-103176490D01*
X122364346Y-103183471D01*
X122360444Y-103187498D01*
X122289938Y-103260254D01*
X122288549Y-103261664D01*
X120459737Y-105090475D01*
X120447347Y-105101342D01*
X120429708Y-105114877D01*
X120386986Y-105161828D01*
X120374842Y-105175174D01*
X120370743Y-105179469D01*
X120025617Y-105524595D01*
X119963305Y-105558621D01*
X119936522Y-105561500D01*
X119750369Y-105561500D01*
X119682248Y-105541498D01*
X119643228Y-105501807D01*
X119608478Y-105445652D01*
X119483303Y-105320695D01*
X119477072Y-105316854D01*
X119338968Y-105231725D01*
X119338966Y-105231724D01*
X119332738Y-105227885D01*
X119252995Y-105201436D01*
X119171389Y-105174368D01*
X119171387Y-105174368D01*
X119164861Y-105172203D01*
X119158025Y-105171503D01*
X119158022Y-105171502D01*
X119114969Y-105167091D01*
X119060400Y-105161500D01*
X117159600Y-105161500D01*
X117156354Y-105161837D01*
X117156350Y-105161837D01*
X117060693Y-105171762D01*
X117060689Y-105171763D01*
X117053835Y-105172474D01*
X117047299Y-105174655D01*
X117047297Y-105174655D01*
X117032868Y-105179469D01*
X116886055Y-105228450D01*
X116735652Y-105321522D01*
X116730479Y-105326704D01*
X116692219Y-105365031D01*
X116610695Y-105446697D01*
X116606855Y-105452927D01*
X116606854Y-105452928D01*
X116544269Y-105554460D01*
X116517885Y-105597262D01*
X116515581Y-105604209D01*
X116483209Y-105701809D01*
X116462203Y-105765139D01*
X116451500Y-105869600D01*
X116451500Y-107770400D01*
X114808000Y-107770400D01*
X114808000Y-98424000D01*
X114828002Y-98355879D01*
X114881658Y-98309386D01*
X114934000Y-98298000D01*
X179706000Y-98298000D01*
X179774121Y-98318002D01*
G37*
%TD.AperFunction*%
%TD*%
M02*
