M48
; DRILL file {KiCad (6.0.1)} date Tue Feb  8 00:13:35 2022
; FORMAT={-:-/ absolute / inch / decimal}
; #@! TF.CreationDate,2022-02-08T00:13:35+06:30
; #@! TF.GenerationSoftware,Kicad,Pcbnew,(6.0.1)
; #@! TF.FileFunction,Plated,1,2,PTH
FMAT,2
INCH
; #@! TA.AperFunction,Plated,PTH,ComponentDrill
T1C0.0295
; #@! TA.AperFunction,Plated,PTH,ComponentDrill
T2C0.0315
; #@! TA.AperFunction,Plated,PTH,ComponentDrill
T3C0.0394
; #@! TA.AperFunction,Plated,PTH,ComponentDrill
T4C0.0433
; #@! TA.AperFunction,Plated,PTH,ComponentDrill
T5C0.0472
; #@! TA.AperFunction,Plated,PTH,ComponentDrill
T6C0.0528
%
G90
G05
T1
X6.1Y-4.35
X6.15Y-4.35
X6.15Y-4.6
X6.15Y-4.65
X6.15Y-4.7
X6.2Y-4.35
T2
X6.65Y-4.7016
X6.65Y-4.8984
T3
X6.15Y-4.9068
X6.15Y-5.1036
T4
X4.65Y-4.2055
X4.65Y-4.3945
X6.95Y-4.7
X6.95Y-4.889
T5
X4.95Y-4.35
X4.95Y-4.95
X5.25Y-4.4
X5.25Y-4.65
X5.25Y-4.9
X5.55Y-4.1
X5.85Y-4.4
X5.85Y-4.65
X5.85Y-4.9
X6.15Y-4.1
X6.4236Y-4.1957
X6.4236Y-4.4043
T6
X5.1Y-4.1
X5.2Y-4.1
X5.3Y-4.1
T0
M30
