%TF.GenerationSoftware,KiCad,Pcbnew,(6.0.1)*%
%TF.CreationDate,2022-05-20T13:38:49+06:30*%
%TF.ProjectId,STM32_Com_Buck,53544d33-325f-4436-9f6d-5f4275636b2e,v1.0*%
%TF.SameCoordinates,Original*%
%TF.FileFunction,Soldermask,Top*%
%TF.FilePolarity,Negative*%
%FSLAX46Y46*%
G04 Gerber Fmt 4.6, Leading zero omitted, Abs format (unit mm)*
G04 Created by KiCad (PCBNEW (6.0.1)) date 2022-05-20 13:38:49*
%MOMM*%
%LPD*%
G01*
G04 APERTURE LIST*
G04 Aperture macros list*
%AMRoundRect*
0 Rectangle with rounded corners*
0 $1 Rounding radius*
0 $2 $3 $4 $5 $6 $7 $8 $9 X,Y pos of 4 corners*
0 Add a 4 corners polygon primitive as box body*
4,1,4,$2,$3,$4,$5,$6,$7,$8,$9,$2,$3,0*
0 Add four circle primitives for the rounded corners*
1,1,$1+$1,$2,$3*
1,1,$1+$1,$4,$5*
1,1,$1+$1,$6,$7*
1,1,$1+$1,$8,$9*
0 Add four rect primitives between the rounded corners*
20,1,$1+$1,$2,$3,$4,$5,0*
20,1,$1+$1,$4,$5,$6,$7,0*
20,1,$1+$1,$6,$7,$8,$9,0*
20,1,$1+$1,$8,$9,$2,$3,0*%
G04 Aperture macros list end*
%ADD10RoundRect,0.140000X-0.140000X-0.170000X0.140000X-0.170000X0.140000X0.170000X-0.140000X0.170000X0*%
%ADD11RoundRect,0.135000X-0.185000X0.135000X-0.185000X-0.135000X0.185000X-0.135000X0.185000X0.135000X0*%
%ADD12RoundRect,0.140000X-0.170000X0.140000X-0.170000X-0.140000X0.170000X-0.140000X0.170000X0.140000X0*%
%ADD13RoundRect,0.135000X0.135000X0.185000X-0.135000X0.185000X-0.135000X-0.185000X0.135000X-0.185000X0*%
%ADD14R,0.800000X1.000000*%
%ADD15C,0.900000*%
%ADD16R,1.500000X0.700000*%
%ADD17C,0.800000*%
%ADD18C,5.000000*%
%ADD19RoundRect,0.135000X0.185000X-0.135000X0.185000X0.135000X-0.185000X0.135000X-0.185000X-0.135000X0*%
%ADD20RoundRect,0.200000X0.275000X-0.200000X0.275000X0.200000X-0.275000X0.200000X-0.275000X-0.200000X0*%
%ADD21R,2.500000X3.300000*%
%ADD22RoundRect,0.200000X0.200000X0.800000X-0.200000X0.800000X-0.200000X-0.800000X0.200000X-0.800000X0*%
%ADD23RoundRect,0.140000X0.170000X-0.140000X0.170000X0.140000X-0.170000X0.140000X-0.170000X-0.140000X0*%
%ADD24RoundRect,0.147500X-0.147500X-0.172500X0.147500X-0.172500X0.147500X0.172500X-0.147500X0.172500X0*%
%ADD25RoundRect,0.147500X0.172500X-0.147500X0.172500X0.147500X-0.172500X0.147500X-0.172500X-0.147500X0*%
%ADD26RoundRect,0.200000X-0.200000X-0.275000X0.200000X-0.275000X0.200000X0.275000X-0.200000X0.275000X0*%
%ADD27RoundRect,0.135000X-0.135000X-0.185000X0.135000X-0.185000X0.135000X0.185000X-0.135000X0.185000X0*%
%ADD28RoundRect,0.140000X0.140000X0.170000X-0.140000X0.170000X-0.140000X-0.170000X0.140000X-0.170000X0*%
%ADD29O,0.800000X0.800000*%
%ADD30R,0.450000X1.300000*%
%ADD31O,1.150000X1.800000*%
%ADD32O,1.450000X2.000000*%
%ADD33R,0.600000X1.550000*%
%ADD34R,3.100000X2.600000*%
%ADD35RoundRect,0.150000X-0.150000X0.512500X-0.150000X-0.512500X0.150000X-0.512500X0.150000X0.512500X0*%
%ADD36RoundRect,0.150000X0.150000X-0.825000X0.150000X0.825000X-0.150000X0.825000X-0.150000X-0.825000X0*%
%ADD37RoundRect,0.537500X-1.162500X0.537500X-1.162500X-0.537500X1.162500X-0.537500X1.162500X0.537500X0*%
%ADD38RoundRect,0.218750X-0.256250X0.218750X-0.256250X-0.218750X0.256250X-0.218750X0.256250X0.218750X0*%
%ADD39RoundRect,0.250000X1.500000X0.550000X-1.500000X0.550000X-1.500000X-0.550000X1.500000X-0.550000X0*%
%ADD40RoundRect,0.150000X0.150000X-0.587500X0.150000X0.587500X-0.150000X0.587500X-0.150000X-0.587500X0*%
%ADD41R,3.300000X2.500000*%
%ADD42RoundRect,0.200000X0.200000X0.450000X-0.200000X0.450000X-0.200000X-0.450000X0.200000X-0.450000X0*%
%ADD43O,0.800000X1.300000*%
%ADD44RoundRect,0.200000X0.200000X0.275000X-0.200000X0.275000X-0.200000X-0.275000X0.200000X-0.275000X0*%
%ADD45R,2.750000X1.000000*%
%ADD46R,3.150000X1.000000*%
%ADD47RoundRect,0.150000X-0.587500X-0.150000X0.587500X-0.150000X0.587500X0.150000X-0.587500X0.150000X0*%
%ADD48R,1.000000X3.150000*%
%ADD49RoundRect,0.225000X0.225000X0.250000X-0.225000X0.250000X-0.225000X-0.250000X0.225000X-0.250000X0*%
%ADD50R,1.200000X1.400000*%
%ADD51R,1.200000X0.900000*%
%ADD52R,0.850000X0.850000*%
%ADD53O,0.850000X0.850000*%
%ADD54RoundRect,0.225000X0.250000X-0.225000X0.250000X0.225000X-0.250000X0.225000X-0.250000X-0.225000X0*%
%ADD55R,2.400000X2.400000*%
%ADD56C,2.400000*%
%ADD57RoundRect,0.200000X-0.275000X0.200000X-0.275000X-0.200000X0.275000X-0.200000X0.275000X0.200000X0*%
%ADD58RoundRect,0.225000X-0.225000X-0.250000X0.225000X-0.250000X0.225000X0.250000X-0.225000X0.250000X0*%
%ADD59RoundRect,0.075000X-0.700000X-0.075000X0.700000X-0.075000X0.700000X0.075000X-0.700000X0.075000X0*%
%ADD60RoundRect,0.075000X-0.075000X-0.700000X0.075000X-0.700000X0.075000X0.700000X-0.075000X0.700000X0*%
%ADD61C,4.000000*%
%ADD62R,1.600000X1.600000*%
%ADD63C,1.600000*%
%ADD64RoundRect,0.200000X-0.200000X-0.450000X0.200000X-0.450000X0.200000X0.450000X-0.200000X0.450000X0*%
G04 APERTURE END LIST*
D10*
%TO.C,C17*%
X183416000Y-50546000D03*
X184376000Y-50546000D03*
%TD*%
%TO.C,C18*%
X193220400Y-53238400D03*
X194180400Y-53238400D03*
%TD*%
D11*
%TO.C,R8*%
X199694800Y-66241200D03*
X199694800Y-67261200D03*
%TD*%
D12*
%TO.C,C19*%
X192125600Y-63883600D03*
X192125600Y-64843600D03*
%TD*%
D10*
%TO.C,C14*%
X176812000Y-36169600D03*
X177772000Y-36169600D03*
%TD*%
D13*
%TO.C,R18*%
X172874400Y-70662800D03*
X171854400Y-70662800D03*
%TD*%
D14*
%TO.C,SW1*%
X156405600Y-39464000D03*
D15*
X157505600Y-34314000D03*
X157505600Y-37314000D03*
D14*
X156405600Y-32164000D03*
X158615600Y-39464000D03*
X158615600Y-32164000D03*
D16*
X159265600Y-33564000D03*
X159265600Y-36564000D03*
X159265600Y-38064000D03*
%TD*%
D17*
%TO.C,H3*%
X156972000Y-74833000D03*
D18*
X156972000Y-76708000D03*
D17*
X158847000Y-76708000D03*
X158297825Y-75382175D03*
X156972000Y-78583000D03*
X155097000Y-76708000D03*
X158297825Y-78033825D03*
X155646175Y-75382175D03*
X155646175Y-78033825D03*
%TD*%
D19*
%TO.C,R32*%
X172974000Y-39473600D03*
X172974000Y-38453600D03*
%TD*%
D20*
%TO.C,R6*%
X179374800Y-66306200D03*
X179374800Y-64656200D03*
%TD*%
D21*
%TO.C,D2*%
X187702400Y-35255200D03*
X180902400Y-35255200D03*
%TD*%
D22*
%TO.C,SW2*%
X180865200Y-75438000D03*
X176665200Y-75438000D03*
%TD*%
D23*
%TO.C,C1*%
X210629000Y-36852800D03*
X210629000Y-35892800D03*
%TD*%
D19*
%TO.C,R30*%
X173278800Y-50294000D03*
X173278800Y-49274000D03*
%TD*%
D24*
%TO.C,FB1*%
X211312400Y-31648400D03*
X212282400Y-31648400D03*
%TD*%
D25*
%TO.C,L2*%
X178816000Y-63273800D03*
X178816000Y-62303800D03*
%TD*%
D26*
%TO.C,R2*%
X214833200Y-41503600D03*
X216483200Y-41503600D03*
%TD*%
D27*
%TO.C,R24*%
X171854400Y-72288400D03*
X172874400Y-72288400D03*
%TD*%
%TO.C,R21*%
X190244000Y-49479200D03*
X191264000Y-49479200D03*
%TD*%
D28*
%TO.C,C15*%
X195856800Y-29057600D03*
X194896800Y-29057600D03*
%TD*%
D17*
%TO.C,H1*%
X217114175Y-78033825D03*
X218440000Y-78583000D03*
X219765825Y-75382175D03*
D18*
X218440000Y-76708000D03*
D17*
X219765825Y-78033825D03*
X218440000Y-74833000D03*
X216565000Y-76708000D03*
X217114175Y-75382175D03*
X220315000Y-76708000D03*
%TD*%
D29*
%TO.C,J2*%
X198165000Y-20249400D03*
X203165000Y-20249400D03*
D30*
X201965000Y-21349400D03*
X201315000Y-21349400D03*
X200665000Y-21349400D03*
X200015000Y-21349400D03*
X199365000Y-21349400D03*
D31*
X204540000Y-17499400D03*
D32*
X204390000Y-21299400D03*
X196940000Y-21299400D03*
D31*
X196790000Y-17499400D03*
%TD*%
D33*
%TO.C,U1*%
X212330800Y-39072800D03*
X213600800Y-39072800D03*
X214870800Y-39072800D03*
X216140800Y-39072800D03*
X216140800Y-33672800D03*
X214870800Y-33672800D03*
X213600800Y-33672800D03*
X212330800Y-33672800D03*
D34*
X214235800Y-36372800D03*
%TD*%
D28*
%TO.C,C20*%
X184579200Y-65227200D03*
X183619200Y-65227200D03*
%TD*%
D19*
%TO.C,R28*%
X184556400Y-47652400D03*
X184556400Y-46632400D03*
%TD*%
D23*
%TO.C,C12*%
X175717200Y-36446400D03*
X175717200Y-35486400D03*
%TD*%
D35*
%TO.C,U4*%
X198104800Y-25329300D03*
X197154800Y-25329300D03*
X196204800Y-25329300D03*
X196204800Y-27604300D03*
X197154800Y-27604300D03*
X198104800Y-27604300D03*
%TD*%
D12*
%TO.C,C4*%
X178663600Y-54942800D03*
X178663600Y-55902800D03*
%TD*%
D36*
%TO.C,U3*%
X173659800Y-46366200D03*
X174929800Y-46366200D03*
X176199800Y-46366200D03*
X177469800Y-46366200D03*
X177469800Y-41416200D03*
X176199800Y-41416200D03*
X174929800Y-41416200D03*
X173659800Y-41416200D03*
%TD*%
D37*
%TO.C,L1*%
X213872000Y-44852000D03*
X213872000Y-50652000D03*
%TD*%
D27*
%TO.C,R13*%
X198880000Y-73507600D03*
X199900000Y-73507600D03*
%TD*%
D38*
%TO.C,F1*%
X214680800Y-26847700D03*
X214680800Y-28422700D03*
%TD*%
D19*
%TO.C,R10*%
X199796400Y-61063600D03*
X199796400Y-60043600D03*
%TD*%
%TO.C,R29*%
X183286400Y-47652400D03*
X183286400Y-46632400D03*
%TD*%
D39*
%TO.C,C3*%
X207424000Y-48768000D03*
X202024000Y-48768000D03*
%TD*%
D40*
%TO.C,D7*%
X174716400Y-33906700D03*
X176616400Y-33906700D03*
X175666400Y-32031700D03*
%TD*%
D41*
%TO.C,D5*%
X204724000Y-36071600D03*
X204724000Y-42871600D03*
%TD*%
D23*
%TO.C,C8*%
X195224400Y-54175600D03*
X195224400Y-53215600D03*
%TD*%
%TO.C,C21*%
X180187600Y-54198400D03*
X180187600Y-53238400D03*
%TD*%
D13*
%TO.C,R20*%
X172874400Y-74168000D03*
X171854400Y-74168000D03*
%TD*%
D12*
%TO.C,C6*%
X180136800Y-57228800D03*
X180136800Y-58188800D03*
%TD*%
D26*
%TO.C,R35*%
X185814200Y-47650400D03*
X187464200Y-47650400D03*
%TD*%
D42*
%TO.C,J9*%
X190089000Y-74683200D03*
D43*
X188839000Y-74683200D03*
X187589000Y-74683200D03*
X186339000Y-74683200D03*
%TD*%
D41*
%TO.C,D3*%
X202793600Y-32051200D03*
X202793600Y-25251200D03*
%TD*%
D13*
%TO.C,R16*%
X170842400Y-59791600D03*
X169822400Y-59791600D03*
%TD*%
%TO.C,R17*%
X170842400Y-61722000D03*
X169822400Y-61722000D03*
%TD*%
D10*
%TO.C,C9*%
X173256000Y-48260000D03*
X174216000Y-48260000D03*
%TD*%
D44*
%TO.C,R36*%
X181927000Y-47650400D03*
X180277000Y-47650400D03*
%TD*%
D27*
%TO.C,R5*%
X162050000Y-36576000D03*
X163070000Y-36576000D03*
%TD*%
D26*
%TO.C,R38*%
X190132200Y-71424800D03*
X191782200Y-71424800D03*
%TD*%
D17*
%TO.C,H4*%
X158847000Y-18288000D03*
X156972000Y-16413000D03*
D18*
X156972000Y-18288000D03*
D17*
X155097000Y-18288000D03*
X158297825Y-19613825D03*
X155646175Y-16962175D03*
X155646175Y-19613825D03*
X158297825Y-16962175D03*
X156972000Y-20163000D03*
%TD*%
D26*
%TO.C,R3*%
X211519000Y-41478200D03*
X213169000Y-41478200D03*
%TD*%
D19*
%TO.C,R9*%
X199796400Y-63654400D03*
X199796400Y-62634400D03*
%TD*%
D45*
%TO.C,J13*%
X168225000Y-42736000D03*
X161975000Y-42736000D03*
X168225000Y-44736000D03*
X161975000Y-44736000D03*
X168225000Y-46736000D03*
X161975000Y-46736000D03*
X168225000Y-48736000D03*
X161975000Y-48736000D03*
X168225000Y-50736000D03*
X161975000Y-50736000D03*
%TD*%
D46*
%TO.C,J7*%
X203723000Y-70967600D03*
X208773000Y-70967600D03*
X203723000Y-73507600D03*
X208773000Y-73507600D03*
X203723000Y-76047600D03*
X208773000Y-76047600D03*
%TD*%
D44*
%TO.C,R37*%
X186295800Y-71424800D03*
X184645800Y-71424800D03*
%TD*%
D13*
%TO.C,R23*%
X197664800Y-49530000D03*
X196644800Y-49530000D03*
%TD*%
D46*
%TO.C,J4*%
X168016400Y-73812400D03*
X162966400Y-73812400D03*
X168016400Y-71272400D03*
X162966400Y-71272400D03*
X168016400Y-68732400D03*
X162966400Y-68732400D03*
%TD*%
D25*
%TO.C,D6*%
X181000400Y-65079600D03*
X181000400Y-64109600D03*
%TD*%
D27*
%TO.C,R22*%
X194562000Y-49530000D03*
X195582000Y-49530000D03*
%TD*%
D47*
%TO.C,Q1*%
X210949300Y-24653200D03*
X210949300Y-26553200D03*
X212824300Y-25603200D03*
%TD*%
D28*
%TO.C,C11*%
X176095600Y-48260000D03*
X175135600Y-48260000D03*
%TD*%
D11*
%TO.C,R27*%
X188874400Y-71422800D03*
X188874400Y-72442800D03*
%TD*%
D26*
%TO.C,R4*%
X191986400Y-32766000D03*
X193636400Y-32766000D03*
%TD*%
D48*
%TO.C,J8*%
X167538400Y-57063400D03*
X167538400Y-62113400D03*
X164998400Y-57063400D03*
X164998400Y-62113400D03*
X162458400Y-57063400D03*
X162458400Y-62113400D03*
%TD*%
D49*
%TO.C,C16*%
X184874200Y-66598800D03*
X183324200Y-66598800D03*
%TD*%
D27*
%TO.C,R14*%
X198880000Y-71170800D03*
X199900000Y-71170800D03*
%TD*%
D50*
%TO.C,Y1*%
X175454000Y-55796000D03*
X175454000Y-57996000D03*
X177154000Y-57996000D03*
X177154000Y-55796000D03*
%TD*%
D51*
%TO.C,D1*%
X208229200Y-26493200D03*
X208229200Y-29793200D03*
%TD*%
D19*
%TO.C,R31*%
X177546000Y-50294000D03*
X177546000Y-49274000D03*
%TD*%
D46*
%TO.C,J6*%
X208773000Y-66245200D03*
X203723000Y-66245200D03*
X208773000Y-63705200D03*
X203723000Y-63705200D03*
X208773000Y-61165200D03*
X203723000Y-61165200D03*
X208773000Y-58625200D03*
X203723000Y-58625200D03*
X208773000Y-56085200D03*
X203723000Y-56085200D03*
%TD*%
D52*
%TO.C,J11*%
X214412000Y-57385200D03*
D53*
X214412000Y-56385200D03*
X214412000Y-55385200D03*
X214412000Y-54385200D03*
%TD*%
D19*
%TO.C,R7*%
X178663600Y-57964800D03*
X178663600Y-56944800D03*
%TD*%
D26*
%TO.C,R1*%
X210553800Y-28397200D03*
X212203800Y-28397200D03*
%TD*%
D17*
%TO.C,H2*%
X216565000Y-18288000D03*
X218440000Y-16413000D03*
X219765825Y-19613825D03*
X218440000Y-20163000D03*
D18*
X218440000Y-18288000D03*
D17*
X217114175Y-19613825D03*
X217114175Y-16962175D03*
X220315000Y-18288000D03*
X219765825Y-16962175D03*
%TD*%
D54*
%TO.C,C22*%
X178816000Y-60973000D03*
X178816000Y-59423000D03*
%TD*%
D55*
%TO.C,J3*%
X212852000Y-19648400D03*
D56*
X209352000Y-19648400D03*
%TD*%
D13*
%TO.C,R15*%
X170842400Y-57048400D03*
X169822400Y-57048400D03*
%TD*%
D24*
%TO.C,D4*%
X195247400Y-32766000D03*
X196217400Y-32766000D03*
%TD*%
D57*
%TO.C,R33*%
X174752000Y-37630600D03*
X174752000Y-39280600D03*
%TD*%
D52*
%TO.C,J12*%
X214579200Y-69697600D03*
D53*
X214579200Y-68697600D03*
X214579200Y-67697600D03*
X214579200Y-66697600D03*
X214579200Y-65697600D03*
X214579200Y-64697600D03*
X214579200Y-63697600D03*
X214579200Y-62697600D03*
X214579200Y-61697600D03*
%TD*%
D58*
%TO.C,C2*%
X213664000Y-31699200D03*
X215214000Y-31699200D03*
%TD*%
D59*
%TO.C,U2*%
X181777000Y-54162000D03*
X181777000Y-54662000D03*
X181777000Y-55162000D03*
X181777000Y-55662000D03*
X181777000Y-56162000D03*
X181777000Y-56662000D03*
X181777000Y-57162000D03*
X181777000Y-57662000D03*
X181777000Y-58162000D03*
X181777000Y-58662000D03*
X181777000Y-59162000D03*
X181777000Y-59662000D03*
X181777000Y-60162000D03*
X181777000Y-60662000D03*
X181777000Y-61162000D03*
X181777000Y-61662000D03*
D60*
X183702000Y-63587000D03*
X184202000Y-63587000D03*
X184702000Y-63587000D03*
X185202000Y-63587000D03*
X185702000Y-63587000D03*
X186202000Y-63587000D03*
X186702000Y-63587000D03*
X187202000Y-63587000D03*
X187702000Y-63587000D03*
X188202000Y-63587000D03*
X188702000Y-63587000D03*
X189202000Y-63587000D03*
X189702000Y-63587000D03*
X190202000Y-63587000D03*
X190702000Y-63587000D03*
X191202000Y-63587000D03*
D59*
X193127000Y-61662000D03*
X193127000Y-61162000D03*
X193127000Y-60662000D03*
X193127000Y-60162000D03*
X193127000Y-59662000D03*
X193127000Y-59162000D03*
X193127000Y-58662000D03*
X193127000Y-58162000D03*
X193127000Y-57662000D03*
X193127000Y-57162000D03*
X193127000Y-56662000D03*
X193127000Y-56162000D03*
X193127000Y-55662000D03*
X193127000Y-55162000D03*
X193127000Y-54662000D03*
X193127000Y-54162000D03*
D60*
X191202000Y-52237000D03*
X190702000Y-52237000D03*
X190202000Y-52237000D03*
X189702000Y-52237000D03*
X189202000Y-52237000D03*
X188702000Y-52237000D03*
X188202000Y-52237000D03*
X187702000Y-52237000D03*
X187202000Y-52237000D03*
X186702000Y-52237000D03*
X186202000Y-52237000D03*
X185702000Y-52237000D03*
X185202000Y-52237000D03*
X184702000Y-52237000D03*
X184202000Y-52237000D03*
X183702000Y-52237000D03*
%TD*%
D28*
%TO.C,C5*%
X176857600Y-59639200D03*
X175897600Y-59639200D03*
%TD*%
D11*
%TO.C,R26*%
X187604400Y-71422800D03*
X187604400Y-72442800D03*
%TD*%
D28*
%TO.C,C10*%
X176095600Y-49377600D03*
X175135600Y-49377600D03*
%TD*%
D13*
%TO.C,R11*%
X202795600Y-53746400D03*
X201775600Y-53746400D03*
%TD*%
D27*
%TO.C,R12*%
X198880000Y-75590400D03*
X199900000Y-75590400D03*
%TD*%
D52*
%TO.C,J15*%
X219456000Y-57350400D03*
D53*
X219456000Y-58350400D03*
X219456000Y-59350400D03*
X219456000Y-60350400D03*
%TD*%
D61*
%TO.C,J1*%
X164372200Y-26362800D03*
X189372200Y-26362800D03*
D62*
X182412200Y-27782800D03*
D63*
X179642200Y-27782800D03*
X176872200Y-27782800D03*
X174102200Y-27782800D03*
X171332200Y-27782800D03*
X181027200Y-24942800D03*
X178257200Y-24942800D03*
X175487200Y-24942800D03*
X172717200Y-24942800D03*
%TD*%
D10*
%TO.C,C7*%
X190680400Y-65836800D03*
X191640400Y-65836800D03*
%TD*%
D28*
%TO.C,C13*%
X174622400Y-36118800D03*
X173662400Y-36118800D03*
%TD*%
D52*
%TO.C,J14*%
X219252800Y-64919600D03*
D53*
X219252800Y-65919600D03*
X219252800Y-66919600D03*
X219252800Y-67919600D03*
%TD*%
D57*
%TO.C,R34*%
X176631600Y-37630600D03*
X176631600Y-39280600D03*
%TD*%
D13*
%TO.C,R19*%
X172874400Y-68884800D03*
X171854400Y-68884800D03*
%TD*%
D64*
%TO.C,J10*%
X182071800Y-44442800D03*
D43*
X183321800Y-44442800D03*
X184571800Y-44442800D03*
X185821800Y-44442800D03*
%TD*%
D48*
%TO.C,J5*%
X191465200Y-45603400D03*
X191465200Y-40553400D03*
X194005200Y-45603400D03*
X194005200Y-40553400D03*
X196545200Y-45603400D03*
X196545200Y-40553400D03*
%TD*%
D23*
%TO.C,C23*%
X180187600Y-60576400D03*
X180187600Y-59616400D03*
%TD*%
D11*
%TO.C,R25*%
X189128400Y-47648400D03*
X189128400Y-48668400D03*
%TD*%
M02*
