M48
; DRILL file {KiCad (6.0.1)} date Fri May 20 13:38:32 2022
; FORMAT={-:-/ absolute / inch / decimal}
; #@! TF.CreationDate,2022-05-20T13:38:32+06:30
; #@! TF.GenerationSoftware,Kicad,Pcbnew,(6.0.1)
; #@! TF.FileFunction,Plated,1,4,PTH
FMAT,2
INCH
; #@! TA.AperFunction,Plated,PTH,ViaDrill
T1C0.0079
; #@! TA.AperFunction,Plated,PTH,ComponentDrill
T2C0.0118
; #@! TA.AperFunction,Plated,PTH,ViaDrill
T3C0.0157
; #@! TA.AperFunction,Plated,PTH,ComponentDrill
T4C0.0197
; #@! TA.AperFunction,Plated,PTH,ComponentDrill
T5C0.0217
; #@! TA.AperFunction,Plated,PTH,ComponentDrill
T6C0.0335
; #@! TA.AperFunction,Plated,PTH,ComponentDrill
T7C0.0394
; #@! TA.AperFunction,Plated,PTH,ComponentDrill
T8C0.0472
; #@! TA.AperFunction,Plated,PTH,ComponentDrill
T9C0.0984
; #@! TA.AperFunction,Plated,PTH,ComponentDrill
T10C0.1260
%
G90
G05
T1
X6.738Y-1.852
X6.738Y-1.934
X6.78Y-2.11
X6.804Y-2.192
X6.96Y-1.892
X6.96Y-1.912
X6.9788Y-2.2009
X7.064Y-2.208
X7.204Y-2.0844
X7.244Y-2.128
X7.252Y-2.414
X7.288Y-2.438
X7.354Y-2.108
X7.384Y-2.112
X7.386Y-2.414
X7.4337Y-2.6526
X7.4378Y-2.6294
X7.441Y-2.606
X7.456Y-2.114
X7.486Y-2.414
X7.498Y-2.2276
X7.504Y-2.654
X7.516Y-2.414
X7.53Y-2.392
X7.542Y-2.368
X7.57Y-2.4573
X7.66Y-2.4356
X7.678Y-2.1873
X7.678Y-2.2111
X7.716Y-2.222
X7.7305Y-2.2406
X7.746Y-2.26
X7.8076Y-2.0456
X7.8244Y-2.0624
X7.844Y-2.548
X7.958Y-2.4633
X8.222Y-2.472
X8.36Y-2.566
X8.362Y-2.194
X8.362Y-2.622
X8.364Y-2.534
X8.366Y-2.166
X8.3678Y-2.4255
X8.368Y-2.47
X8.37Y-2.14
X8.37Y-2.402
X8.374Y-2.112
T2
X8.3636Y-1.4084
X8.3636Y-1.4556
X8.4109Y-1.4084
X8.4109Y-1.4556
X8.462Y-1.4084
X8.462Y-1.4556
X8.5053Y-1.4084
X8.5053Y-1.4556
T3
X6.2621Y-2.0719
X6.27Y-1.358
X6.324Y-1.324
X6.326Y-1.5
X6.328Y-2.706
X6.33Y-2.906
X6.346Y-2.448
X6.396Y-2.356
X6.396Y-2.536
X6.414Y-2.658
X6.414Y-2.752
X6.414Y-2.862
X6.416Y-2.952
X6.464Y-2.854
X6.474Y-1.918
X6.49Y-1.75
X6.492Y-1.658
X6.494Y-2.358
X6.496Y-2.532
X6.4981Y-1.9839
X6.552Y-2.448
X6.594Y-2.53
X6.64Y-2.446
X6.7Y-1.996
X6.712Y-2.882
X6.76Y-1.806
X6.776Y-1.512
X6.7895Y-1.8799
X6.804Y-1.422
X6.81Y-1.48
X6.836Y-1.388
X6.86Y-2.272
X6.888Y-1.762
X6.896Y-2.368
X6.912Y-2.968
X6.916Y-1.316
X6.916Y-1.352
X6.936Y-1.764
X6.954Y-3.04
X6.956Y-2.896
X6.998Y-2.356
X7.0Y-1.39
X7.02Y-2.612
X7.022Y-2.524
X7.032Y-1.424
X7.058Y-2.084
X7.076Y-2.492
X7.094Y-2.168
X7.098Y-1.836
X7.192Y-1.964
X7.204Y-2.54
X7.2105Y-2.1386
X7.218Y-2.666
X7.2244Y-2.3516
X7.23Y-2.812
X7.232Y-2.206
X7.2404Y-2.1641
X7.268Y-2.856
X7.272Y-2.288
X7.278Y-2.666
X7.284Y-1.962
X7.296Y-2.946
X7.304Y-2.32
X7.316Y-1.8
X7.3237Y-2.3588
X7.336Y-2.89
X7.338Y-2.99
X7.38Y-1.832
X7.416Y-1.97
X7.4451Y-2.1531
X7.484Y-2.892
X7.484Y-2.99
X7.494Y-1.596
X7.5129Y-2.1689
X7.522Y-2.942
X7.538Y-1.508
X7.558Y-1.246
X7.558Y-1.332
X7.582Y-1.594
X7.586Y-2.582
X7.598Y-2.506
X7.6Y-2.544
X7.608Y-2.06
X7.64Y-1.144
X7.646Y-2.06
X7.672Y-1.18
X7.676Y-1.008
X7.676Y-1.044
X7.676Y-1.078
X7.686Y-2.062
X7.69Y-1.596
X7.706Y-1.388
X7.7094Y-1.182
X7.726Y-1.254
X7.726Y-1.326
X7.736Y-1.686
X7.738Y-1.51
X7.76Y-1.146
X7.788Y-1.596
X7.81Y-1.388
X7.81Y-2.366
X7.818Y-0.84
X7.848Y-0.89
X7.858Y-1.92
X7.904Y-1.86
X7.91Y-1.98
X7.948Y-1.86
X7.95Y-2.85
X7.95Y-2.94
X7.958Y-1.982
X7.97Y-1.66
X7.972Y-1.7
X8.008Y-1.982
X8.022Y-1.616
X8.066Y-1.616
X8.072Y-1.92
X8.108Y-1.616
X8.134Y-2.608
X8.136Y-2.994
X8.15Y-1.654
X8.15Y-1.694
X8.166Y-1.98
X8.168Y-1.858
X8.218Y-2.75
X8.22Y-2.252
X8.22Y-2.366
X8.22Y-2.654
X8.22Y-2.838
X8.222Y-2.944
X8.248Y-0.97
X8.288Y-1.632
X8.302Y-2.794
X8.304Y-1.004
X8.304Y-2.896
X8.306Y-0.928
X8.328Y-1.592
X8.328Y-1.676
X8.394Y-1.098
X8.394Y-1.136
X8.418Y-1.928
X8.512Y-1.994
X8.556Y-1.396
X8.556Y-1.432
X8.556Y-1.468
X8.562Y-1.636
T4
X6.1062Y-0.72
X6.1062Y-3.02
X6.1278Y-0.6678
X6.1278Y-0.7722
X6.1278Y-2.9678
X6.1278Y-3.0722
X6.18Y-0.6462
X6.18Y-0.7938
X6.18Y-2.9462
X6.18Y-3.0938
X6.2322Y-0.6678
X6.2322Y-0.7722
X6.2322Y-2.9678
X6.2322Y-3.0722
X6.2538Y-0.72
X6.2538Y-3.02
X7.1682Y-1.7497
X7.2174Y-1.7497
X7.2666Y-1.7497
X7.3158Y-1.7497
X7.3362Y-2.9403
X7.3854Y-2.9403
X7.4346Y-2.9403
X7.4838Y-2.9403
X8.4414Y-2.1411
X8.4414Y-2.1805
X8.4414Y-2.2199
X8.4414Y-2.2593
X8.448Y-2.429
X8.448Y-2.4684
X8.448Y-2.5078
X8.448Y-2.5471
X8.448Y-2.5865
X8.448Y-2.6259
X8.448Y-2.6653
X8.448Y-2.7046
X8.448Y-2.744
X8.5262Y-0.72
X8.5262Y-3.02
X8.5478Y-0.6678
X8.5478Y-0.7722
X8.5478Y-2.9678
X8.5478Y-3.0722
X8.6Y-0.6462
X8.6Y-0.7938
X8.6Y-2.9462
X8.6Y-3.0938
X8.632Y-2.5559
X8.632Y-2.5953
X8.632Y-2.6346
X8.632Y-2.674
X8.64Y-2.2579
X8.64Y-2.2973
X8.64Y-2.3366
X8.64Y-2.376
X8.6522Y-0.6678
X8.6522Y-0.7722
X8.6522Y-2.9678
X8.6522Y-3.0722
X8.6738Y-0.72
X8.6738Y-3.02
T7
X6.7454Y-1.0938
X6.7999Y-0.982
X6.8544Y-1.0938
X6.9089Y-0.982
X6.9635Y-1.0938
X7.018Y-0.982
X7.0725Y-1.0938
X7.1271Y-0.982
X7.1816Y-1.0938
T8
X8.2422Y-0.7736
X8.38Y-0.7736
T9
X6.18Y-0.72
X6.18Y-3.02
X8.6Y-0.72
X8.6Y-3.02
T10
X6.4713Y-1.0379
X7.4556Y-1.0379
T5
G00X7.7476Y-0.7017
M15
G01X7.7476Y-0.6762
M16
G05
G00X8.0528Y-0.7017
M15
G01X8.0528Y-0.6762
M16
G05
T6
G00X7.7535Y-0.8494
M15
G01X7.7535Y-0.8277
M16
G05
G00X8.0469Y-0.8494
M15
G01X8.0469Y-0.8277
M16
G05
T0
M30
