%TF.GenerationSoftware,KiCad,Pcbnew,(6.0.1)*%
%TF.CreationDate,2022-05-20T13:38:49+06:30*%
%TF.ProjectId,STM32_Com_Buck,53544d33-325f-4436-9f6d-5f4275636b2e,v1.0*%
%TF.SameCoordinates,Original*%
%TF.FileFunction,Soldermask,Bot*%
%TF.FilePolarity,Negative*%
%FSLAX46Y46*%
G04 Gerber Fmt 4.6, Leading zero omitted, Abs format (unit mm)*
G04 Created by KiCad (PCBNEW (6.0.1)) date 2022-05-20 13:38:49*
%MOMM*%
%LPD*%
G01*
G04 APERTURE LIST*
G04 Aperture macros list*
%AMRoundRect*
0 Rectangle with rounded corners*
0 $1 Rounding radius*
0 $2 $3 $4 $5 $6 $7 $8 $9 X,Y pos of 4 corners*
0 Add a 4 corners polygon primitive as box body*
4,1,4,$2,$3,$4,$5,$6,$7,$8,$9,$2,$3,0*
0 Add four circle primitives for the rounded corners*
1,1,$1+$1,$2,$3*
1,1,$1+$1,$4,$5*
1,1,$1+$1,$6,$7*
1,1,$1+$1,$8,$9*
0 Add four rect primitives between the rounded corners*
20,1,$1+$1,$2,$3,$4,$5,0*
20,1,$1+$1,$4,$5,$6,$7,0*
20,1,$1+$1,$6,$7,$8,$9,0*
20,1,$1+$1,$8,$9,$2,$3,0*%
G04 Aperture macros list end*
%ADD10C,0.900000*%
%ADD11C,0.800000*%
%ADD12C,5.000000*%
%ADD13O,0.800000X0.800000*%
%ADD14O,1.150000X1.800000*%
%ADD15O,1.450000X2.000000*%
%ADD16RoundRect,0.200000X0.200000X0.450000X-0.200000X0.450000X-0.200000X-0.450000X0.200000X-0.450000X0*%
%ADD17O,0.800000X1.300000*%
%ADD18R,0.850000X0.850000*%
%ADD19O,0.850000X0.850000*%
%ADD20R,2.400000X2.400000*%
%ADD21C,2.400000*%
%ADD22C,4.000000*%
%ADD23R,1.600000X1.600000*%
%ADD24C,1.600000*%
%ADD25RoundRect,0.200000X-0.200000X-0.450000X0.200000X-0.450000X0.200000X0.450000X-0.200000X0.450000X0*%
G04 APERTURE END LIST*
D10*
%TO.C,SW1*%
X157505600Y-34314000D03*
X157505600Y-37314000D03*
%TD*%
D11*
%TO.C,H3*%
X156972000Y-74833000D03*
D12*
X156972000Y-76708000D03*
D11*
X158847000Y-76708000D03*
X158297825Y-75382175D03*
X156972000Y-78583000D03*
X155097000Y-76708000D03*
X158297825Y-78033825D03*
X155646175Y-75382175D03*
X155646175Y-78033825D03*
%TD*%
%TO.C,H1*%
X217114175Y-78033825D03*
X218440000Y-78583000D03*
X219765825Y-75382175D03*
D12*
X218440000Y-76708000D03*
D11*
X219765825Y-78033825D03*
X218440000Y-74833000D03*
X216565000Y-76708000D03*
X217114175Y-75382175D03*
X220315000Y-76708000D03*
%TD*%
D13*
%TO.C,J2*%
X198165000Y-20249400D03*
X203165000Y-20249400D03*
D14*
X204540000Y-17499400D03*
D15*
X204390000Y-21299400D03*
X196940000Y-21299400D03*
D14*
X196790000Y-17499400D03*
%TD*%
D16*
%TO.C,J9*%
X190089000Y-74683200D03*
D17*
X188839000Y-74683200D03*
X187589000Y-74683200D03*
X186339000Y-74683200D03*
%TD*%
D11*
%TO.C,H4*%
X158847000Y-18288000D03*
X156972000Y-16413000D03*
D12*
X156972000Y-18288000D03*
D11*
X155097000Y-18288000D03*
X158297825Y-19613825D03*
X155646175Y-16962175D03*
X155646175Y-19613825D03*
X158297825Y-16962175D03*
X156972000Y-20163000D03*
%TD*%
D18*
%TO.C,J11*%
X214412000Y-57385200D03*
D19*
X214412000Y-56385200D03*
X214412000Y-55385200D03*
X214412000Y-54385200D03*
%TD*%
D11*
%TO.C,H2*%
X216565000Y-18288000D03*
X218440000Y-16413000D03*
X219765825Y-19613825D03*
X218440000Y-20163000D03*
D12*
X218440000Y-18288000D03*
D11*
X217114175Y-19613825D03*
X217114175Y-16962175D03*
X220315000Y-18288000D03*
X219765825Y-16962175D03*
%TD*%
D20*
%TO.C,J3*%
X212852000Y-19648400D03*
D21*
X209352000Y-19648400D03*
%TD*%
D18*
%TO.C,J12*%
X214579200Y-69697600D03*
D19*
X214579200Y-68697600D03*
X214579200Y-67697600D03*
X214579200Y-66697600D03*
X214579200Y-65697600D03*
X214579200Y-64697600D03*
X214579200Y-63697600D03*
X214579200Y-62697600D03*
X214579200Y-61697600D03*
%TD*%
D18*
%TO.C,J15*%
X219456000Y-57350400D03*
D19*
X219456000Y-58350400D03*
X219456000Y-59350400D03*
X219456000Y-60350400D03*
%TD*%
D22*
%TO.C,J1*%
X164372200Y-26362800D03*
X189372200Y-26362800D03*
D23*
X182412200Y-27782800D03*
D24*
X179642200Y-27782800D03*
X176872200Y-27782800D03*
X174102200Y-27782800D03*
X171332200Y-27782800D03*
X181027200Y-24942800D03*
X178257200Y-24942800D03*
X175487200Y-24942800D03*
X172717200Y-24942800D03*
%TD*%
D18*
%TO.C,J14*%
X219252800Y-64919600D03*
D19*
X219252800Y-65919600D03*
X219252800Y-66919600D03*
X219252800Y-67919600D03*
%TD*%
D25*
%TO.C,J10*%
X182071800Y-44442800D03*
D17*
X183321800Y-44442800D03*
X184571800Y-44442800D03*
X185821800Y-44442800D03*
%TD*%
M02*
